<svg width="58" height="43" viewBox="0 0 58 43" fill="none" xmlns="http://www.w3.org/2000/svg">
<path opacity="0.2" d="M13.745 6.01819C11.1817 7.01429 8.75248 8.13569 6.27052 9.23291L5.93415 9.27031C5.3142 9.36929 4.88993 9.87716 4.91197 10.5257L5.01536 11.2754C5.59613 16.1383 7.89824 20.4493 9.35398 25.0747C9.43974 25.3055 9.9388 25.4704 10.1982 25.4616C10.7698 25.4681 11.1457 25.0658 11.3347 24.514C11.926 22.8057 11.8159 21.0953 11.3695 19.4223C10.8659 17.5955 10.3338 15.6916 9.77741 13.8406C9.83017 13.8648 9.9357 13.9131 9.96428 13.9901C12.3717 15.2848 14.7549 16.6322 17.2349 17.7686C21.2164 19.5293 25.3232 21.1558 29.3289 22.8637C35.9203 27.2887 43.4919 29.9922 50.624 33.5158C50.9406 33.6608 51.6375 33.5333 51.8925 33.3947C52.4509 33.0122 52.2222 32.3966 51.7868 31.8141C50.2654 29.84 48.003 28.2287 45.5714 26.9868C39.7541 23.938 33.9323 20.7594 27.7721 18.3196C27.0576 17.9284 26.343 17.5371 25.6043 17.1986C21.1105 14.884 16.5969 12.7518 11.9427 11.066C14.6929 10.2194 17.3331 9.19468 19.8832 7.80945C20.7252 7.3653 21.1934 6.62218 20.7976 5.67468C20.4304 4.80412 19.5334 4.39308 18.6584 4.63058C17.0096 5.02424 15.3081 5.39371 13.745 6.01819Z" fill="#233746"/>
</svg>
