<svg width="57" height="39" viewBox="0 0 57 39" fill="none" xmlns="http://www.w3.org/2000/svg">
<path opacity="0.2" d="M18.7096 31.6293C19.4849 32.149 19.8831 32.9757 19.3457 33.877C18.8799 34.6341 17.9448 34.8886 17.1342 34.6209C15.5671 34.0674 13.9999 33.5138 12.5582 32.7979C10.1614 31.5628 7.90821 30.2193 5.60109 28.8939C4.82682 28.7341 4.32076 27.9437 4.49874 27.2233L4.60563 26.8271C5.65437 22.0913 8.34286 18.1248 10.2384 13.7646C10.3458 13.5484 10.8494 13.439 11.1015 13.4743C11.6595 13.5268 11.9846 13.9578 12.1121 14.5153C12.5127 16.2418 12.2294 17.8982 11.6219 19.4835C10.8888 21.2311 10.2279 23.0145 9.49485 24.7622C9.54879 24.744 9.65666 24.7077 9.69246 24.6357C12.1731 23.6211 14.6356 22.5525 17.1707 21.6998C21.2342 20.3929 25.406 19.2297 29.4877 17.9767C36.3701 14.3406 44.0313 12.484 51.3482 9.7825C51.6718 9.67363 52.3382 9.86975 52.5726 10.0311C53.0777 10.4616 52.7913 11.0382 52.3069 11.5615C50.6201 13.3297 48.2483 14.6679 45.7495 15.6286C39.7634 18.0025 33.7596 20.5024 27.5019 22.2472C26.7649 22.5552 26.0279 22.8631 25.2728 23.1172C20.6885 24.8394 16.068 26.4537 11.3023 27.6365C13.861 28.8172 16.3657 30.0161 18.7096 31.6293Z" fill="#233746"/>
</svg>
