<?xml version="1.0" encoding="utf-8"?>
<!-- Generator: Adobe Illustrator 16.0.0, SVG Export Plug-In . SVG Version: 6.00 Build 0)  -->
<!DOCTYPE svg PUBLIC "-//W3C//DTD SVG 1.1//EN" "http://www.w3.org/Graphics/SVG/1.1/DTD/svg11.dtd">
<svg version="1.1" id="Layer_1" xmlns="http://www.w3.org/2000/svg" xmlns:xlink="http://www.w3.org/1999/xlink" x="0px" y="0px"
	 width="64px" height="64px" viewBox="0 0 64 64" enable-background="new 0 0 64 64" xml:space="preserve">
<g>
	<path fill="#FFFFFF" d="M31.883,24.264h2.344c0.971,0,1.758-0.787,1.758-1.758s-0.787-1.758-1.758-1.758h-2.344
		c-0.971,0-1.758,0.787-1.758,1.758S30.912,24.264,31.883,24.264z"/>
	<path fill="#FFFFFF" d="M24.852,20.748H10.789c-0.971,0-1.758,0.787-1.758,1.758s0.787,1.758,1.758,1.758h14.063
		c0.971,0,1.758-0.787,1.758-1.758S25.822,20.748,24.852,20.748z"/>
	<path fill="#FFFFFF" d="M31.883,31.295h2.344c0.971,0,1.758-0.787,1.758-1.758s-0.787-1.758-1.758-1.758h-2.344
		c-0.971,0-1.758,0.787-1.758,1.758S30.912,31.295,31.883,31.295z"/>
	<path fill="#FFFFFF" d="M24.852,27.779H10.789c-0.971,0-1.758,0.787-1.758,1.758s0.787,1.758,1.758,1.758h14.063
		c0.971,0,1.758-0.787,1.758-1.758S25.822,27.779,24.852,27.779z"/>
	<path fill="#FFFFFF" d="M24.852,34.811H10.789c-0.971,0-1.758,0.787-1.758,1.758c0,0.971,0.787,1.758,1.758,1.758h14.063
		c0.971,0,1.758-0.787,1.758-1.758C26.609,35.597,25.822,34.811,24.852,34.811z"/>
	<path fill="#FFFFFF" d="M24.852,41.842H10.789c-0.971,0-1.758,0.787-1.758,1.757c0,0.971,0.787,1.758,1.758,1.758h14.063
		c0.971,0,1.758-0.787,1.758-1.758C26.609,42.629,25.822,41.842,24.852,41.842z"/>
	<path fill="#FFFFFF" d="M24.852,48.873H10.789c-0.971,0-1.758,0.787-1.758,1.758s0.787,1.758,1.758,1.758h14.063
		c0.971,0,1.758-0.787,1.758-1.758S25.822,48.873,24.852,48.873z"/>
	<path fill="#FFFFFF" d="M56.609,35.128c-0.324-0.185-0.659-0.35-1.004-0.496c1.124-1.643,1.783-3.627,1.783-5.764v-1.442
		c0-0.971-0.787-1.758-1.758-1.758h-1.441c-3.538,0-6.661,1.804-8.5,4.541c-0.672-0.772-1.514-1.408-2.482-1.844
		c-0.063-0.028-0.127-0.052-0.191-0.072V11.959c0-0.971-0.787-1.758-1.758-1.758h-8.051c-1.025-1.477-2.514-2.596-4.254-3.16V3.756
		c0-0.971-0.787-1.758-1.758-1.758H17.82c-0.971,0-1.758,0.787-1.758,1.758v3.286c-1.741,0.564-3.229,1.683-4.255,3.16h-8.05
		C2.787,10.201,2,10.988,2,11.959V60.24c0,0.971,0.787,1.758,1.758,1.758h38.333c1.133,0,2.269-0.371,3.214-1.128l0.408-0.327
		l0.42,0.334c1.968,1.568,4.758,1.488,6.633-0.188l0.811-0.724c4.215-3.767,7.092-8.676,8.32-14.194
		c0.013-0.058,0.023-0.116,0.029-0.176C62.428,41.355,60.341,37.246,56.609,35.128z M53.865,29.192
		c-0.164,3.446-2.939,6.22-6.385,6.385C47.645,32.131,50.418,29.357,53.865,29.192z M43.016,32.493
		c0.505,0.568,0.83,1.286,0.916,2.059c-0.303-0.115-0.609-0.216-0.916-0.304V32.493z M18.038,10.188
		c0.88-0.11,1.54-0.857,1.54-1.744v-2.93h5.859v2.93c0,0.886,0.66,1.634,1.54,1.744c1.744,0.218,3.199,1.36,3.845,2.943H14.193
		C14.839,11.547,16.294,10.406,18.038,10.188z M5.516,13.717h4.887l-0.166,0.827c-0.104,0.516,0.03,1.052,0.364,1.459
		s0.833,0.644,1.359,0.644h21.094c0.526,0,1.025-0.236,1.359-0.644s0.467-0.943,0.364-1.459l-0.165-0.827H39.5v20.096
		c-1.653,0.063-3.264,0.506-4.703,1.328c-3.716,2.122-5.794,6.226-5.294,10.456c0.007,0.06,0.017,0.118,0.03,0.176
		c1.073,4.82,3.405,9.176,6.786,12.711H5.516V13.717z M58.445,45.098c-1.08,4.76-3.572,8.992-7.213,12.246l-0.809,0.725
		c-0.594,0.53-1.477,0.555-2.101,0.059l-0.456-0.363c-1.271-1.012-3.045-1.01-4.313,0.006l-0.444,0.355
		c-0.624,0.498-1.509,0.475-2.104-0.057l-0.81-0.725c-3.641-3.254-6.133-7.486-7.212-12.246c-0.296-2.795,1.093-5.498,3.557-6.904
		c2.018-1.152,4.696-1.146,6.99,0.017c0.82,0.416,1.389,0.702,1.389,0.702l0.004-0.002c0.237,0.121,0.506,0.19,0.791,0.19h1.441
		c2.057,0,3.973-0.611,5.579-1.659c0.775,0.129,1.493,0.377,2.14,0.743C57.348,39.589,58.742,42.295,58.445,45.098z"/>
</g>
</svg>
