<svg width="108" height="92" viewBox="0 0 108 92" fill="none" xmlns="http://www.w3.org/2000/svg">
<g filter="url(#filter0_d)">
<path fill-rule="evenodd" clip-rule="evenodd" d="M49.168 33.5274C49.168 35.1777 48.5456 36.6848 47.5242 37.8285C50.201 39.4604 51.9921 42.4077 51.9921 45.7656C51.9921 46.7364 51.2051 47.5234 50.2343 47.5234H35.1718C34.2011 47.5234 33.414 46.7364 33.414 45.7656C33.414 42.4077 35.2051 39.4603 37.882 37.8284C36.8608 36.6848 36.2384 35.1777 36.2384 33.5274C36.2384 29.9626 39.1384 27.0625 42.7031 27.0625C46.2679 27.0625 49.168 29.9626 49.168 33.5274ZM45.6524 33.5274C45.6524 31.9012 44.3293 30.5781 42.7031 30.5781C41.0769 30.5781 39.754 31.9012 39.754 33.5274C39.754 35.1536 41.0769 36.4766 42.7031 36.4766C44.3293 36.4766 45.6524 35.1536 45.6524 33.5274ZM42.7031 39.9922C40.1323 39.9922 37.9485 41.6813 37.2032 44.0079H48.2031C47.4577 41.6812 45.274 39.9922 42.7031 39.9922Z" fill="white"/>
<path d="M72.8282 28.9453H59.6484C58.6777 28.9453 57.8906 29.7323 57.8906 30.7031C57.8906 31.6739 58.6777 32.4609 59.6484 32.4609H72.8282C73.7989 32.4609 74.586 31.6739 74.586 30.7031C74.586 29.7323 73.7989 28.9453 72.8282 28.9453Z" fill="white"/>
<path d="M35.1718 19.5312H72.8282C73.7989 19.5312 74.586 20.3182 74.586 21.289C74.586 22.2598 73.7989 23.0468 72.8282 23.0468H35.1718C34.2011 23.0468 33.414 22.2598 33.414 21.289C33.414 20.3182 34.2011 19.5312 35.1718 19.5312Z" fill="white"/>
<path d="M72.8282 36.4766H59.6484C58.6777 36.4766 57.8906 37.2636 57.8906 38.2344C57.8906 39.2052 58.6777 39.9922 59.6484 39.9922H72.8282C73.7989 39.9922 74.586 39.2052 74.586 38.2344C74.586 37.2636 73.7989 36.4766 72.8282 36.4766Z" fill="white"/>
<path d="M59.6484 44.0079H69.0625C70.0332 44.0079 70.8203 44.7949 70.8203 45.7657C70.8203 46.7365 70.0332 47.5235 69.0625 47.5235H59.6484C58.6777 47.5235 57.8906 46.7365 57.8906 45.7657C57.8906 44.7949 58.6777 44.0079 59.6484 44.0079Z" fill="white"/>
<path fill-rule="evenodd" clip-rule="evenodd" d="M29.5235 12H78.4765C81.4934 12 84 14.437 84 17.5235V49.5312C84 52.548 81.5628 55.0547 78.4765 55.0547H29.5235C26.5066 55.0547 24 52.6175 24 49.5313V17.5235C24 14.5067 26.4372 12 29.5235 12ZM78.4765 51.5391C79.587 51.5391 80.4844 50.6393 80.4844 49.5312V17.5235C80.4844 16.4131 79.5846 15.5156 78.4765 15.5156H29.5235C28.413 15.5156 27.5156 16.4154 27.5156 17.5235V49.5312C27.5156 50.6417 28.4154 51.5391 29.5235 51.5391H78.4765Z" fill="white"/>
</g>
<defs>
<filter id="filter0_d" x="0" y="0" width="108" height="91.0547" filterUnits="userSpaceOnUse" color-interpolation-filters="sRGB">
<feFlood flood-opacity="0" result="BackgroundImageFix"/>
<feColorMatrix in="SourceAlpha" type="matrix" values="0 0 0 0 0 0 0 0 0 0 0 0 0 0 0 0 0 0 127 0"/>
<feOffset dy="12"/>
<feGaussianBlur stdDeviation="12"/>
<feColorMatrix type="matrix" values="0 0 0 0 0 0 0 0 0 0.701961 0 0 0 0 0.309804 0 0 0 0.3 0"/>
<feBlend mode="normal" in2="BackgroundImageFix" result="effect1_dropShadow"/>
<feBlend mode="normal" in="SourceGraphic" in2="effect1_dropShadow" result="shape"/>
</filter>
</defs>
</svg>
