<?xml version="1.0" encoding="utf-8"?>
<!-- Generator: Adobe Illustrator 16.0.0, SVG Export Plug-In . SVG Version: 6.00 Build 0)  -->
<!DOCTYPE svg PUBLIC "-//W3C//DTD SVG 1.1//EN" "http://www.w3.org/Graphics/SVG/1.1/DTD/svg11.dtd">
<svg version="1.1" id="Layer_1" xmlns="http://www.w3.org/2000/svg" xmlns:xlink="http://www.w3.org/1999/xlink" x="0px" y="0px"
	 width="64px" height="48px" viewBox="0 0 64 48" enable-background="new 0 0 64 48" xml:space="preserve">
<g>
	<path fill="#FFFFFF" d="M27.168,24c0,1.65-0.623,3.157-1.644,4.301c2.677,1.632,4.468,4.579,4.468,7.937
		c0,0.971-0.787,1.758-1.758,1.758H13.172c-0.971,0-1.758-0.787-1.758-1.758c0-3.358,1.791-6.305,4.468-7.937
		c-1.021-1.144-1.644-2.651-1.644-4.301c0-3.565,2.9-6.465,6.465-6.465S27.168,20.435,27.168,24z M23.652,24
		c0-1.626-1.323-2.949-2.949-2.949c-1.626,0-2.949,1.323-2.949,2.949c0,1.626,1.323,2.949,2.949,2.949
		C22.329,26.949,23.652,25.626,23.652,24z M20.703,30.465c-2.571,0-4.754,1.689-5.5,4.016h11
		C25.458,32.154,23.274,30.465,20.703,30.465z"/>
	<path fill="#FFFFFF" d="M50.828,19.418h-13.18c-0.971,0-1.758,0.787-1.758,1.758s0.787,1.758,1.758,1.758h13.18
		c0.971,0,1.758-0.787,1.758-1.758S51.799,19.418,50.828,19.418z"/>
	<path fill="#FFFFFF" d="M13.172,10.004h37.656c0.971,0,1.758,0.787,1.758,1.758s-0.787,1.758-1.758,1.758H13.172
		c-0.971,0-1.758-0.787-1.758-1.758S12.201,10.004,13.172,10.004z"/>
	<path fill="#FFFFFF" d="M50.828,26.949h-13.18c-0.971,0-1.758,0.787-1.758,1.758s0.787,1.758,1.758,1.758h13.18
		c0.971,0,1.758-0.787,1.758-1.758S51.799,26.949,50.828,26.949z"/>
	<path fill="#FFFFFF" d="M37.648,34.48h9.414c0.971,0,1.758,0.787,1.758,1.758s-0.787,1.758-1.758,1.758h-9.414
		c-0.971,0-1.758-0.787-1.758-1.758S36.678,34.48,37.648,34.48z"/>
	<path fill="#FFFFFF" d="M7.523,2.473h48.953C59.494,2.473,62,4.91,62,7.996v32.008c0,3.017-2.438,5.523-5.523,5.523H7.523
		C4.506,45.527,2,43.09,2,40.004V7.996C2,4.979,4.437,2.473,7.523,2.473z M56.477,42.012c1.11,0,2.008-0.9,2.008-2.008V7.996
		c0-1.11-0.9-2.008-2.008-2.008H7.523c-1.11,0-2.008,0.9-2.008,2.008v32.008c0,1.11,0.9,2.008,2.008,2.008H56.477z"/>
</g>
</svg>
