<?xml version="1.0" encoding="utf-8"?>
<!-- Generator: Adobe Illustrator 16.0.0, SVG Export Plug-In . SVG Version: 6.00 Build 0)  -->
<!DOCTYPE svg PUBLIC "-//W3C//DTD SVG 1.1//EN" "http://www.w3.org/Graphics/SVG/1.1/DTD/svg11.dtd">
<svg version="1.1" id="Layer_1" xmlns="http://www.w3.org/2000/svg" xmlns:xlink="http://www.w3.org/1999/xlink" x="0px" y="0px"
	 width="48px" height="64px" viewBox="0 0 48 64" enable-background="new 0 0 48 64" xml:space="preserve">
<g>
	<path fill="#FFFFFF" d="M24,25.672c2.908,0,5.273-2.366,5.273-5.273S26.908,15.125,24,15.125c-2.908,0-5.273,2.366-5.273,5.273
		S21.092,25.672,24,25.672z M24,18.641c0.969,0,1.758,0.789,1.758,1.758S24.969,22.156,24,22.156c-0.969,0-1.758-0.789-1.758-1.758
		S23.031,18.641,24,18.641z"/>
	<path fill="#FFFFFF" d="M18.023,34.227c-4.846,0-8.789,3.943-8.789,8.789c0,4.846,3.943,8.789,8.789,8.789s8.789-3.943,8.789-8.789
		C26.813,38.169,22.87,34.227,18.023,34.227z M18.023,48.289c-2.908,0-5.273-2.365-5.273-5.273c0-2.908,2.366-5.273,5.273-5.273
		s5.273,2.366,5.273,5.273C23.297,45.924,20.931,48.289,18.023,48.289z"/>
	<path fill="#FFFFFF" d="M32.086,27.195c2.908,0,5.273,2.365,5.273,5.273c0,2.908-2.365,5.273-5.273,5.273s-5.273-2.366-5.273-5.273
		C26.813,29.561,29.178,27.195,32.086,27.195z M30.328,32.469c0,0.969,0.789,1.758,1.758,1.758s1.758-0.789,1.758-1.758
		s-0.789-1.758-1.758-1.758S30.328,31.5,30.328,32.469z"/>
	<path fill="#FFFFFF" d="M36.305,47.234c0.971,0,1.758-0.787,1.758-1.758s-0.787-1.758-1.758-1.758s-1.758,0.787-1.758,1.758
		S35.334,47.234,36.305,47.234z"/>
	<path fill="#FFFFFF" d="M17.203,28.133c0,0.971-0.787,1.758-1.758,1.758s-1.758-0.787-1.758-1.758c0-0.971,0.787-1.758,1.758-1.758
		S17.203,27.162,17.203,28.133z"/>
	<path fill="#FFFFFF" d="M29.273,54.266c0.971,0,1.758-0.787,1.758-1.758s-0.787-1.758-1.758-1.758s-1.758,0.787-1.758,1.758
		S28.303,54.266,29.273,54.266z"/>
	<path fill="#FFFFFF" d="M25.246,2.518c0.214,0.215,5.283,5.335,10.432,12.439c7.025,9.696,10.588,18.032,10.588,24.777
		c0,6.372-2.436,12.15-6.857,16.272C35.32,59.815,29.705,62,24,62c-5.705,0-11.321-2.185-15.407-5.993
		c-4.423-4.122-6.858-9.9-6.858-16.272c0-6.745,3.563-15.081,10.588-24.777C17.471,7.853,22.541,2.733,22.754,2.518
		C23.44,1.827,24.56,1.827,25.246,2.518z M5.25,39.734c0,12.179,9.661,18.75,18.75,18.75c9.09,0,18.75-6.571,18.75-18.75
		c0-12.321-14.374-28.721-18.75-33.427C19.626,11.015,5.25,27.424,5.25,39.734z"/>
</g>
</svg>
