<?xml version="1.0" encoding="utf-8"?>
<!-- Generator: Adobe Illustrator 16.0.0, SVG Export Plug-In . SVG Version: 6.00 Build 0)  -->
<!DOCTYPE svg PUBLIC "-//W3C//DTD SVG 1.1//EN" "http://www.w3.org/Graphics/SVG/1.1/DTD/svg11.dtd">
<svg version="1.1" id="Layer_1" xmlns="http://www.w3.org/2000/svg" xmlns:xlink="http://www.w3.org/1999/xlink" x="0px" y="0px"
	 width="64px" height="64px" viewBox="0 0 64 64" enable-background="new 0 0 64 64" xml:space="preserve">
<g>
	<path fill="#FFFFFF" d="M12.543,21.336c0,0.971-0.787,1.758-1.757,1.758c-0.971,0-1.758-0.787-1.758-1.758s0.787-1.758,1.758-1.758
		C11.756,19.578,12.543,20.365,12.543,21.336z"/>
	<path fill="#FFFFFF" d="M40.906,21.336c0,0.971-0.787,1.758-1.758,1.758H17.82c-0.971,0-1.758-0.787-1.758-1.758
		s0.787-1.758,1.758-1.758h21.328C40.119,19.578,40.906,20.365,40.906,21.336z"/>
	<path fill="#FFFFFF" d="M12.543,32c0,0.971-0.787,1.758-1.757,1.758c-0.971,0-1.758-0.787-1.758-1.758s0.787-1.758,1.758-1.758
		C11.756,30.242,12.543,31.029,12.543,32z"/>
	<path fill="#FFFFFF" d="M40.906,32c0,0.971-0.787,1.758-1.758,1.758H17.82c-0.971,0-1.758-0.787-1.758-1.758
		s0.787-1.758,1.758-1.758h21.328C40.119,30.242,40.906,31.029,40.906,32z"/>
	<path fill="#FFFFFF" d="M12.543,42.547c0,0.971-0.787,1.758-1.757,1.758c-0.971,0-1.758-0.787-1.758-1.758s0.787-1.758,1.758-1.758
		C11.756,40.789,12.543,41.576,12.543,42.547z"/>
	<path fill="#FFFFFF" d="M40.906,42.547c0,0.971-0.787,1.758-1.758,1.758H17.82c-0.971,0-1.758-0.787-1.758-1.758
		s0.787-1.758,1.758-1.758h21.328C40.119,40.789,40.906,41.576,40.906,42.547z"/>
	<path fill="#FFFFFF" d="M12.543,53.211c0,0.971-0.787,1.758-1.757,1.758c-0.971,0-1.758-0.787-1.758-1.758s0.787-1.758,1.758-1.758
		C11.756,51.453,12.543,52.24,12.543,53.211z"/>
	<path fill="#FFFFFF" d="M40.906,53.211c0,0.971-0.787,1.758-1.758,1.758H17.82c-0.971,0-1.758-0.787-1.758-1.758
		s0.787-1.758,1.758-1.758h21.328C40.119,51.453,40.906,52.24,40.906,53.211z"/>
	<path fill="#FFFFFF" d="M47.938,56.727c0,2.908-2.365,5.273-5.273,5.273H7.273C4.366,62,2,59.635,2,56.727V14.305
		c0-2.908,2.366-5.273,5.273-5.273h5.576c0.726-2.046,2.68-3.516,4.971-3.516h2.176C20.722,3.469,22.677,2,24.969,2
		s4.247,1.469,4.972,3.516H32c2.291,0,4.245,1.47,4.971,3.516h5.693c2.908,0,5.273,2.366,5.273,5.273V56.727z M21.453,9.031H17.82
		c-0.969,0-1.758,0.789-1.758,1.758v1.758h17.695v-1.758c0-0.969-0.789-1.758-1.758-1.758h-3.516c-0.971,0-1.758-0.787-1.758-1.758
		c0-0.969-0.789-1.758-1.758-1.758s-1.758,0.789-1.758,1.758C23.211,8.244,22.424,9.031,21.453,9.031z M7.273,12.547
		c-0.969,0-1.758,0.789-1.758,1.758v42.422c0,0.969,0.789,1.758,1.758,1.758h35.391c0.969,0,1.758-0.789,1.758-1.758V14.305
		c0-0.969-0.789-1.758-1.758-1.758h-5.391v1.758c0,0.971-0.787,1.758-1.758,1.758H14.305c-0.971,0-1.758-0.787-1.758-1.758v-1.758
		H7.273z"/>
	<path fill="#FFFFFF" d="M51.453,10.906c0-2.908,2.365-5.273,5.273-5.273S62,7.999,62,10.906v37.333
		c0,3.425-1.243,6.659-3.516,9.187v2.816c0,0.971-0.787,1.758-1.758,1.758s-1.758-0.787-1.758-1.758v-2.816
		c-2.272-2.527-3.516-5.762-3.516-9.187V10.906z M58.484,10.906c0-0.969-0.789-1.758-1.758-1.758s-1.758,0.789-1.758,1.758v19.336
		h3.516V10.906z M54.969,48.239c0,2.078,0.615,4.062,1.758,5.743c1.143-1.682,1.758-3.665,1.758-5.743V33.758h-3.516V48.239z"/>
</g>
</svg>
