<svg width="108" height="108" viewBox="0 0 108 108" fill="none" xmlns="http://www.w3.org/2000/svg">
<g filter="url(#filter0_d)">
<path d="M59.3941 12C58.4119 12 57.6155 12.7964 57.6155 13.7787V21.6047C57.6155 22.5869 58.4119 23.3834 59.3941 23.3834C60.3764 23.3834 61.1728 22.5869 61.1728 21.6047V13.7787C61.1728 12.7964 60.3764 12 59.3941 12Z" fill="white"/>
<path fill-rule="evenodd" clip-rule="evenodd" d="M76.9493 57.1544C76.1405 56.023 75.7003 54.6662 75.7003 53.2623C75.7003 51.6117 76.3066 50.0254 77.4075 48.7956C77.8754 48.273 77.9925 47.5239 77.7062 46.8835C77.4199 46.243 76.784 45.8306 76.0825 45.8306H68.006C70.0514 43.7229 71.3128 40.8505 71.3128 37.6886V27.379C71.3128 26.3967 70.5164 25.6003 69.5341 25.6003H44.3927C43.4105 25.6003 42.6141 26.3967 42.6141 27.379V28.4822H42.0834C38.193 28.4822 35.028 31.6471 35.028 35.5376C35.028 39.4281 38.193 42.593 42.0834 42.593H43.6931C44.2512 43.7965 45.0076 44.8899 45.9209 45.8307H31.4317C27.3337 45.8307 24 49.1645 24 53.2624C24 57.1964 27.0731 60.4245 30.9445 60.6763C31.7534 61.8075 32.1935 63.1643 32.1935 64.5683C32.1935 66.2188 31.5872 67.8052 30.4862 69.0352C30.0184 69.5578 29.9013 70.3068 30.1876 70.9472C30.4739 71.5876 31.1099 72 31.8114 72H76.4621C80.5601 72 83.8938 68.6663 83.8938 64.5683C83.8938 60.6342 80.8206 57.4064 76.9493 57.1544ZM42.0834 39.0356C40.1545 39.0356 38.5854 37.4665 38.5854 35.5376C38.5854 33.6087 40.1545 32.0395 42.0834 32.0395H42.6141V37.6886C42.6141 38.1442 42.6411 38.5934 42.6921 39.0356H42.0834ZM46.1713 29.1577H67.7552V37.6886C67.7552 42.1781 64.1027 45.8306 59.6132 45.8306H54.3134C49.8238 45.8306 46.1713 42.1781 46.1713 37.6886V29.1577ZM31.4317 57.1368C29.2952 57.1366 27.5573 55.3986 27.5573 53.2624C27.5573 51.126 29.2954 49.3881 31.4317 49.3881H72.902C72.4045 50.6072 72.143 51.921 72.143 53.2624C72.143 54.6039 72.4045 55.9177 72.9021 57.1368H31.4317ZM76.4621 68.4427H34.9918C35.4894 67.2235 35.751 65.9099 35.751 64.5683C35.751 63.2269 35.4894 61.913 34.992 60.694H76.4621C78.5986 60.694 80.3365 62.432 80.3365 64.5683C80.3365 66.7046 78.5985 68.4427 76.4621 68.4427Z" fill="white"/>
<path d="M52.7539 17.6917C52.7539 16.7094 53.5502 15.913 54.5325 15.913C55.5148 15.913 56.3111 16.7094 56.3112 17.6917V21.6047C56.3112 22.587 55.5148 23.3834 54.5325 23.3834C53.5502 23.3834 52.7539 22.587 52.7539 21.6047V17.6917Z" fill="white"/>
</g>
<defs>
<filter id="filter0_d" x="0" y="0" width="107.894" height="108" filterUnits="userSpaceOnUse" color-interpolation-filters="sRGB">
<feFlood flood-opacity="0" result="BackgroundImageFix"/>
<feColorMatrix in="SourceAlpha" type="matrix" values="0 0 0 0 0 0 0 0 0 0 0 0 0 0 0 0 0 0 127 0"/>
<feOffset dy="12"/>
<feGaussianBlur stdDeviation="12"/>
<feColorMatrix type="matrix" values="0 0 0 0 0 0 0 0 0 0.701961 0 0 0 0 0.309804 0 0 0 0.3 0"/>
<feBlend mode="normal" in2="BackgroundImageFix" result="effect1_dropShadow"/>
<feBlend mode="normal" in="SourceGraphic" in2="effect1_dropShadow" result="shape"/>
</filter>
</defs>
</svg>
