<svg width="108" height="108" viewBox="0 0 108 108" fill="none" xmlns="http://www.w3.org/2000/svg">
<g filter="url(#filter0_d)">
<path d="M34.5437 31.3359C34.5437 32.3069 33.7563 33.0938 32.7859 33.0938C31.8149 33.0938 31.028 32.3069 31.028 31.3359C31.028 30.365 31.8149 29.5781 32.7859 29.5781C33.7563 29.5781 34.5437 30.365 34.5437 31.3359Z" fill="white"/>
<path d="M62.9062 31.3359C62.9062 32.3069 62.1194 33.0938 61.1484 33.0938H39.8203C38.8494 33.0938 38.0625 32.3069 38.0625 31.3359C38.0625 30.365 38.8494 29.5781 39.8203 29.5781H61.1484C62.1194 29.5781 62.9062 30.365 62.9062 31.3359Z" fill="white"/>
<path d="M34.5437 42C34.5437 42.9709 33.7563 43.7578 32.7859 43.7578C31.8149 43.7578 31.028 42.9709 31.028 42C31.028 41.0291 31.8149 40.2422 32.7859 40.2422C33.7563 40.2422 34.5437 41.0291 34.5437 42Z" fill="white"/>
<path d="M62.9062 42C62.9062 42.9709 62.1194 43.7578 61.1484 43.7578H39.8203C38.8494 43.7578 38.0625 42.9709 38.0625 42C38.0625 41.0291 38.8494 40.2422 39.8203 40.2422H61.1484C62.1194 40.2422 62.9062 41.0291 62.9062 42Z" fill="white"/>
<path d="M34.5437 52.5469C34.5437 53.5178 33.7563 54.3047 32.7859 54.3047C31.8149 54.3047 31.028 53.5178 31.028 52.5469C31.028 51.576 31.8149 50.7891 32.7859 50.7891C33.7563 50.7891 34.5437 51.576 34.5437 52.5469Z" fill="white"/>
<path d="M62.9062 52.5469C62.9062 53.5178 62.1194 54.3047 61.1484 54.3047H39.8203C38.8494 54.3047 38.0625 53.5178 38.0625 52.5469C38.0625 51.576 38.8494 50.7891 39.8203 50.7891H61.1484C62.1194 50.7891 62.9062 51.576 62.9062 52.5469Z" fill="white"/>
<path d="M34.5437 63.2109C34.5437 64.1819 33.7563 64.9688 32.7859 64.9688C31.8149 64.9688 31.028 64.1819 31.028 63.2109C31.028 62.24 31.8149 61.4531 32.7859 61.4531C33.7563 61.4531 34.5437 62.24 34.5437 63.2109Z" fill="white"/>
<path d="M62.9062 63.2109C62.9062 64.1819 62.1194 64.9688 61.1484 64.9688H39.8203C38.8494 64.9688 38.0625 64.1819 38.0625 63.2109C38.0625 62.24 38.8494 61.4531 39.8203 61.4531H61.1484C62.1194 61.4531 62.9062 62.24 62.9062 63.2109Z" fill="white"/>
<path fill-rule="evenodd" clip-rule="evenodd" d="M69.9375 66.7266C69.9375 69.6343 67.5718 72 64.6641 72H29.2734C26.3657 72 24 69.6343 24 66.7266V24.3047C24 21.397 26.3657 19.0312 29.2734 19.0312H34.849C35.575 16.9855 37.5287 15.5156 39.8203 15.5156H41.9965C42.7221 13.4694 44.6767 12 46.9688 12C49.2608 12 51.2154 13.4694 51.941 15.5156H54C56.2916 15.5156 58.2453 16.9855 58.9713 19.0312H64.6641C67.5718 19.0312 69.9375 21.397 69.9375 24.3047V66.7266ZM43.4531 19.0312H39.8203C38.8512 19.0312 38.0625 19.82 38.0625 20.7891V22.5469H55.7578V20.7891C55.7578 19.82 54.9691 19.0312 54 19.0312H50.4844C49.5135 19.0312 48.7266 18.2444 48.7266 17.2734C48.7266 16.3044 47.9378 15.5156 46.9688 15.5156C45.9997 15.5156 45.2109 16.3044 45.2109 17.2734C45.2109 18.2444 44.424 19.0312 43.4531 19.0312ZM29.2734 22.5469C28.3044 22.5469 27.5156 23.3356 27.5156 24.3047V66.7266C27.5156 67.6956 28.3044 68.4844 29.2734 68.4844H64.6641C65.6331 68.4844 66.4219 67.6956 66.4219 66.7266V24.3047C66.4219 23.3356 65.6331 22.5469 64.6641 22.5469H59.2734V24.3047C59.2734 25.2756 58.4865 26.0625 57.5156 26.0625H36.3047C35.3338 26.0625 34.5469 25.2756 34.5469 24.3047V22.5469H29.2734Z" fill="white"/>
<path fill-rule="evenodd" clip-rule="evenodd" d="M73.4531 20.9062C73.4531 17.9985 75.8188 15.6328 78.7266 15.6328C81.6343 15.6328 84 17.9985 84 20.9062V58.2392C84 61.6642 82.7567 64.8978 80.4844 67.4256V70.2422C80.4844 71.2131 79.6975 72 78.7266 72C77.7556 72 76.9688 71.2131 76.9688 70.2422V67.4256C74.6964 64.8978 73.4531 61.6642 73.4531 58.2392V20.9062ZM80.4844 20.9062C80.4844 19.9372 79.6956 19.1484 78.7266 19.1484C77.7575 19.1484 76.9688 19.9372 76.9688 20.9062V40.2422H80.4844V20.9062ZM76.9688 58.2392C76.9688 60.3174 77.5835 62.3009 78.7266 63.9827C79.8696 62.3009 80.4844 60.3174 80.4844 58.2392V43.7578H76.9688V58.2392Z" fill="white"/>
</g>
<defs>
<filter id="filter0_d" x="0" y="0" width="108" height="108" filterUnits="userSpaceOnUse" color-interpolation-filters="sRGB">
<feFlood flood-opacity="0" result="BackgroundImageFix"/>
<feColorMatrix in="SourceAlpha" type="matrix" values="0 0 0 0 0 0 0 0 0 0 0 0 0 0 0 0 0 0 127 0"/>
<feOffset dy="12"/>
<feGaussianBlur stdDeviation="12"/>
<feColorMatrix type="matrix" values="0 0 0 0 0 0 0 0 0 0.701961 0 0 0 0 0.309804 0 0 0 0.3 0"/>
<feBlend mode="normal" in2="BackgroundImageFix" result="effect1_dropShadow"/>
<feBlend mode="normal" in="SourceGraphic" in2="effect1_dropShadow" result="shape"/>
</filter>
</defs>
</svg>
