<svg width="108" height="109" viewBox="0 0 108 109" fill="none" xmlns="http://www.w3.org/2000/svg">
<g filter="url(#filter0_d)">
<path d="M53.8827 34.2655H56.2264C57.1972 34.2655 57.9842 33.4785 57.9842 32.5077C57.9842 31.5369 57.1972 30.7499 56.2264 30.7499H53.8827C52.9119 30.7499 52.1249 31.5369 52.1249 32.5077C52.1249 33.4785 52.9119 34.2655 53.8827 34.2655Z" fill="white"/>
<path d="M46.8514 30.7499H32.789C31.8182 30.7499 31.0312 31.5369 31.0312 32.5077C31.0312 33.4785 31.8182 34.2655 32.789 34.2655H46.8514C47.8222 34.2655 48.6092 33.4785 48.6092 32.5077C48.6092 31.5369 47.8222 30.7499 46.8514 30.7499Z" fill="white"/>
<path d="M53.8827 41.2967H56.2264C57.1972 41.2967 57.9842 40.5097 57.9842 39.5389C57.9842 38.5681 57.1972 37.7811 56.2264 37.7811H53.8827C52.9119 37.7811 52.1249 38.5681 52.1249 39.5389C52.1249 40.5097 52.9119 41.2967 53.8827 41.2967Z" fill="white"/>
<path d="M46.8514 37.7811H32.789C31.8182 37.7811 31.0312 38.5681 31.0312 39.5389C31.0312 40.5097 31.8182 41.2967 32.789 41.2967H46.8514C47.8222 41.2967 48.6092 40.5097 48.6092 39.5389C48.6092 38.5681 47.8222 37.7811 46.8514 37.7811Z" fill="white"/>
<path d="M46.8514 44.8123H32.789C31.8182 44.8123 31.0312 45.5993 31.0312 46.5701C31.0312 47.5409 31.8182 48.3279 32.789 48.3279H46.8514C47.8222 48.3279 48.6092 47.5409 48.6092 46.5701C48.6092 45.5993 47.8222 44.8123 46.8514 44.8123Z" fill="white"/>
<path d="M46.8514 51.8435H32.789C31.8182 51.8435 31.0312 52.6306 31.0312 53.6013C31.0312 54.5721 31.8182 55.3592 32.789 55.3592H46.8514C47.8222 55.3592 48.6092 54.5721 48.6092 53.6013C48.6092 52.6306 47.8222 51.8435 46.8514 51.8435Z" fill="white"/>
<path d="M46.8514 58.8748H32.789C31.8182 58.8748 31.0312 59.6618 31.0312 60.6326C31.0312 61.6033 31.8182 62.3904 32.789 62.3904H46.8514C47.8222 62.3904 48.6092 61.6033 48.6092 60.6326C48.6092 59.6618 47.8222 58.8748 46.8514 58.8748Z" fill="white"/>
<path d="M78.6101 45.1298C78.2853 44.9453 77.95 44.7804 77.6055 44.6345C78.7295 42.9919 79.388 41.0068 79.388 38.8705V37.4286C79.388 36.4578 78.601 35.6708 77.6302 35.6708H76.1888C72.6515 35.6708 69.5281 37.4751 67.6897 40.2116C67.017 39.4388 66.1764 38.8038 65.2076 38.3679C65.1442 38.3394 65.08 38.3161 65.0153 38.2956V21.9609C65.0153 20.9901 64.2283 20.2031 63.2575 20.2031H55.2077C54.1818 18.7268 52.6934 17.6075 50.9529 17.0433V13.7578C50.9529 12.787 50.1658 12 49.1951 12H39.8201C38.8493 12 38.0623 12.787 38.0623 13.7578V17.0433C36.3218 17.6075 34.8333 18.7268 33.8076 20.2031H25.7578C24.787 20.2031 24 20.9901 24 21.9609V70.2419C24 71.2127 24.787 71.9997 25.7578 71.9997H64.0906C65.2236 71.9996 66.3595 71.6285 67.305 70.8723L67.7136 70.5453L68.1328 70.8791C70.1005 72.4466 72.8904 72.3676 74.7662 70.691L75.5755 69.9678C79.7907 66.2005 82.668 61.2922 83.8964 55.7736C83.9093 55.7157 83.9193 55.657 83.9263 55.5981C84.4275 51.3572 82.3409 47.2482 78.6101 45.1298ZM75.8648 39.1941C75.7005 42.6405 72.9262 45.4147 69.4801 45.5793C69.6444 42.133 72.4186 39.3588 75.8648 39.1941ZM65.0154 42.4945C65.5205 43.0632 65.8453 43.7808 65.9316 44.5531C65.6284 44.4385 65.3228 44.3374 65.0154 44.2492V42.4945ZM40.0382 20.1895C40.9179 20.0796 41.578 19.3318 41.578 18.4453V15.5156H47.4374V18.4453C47.4374 19.3317 48.0975 20.0794 48.9772 20.1895C50.7214 20.4076 52.1763 21.5496 52.8221 23.1328H36.1933C36.8392 21.5494 38.2939 20.4076 40.0382 20.1895ZM27.5156 23.7187H32.4026L32.2372 24.5458C32.1339 25.0622 32.2677 25.5978 32.6014 26.005C32.9354 26.4123 33.4341 26.6484 33.9609 26.6484H55.0545C55.5812 26.6484 56.08 26.4122 56.414 26.005C56.7479 25.5977 56.8815 25.0622 56.7782 24.5458L56.6128 23.7187H61.4998V43.8147C59.8469 43.8778 58.2366 44.3205 56.7973 45.1422C53.0811 47.2638 51.0029 51.3679 51.5027 55.5983C51.5097 55.6573 51.5197 55.716 51.5326 55.7739C52.6055 60.5942 54.937 64.9488 58.319 68.4842H27.5156V23.7187ZM80.4447 55.0999C79.3659 59.8595 76.8734 64.0925 73.2328 67.3464L72.4235 68.0697C71.8298 68.6006 70.9466 68.6255 70.3231 68.1292L69.8673 67.7662C68.5963 66.7538 66.8227 66.7558 65.5539 67.7709L65.1087 68.1271C64.4854 68.6257 63.6007 68.6014 63.0056 68.0698L62.1964 67.3463C58.5557 64.0925 56.0633 59.8596 54.9844 55.1C54.6883 52.3044 56.0771 49.6014 58.5404 48.1953C60.5583 47.0432 63.2374 47.0499 65.5317 48.2124C66.3523 48.6282 66.9204 48.9145 66.9204 48.9145L66.9232 48.9127C67.1612 49.0332 67.4296 49.1024 67.7146 49.1024H69.1561C71.2129 49.1024 73.1295 48.4919 74.7353 47.4432C75.5108 47.5724 76.2288 47.8202 76.8744 48.1867C79.347 49.5911 80.7416 52.2974 80.4447 55.0999Z" fill="white"/>
</g>
<defs>
<filter id="filter0_d" x="0" y="0" width="108" height="108.004" filterUnits="userSpaceOnUse" color-interpolation-filters="sRGB">
<feFlood flood-opacity="0" result="BackgroundImageFix"/>
<feColorMatrix in="SourceAlpha" type="matrix" values="0 0 0 0 0 0 0 0 0 0 0 0 0 0 0 0 0 0 127 0"/>
<feOffset dy="12"/>
<feGaussianBlur stdDeviation="12"/>
<feColorMatrix type="matrix" values="0 0 0 0 0 0 0 0 0 0.701961 0 0 0 0 0.309804 0 0 0 0.3 0"/>
<feBlend mode="normal" in2="BackgroundImageFix" result="effect1_dropShadow"/>
<feBlend mode="normal" in="SourceGraphic" in2="effect1_dropShadow" result="shape"/>
</filter>
</defs>
</svg>
