<svg width="105" height="108" viewBox="0 0 105 108" fill="none" xmlns="http://www.w3.org/2000/svg">
<g filter="url(#filter0_d)">
<path d="M78.998 35.0539H77.2402V13.7578C77.2402 12.787 76.4531 12 75.4823 12H33.7297C30.4834 12 27.8423 14.6411 27.8423 17.8874V19.8915H25.7578C24.787 19.8915 24 20.6786 24 21.6493C24 22.6201 24.787 23.4071 25.7578 23.4071H27.8423V30.0669H25.7716C24.8009 30.0669 24.0138 30.8539 24.0138 31.8247C24.0138 32.7955 24.8009 33.5825 25.7716 33.5825H27.8423V40.2422H25.7578C24.787 40.2422 24 41.0292 24 42C24 42.9708 24.787 43.7578 25.7578 43.7578H27.8423V50.4176H25.7716C24.8009 50.4176 24.0138 51.2046 24.0138 52.1754C24.0138 53.1462 24.8009 53.9332 25.7716 53.9332H27.8423V60.593H25.7578C24.787 60.593 24 61.38 24 62.3508C24 63.3216 24.787 64.1086 25.7578 64.1086H27.8423V66.1127C27.8423 69.3589 30.4834 72 33.7297 72H75.4823C76.4531 72 77.2402 71.213 77.2402 70.2422V48.9461H78.998C79.9688 48.9461 80.7558 48.159 80.7558 47.1882V36.8116C80.7558 35.8409 79.9688 35.0539 78.998 35.0539ZM31.358 66.1126V64.1085H33.4148C34.3856 64.1085 35.1727 63.3214 35.1727 62.3507C35.1727 61.3799 34.3856 60.5928 33.4148 60.5928H31.358V53.9331H33.4287C34.3995 53.9331 35.1865 53.1461 35.1865 52.1753C35.1865 51.2045 34.3995 50.4175 33.4287 50.4175H31.358V43.7578H33.4148C34.3856 43.7578 35.1727 42.9708 35.1727 42C35.1727 41.0292 34.3856 40.2422 33.4148 40.2422H31.358V33.5824H33.4287C34.3995 33.5824 35.1865 32.7954 35.1865 31.8246C35.1865 30.8538 34.3995 30.0668 33.4287 30.0668H31.358V23.407H33.4148C34.3856 23.407 35.1727 22.62 35.1727 21.6492C35.1727 20.6784 34.3856 19.8914 33.4148 19.8914H31.358V17.8874C31.358 16.5796 32.4219 15.5156 33.7297 15.5156H37.2173V68.4844H33.7297C32.4219 68.4844 31.358 67.4204 31.358 66.1126ZM73.7245 68.4844H40.733V15.5156H73.7245V35.0539H70.2941C66.464 35.0539 63.348 38.17 63.348 42C63.348 45.83 66.4641 48.9461 70.2941 48.9461H73.7245V68.4844ZM77.2402 45.4304H70.2941C68.4025 45.4304 66.8637 43.8915 66.8637 42C66.8637 40.1085 68.4026 38.5696 70.2941 38.5696H77.2402V45.4304Z" fill="white"/>
</g>
<defs>
<filter id="filter0_d" x="0" y="0" width="104.756" height="108" filterUnits="userSpaceOnUse" color-interpolation-filters="sRGB">
<feFlood flood-opacity="0" result="BackgroundImageFix"/>
<feColorMatrix in="SourceAlpha" type="matrix" values="0 0 0 0 0 0 0 0 0 0 0 0 0 0 0 0 0 0 127 0"/>
<feOffset dy="12"/>
<feGaussianBlur stdDeviation="12"/>
<feColorMatrix type="matrix" values="0 0 0 0 0 0 0 0 0 0.701961 0 0 0 0 0.309804 0 0 0 0.3 0"/>
<feBlend mode="normal" in2="BackgroundImageFix" result="effect1_dropShadow"/>
<feBlend mode="normal" in="SourceGraphic" in2="effect1_dropShadow" result="shape"/>
</filter>
</defs>
</svg>
