<svg width="108" height="101" viewBox="0 0 108 101" fill="none" xmlns="http://www.w3.org/2000/svg">
<g filter="url(#filter0_d)">
<path d="M71.8125 27.9375H68.0625C67.0917 27.9375 66.3047 28.7245 66.3047 29.6953C66.3047 30.6661 67.0917 31.4531 68.0625 31.4531H71.8125C72.7833 31.4531 73.5703 30.6661 73.5703 29.6953C73.5703 28.7245 72.7833 27.9375 71.8125 27.9375Z" fill="white"/>
<path d="M74.625 23.0156H65.25C64.2792 23.0156 63.4922 22.2286 63.4922 21.2578C63.4922 20.287 64.2792 19.5 65.25 19.5H74.625C75.5958 19.5 76.3828 20.287 76.3828 21.2578C76.3828 22.2286 75.5958 23.0156 74.625 23.0156Z" fill="white"/>
<path fill-rule="evenodd" clip-rule="evenodd" d="M79.1953 38.9312C81.8842 38.6931 84 36.4295 84 33.6797V17.2734C84 14.3657 81.6343 12 78.7266 12H61.2656C58.3579 12 55.9922 14.3657 55.9922 17.2734V24.1875H34.0781C31.1704 24.1875 28.8047 26.5532 28.8047 29.4609V50.5547C28.8047 51.1708 28.9119 51.7623 29.107 52.3125H27.1641C25.4194 52.3125 24 53.7319 24 55.4766C24 60.3228 27.9428 64.2656 32.7891 64.2656H75.2109C80.0572 64.2656 84 60.3228 84 55.4766C84 53.7319 82.5806 52.3125 80.8359 52.3125H78.893C79.0881 51.7623 79.1953 51.1708 79.1953 50.5547V38.9312ZM59.5078 17.2734C59.5078 16.3042 60.2964 15.5156 61.2656 15.5156H78.7266C79.6958 15.5156 80.4844 16.3042 80.4844 17.2734V33.6797C80.4844 34.6489 79.6958 35.4375 78.7266 35.4375H62.4375C62.108 35.4375 61.7852 35.5301 61.5059 35.7047L57.9616 37.9199L59.4337 33.0129C59.458 32.9319 59.4764 32.8495 59.4888 32.7661C59.5014 32.6807 59.5078 32.5944 59.5078 32.5078V17.2734ZM75.2109 60.75H32.7891C29.9994 60.75 27.7089 58.5725 27.5272 55.8281H80.4728C80.2911 58.5725 78.0006 60.75 75.2109 60.75ZM40.7578 39.0703C40.7578 37.9718 41.6515 37.0781 42.75 37.0781C43.8485 37.0781 44.7422 37.9718 44.7422 39.0703C44.7422 40.1688 43.8485 41.0625 42.75 41.0625C41.6515 41.0625 40.7578 40.1688 40.7578 39.0703ZM39.8203 46.5703C39.8203 45.509 41.1893 44.5781 42.75 44.5781C43.587 44.5781 44.3933 44.8392 44.9624 45.2945C45.2304 45.5088 45.6797 45.9595 45.6797 46.5703V52.3125H39.8203V46.5703ZM49.1953 52.3125V46.5703C49.1953 45.0504 48.453 43.5847 47.1586 42.5493C47.1295 42.5259 47.0992 42.5041 47.0697 42.4814C47.8126 41.5425 48.2578 40.3577 48.2578 39.0703C48.2578 36.0333 45.787 33.5625 42.75 33.5625C39.713 33.5625 37.2422 36.0333 37.2422 39.0703C37.2422 40.3593 37.6884 41.5451 38.4328 42.4844C37.1269 43.4931 36.3047 44.9511 36.3047 46.5703V52.3125H34.0781C33.1089 52.3125 32.3203 51.5239 32.3203 50.5547V29.4609C32.3203 28.4917 33.1089 27.7031 34.0781 27.7031H55.9922V32.2499L54.5943 36.9096C54.1697 38.3248 54.6543 39.8184 55.8288 40.7147C56.4615 41.1975 57.2084 41.4415 57.9587 41.4415C58.6014 41.4415 59.2467 41.2624 59.8247 40.9011L62.9416 38.9531H75.6797V50.5547C75.6797 51.5239 74.8911 52.3125 73.9219 52.3125H49.1953Z" fill="white"/>
</g>
<defs>
<filter id="filter0_d" x="0" y="0" width="108" height="100.266" filterUnits="userSpaceOnUse" color-interpolation-filters="sRGB">
<feFlood flood-opacity="0" result="BackgroundImageFix"/>
<feColorMatrix in="SourceAlpha" type="matrix" values="0 0 0 0 0 0 0 0 0 0 0 0 0 0 0 0 0 0 127 0"/>
<feOffset dy="12"/>
<feGaussianBlur stdDeviation="12"/>
<feColorMatrix type="matrix" values="0 0 0 0 0 0 0 0 0 0.701961 0 0 0 0 0.309804 0 0 0 0.3 0"/>
<feBlend mode="normal" in2="BackgroundImageFix" result="effect1_dropShadow"/>
<feBlend mode="normal" in="SourceGraphic" in2="effect1_dropShadow" result="shape"/>
</filter>
</defs>
</svg>
