<svg width="93" height="108" viewBox="0 0 93 108" fill="none" xmlns="http://www.w3.org/2000/svg">
<g filter="url(#filter0_d)">
<path fill-rule="evenodd" clip-rule="evenodd" d="M46.2656 35.6717C49.1734 35.6717 51.539 33.306 51.539 30.3983C51.539 27.4905 49.1734 25.1248 46.2656 25.1248C43.3578 25.1248 40.9922 27.4905 40.9922 30.3983C40.9922 33.306 43.3578 35.6717 46.2656 35.6717ZM46.2656 28.6404C47.2349 28.6404 48.0234 29.429 48.0234 30.3983C48.0234 31.3675 47.2349 32.1561 46.2656 32.1561C45.2964 32.1561 44.5078 31.3675 44.5078 30.3983C44.5078 29.429 45.2964 28.6404 46.2656 28.6404Z" fill="white"/>
<path fill-rule="evenodd" clip-rule="evenodd" d="M40.2891 44.2265C35.4428 44.2265 31.5001 48.1693 31.5001 53.0155C31.5001 57.8618 35.4428 61.8046 40.2891 61.8046C45.1354 61.8046 49.0782 57.8618 49.0782 53.0155C49.0782 48.1693 45.1355 44.2265 40.2891 44.2265ZM40.2891 58.289C37.3813 58.289 35.0157 55.9233 35.0157 53.0155C35.0157 50.1078 37.3813 47.7421 40.2891 47.7421C43.1969 47.7421 45.5625 50.1078 45.5625 53.0155C45.5625 55.9233 43.197 58.289 40.2891 58.289Z" fill="white"/>
<path fill-rule="evenodd" clip-rule="evenodd" d="M54.3517 37.1952C57.2594 37.1952 59.6251 39.5608 59.6251 42.4686C59.6251 45.3764 57.2594 47.742 54.3517 47.742C51.4439 47.742 49.0782 45.3764 49.0782 42.4686C49.0782 39.5608 51.4439 37.1952 54.3517 37.1952ZM52.5938 42.4686C52.5938 43.4379 53.3824 44.2264 54.3517 44.2264C55.321 44.2264 56.1095 43.4379 56.1095 42.4686C56.1095 41.4994 55.3209 40.7108 54.3517 40.7108C53.3824 40.7108 52.5938 41.4994 52.5938 42.4686Z" fill="white"/>
<path d="M58.5705 57.2343C59.5413 57.2343 60.3283 56.4473 60.3283 55.4765C60.3283 54.5057 59.5413 53.7187 58.5705 53.7187C57.5996 53.7187 56.8126 54.5057 56.8126 55.4765C56.8126 56.4473 57.5996 57.2343 58.5705 57.2343Z" fill="white"/>
<path d="M39.4687 38.1326C39.4687 39.1034 38.6817 39.8904 37.7109 39.8904C36.7401 39.8904 35.9531 39.1034 35.9531 38.1326C35.9531 37.1618 36.7401 36.3748 37.7109 36.3748C38.6817 36.3748 39.4687 37.1618 39.4687 38.1326Z" fill="white"/>
<path d="M51.5392 64.2656C52.51 64.2656 53.297 63.4786 53.297 62.5078C53.297 61.537 52.51 60.75 51.5392 60.75C50.5684 60.75 49.7814 61.537 49.7814 62.5078C49.7814 63.4786 50.5684 64.2656 51.5392 64.2656Z" fill="white"/>
<path fill-rule="evenodd" clip-rule="evenodd" d="M47.5122 12.5182C47.7255 12.7327 52.7949 17.8532 57.9431 24.9576C64.969 34.6535 68.5314 42.9896 68.5314 49.7343C68.5314 56.1063 66.0958 61.8853 61.6732 66.0069C57.5864 69.8156 51.9705 72 46.2657 72C40.5609 72 34.945 69.8155 30.8582 66.0069C26.4356 61.8853 24 56.1063 24 49.7343C24 42.9896 27.5625 34.6534 34.5884 24.9576C39.7366 17.8532 44.806 12.7327 45.0193 12.5182C45.7062 11.8273 46.8252 11.8272 47.5122 12.5182ZM27.5156 49.7343C27.5156 61.9129 37.1761 68.4844 46.2657 68.4844C55.3554 68.4844 65.0158 61.9129 65.0158 49.7343C65.0158 37.4135 50.6414 21.0134 46.2661 16.3078C41.892 21.0147 27.5156 37.4245 27.5156 49.7343Z" fill="white"/>
</g>
<defs>
<filter id="filter0_d" x="0" y="0" width="92.5314" height="108" filterUnits="userSpaceOnUse" color-interpolation-filters="sRGB">
<feFlood flood-opacity="0" result="BackgroundImageFix"/>
<feColorMatrix in="SourceAlpha" type="matrix" values="0 0 0 0 0 0 0 0 0 0 0 0 0 0 0 0 0 0 127 0"/>
<feOffset dy="12"/>
<feGaussianBlur stdDeviation="12"/>
<feColorMatrix type="matrix" values="0 0 0 0 0 0 0 0 0 0.701961 0 0 0 0 0.309804 0 0 0 0.3 0"/>
<feBlend mode="normal" in2="BackgroundImageFix" result="effect1_dropShadow"/>
<feBlend mode="normal" in="SourceGraphic" in2="effect1_dropShadow" result="shape"/>
</filter>
</defs>
</svg>
