<svg width="77" height="17" viewBox="0 0 77 17" fill="none" xmlns="http://www.w3.org/2000/svg">
<path d="M0.226225 7.11057C-0.173679 6.53927 0.302435 6.0426 1.65455 5.62058C3.60285 5.10815 5.62393 4.81858 7.65825 4.7604C10.4094 4.62128 13.1642 4.60439 15.9103 4.7098C17.821 4.96647 19.7619 5.07528 21.7071 5.03478C23.2698 5.10173 25.2725 5.23717 27.7151 5.4411C30.1578 5.64503 32.025 5.81965 33.3167 5.96497C33.3238 6.08969 33.6514 6.20403 34.2994 6.30798C34.9328 6.41076 35.5825 6.44442 36.2312 6.40808C37.0808 6.36118 37.932 6.36739 38.7772 6.42664C39.4117 6.45262 40.0391 6.53476 40.6481 6.6716C41.1357 6.66942 41.6214 6.70442 42.0986 6.77613C42.5759 6.84784 43.0615 6.88284 43.5492 6.88066C43.8498 6.87827 44.1492 6.90044 44.4428 6.94684C44.7847 6.9962 45.1333 7.01426 45.4821 7.00067C48.2566 7.40495 53.468 7.91977 61.1165 8.54513C68.7649 9.17048 73.1843 9.46475 74.3746 9.42792C75.9337 9.43225 76.5897 9.67631 76.3426 10.1601C76.5188 10.2176 76.669 10.3163 76.7742 10.4437C76.8795 10.5712 76.9352 10.7219 76.9344 10.877L74.7783 11.6579C74.1581 11.9112 73.4945 12.084 72.8124 12.17C72.1291 12.256 71.102 12.3383 69.7308 12.4169C68.2315 12.4616 66.7332 12.4081 65.2506 12.2569C63.6365 12.0992 61.9511 11.8987 60.1943 11.6554C58.4376 11.4122 57.1903 11.2483 56.4525 11.1639L53.1271 10.7444C51.6223 10.4974 50.096 10.3341 48.5588 10.2555C47.8873 10.2599 47.2179 10.2192 46.5575 10.1338C45.5887 10.0328 44.7817 9.95395 44.1364 9.89723C42.7485 9.6946 41.0161 9.48083 38.9394 9.25592C37.7286 9.09591 36.5055 8.99375 35.2764 8.94997C35.092 8.92913 34.7698 8.90846 34.3099 8.88798C33.8837 8.8725 33.4636 8.80978 33.0613 8.70158C33.0559 8.60818 32.8467 8.5576 32.4336 8.54987C32.0206 8.54214 31.724 8.54343 31.544 8.55375C30.623 8.56967 29.7029 8.54403 28.788 8.47695C27.4079 8.39953 25.8869 8.26762 24.225 8.08123C17.9101 7.60709 11.5618 7.39153 5.20433 7.43537C3.00703 7.49852 1.72275 7.5173 1.3515 7.49173C0.937601 7.45187 0.548171 7.31997 0.226225 7.11057Z" fill="#00B34F"/>
</svg>
