<svg width="51" height="12" viewBox="0 0 51 12" fill="none" xmlns="http://www.w3.org/2000/svg">
<path opacity="0.5" d="M50.3155 4.27775C50.5797 3.85537 50.2707 3.49207 49.3884 3.18783C48.1166 2.81987 46.7962 2.61628 45.466 2.58306C43.6674 2.49364 41.8658 2.4942 40.0694 2.58474C38.8186 2.78266 37.5487 2.87191 36.2767 2.85127C35.2544 2.90792 33.944 3.01705 32.3455 3.17867C30.7471 3.34028 29.5251 3.47761 28.6796 3.59066C28.6744 3.68249 28.4596 3.76819 28.0353 3.84775C27.6206 3.92639 27.1955 3.95423 26.7715 3.93054C26.216 3.90004 25.6593 3.90862 25.1062 3.95621C24.6912 3.97833 24.2805 4.04174 23.8815 4.14533C23.5626 4.14603 23.2448 4.17408 22.9324 4.22911C22.6199 4.28414 22.3021 4.31219 21.9832 4.31289C21.7866 4.31255 21.5907 4.33028 21.3985 4.36581C21.1746 4.40375 20.9466 4.41869 20.7185 4.41033C18.9021 4.72097 15.4914 5.12446 10.4863 5.62081C5.48126 6.11716 2.58959 6.35459 1.8113 6.3331C0.791596 6.34363 0.361413 6.52636 0.520755 6.88128C0.405218 6.92442 0.306572 6.99774 0.237135 7.09207C0.167698 7.1864 0.130544 7.29756 0.130317 7.41167L1.53676 7.97629C1.94115 8.15977 2.37432 8.28386 2.82005 8.3439C3.26648 8.40399 3.93787 8.45973 4.83423 8.51112C5.81455 8.53697 6.7947 8.4905 7.76507 8.37219C8.82143 8.24849 9.92464 8.09298 11.0747 7.90566C12.2248 7.71834 13.0413 7.59187 13.5242 7.52625L15.701 7.20177C16.6863 7.0129 17.6853 6.88549 18.691 6.82041C19.1301 6.82049 19.5681 6.78738 20.0004 6.72142C20.6345 6.64251 21.1627 6.58066 21.585 6.53587C22.4936 6.38019 23.6276 6.21468 24.9868 6.03935C25.7794 5.91587 26.5798 5.83491 27.3839 5.79689C27.5046 5.78068 27.7154 5.76395 28.0163 5.7467C28.2951 5.7333 28.5701 5.68516 28.8338 5.60363C28.8377 5.53485 28.9748 5.49665 29.2449 5.48901C29.5151 5.48137 29.7091 5.48092 29.8268 5.48767C30.429 5.49504 31.0309 5.47182 31.6296 5.41814C32.5325 5.35464 33.5279 5.25039 34.6156 5.10536C38.7478 4.7266 42.9007 4.538 47.0583 4.54028C48.495 4.57639 49.3348 4.58416 49.5778 4.56359C49.8486 4.5323 50.1039 4.43338 50.3155 4.27775Z" fill="#1592E6"/>
</svg>
