<svg width="39" height="43" viewBox="0 0 39 43" fill="none" xmlns="http://www.w3.org/2000/svg">
<path d="M26.9364 25.7205C26.5833 25.7205 26.2607 25.4884 26.1471 25.1546C26.0368 24.8303 26.1415 24.4629 26.4054 24.2445C26.6659 24.029 27.041 23.9944 27.3372 24.1566C27.6384 24.3215 27.8124 24.6691 27.7603 25.0092C27.6987 25.4117 27.3454 25.7205 26.9364 25.7205Z" fill="#00A09B"/>
<path d="M21.6357 10.9575H5.95241C5.49207 10.9575 5.11891 10.5843 5.11891 10.124C5.11891 9.66377 5.49207 9.29053 5.95241 9.29053H21.6357C22.0959 9.29053 22.4692 9.66377 22.4692 10.124C22.4692 10.5843 22.0959 10.9575 21.6357 10.9575Z" fill="#00A09B"/>
<path d="M21.6357 20.3144H5.95241C5.49207 20.3144 5.11891 19.9412 5.11891 19.481C5.11891 19.0207 5.49207 18.6475 5.95241 18.6475H21.6357C22.0959 18.6475 22.4692 19.0207 22.4692 19.481C22.4692 19.9412 22.0959 20.3144 21.6357 20.3144Z" fill="#00A09B"/>
<path d="M21.6357 25.6499H5.95241C5.49207 25.6499 5.11891 25.2767 5.11891 24.8164C5.11891 24.3561 5.49207 23.9829 5.95241 23.9829H21.6357C22.0959 23.9829 22.4692 24.3561 22.4692 24.8164C22.4692 25.2767 22.0959 25.6499 21.6357 25.6499Z" fill="#00A09B"/>
<path d="M16.5289 30.9858H5.95241C5.49207 30.9858 5.11891 30.6126 5.11891 30.1523C5.11891 29.692 5.49207 29.3188 5.95241 29.3188H16.5289C16.9893 29.3188 17.3624 29.692 17.3624 30.1523C17.3624 30.6126 16.9893 30.9858 16.5289 30.9858Z" fill="#00A09B"/>
<path d="M24.7529 1.86623H22.6507V1.03174C22.6507 0.571397 22.2774 0.198242 21.8172 0.198242C21.3569 0.198242 20.9837 0.571397 20.9837 1.03174V1.86623H17.3624V1.03174C17.3624 0.571397 16.9893 0.198242 16.5289 0.198242C16.0686 0.198242 15.6954 0.571397 15.6954 1.03174V1.86623H12.0742V1.03174C12.0742 0.571397 11.701 0.198242 11.2407 0.198242C10.7803 0.198242 10.4072 0.571397 10.4072 1.03174V1.86623H6.78589V1.03174C6.78589 0.571397 6.41273 0.198242 5.95239 0.198242C5.49206 0.198242 5.1189 0.571397 5.1189 1.03174V1.86623H3.01666C1.35326 1.86623 0 3.21949 0 4.88289V39.8565C0 41.5199 1.35326 42.8731 3.01666 42.8731H24.7528C26.4163 42.8731 27.7696 41.5199 27.7696 39.8565V28.6395C27.7696 28.1793 27.3964 27.8061 26.9361 27.8061C26.4758 27.8061 26.1026 28.1793 26.1026 28.6395V39.8564C26.1026 40.6006 25.4971 41.206 24.7528 41.206H3.01666C2.27244 41.206 1.66699 40.6005 1.66699 39.8564V4.88289C1.66699 4.13867 2.27244 3.53322 3.01666 3.53322H5.1189V4.53149C5.1189 4.99175 5.49206 5.36499 5.95239 5.36499C6.41273 5.36499 6.78589 4.99175 6.78589 4.53149V3.53322H10.4072V4.53149C10.4072 4.99175 10.7803 5.36499 11.2407 5.36499C11.701 5.36499 12.0742 4.99175 12.0742 4.53149V3.53322H15.6954V4.53149C15.6954 4.99175 16.0686 5.36499 16.5289 5.36499C16.9893 5.36499 17.3624 4.99175 17.3624 4.53149V3.53322H20.9837V4.53149C20.9837 4.99175 21.3569 5.36499 21.8172 5.36499C22.2774 5.36499 22.6507 4.99175 22.6507 4.53149V3.53322H24.7529C25.4972 3.53322 26.1027 4.13875 26.1027 4.88289V21.1037C26.1027 21.5639 26.4759 21.9372 26.9362 21.9372C27.3965 21.9372 27.7697 21.5639 27.7697 21.1037V4.88289C27.7697 3.21949 26.4163 1.86623 24.7529 1.86623Z" fill="#00A09B"/>
<path d="M39 37.6515L38.9927 4.68085C38.9922 3.17548 37.7672 1.95041 36.2621 1.94991L33.8953 1.94824H33.8944C33.1648 1.94824 32.4788 2.23238 31.9628 2.7484C31.4466 3.26458 31.1624 3.95088 31.1627 4.68085L31.1699 37.649V37.6933C31.1699 37.866 31.2237 38.0345 31.3235 38.1755L34.406 42.522C34.5623 42.7423 34.8158 42.8733 35.0859 42.8733C35.356 42.8733 35.6095 42.7423 35.7658 42.522L38.8463 38.1783C38.9462 38.0373 38.9999 37.8688 38.9999 37.6961V37.6515H39ZM37.3269 8.75639L37.3276 11.4943H32.8316L32.8309 8.7543L35.0517 8.7553L37.3269 8.75639ZM32.8318 13.1613H37.3278L37.3325 35.4753L36.9568 35.0568C36.7932 34.8746 36.5602 34.7736 36.313 34.7805C36.0683 34.7874 35.8388 34.9017 35.6859 35.0928L35.0847 35.8438L34.4824 35.0914C34.3294 34.9003 34.1 34.7861 33.8553 34.7792C33.8474 34.779 33.8396 34.7789 33.8318 34.7789C33.5955 34.7789 33.3698 34.8792 33.2116 35.0555L32.8365 35.4733L32.8318 13.1613ZM33.1415 3.92704C33.3427 3.726 33.61 3.61523 33.8941 3.61523H33.8944L36.2614 3.6169C36.8481 3.61706 37.3256 4.09457 37.3258 4.68135L37.3265 7.08948L35.1097 7.08848L32.8305 7.0874L32.8297 4.68035C32.8296 4.39571 32.9404 4.12824 33.1415 3.92704ZM35.086 40.599L33.051 37.7296L33.7953 36.9005L34.4341 37.6985C34.5923 37.8961 34.8318 38.0111 35.0848 38.0111C35.338 38.0111 35.5773 37.8961 35.7356 37.6985L36.3731 36.9019L37.1189 37.7325L35.086 40.599Z" fill="#00A09B"/>
</svg>
