<svg width="35" height="40" viewBox="0 0 35 40" fill="none" xmlns="http://www.w3.org/2000/svg">
<path d="M33.3554 12.8263C31.5361 11.4871 28.8975 11.9446 27.6317 13.8127L25.8799 16.3981L26.4245 12.9565C26.7205 11.0853 26.5011 9.1684 25.7897 7.41203C24.2107 3.52412 20.3519 0.90918 16.1556 0.90918H14.8651C10.6356 0.90918 6.86278 3.44037 5.25306 7.35782C4.51677 9.14968 4.29453 11.1073 4.61029 13.019L7.84 32.5738C7.25411 32.7722 6.77552 33.2052 6.51626 33.7611L4.56256 32.888C2.44663 31.9446 -0.0187298 33.5768 0.000107284 35.8917C0.0189444 38.196 2.47901 39.7577 4.56867 38.7707L6.5424 37.8389C6.91259 38.5804 7.67784 39.091 8.56035 39.091H24.5227C25.7662 39.091 26.7779 38.0778 26.7779 36.8322V34.7136C26.7779 33.6465 26.035 32.7506 25.0403 32.5156L34.3407 18.2931C35.5144 16.4982 35.0817 14.0968 33.3554 12.8263ZM3.93364 37.4217C2.81242 37.9511 1.49933 37.1183 1.48913 35.8795C1.47886 34.6295 2.81347 33.7407 3.95635 34.2503L6.30518 35.3V36.302L3.93364 37.4217ZM25.2888 34.7136V36.8324C25.2888 37.2554 24.9452 37.5997 24.5228 37.5997H8.56035C8.13797 37.5997 7.79428 37.2555 7.79428 36.8324V36.7765C7.79428 36.776 7.79436 36.7756 7.79436 36.775C7.79436 36.775 7.79428 34.8153 7.79428 34.8148V34.7136C7.79428 34.2905 8.1379 33.9463 8.56035 33.9463H24.5227C24.9452 33.9463 25.2888 34.2904 25.2888 34.7136ZM33.0951 17.4759L23.3 32.4548H9.3297L6.07944 12.7755C5.80894 11.1377 5.9994 9.46051 6.63018 7.92533C8.00916 4.56927 11.2416 2.40066 14.8651 2.40066H16.1556C19.7621 2.40066 23.0517 4.63177 24.4101 7.97365C25.0193 9.47758 25.2073 11.1199 24.9537 12.723L24.2639 17.0826C24.1693 17.681 24.496 18.2547 25.0585 18.4776C25.6212 18.7005 26.2513 18.506 26.591 18.0047L28.8639 14.6503C29.6623 13.4719 31.326 13.1834 32.4737 14.0282C33.5624 14.8295 33.8353 16.3439 33.0951 17.4759Z" fill="#00A09B"/>
<path d="M22.8489 19.5673C22.1841 18.7871 21.8955 17.7536 22.0572 16.7317L22.7469 12.3723C22.936 11.1746 22.7964 9.94804 22.3434 8.82459L22.3423 8.8216C22.34 8.81549 22.3376 8.80937 22.3352 8.80333C21.3115 6.27341 18.8888 4.63867 16.1632 4.63867H14.8652C12.1512 4.63867 9.7298 6.26274 8.69607 8.77678C8.22432 9.92657 8.08174 11.1828 8.28374 12.4103L8.88682 16.0614C8.95391 16.4678 9.33742 16.7428 9.74291 16.6754C10.1486 16.6082 10.4231 16.2243 10.3559 15.8179L9.75288 12.1673C9.59593 11.2136 9.70672 10.2372 10.0731 9.34422C10.876 7.39172 12.7569 6.13008 14.8651 6.13008H16.1632C18.2763 6.13008 20.1547 7.39537 20.9515 9.35466L20.9524 9.35712C20.9547 9.36331 20.9571 9.3695 20.9596 9.37561C21.3139 10.2504 21.4233 11.2061 21.2761 12.139L20.5865 16.4982C20.3565 17.9514 20.7682 19.4229 21.7139 20.5326L21.7306 20.5522C22.3626 21.2865 22.5659 22.2582 22.2745 23.1517L21.0558 26.8892C20.6977 27.9873 19.6822 28.7251 18.5289 28.7251H14.8718C13.4902 28.7251 12.324 27.7343 12.0987 26.3692L11.4241 22.285C11.3569 21.8787 10.9736 21.6035 10.568 21.6711C10.1623 21.7383 9.88787 22.1222 9.95503 22.5285L10.6296 26.6125C10.9742 28.7008 12.7584 30.2166 14.8719 30.2166H18.529C20.3283 30.2166 21.9127 29.0655 22.4714 27.3523L23.6901 23.6148C24.1447 22.2206 23.8339 20.7117 22.856 19.5754L22.8489 19.5673Z" fill="#00A09B"/>
<path d="M10.1543 19.9115C10.5593 19.9115 10.8988 19.5718 10.8988 19.1658C10.8988 18.7598 10.559 18.4203 10.154 18.4204C9.74866 18.4205 9.40974 18.7599 9.40974 19.1658C9.40974 19.572 9.74881 19.9115 10.1543 19.9115Z" fill="#00A09B"/>
</svg>
