<svg width="39" height="44" viewBox="0 0 39 44" fill="none" xmlns="http://www.w3.org/2000/svg">
<path d="M0.735851 19.3109C0.329479 19.3109 0 18.9814 0 18.575V0.914563C0 0.508192 0.329479 0.178711 0.735851 0.178711C3.91999 0.178711 8.83023 2.70713 8.83023 6.06553V6.80138H24.2831C26.3143 6.8039 27.9599 8.4495 27.9624 10.4806V13.9871C28.6968 14.6389 29.1923 15.5173 29.3709 16.4832C33.8223 17.1507 37.2058 20.8318 37.4976 25.3234C38.5219 25.6666 39.1457 26.7021 38.9707 27.7681C38.7954 28.8342 37.8727 29.6157 36.7926 29.6128H14.717C13.637 29.6157 12.7143 28.8342 12.5389 27.7681C12.364 26.7021 12.9877 25.6666 14.0121 25.3234C14.3038 20.8318 17.6874 17.1507 22.1388 16.4832C22.3174 15.5173 22.8129 14.6389 23.5473 13.9871V11.2165H8.83023V13.4241C8.83023 16.7825 3.91999 19.3109 0.735851 19.3109ZM7.35852 6.06553C7.35852 3.93163 3.9649 2.03738 1.4717 1.70251V17.7871C3.9649 17.4522 7.35852 15.558 7.35852 13.4241V6.06553ZM23.6799 16.3675H27.8298C27.5812 15.6205 27.0207 14.8958 26.4907 14.8958H25.019C24.4868 14.8958 23.9285 15.6205 23.6799 16.3675ZM14.717 28.1411H36.7926C37.199 28.1411 37.5285 27.8116 37.5285 27.4052C37.5285 26.9989 37.199 26.6694 36.7926 26.6694H14.717C14.3107 26.6694 13.9812 26.9989 13.9812 27.4052C13.9812 27.8116 14.3107 28.1411 14.717 28.1411ZM15.486 25.1977H36.0237C35.6382 21.0319 32.1457 17.8442 27.9624 17.8392H23.5473C19.3639 17.8442 15.8715 21.0319 15.486 25.1977ZM24.2831 9.74479C24.6895 9.74479 25.019 10.0743 25.019 10.4806V13.4241H26.4907V10.4806C26.4907 9.26153 25.5022 8.27309 24.2831 8.27309H8.83023V9.74479H24.2831Z" fill="#00A09B"/>
<path d="M35.3209 31.8203C35.3209 31.414 35.6504 31.0845 36.0568 31.0845C36.4631 31.0845 36.7926 31.414 36.7926 31.8203V32.5562C36.7926 32.9625 36.4631 33.292 36.0568 33.292C35.6504 33.292 35.3209 32.9625 35.3209 32.5562V31.8203Z" fill="#00A09B"/>
<path d="M32.3775 31.8203C32.3775 31.414 32.707 31.0845 33.1134 31.0845C33.5198 31.0845 33.8492 31.414 33.8492 31.8203V36.2354C33.8492 36.6418 33.5198 36.9713 33.1134 36.9713C32.707 36.9713 32.3775 36.6418 32.3775 36.2354V31.8203Z" fill="#00A09B"/>
<path d="M29.4341 31.8203C29.4341 31.414 29.7635 31.0845 30.1699 31.0845C30.5763 31.0845 30.9058 31.414 30.9058 31.8203V32.5562C30.9058 32.9625 30.5763 33.292 30.1699 33.292C29.7635 33.292 29.4341 32.9625 29.4341 32.5562V31.8203Z" fill="#00A09B"/>
<path d="M26.4907 31.8203C26.4907 31.414 26.8202 31.0845 27.2266 31.0845C27.6329 31.0845 27.9624 31.414 27.9624 31.8203V36.2354C27.9624 36.6418 27.6329 36.9713 27.2266 36.9713C26.8202 36.9713 26.4907 36.6418 26.4907 36.2354V31.8203Z" fill="#00A09B"/>
<path d="M23.5472 31.8203C23.5472 31.414 23.8767 31.0845 24.2831 31.0845C24.6894 31.0845 25.0189 31.414 25.0189 31.8203V32.5562C25.0189 32.9625 24.6894 33.292 24.2831 33.292C23.8767 33.292 23.5472 32.9625 23.5472 32.5562V31.8203Z" fill="#00A09B"/>
<path d="M20.6039 31.8203C20.6039 31.414 20.9333 31.0845 21.3397 31.0845C21.7461 31.0845 22.0756 31.414 22.0756 31.8203V36.2354C22.0756 36.6418 21.7461 36.9713 21.3397 36.9713C20.9333 36.9713 20.6039 36.6418 20.6039 36.2354V31.8203Z" fill="#00A09B"/>
<path d="M17.6605 31.8203C17.6605 31.414 17.99 31.0845 18.3963 31.0845C18.8027 31.0845 19.1322 31.414 19.1322 31.8203V32.5562C19.1322 32.9625 18.8027 33.292 18.3963 33.292C17.99 33.292 17.6605 32.9625 17.6605 32.5562V31.8203Z" fill="#00A09B"/>
<path d="M33.1134 38.4429C33.5198 38.4429 33.8492 38.7724 33.8492 39.1787V41.3863C33.8492 41.7927 33.5198 42.1221 33.1134 42.1221C32.707 42.1221 32.3775 41.7927 32.3775 41.3863V39.1787C32.3775 38.7724 32.707 38.4429 33.1134 38.4429Z" fill="#00A09B"/>
<path d="M27.2266 38.4429C27.6329 38.4429 27.9624 38.7724 27.9624 39.1787V41.3863C27.9624 41.7927 27.6329 42.1221 27.2266 42.1221C26.8202 42.1221 26.4907 41.7927 26.4907 41.3863V39.1787C26.4907 38.7724 26.8202 38.4429 27.2266 38.4429Z" fill="#00A09B"/>
<path d="M21.3397 38.4429C21.7461 38.4429 22.0756 38.7724 22.0756 39.1787V41.3863C22.0756 41.7927 21.7461 42.1221 21.3397 42.1221C20.9333 42.1221 20.6039 41.7927 20.6039 41.3863V39.1787C20.6039 38.7724 20.9333 38.4429 21.3397 38.4429Z" fill="#00A09B"/>
<path d="M15.4529 38.4429C15.8592 38.4429 16.1887 38.7724 16.1887 39.1787V41.3863C16.1887 41.7927 15.8592 42.1221 15.4529 42.1221C15.0465 42.1221 14.717 41.7927 14.717 41.3863V39.1787C14.717 38.7724 15.0465 38.4429 15.4529 38.4429Z" fill="#00A09B"/>
<path d="M14.717 31.8203C14.717 31.414 15.0465 31.0845 15.4529 31.0845C15.8592 31.0845 16.1887 31.414 16.1887 31.8203V36.2354C16.1887 36.6418 15.8592 36.9713 15.4529 36.9713C15.0465 36.9713 14.717 36.6418 14.717 36.2354V31.8203Z" fill="#00A09B"/>
<path d="M35.3209 35.4995C35.3209 35.0932 35.6504 34.7637 36.0568 34.7637C36.4631 34.7637 36.7926 35.0932 36.7926 35.4995V39.9146C36.7926 40.321 36.4631 40.6505 36.0568 40.6505C35.6504 40.6505 35.3209 40.321 35.3209 39.9146V35.4995Z" fill="#00A09B"/>
<path d="M29.4341 35.4995C29.4341 35.0932 29.7635 34.7637 30.1699 34.7637C30.5763 34.7637 30.9058 35.0932 30.9058 35.4995V39.9146C30.9058 40.321 30.5763 40.6505 30.1699 40.6505C29.7635 40.6505 29.4341 40.321 29.4341 39.9146V35.4995Z" fill="#00A09B"/>
<path d="M23.5472 35.4995C23.5472 35.0932 23.8767 34.7637 24.2831 34.7637C24.6894 34.7637 25.0189 35.0932 25.0189 35.4995V39.9146C25.0189 40.321 24.6894 40.6505 24.2831 40.6505C23.8767 40.6505 23.5472 40.321 23.5472 39.9146V35.4995Z" fill="#00A09B"/>
<path d="M17.6605 35.4995C17.6605 35.0932 17.99 34.7637 18.3963 34.7637C18.8027 34.7637 19.1322 35.0932 19.1322 35.4995V39.9146C19.1322 40.321 18.8027 40.6505 18.3963 40.6505C17.99 40.6505 17.6605 40.321 17.6605 39.9146V35.4995Z" fill="#00A09B"/>
<path d="M35.7772 42.1728C35.9131 42.1204 36.0611 42.1078 36.2041 42.1369C36.249 42.1459 36.2932 42.1577 36.3363 42.1728C36.382 42.1951 36.4265 42.2195 36.4696 42.2465C36.5077 42.2738 36.5444 42.3033 36.5792 42.3349C36.6442 42.4064 36.6963 42.4887 36.7337 42.5778C36.775 42.6651 36.7952 42.7614 36.7926 42.858C36.7962 43.1577 36.6177 43.4293 36.3414 43.5454C36.0654 43.6611 35.7463 43.5978 35.5351 43.3855C35.3238 43.1731 35.2624 42.8541 35.3799 42.5785C35.4154 42.4883 35.4679 42.406 35.5344 42.3356C35.6077 42.2709 35.6896 42.2163 35.7772 42.1728Z" fill="#00A09B"/>
<path d="M30.6924 42.3356C30.7589 42.406 30.8114 42.4883 30.8469 42.5785C30.9644 42.8523 30.903 43.1699 30.6924 43.3805C30.622 43.4469 30.5397 43.4994 30.4495 43.535C30.1757 43.6525 29.8581 43.5914 29.6476 43.3805C29.4367 43.1699 29.3756 42.8523 29.4931 42.5785C29.5304 42.4894 29.5825 42.4071 29.6476 42.3356C29.9426 42.0633 30.3974 42.0633 30.6924 42.3356Z" fill="#00A09B"/>
<path d="M23.8786 42.2477C23.9177 42.2193 23.9598 42.1949 24.0036 42.1741C24.0492 42.1582 24.0963 42.146 24.1441 42.1381C24.2842 42.1094 24.4297 42.122 24.5627 42.1741C24.6507 42.2175 24.7323 42.2721 24.8056 42.3368C24.8721 42.4072 24.9245 42.4895 24.9601 42.5797C25.0776 42.8535 25.0161 43.1711 24.8056 43.3817C24.7341 43.4467 24.6518 43.4988 24.5627 43.5362C24.2889 43.6537 23.9713 43.5926 23.7607 43.3817C23.5498 43.1711 23.4887 42.8535 23.6062 42.5797C23.6436 42.4906 23.6957 42.4083 23.7607 42.3368C23.797 42.3034 23.8362 42.2736 23.8786 42.2477Z" fill="#00A09B"/>
<path d="M18.9187 42.3356C18.9852 42.406 19.0376 42.4883 19.0732 42.5785C19.1145 42.6658 19.1346 42.7614 19.1321 42.858C19.1339 43.0539 19.057 43.2421 18.9187 43.3805C18.8472 43.4455 18.7649 43.4976 18.6758 43.535C18.4494 43.632 18.1897 43.6083 17.9849 43.4717C17.7801 43.3352 17.6579 43.1042 17.6604 42.858C17.6583 42.7614 17.6784 42.6658 17.7193 42.5785C17.7567 42.4894 17.8088 42.4071 17.8738 42.3356C18.1688 42.0633 18.6237 42.0633 18.9187 42.3356Z" fill="#00A09B"/>
</svg>
