<svg width="45" height="42" viewBox="0 0 45 42" fill="none" xmlns="http://www.w3.org/2000/svg">
<path d="M29.5312 6.05859C29.0461 6.05859 28.6523 6.45234 28.6523 6.9375C28.6523 7.42266 29.0461 7.81641 29.5312 7.81641C30.0164 7.81641 30.4102 7.42266 30.4102 6.9375C30.4102 6.45234 30.0164 6.05859 29.5312 6.05859Z" fill="#00A09B"/>
<path d="M38.3364 20.7525C37.3386 17.1738 32.9889 11.5554 33.529 1.71214C33.5422 1.47114 33.4557 1.23524 33.2896 1.05981C33.1237 0.884473 32.8928 0.785156 32.6514 0.785156H12.3486C12.1072 0.785156 11.8763 0.884473 11.7104 1.05981C11.5444 1.23516 11.4579 1.47105 11.471 1.71214C12.0086 11.5101 7.67197 17.186 6.65727 20.7451C4.82256 27.162 7.81559 35.4501 12.0093 40.8736C12.1758 41.0888 12.4325 41.2148 12.7046 41.2148H32.2963C32.5683 41.2148 32.825 41.0888 32.9915 40.8737C36.9831 35.7132 40.1091 27.0857 38.3364 20.7525ZM10.9372 15.2144C12.5851 11.0405 13.3661 6.7822 13.2629 2.54306H31.737C31.6338 6.78053 32.4145 11.0379 34.0618 15.2124C34.1316 15.3892 34.2047 15.5676 34.2804 15.7479C30.6642 17.461 26.6096 18.3633 22.5 18.3633C18.3904 18.3633 14.3356 17.461 10.7194 15.7479C10.7942 15.5693 10.8671 15.3919 10.9372 15.2144ZM21.6211 39.457H13.1403C8.61319 33.4052 7.26223 26.5378 8.12804 22.1413C12.8876 23.9686 17.3968 27.9057 21.6211 31.105V39.457ZM8.60282 20.4413C8.89901 19.6222 9.2678 18.8594 9.67992 18.0086C9.78407 17.7937 9.88998 17.5747 9.99694 17.3504C13.8399 19.1652 18.1425 20.1211 22.5 20.1211C26.8574 20.1211 31.1599 19.1652 35.0028 17.3505C35.1094 17.5741 35.2149 17.7923 35.3186 18.0064C35.7312 18.8585 36.1003 19.6225 36.3933 20.4425C31.3696 22.3335 26.6354 26.4192 22.5 29.5663C18.3468 26.406 13.6279 22.3317 8.60282 20.4413ZM31.8591 39.457H23.3789V31.105C27.6332 27.8825 32.1145 23.9718 36.8579 22.1465C37.903 27.701 35.1779 34.9719 31.8591 39.457Z" fill="#00A09B"/>
<path d="M31.6796 13.7875C31.2952 12.6137 30.9724 11.4247 30.7201 10.2532C30.6178 9.77874 30.1502 9.47657 29.6758 9.57905C29.2013 9.68126 28.8995 10.1488 29.0017 10.6233C29.2669 11.8544 29.6059 13.103 30.0091 14.3346C30.1599 14.7952 30.6557 15.0477 31.1179 14.8963C31.5793 14.7453 31.8307 14.2489 31.6796 13.7875Z" fill="#00A09B"/>
<path d="M44.1211 7.81651H38.6844L40.6996 5.80126C41.0428 5.45805 41.0428 4.90152 40.6996 4.55822C40.3564 4.21492 39.7999 4.21501 39.4566 4.55822L35.9409 8.07385C35.5977 8.41706 35.5977 8.97359 35.9409 9.31689L39.4566 12.8325C39.7998 13.1757 40.3563 13.1757 40.6996 12.8325C41.0428 12.4893 41.0428 11.9328 40.6996 11.5895L38.6844 9.57432H44.1211C44.6065 9.57432 45 9.18083 45 8.69541C45 8.20999 44.6065 7.81651 44.1211 7.81651Z" fill="#00A09B"/>
<path d="M9.05906 8.07382L5.54344 4.55819C5.20022 4.21498 4.6437 4.21498 4.3004 4.55819C3.9571 4.9014 3.95719 5.45793 4.3004 5.80123L6.31564 7.81638H0.878906C0.393486 7.81638 0 8.20987 0 8.69529C0 9.18071 0.393486 9.5742 0.878906 9.5742H6.31564L4.3004 11.5894C3.95719 11.9327 3.95719 12.4892 4.3004 12.8325C4.64361 13.1757 5.20014 13.1757 5.54344 12.8325L9.05906 9.31685C9.40227 8.97364 9.40227 8.41712 9.05906 8.07382Z" fill="#00A09B"/>
</svg>
