<svg width="39" height="42" viewBox="0 0 39 42" fill="none" xmlns="http://www.w3.org/2000/svg">
<path d="M6.26611 28.7512L4.5931 24.8473C4.07248 23.6682 2.69461 23.1344 1.51555 23.6551C0.336492 24.1757 -0.197276 25.5536 0.323348 26.7326C3.40495 33.5119 3.55508 34.2463 4.92175 35.6116L10.3993 41.0891C10.5261 41.2159 10.698 41.2872 10.8774 41.2872H18.2084C18.5819 41.2872 18.8847 40.9845 18.8847 40.611C18.9756 39.2399 18.9005 37.8627 18.6608 36.5096C19.2595 36.5664 19.8623 36.5664 20.461 36.5096C20.1695 37.7472 20.2371 38.5072 20.2371 40.6103C20.2371 40.9838 20.5399 41.2866 20.9134 41.2866H28.2472C28.4265 41.2865 28.5985 41.2153 28.7253 41.0884L34.2028 35.6109C35.5674 34.2456 35.6763 33.6018 38.8012 26.7319C39.138 25.9692 39.0423 25.0848 38.5501 24.4118C38.058 23.7387 37.2442 23.3794 36.4152 23.4691C35.5863 23.5588 34.8682 24.0839 34.5314 24.8466L32.8557 28.7512C32.0707 28.2081 31.0951 28.0163 30.1629 28.2217C30.4758 27.4542 30.7414 26.6683 30.9582 25.8684C32.3005 25.5979 35.5525 24.4192 35.5525 19.3089C35.5525 17.5771 35.2509 15.4429 33.5286 15.2075C35.9631 11.4396 36.936 6.91146 36.2639 2.47603L35.9934 1.2419C35.9244 0.931325 35.6482 0.710875 35.3301 0.71241H3.79176C3.47487 0.712465 3.20052 0.932565 3.13176 1.2419L2.84774 2.52675C2.18773 6.94941 3.16471 11.4609 5.59528 15.2143C3.88982 15.4686 3.5943 17.5967 3.5943 19.3116C3.5943 24.424 6.84902 25.6006 8.19271 25.8711C8.41071 26.6733 8.67741 27.4614 8.99134 28.2312C8.05024 28.0126 7.06061 28.2015 6.26611 28.7512ZM17.5322 39.9341H11.1546L5.87998 34.6554C4.77568 33.5538 4.77704 33.2617 1.55477 26.1727C1.4132 25.852 1.45348 25.4801 1.66044 25.1971C1.8674 24.9142 2.20961 24.7631 2.55814 24.8008C2.90668 24.8386 3.2086 25.0594 3.35018 25.3801C6.08961 31.7733 5.02454 30.2159 10.3966 35.5913C10.5663 35.7671 10.8178 35.8376 11.0542 35.7757C11.2906 35.7138 11.4753 35.5292 11.5372 35.2928C11.599 35.0563 11.5285 34.8049 11.3528 34.6351C7.64833 30.9314 7.47319 30.8286 6.90853 29.9637C7.66578 29.335 8.76299 29.3333 9.52218 29.9596C10.9307 31.2511 12.5578 32.2816 14.3275 33.0027C15.9092 33.5281 17.5322 35.5778 17.5322 38.4464V39.9341ZM18.1794 35.0821C17.5512 33.5365 16.3121 32.3192 14.7556 31.7185C13.4267 31.1809 12.1935 30.4319 11.1039 29.5005C8.78035 25.3835 8.48146 20.422 8.47808 15.6944C9.91102 13.1694 13.6695 7.34493 19.5609 3.79131C25.4651 7.37131 29.2311 13.2045 30.6688 15.7363C30.6579 20.5376 30.3712 25.2713 28.0774 29.4551C26.9716 30.4059 25.7184 31.1704 24.3669 31.7185C22.8091 32.3204 21.5693 33.5394 20.9411 35.0868C20.0257 35.2264 19.0943 35.2248 18.1794 35.0821ZM32.2133 29.9603C31.6513 30.8218 31.4884 30.9124 27.7691 34.6317C27.5128 34.8971 27.5164 35.3188 27.7773 35.5797C28.0381 35.8405 28.4599 35.8442 28.7253 35.5879C34.0459 30.268 33.0308 31.7767 35.7716 25.3801C35.9132 25.0594 36.2151 24.8386 36.5637 24.8008C36.9122 24.7631 37.2544 24.9142 37.4614 25.1971C37.6683 25.4801 37.7086 25.852 37.567 26.1727C34.3928 33.1562 34.3732 33.5268 33.2459 34.6554L27.9672 39.9341H21.5896V38.4464C21.5665 36.9784 22.0408 35.5458 22.9353 34.3815C24.5211 32.3988 25.0269 33.8088 29.5996 29.9596C30.358 29.3323 31.4552 29.3326 32.2133 29.9603ZM34.2001 19.3089C34.2001 22.7137 32.5494 23.9323 31.322 24.3692C31.7789 21.9614 32.0071 19.5159 32.0036 17.0651C32.6292 16.6209 33.1837 16.4356 33.4914 16.5843C33.657 16.6641 34.2001 17.0983 34.2001 19.3089ZM34.7891 2.06488C35.6847 6.58472 34.6821 11.274 32.0165 15.0324C31.9523 9.98158 30.618 6.52128 27.9361 4.46958C27.6394 4.24269 27.2149 4.29931 26.988 4.59603C26.7611 4.89276 26.8177 5.31723 27.1145 5.54412C29.0695 7.03927 30.19 9.4859 30.5396 12.9489C27.8279 8.83062 23.64 4.44388 19.2701 2.06488H34.7891ZM4.3341 2.06488H13.5573C12.0485 3.06426 10.7028 4.29024 9.56749 5.69965C9.33407 5.99133 9.3813 6.41702 9.67299 6.65044C9.96467 6.88386 10.3904 6.83663 10.6238 6.54495C12.1353 4.67847 14.0394 3.16782 16.2007 2.12033C16.8876 2.39033 17.5601 2.69595 18.2152 3.03596C12.5389 6.69034 8.91357 12.1496 7.21216 15.1839C4.46308 11.4046 3.41956 6.64791 4.3341 2.06488ZM4.94677 19.3089C4.94677 17.0956 5.48776 16.6614 5.65682 16.5816C5.95842 16.4362 6.52443 16.6242 7.14454 17.0624C7.14114 19.5143 7.3696 21.961 7.82686 24.3699C6.59949 23.9357 4.94677 22.7178 4.94677 19.3089Z" fill="#00A09B"/>
<path d="M11.7484 15.4104C12.4535 15.0559 13.2711 14.998 14.0192 15.2494L16.6423 16.1238C16.8718 16.2002 17.1246 16.1483 17.3055 15.9877C17.4863 15.8271 17.5678 15.5822 17.5192 15.3452C17.4705 15.1083 17.2992 14.9153 17.0697 14.839L14.4465 13.9666C13.3584 13.6011 12.1693 13.6856 11.1438 14.2013C10.9257 14.3081 10.7817 14.5237 10.7665 14.7661C10.7512 15.0085 10.8671 15.2404 11.0701 15.3737C11.2731 15.5071 11.532 15.5213 11.7484 15.4111V15.4104Z" fill="#00A09B"/>
<path d="M22.2658 16.1585C22.4234 16.1585 22.2658 16.1957 25.106 15.2496C25.854 14.9975 26.6719 15.0554 27.3768 15.4105C27.5932 15.5208 27.8521 15.5065 28.0551 15.3732C28.2581 15.2399 28.374 15.008 28.3587 14.7656C28.3435 14.5232 28.1995 14.3076 27.9814 14.2008C26.9556 13.6851 25.7663 13.6006 24.678 13.9661L22.0555 14.8405C21.7412 14.9449 21.5487 15.2617 21.6009 15.5888C21.6531 15.9159 21.9346 16.1571 22.2658 16.1585Z" fill="#00A09B"/>
<path d="M16.8188 18.7538C16.6989 18.4009 16.3159 18.2115 15.9627 18.3305C15.939 18.3379 13.633 19.0899 11.8518 17.7537C11.584 17.554 11.2105 17.5799 10.9727 17.8145C10.7353 18.0602 10.4286 18.2277 10.0936 18.2947C9.72013 18.2947 9.41737 18.5974 9.41737 18.9709C9.41737 19.3444 9.72013 19.6471 10.0936 19.6471C10.5986 19.62 11.0837 19.4417 11.486 19.1352C11.5881 19.1961 11.6889 19.2502 11.793 19.3023C11.7023 19.4399 11.5842 19.5573 11.4461 19.6471C11.0726 19.6471 10.7698 19.9499 10.7698 20.3234C10.7698 21.1545 12.0189 21.473 13.1184 19.7695C14.2079 19.9921 15.3359 19.9375 16.3988 19.6106C16.7508 19.4893 16.9385 19.1063 16.8188 18.7538Z" fill="#00A09B"/>
<path d="M27.27 17.7534C25.4976 19.0822 23.2072 18.3464 23.1598 18.3302C22.8063 18.2096 22.422 18.3983 22.3014 18.7518C22.1807 19.1053 22.3695 19.4897 22.723 19.6103C23.7858 19.9377 24.9139 19.9923 26.0034 19.7692C26.3469 20.3028 26.9359 20.9993 27.6757 20.9993C28.0524 21.0012 28.3606 20.6997 28.3668 20.3231C28.3707 20.145 28.3026 19.973 28.178 19.8457C28.0535 19.7185 27.8829 19.6468 27.7048 19.6468C27.555 19.5608 27.4272 19.4411 27.3315 19.2972C27.433 19.2451 27.5344 19.1924 27.6358 19.1315C28.0377 19.4392 28.5229 19.6188 29.0282 19.6468C29.4017 19.6468 29.7044 19.3441 29.7044 18.9706C29.7044 18.5971 29.4017 18.2943 29.0282 18.2943C28.6951 18.2272 28.3902 18.0605 28.1538 17.8162C27.9159 17.5783 27.5392 17.5515 27.27 17.7534Z" fill="#00A09B"/>
<path d="M17.1569 24.2664C18.6118 25.2398 20.51 25.2398 21.9649 24.2664C22.1659 24.1323 22.2801 23.9011 22.2645 23.66C22.2489 23.4189 22.1058 23.2044 21.8892 23.0974C21.6726 22.9904 21.4153 23.007 21.2143 23.1411C20.2135 23.81 18.9083 23.81 17.9075 23.1411C17.5968 22.9338 17.1768 23.0177 16.9696 23.3284C16.7623 23.6392 16.8462 24.0591 17.1569 24.2664Z" fill="#00A09B"/>
<path d="M23.6183 28.3031C23.6163 28.0766 23.5207 27.861 23.3542 27.7073C23.1878 27.5536 22.9652 27.4756 22.7392 27.4916C22.1786 27.4916 20.5191 26.4097 19.5609 26.4097C18.5898 26.4097 16.9533 27.4916 16.386 27.4916C16.1595 27.4748 15.9361 27.5525 15.7689 27.7062C15.6018 27.8599 15.5057 28.076 15.5035 28.3031C15.5035 29.2573 17.4139 30.4671 19.5609 30.4671C21.708 30.4671 23.6183 29.2566 23.6183 28.3031ZM19.5609 27.7621C20.2887 27.9753 20.9959 28.2532 21.6741 28.5926C20.3512 29.2884 18.7706 29.2884 17.4477 28.5926C18.1256 28.2526 18.8329 27.9746 19.5609 27.7621Z" fill="#00A09B"/>
<path d="M20.2371 31.8193H18.8847C18.5112 31.8193 18.2084 32.1221 18.2084 32.4956C18.2084 32.869 18.5112 33.1718 18.8847 33.1718H20.2371C20.6106 33.1718 20.9134 32.869 20.9134 32.4956C20.9134 32.1221 20.6106 31.8193 20.2371 31.8193Z" fill="#00A09B"/>
<path d="M8.06489 8.82708C8.43837 8.82708 8.74113 8.52432 8.74113 8.15085C8.74113 7.77737 8.43837 7.47461 8.06489 7.47461C7.69142 7.47461 7.38866 7.77737 7.38866 8.15085C7.38866 8.52432 7.69142 8.82708 8.06489 8.82708Z" fill="#00A09B"/>
</svg>
