<?xml version="1.0" encoding="utf-8"?>
<!-- Generator: Adobe Illustrator 16.0.0, SVG Export Plug-In . SVG Version: 6.00 Build 0)  -->
<!DOCTYPE svg PUBLIC "-//W3C//DTD SVG 1.1//EN" "http://www.w3.org/Graphics/SVG/1.1/DTD/svg11.dtd">
<svg version="1.1" id="Layer_1" xmlns="http://www.w3.org/2000/svg" xmlns:xlink="http://www.w3.org/1999/xlink" x="0px" y="0px"
	 width="272px" height="12px" viewBox="0 0 272 12" enable-background="new 0 0 272 12" xml:space="preserve">
<path fill="#00A09B" d="M1.409,2.778C0.114,2.24,1.893,1.813,6.743,1.495c6.97-0.37,14.151-0.534,21.332-0.487
	c9.724,0.008,19.437,0.128,29.093,0.358c6.683,0.327,13.501,0.521,20.365,0.579c5.494,0.138,12.525,0.358,21.093,0.664
	c8.567,0.305,15.113,0.555,19.636,0.75c0,0.114,1.131,0.234,3.395,0.36c2.211,0.124,4.495,0.187,6.788,0.186
	c3.003-0.001,6.003,0.046,8.969,0.142c2.231,0.055,4.425,0.16,6.544,0.314c1.72,0.022,3.423,0.078,5.091,0.166
	c1.668,0.089,3.372,0.144,5.091,0.167c1.061,0.013,2.111,0.047,3.137,0.104c1.195,0.061,2.421,0.095,3.652,0.1
	c9.696,0.502,27.96,1.225,54.791,2.168c26.829,0.942,42.344,1.426,46.547,1.45c5.494,0.08,7.757,0.335,6.788,0.761
	c0.609,0.062,1.12,0.159,1.465,0.279c0.345,0.121,0.511,0.261,0.478,0.401l-7.757,0.604c-2.236,0.2-4.609,0.325-7.032,0.369
	c-2.424,0.045-6.061,0.069-10.91,0.073c-5.293-0.033-10.562-0.155-15.757-0.364c-5.657-0.223-11.556-0.487-17.698-0.794
	c-6.143-0.308-10.505-0.518-13.089-0.629l-11.636-0.545c-5.253-0.298-10.6-0.521-16.002-0.667c-2.367-0.03-4.719-0.1-7.028-0.209
	c-3.395-0.139-6.222-0.25-8.485-0.333c-4.851-0.252-10.914-0.531-18.187-0.837c-4.235-0.205-8.525-0.357-12.848-0.457
	c-0.646-0.029-1.777-0.063-3.394-0.104c-1.499-0.035-2.967-0.113-4.363-0.231c0-0.085-0.727-0.141-2.182-0.168
	c-1.454-0.027-2.5-0.041-3.136-0.04c-3.25-0.03-6.487-0.1-9.698-0.204c-4.849-0.139-10.182-0.333-16.001-0.583
	c-22.161-0.74-44.491-1.246-66.905-1.518C11.131,3.267,6.602,3.221,5.298,3.18C3.848,3.123,2.501,2.984,1.409,2.778z"/>
</svg>
