<?xml version="1.0" encoding="utf-8"?>
<!-- Generator: Adobe Illustrator 16.0.0, SVG Export Plug-In . SVG Version: 6.00 Build 0)  -->
<!DOCTYPE svg PUBLIC "-//W3C//DTD SVG 1.1//EN" "http://www.w3.org/Graphics/SVG/1.1/DTD/svg11.dtd">
<svg version="1.1" id="Layer_1" xmlns="http://www.w3.org/2000/svg" xmlns:xlink="http://www.w3.org/1999/xlink" x="0px" y="0px"
	 width="80px" height="10px" viewBox="0 0 80 10" enable-background="new 0 0 80 10" xml:space="preserve">
<path fill="#1E55F4" d="M1.139,3.535c-0.405-0.586,0.078-1.097,1.45-1.53c1.978-0.525,4.029-0.824,6.094-0.883
	c2.792-0.143,5.588-0.16,8.376-0.051c1.939,0.263,3.909,0.375,5.884,0.333c1.586,0.069,3.619,0.208,6.099,0.417
	c2.479,0.21,4.374,0.389,5.686,0.538c0.007,0.128,0.339,0.246,0.998,0.353c0.643,0.105,1.302,0.14,1.96,0.103
	c0.862-0.048,1.726-0.042,2.585,0.019c0.644,0.027,1.279,0.111,1.897,0.251c0.495-0.002,0.987,0.034,1.473,0.108
	c0.484,0.073,0.978,0.109,1.472,0.107c0.306-0.002,0.609,0.02,0.908,0.067c0.348,0.051,0.7,0.069,1.055,0.055
	c2.815,0.415,8.105,0.944,15.869,1.586c7.763,0.642,12.248,0.945,13.458,0.907c1.582,0.004,2.248,0.254,1.996,0.751
	c0.181,0.059,0.333,0.16,0.439,0.292c0.105,0.13,0.163,0.285,0.162,0.444l-2.188,0.802c-0.63,0.261-1.304,0.438-1.995,0.526
	c-0.694,0.087-1.737,0.173-3.129,0.253c-1.521,0.045-3.042-0.009-4.548-0.165c-1.637-0.161-3.349-0.367-5.131-0.617
	c-1.783-0.25-3.05-0.418-3.798-0.505l-3.376-0.431c-1.527-0.252-3.077-0.421-4.637-0.501c-0.683,0.003-1.361-0.038-2.031-0.125
	c-0.984-0.103-1.803-0.185-2.457-0.243c-1.41-0.207-3.169-0.428-5.275-0.658c-1.229-0.166-2.471-0.27-3.718-0.314
	c-0.188-0.021-0.515-0.043-0.981-0.064c-0.432-0.016-0.859-0.081-1.267-0.191c-0.005-0.096-0.218-0.148-0.637-0.156
	c-0.419-0.008-0.72-0.007-0.903,0.004c-0.934,0.017-1.869-0.01-2.797-0.079c-1.401-0.08-2.945-0.215-4.632-0.407
	c-6.41-0.487-12.854-0.708-19.307-0.664c-2.23,0.065-3.534,0.084-3.911,0.058C1.861,3.886,1.466,3.75,1.139,3.535z"/>
</svg>
