<svg width="161" height="22" viewBox="0 0 161 22" fill="none" xmlns="http://www.w3.org/2000/svg">
<path d="M0.364748 11.3048C-0.440802 10.6947 0.585119 10.1174 3.44251 9.57302C7.55434 8.89464 11.8061 8.45901 16.0724 8.27899C21.8454 7.96855 27.6192 7.79332 33.3677 7.75409C37.357 7.92988 41.4182 7.94015 45.4966 7.78478C48.7675 7.77016 52.9566 7.80642 58.0636 7.89356C63.1707 7.9807 67.0736 8.06807 69.7721 8.15568C69.78 8.29344 70.4599 8.4015 71.8119 8.47984C73.1335 8.55772 74.493 8.5581 75.8543 8.48099C77.6374 8.38076 79.4208 8.33927 81.1886 8.35689C82.5168 8.34963 83.8268 8.40499 85.0952 8.52198C86.1172 8.49186 87.1329 8.50304 88.1289 8.55537C89.125 8.6077 90.1407 8.61888 91.1626 8.58876C91.7927 8.56904 92.4189 8.57659 93.0316 8.6113C93.7452 8.64657 94.4747 8.64676 95.2064 8.61189C100.997 8.90213 111.889 9.17638 127.881 9.43464C143.873 9.6929 153.117 9.76781 155.614 9.65938C158.881 9.57559 160.242 9.8087 159.696 10.3587C160.062 10.4124 160.371 10.5132 160.585 10.6484C160.798 10.7837 160.906 10.9474 160.896 11.1192L156.333 12.1069C155.019 12.4227 153.619 12.6519 152.184 12.7859C150.748 12.92 148.59 13.0696 145.713 13.2346C142.568 13.3693 139.432 13.3951 136.333 13.3118C132.96 13.2288 129.439 13.1024 125.772 12.9327C122.104 12.7631 119.5 12.6524 117.959 12.6008L111.014 12.3249C107.875 12.1368 104.686 12.0426 101.469 12.0429C100.061 12.0859 98.661 12.0789 97.2819 12.0218C95.2575 11.965 93.5708 11.9234 92.2218 11.8973C89.3249 11.7516 85.7069 11.6132 81.3678 11.4821C78.8397 11.3736 76.2824 11.3299 73.7093 11.3512C73.324 11.3386 72.65 11.334 71.6873 11.3375C70.7951 11.3445 69.9183 11.2989 69.0814 11.2019C69.0755 11.0987 68.64 11.0546 67.7748 11.0695C66.9096 11.0844 66.2881 11.1027 65.9103 11.1243C63.9794 11.1943 62.0528 11.2182 60.1393 11.1958C57.2516 11.1885 54.0719 11.1288 50.5999 11.0167C37.3937 10.8502 24.1029 10.9721 10.7781 11.3818C6.17 11.5766 3.47768 11.6704 2.70116 11.6632C1.83607 11.6425 1.02751 11.5185 0.364748 11.3048Z" fill="#1592E6"/>
</svg>
