<svg width="278" height="33" viewBox="0 0 278 33" fill="none" xmlns="http://www.w3.org/2000/svg">
<path d="M0.577617 18.9307C-0.797336 18.1573 0.986948 17.3819 5.93041 16.6044C13.0416 15.622 20.3881 14.9517 27.7536 14.6132C37.722 14.0684 47.6884 13.6993 57.6077 13.5075C64.4866 13.6384 71.4935 13.5523 78.5341 13.2505C84.1782 13.1514 91.405 13.096 100.215 13.0842C109.024 13.0724 115.756 13.0904 120.41 13.1382C120.42 13.3171 121.591 13.4409 123.922 13.5096C126.2 13.5785 128.545 13.5457 130.896 13.4122C133.975 13.2382 137.053 13.1407 140.103 13.1203C142.395 13.0783 144.654 13.1182 146.84 13.2392C148.604 13.175 150.356 13.1647 152.073 13.2083C153.79 13.252 155.543 13.2416 157.307 13.1775C158.394 13.1364 159.474 13.1309 160.531 13.161C161.761 13.1894 163.02 13.1718 164.283 13.1085C174.268 13.344 193.053 13.4338 220.64 13.378C248.226 13.3221 264.174 13.1932 268.484 12.9911C274.123 12.8022 276.465 13.0719 275.511 13.8002C276.141 13.861 276.672 13.9844 277.037 14.1549C277.401 14.3255 277.584 14.5357 277.562 14.7593L269.665 16.1548C267.39 16.5974 264.969 16.9296 262.49 17.1388C260.008 17.3483 256.283 17.5956 251.313 17.8805C245.885 18.1325 240.472 18.2429 235.128 18.2105C229.31 18.1851 223.239 18.1071 216.915 17.9764C210.591 17.8456 206.1 17.7656 203.442 17.7362L191.466 17.5477C186.055 17.38 180.555 17.3356 175.004 17.4148C172.575 17.5052 170.159 17.5303 167.781 17.4899C164.289 17.4655 161.38 17.4529 159.053 17.4519C154.058 17.3335 147.819 17.2422 140.336 17.1779C135.976 17.0988 131.565 17.1047 127.125 17.1954C126.46 17.1884 125.298 17.199 123.637 17.227C122.097 17.258 120.585 17.2202 119.144 17.1146C119.136 16.9806 118.386 16.9339 116.893 16.9745C115.399 17.015 114.327 17.054 113.674 17.0914C110.341 17.2296 107.016 17.3078 103.715 17.3256C98.733 17.3868 93.2481 17.387 87.2604 17.3263C64.4785 17.4332 41.5436 17.917 18.5429 18.7759C10.5873 19.1419 5.93972 19.3297 4.60009 19.3393C3.108 19.3336 1.71591 19.1922 0.577617 18.9307Z" fill="#00B34F"/>
</svg>
