<svg width="40" height="44" viewBox="0 0 40 44" fill="none" xmlns="http://www.w3.org/2000/svg">
<path d="M10.5434 25.0395C10.8854 25.9518 11.3815 28.9646 11.3599 29.9991C11.3343 31.2458 11.0024 33.2636 10.6815 35.215C10.6251 35.5577 10.8573 35.8812 11.2 35.9376C11.5422 35.9945 11.8664 35.7618 11.9227 35.419C12.2659 33.3323 12.5901 31.3612 12.6175 30.0251C12.6428 28.8152 12.1233 25.6705 11.7212 24.598C10.8603 22.3 9.49424 19.2702 9.49424 16.2496C9.49424 15.5979 8.6186 15.3781 8.31084 15.9528C7.14866 18.1231 6.71394 21.3667 6.36468 23.973C6.01356 26.5929 5.90111 26.1861 6.18312 28.8682C6.25943 29.5937 6.33826 30.344 6.31428 30.7956C6.11168 34.6319 5.06908 40.2683 4.74119 41.9708H1.64207C1.51234 40.0553 1.12878 33.822 1.30161 29.4197C1.48131 24.8676 2.5354 22.3076 2.57155 21.3203C2.64006 19.4828 2.80786 17.6928 2.95603 16.1135C3.10454 14.5301 3.22186 13.2795 3.18933 12.4949C3.1126 10.6141 3.13775 8.50771 4.41515 7.315C5.61415 6.19467 8.30304 5.73144 10.2212 5.48053C10.5657 5.4355 10.8084 5.11978 10.7633 4.77538C10.7182 4.43097 10.4025 4.18871 10.0581 4.23332C7.79118 4.52984 5.0035 5.04364 3.55654 6.39576C1.89012 7.95182 1.8445 10.3863 1.93255 12.5465C1.96157 13.2468 1.84207 14.5208 1.7037 15.9961C1.5541 17.5918 1.38446 19.4006 1.31461 21.2738C1.28878 21.9818 0.225547 24.7928 0.04475 29.3703C-0.163552 34.675 0.422612 42.5679 0.428566 42.647C0.45322 42.9751 0.72668 43.2288 1.05574 43.2288H5.25893C5.5583 43.2288 5.81625 43.0177 5.87545 42.7242C5.93457 42.4313 7.32552 35.4973 7.57038 30.8621C7.59965 30.3113 7.51923 29.5466 7.43403 28.7368C7.17424 26.2646 7.26136 26.7512 7.6113 24.1402C7.83009 22.5074 8.08376 20.6146 8.52577 18.9489C8.98942 21.2311 9.91059 23.3506 10.5434 25.0395Z" fill="#00A09B"/>
<path d="M39.9553 29.3698C39.7717 24.7204 38.7126 22.0155 38.6854 21.2732C38.6326 19.855 38.5191 18.4664 38.4384 17.5453C38.4081 17.1993 38.1028 16.9436 37.7569 16.9737C37.4109 17.004 37.155 17.3091 37.1853 17.6552C37.2649 18.5628 37.3766 19.9302 37.4284 21.3198C37.4646 22.3066 38.5188 24.8697 38.6984 29.4193C38.8712 33.8207 38.4877 40.0548 38.3579 41.9706H35.2588C34.9309 40.2681 33.8884 34.6327 33.6856 30.7953C33.6617 30.3437 33.7406 29.5935 33.8168 28.868C34.0989 26.1851 33.987 26.5977 33.6353 23.9728C33.2859 21.3665 32.8513 18.1229 31.6891 15.9525C31.3817 15.3784 30.5057 15.597 30.5057 16.2494C30.5057 19.2424 29.1697 22.2191 28.2788 24.5977C27.8766 25.6703 27.3572 28.815 27.3824 30.0247C27.4099 31.3625 27.7329 33.3261 28.107 35.5995C28.4332 37.5824 28.7989 39.8044 29.0237 41.9706H20.6289V22.6546C20.6289 22.3072 20.3473 22.0257 20 22.0257C19.6527 22.0257 19.3711 22.3072 19.3711 22.6546V41.9706H10.9763C11.0935 40.8406 11.2608 39.5831 11.4938 38.0764C11.5469 37.7331 11.3117 37.4118 10.9684 37.3587C10.6256 37.306 10.3038 37.5408 10.2507 37.8842C9.96545 39.7293 9.77677 41.2098 9.6571 42.5434C9.62415 42.9107 9.91354 43.2286 10.2835 43.2286H29.7167C30.0869 43.2286 30.376 42.9105 30.3431 42.5434C30.1255 40.1187 29.7126 37.6094 29.3484 35.3955C28.9822 33.1695 28.6659 31.247 28.6402 29.9988C28.6186 28.9644 29.1146 25.9517 29.4568 25.0392C30.0932 23.3401 31.0108 21.23 31.4742 18.9488C31.9162 20.6144 32.1698 22.5073 32.3886 24.14C32.7386 26.7511 32.8258 26.2645 32.5659 28.7365C32.4807 29.5463 32.4004 30.3111 32.4295 30.8618C32.6744 35.4971 34.0654 42.4311 34.1245 42.724C34.1838 43.0175 34.4416 43.2286 34.741 43.2286H38.9442C39.2732 43.2286 39.5467 42.975 39.5714 42.6468C39.5774 42.5676 40.1636 34.6747 39.9553 29.3698Z" fill="#00A09B"/>
<path d="M12.901 5.16466C13.8277 5.04894 14.3135 4.94956 14.6335 4.81028C15.9656 4.23141 17.1347 2.99921 17.2992 1.55132H22.6997C22.8681 3.0621 24.1223 4.26965 25.3662 4.81011C25.8735 5.03091 26.8257 5.13791 28.1435 5.28609C30.5291 5.55426 34.1344 5.95955 35.5851 7.31494C36.8622 8.50756 36.8874 10.614 36.8107 12.4943C36.785 13.1157 36.8571 14.0526 36.9388 14.9726C36.9679 15.2995 37.2424 15.5459 37.5645 15.5458C37.5832 15.5458 37.602 15.545 37.6209 15.5434C37.9669 15.5127 38.2225 15.2072 38.1917 14.8612C38.1137 13.9836 38.0447 13.0958 38.0675 12.5461C38.1556 10.3862 38.11 7.95175 36.4437 6.39577C34.6889 4.75611 30.9869 4.33992 28.2839 4.0361C27.2133 3.91568 26.2019 3.80206 25.8678 3.65665C24.8158 3.19954 23.8196 2.13824 23.9509 0.994087C23.9713 0.815974 23.9147 0.637608 23.7954 0.503772C23.676 0.369935 23.5052 0.293457 23.3259 0.293457H16.6741C16.4948 0.293457 16.3241 0.369935 16.2048 0.503772C16.0854 0.637608 16.0288 0.815974 16.0493 0.994087C16.1805 2.13824 15.1842 3.19954 14.132 3.65682C13.8531 3.77816 13.0193 3.88223 12.7453 3.91652C12.4006 3.95963 12.156 4.27392 12.1991 4.61858C12.2422 4.96323 12.5558 5.20751 12.901 5.16466Z" fill="#00A09B"/>
<path d="M16.8636 10.4118C16.8537 10.4529 15.8443 14.5656 12.8869 17.461C12.6387 17.704 12.6345 18.1022 12.8776 18.3504C13.1205 18.5985 13.5187 18.6028 13.7669 18.3598C16.991 15.2032 18.044 10.8849 18.0873 10.7026C18.1675 10.3648 17.9586 10.0263 17.621 9.94586C17.283 9.86569 16.9443 10.0742 16.8636 10.4118Z" fill="#00A09B"/>
<path d="M23.7591 10.4115C23.6787 10.0739 23.3398 9.86553 23.002 9.94519C22.6641 10.0254 22.4551 10.3644 22.5353 10.7023C22.5785 10.8846 23.6315 15.203 26.8555 18.3595C27.1037 18.6025 27.5019 18.5984 27.7449 18.3502C27.9879 18.1019 27.9837 17.7038 27.7355 17.4608C24.7794 14.5664 23.7697 10.4558 23.7591 10.4115Z" fill="#00A09B"/>
</svg>
