<?xml version="1.0" encoding="utf-8"?>
<!-- Generator: Adobe Illustrator 16.0.0, SVG Export Plug-In . SVG Version: 6.00 Build 0)  -->
<!DOCTYPE svg PUBLIC "-//W3C//DTD SVG 1.1//EN" "http://www.w3.org/Graphics/SVG/1.1/DTD/svg11.dtd">
<svg version="1.1" id="Layer_1" xmlns="http://www.w3.org/2000/svg" xmlns:xlink="http://www.w3.org/1999/xlink" x="0px" y="0px"
	 width="160px" height="8px" viewBox="0 0 160 8" enable-background="new 0 0 160 8" xml:space="preserve">
<path fill="#00A09B" d="M1.261,4.801C0.47,4.148,1.478,3.53,4.285,2.947c4.041-0.727,8.219-1.192,12.411-1.385
	C22.368,1.23,28.041,1.042,33.689,1c3.92,0.188,7.911,0.199,11.918,0.033c3.214-0.016,7.33,0.024,12.348,0.117
	c5.019,0.093,8.853,0.187,11.505,0.281c0.007,0.147,0.676,0.263,2.004,0.347c1.298,0.083,2.634,0.083,3.972,0.001
	c1.751-0.107,3.505-0.152,5.241-0.133c1.305-0.008,2.592,0.051,3.84,0.177c1.002-0.033,2.001-0.021,2.979,0.035
	c0.979,0.057,1.979,0.068,2.981,0.036c0.62-0.021,1.234-0.013,1.836,0.024c0.703,0.038,1.419,0.038,2.138,0
	c5.689,0.311,16.392,0.604,32.105,0.88s24.799,0.356,27.251,0.241c3.211-0.089,4.548,0.16,4.012,0.749
	c0.359,0.058,0.662,0.166,0.873,0.31c0.21,0.145,0.315,0.32,0.306,0.504l-4.483,1.058c-1.292,0.337-2.668,0.583-4.077,0.726
	c-1.41,0.144-3.532,0.304-6.357,0.48c-3.09,0.144-6.173,0.171-9.218,0.083c-3.314-0.09-6.774-0.225-10.377-0.407
	c-3.604-0.181-6.162-0.3-7.678-0.355l-6.823-0.296c-3.084-0.201-6.219-0.301-9.381-0.301c-1.383,0.046-2.758,0.039-4.113-0.023
	c-1.988-0.061-3.646-0.104-4.973-0.133c-2.846-0.156-6.399-0.304-10.665-0.445c-2.483-0.116-4.996-0.163-7.525-0.14
	c-0.378-0.014-1.041-0.019-1.986-0.015c-0.876,0.008-1.738-0.042-2.561-0.145c-0.006-0.111-0.433-0.158-1.284-0.142
	c-0.85,0.016-1.461,0.036-1.832,0.059c-1.897,0.075-3.791,0.1-5.671,0.076c-2.837-0.008-5.961-0.072-9.373-0.192
	C37.646,4.314,24.586,4.445,11.494,4.883C6.965,5.091,4.32,5.191,3.557,5.184C2.707,5.163,1.912,5.03,1.261,4.801z"/>
</svg>
