<?xml version="1.0" encoding="utf-8"?>
<!-- Generator: Adobe Illustrator 16.0.0, SVG Export Plug-In . SVG Version: 6.00 Build 0)  -->
<!DOCTYPE svg PUBLIC "-//W3C//DTD SVG 1.1//EN" "http://www.w3.org/Graphics/SVG/1.1/DTD/svg11.dtd">
<svg version="1.1" id="Layer_1" xmlns="http://www.w3.org/2000/svg" xmlns:xlink="http://www.w3.org/1999/xlink" x="0px" y="0px"
	 width="2048px" height="1024px" viewBox="0 0 2048 1024" enable-background="new 0 0 2048 1024" xml:space="preserve">
<g>
	<path fill="none" stroke="#F4F4F4" stroke-linecap="round" stroke-miterlimit="10" d="M1515.26-32
		c8.917,7.308,17.475,15.02,25.623,23.076c65.201,64.48,107.098,148.959,138.068,235.279
		c12.479,34.808,23.528,70.508,42.317,102.358c16.91,28.66,39.86,53.638,66.59,73.449c22.859,16.941,50.859,30.561,78.91,25.771
		c28.58-4.868,50.49-27.471,68.869-49.891c44.614-54.456,87.35-119.282,144.36-155.907"/>
	<path fill="none" stroke="#F4F4F4" stroke-linecap="round" stroke-miterlimit="10" d="M-32-19.507
		c20.4,9.416,40.688,19.178,61.028,27.801c95.916,40.678,201.913,57.317,305.686,48.028c23.438-2.098,47.858-5.918,66.738-19.938
		c18.91-14.01,29.988-41.191,18.842-61.92c-1.234-2.3-2.694-4.443-4.316-6.464"/>
	<path fill="none" stroke="#F4F4F4" stroke-linecap="round" stroke-miterlimit="10" d="M1891.297,1056
		c-31.338-14.462-60.389-39.605-67.265-73.363c-7.84-38.46,15.212-77.122,44.603-103.131c20.322-17.969,45.559-34.438,51.719-60.854
		c5.91-25.34-8.146-50.726-22.779-72.229c-14.641-21.505-31.109-44.304-30.721-70.313c0.311-20.183,11.273-39.226,26.512-52.453
		c15.219-13.232,34.389-21.195,53.898-26.384c28.791-7.653,64.18-7.619,82.949,15.488c6.951,8.571,10.66,19.26,16.58,28.563
		c8.25,12.927,19.992,22.221,33.206,30.003"/>
	<path fill="none" stroke="#F4F4F4" stroke-linecap="round" stroke-miterlimit="10" d="M1990.541,1056
		c-13.51-4.964-27.146-9.585-40.869-13.914c-13.908-4.395-28.105-8.568-40.51-16.27c-12.41-7.697-23.039-19.541-25.681-33.896
		c-4.881-26.354,17.029-49.073,34.76-69.16c23.359-26.442,43.041-59.419,40.853-94.639c-2.449-39.082-31.33-73.412-31.062-112.573
		c0.119-18.14,7.289-36.729,21.47-48.044c14.182-11.313,35.66-13.822,50.711-3.69c17.75,11.95,23.25,37.431,41.979,47.811
		c11.244,6.23,24.597,5.575,37.807,5.311"/>
	<path fill="none" stroke="#F4F4F4" stroke-linecap="round" stroke-miterlimit="10" d="M2080,983.661
		c-3.248,5.197-9.437,11.764-13.707,14.253c-12.893,7.511-39.24,13.945-59.063,8.555c-15.603-4.254-30.281-12.822-46.438-13.354
		c-6.343-0.203-12.697,0.854-19.027,0.422c-6.33-0.438-13.012-2.713-16.58-7.947c-1.648-2.414-2.512-5.299-2.961-8.182
		c-2.182-14.31,5.58-28.378,15.381-39.021c9.801-10.645,21.801-19.138,31.119-30.201c15.818-18.762,22.801-43.882,22.857-68.426
		c0.063-24.544-6.312-48.697-14.729-71.746c-4.16-11.406-8.894-23.107-7.988-35.203c0.898-12.093,9.568-24.65,21.689-25.244
		c9.657-0.469,18.131,6.594,23.688,14.491c5.562,7.899,9.369,17.05,15.75,24.313c8.199,9.305,20.529,14.835,32.93,14.771
		c5.711-0.028,11.455-1.146,17.078-0.381"/>
	<path fill="none" stroke="#F4F4F4" stroke-linecap="round" stroke-miterlimit="10" d="M2065.631,921.869
		c-1.637-10.283-5.209-20.182-7.197-30.419v-0.033c-3.342-17.002-2.25-34.502,0.867-51.44c1.713-9.364,5.527-19.651,3.068-29.22
		c-5.408-21.051-51.853-49.975-54.17-13.398c-0.48,7.604,1.92,15.053,3.618,22.471c7.625,33.304,0.673,69.658-18.688,97.803
		c-6.062,8.82-13.683,18.435-11.58,28.938c2.303,11.376,14.817,17.312,26.121,19.915c19.262,4.44,43.118,2.414,53.592-14.339
		C2066.801,943.311,2067.264,932.172,2065.631,921.869z"/>
	<path fill="none" stroke="#F4F4F4" stroke-linecap="round" stroke-miterlimit="10" d="M2068.439,352.884
		c-3.892-10.46-16.209-16.08-27.289-14.761c-11.063,1.341-20.75,8.341-28.08,16.75c-7.303,8.42-12.7,18.301-18.813,27.631
		c-21.921,33.488-55.49,61.062-94.898,68.01c-21.852,3.853-45.159,1.46-65.399,10.521c-7.105,3.182-13.681,7.771-18.5,13.883
		c-4.438,5.643-7.26,12.403-9.078,19.34c-7.23,27.565,2.188,58.826,23.449,77.81c12.471,11.127,29.789,18.186,46.051,14.259
		c19.568-4.736,32.184-23.269,48.729-34.723c11.33-7.838,24.871-12.42,38.631-13.059c19.313-0.903,52.063,3.055,51.92-25.025
		c-0.143-26.213,4.658-46.332,17.604-69.813l-0.022-0.032c12.438-22.602,27.58-44.142,34.83-68.881
		C2069.662,367.652,2071.029,359.844,2068.439,352.884z"/>
	<path fill="none" stroke="#F4F4F4" stroke-linecap="round" stroke-miterlimit="10" d="M2016.393,409.308
		c-5-3.459-15.561,4.102-19.689,6.813c-5.817,3.811-11.08,8.372-15.988,13.271c-9.963,9.921-18.442,21.203-27.602,31.853
		c-6.83,7.932-14.234,15.613-23.381,20.708c-12.402,6.919-26.961,8.522-40.592,12.48c-13.641,3.941-27.709,11.563-32.592,24.902
		c-1.408,3.849-1.937,8.151-0.697,12.063c2.619,8.164,12.027,12.109,20.59,12.717c7.729,0.545,15.582-0.795,22.688-3.881
		c8.486-3.677,15.713-9.709,23.687-14.398c7.235-4.255,15.09-7.418,23.235-9.364c5.479-1.311,11.17-2.088,16.25-4.552
		c6.58-3.177,11.58-8.974,15.121-15.364c3.521-6.403,5.721-13.417,7.92-20.383c5.482-17.378,11.433-35.139,23.093-49.139
		l0.028-0.003C2011.223,423.729,2022.943,413.829,2016.393,409.308z"/>
	<path fill="none" stroke="#F4F4F4" stroke-linecap="round" stroke-miterlimit="10" d="M2012.961,560.322
		c1.238,1.418,3.053,2.18,4.803,2.896l-0.006-0.002v0.018c7.682,3.179,15.42,6.638,23.432,8.977
		c10.152,2.962,23.18-2.651,15.18-14.805c-6.59-10.036-21.709-13.899-32.93-11.982c-3.641,0.609-7.381,1.917-9.83,4.722
		C2011.16,552.934,2010.514,557.532,2012.961,560.322z"/>
	<path fill="none" stroke="#F4F4F4" stroke-linecap="round" stroke-miterlimit="10" d="M1761.571-32
		c-10.301,24.143-28.842,44.088-43.38,66.145c-27.157,41.18-40.049,96.289-17.129,139.969c16.33,31.099,48.199,51.999,63.771,83.489
		c15.16,30.65,13.711,69.129,35.51,95.479c23.551,28.461,72.291,30.669,98.32,4.44c11.108-11.19,17.829-25.831,24.92-39.911
		c17.68-35.068,39.28-68.66,67.771-95.688c25.431-24.134,55.822-42.18,88.646-54.259"/>
	<path fill="none" stroke="#F4F4F4" stroke-linecap="round" stroke-miterlimit="10" d="M1810.137-32
		c-0.803,2.854-1.566,5.716-2.291,8.582c-3.801,15.042-6.771,30.361-12.48,44.771c-9.949,25.061-27.699,46.131-40.879,69.631
		c-13.182,23.5-21.723,52.348-11.393,77.229c16.381,39.471,72.461,52.529,84.801,93.459c2.619,8.682,2.932,17.893,5.129,26.672
		c2.201,8.79,6.893,17.711,15.133,21.461c10.148,4.619,22.469-0.203,30.33-8.103c7.867-7.897,12.479-18.358,17.947-28.068
		c11.842-21.021,28.102-39.171,44.32-57.052c18.99-20.93,38.33-41.948,61.688-57.869c23.366-15.942,49.849-26.055,77.558-31.443"/>
	<path fill="none" stroke="#F4F4F4" stroke-linecap="round" stroke-miterlimit="10" d="M2004.324-32
		c1.649,1.81,3.289,3.626,4.926,5.441c21.545,23.917,42.59,54.65,70.75,72.18"/>
	<path fill="none" stroke="#F4F4F4" stroke-linecap="round" stroke-miterlimit="10" d="M1856.217-32
		c-7.237,18.721-7.213,40.021-13.648,59.252c-6.781,20.261-20.42,37.402-34.102,53.812c-8.979,10.779-18.229,21.649-23.779,34.529
		c-5.551,12.889-6.891,28.399,0,40.608c14.373,25.531,55.654,25.39,69.354,51.271c2.299,4.368,3.607,9.17,5.42,13.75
		c3.75,9.582,12.398,19.49,22.459,17.229c3.47-0.781,6.459-2.941,9.271-5.141c47.041-36.916,73.162-98.718,126.644-125.479
		c19.295-9.651,40.535-13.779,62.168-14.417"/>
	<path fill="none" stroke="#F4F4F4" stroke-linecap="round" stroke-miterlimit="10" d="M1877.198,40.716
		c-11.582,24.979-31.452,45.02-46.77,67.879c-4.195,6.229-8.104,12.858-9.563,20.229c-1.473,7.351-0.104,15.663,5.146,21.021
		c9.152,9.349,25.652,6.541,35.881,14.729c6.789,5.431,9.299,14.459,13.799,21.91c4.51,7.44,13.891,13.908,21.48,9.67
		c5.028-2.803,6.85-9,8.438-14.553c8.647-30.25,23.951-59.079,46.961-80.547l0.015,0.002c12.079-11.281,26.311-20.341,41.762-26.24
		c7.02-2.67,14.276-4.701,21.67-5.961c5.43-0.931,13.91-0.199,18.619-3.539c9.578-6.791-4.383-24.211-9.039-31.471
		c-14.82-23.099-35.41-42.519-59.48-55.729c-11.99-6.58-25.779-11.75-39.129-8.85c-14.822,3.211-25.951,15.75-32.842,29.26
		C1887.27,12.045,1883.57,26.953,1877.198,40.716z"/>
	<path fill="none" stroke="#F4F4F4" stroke-linecap="round" stroke-miterlimit="10" d="M1918.654,29.013
		c-16.659,17.971-28.442,39.881-44.01,58.801c-6.174,7.5-13.074,14.771-16.313,23.92c-3.238,9.16-1.552,20.98,6.709,26.07
		c5.08,3.129,11.463,3.098,17.395,2.448c6.658-0.732,13.516-2.281,18.738-6.471c8.238-6.608,10.469-17.92,13.988-27.879
		l-0.017-0.007c7.08-19.972,21.789-36.902,40.049-47.472c4.479-2.59,9.175-4.819,14.031-6.59c3.709-1.358,12.332-1.811,15.021-4.459
		c7.42-7.291-8.069-19.422-13.592-23.75c-6.51-5.111-13.801-9.99-22.063-10.521C1936.914,12.363,1926.604,20.443,1918.654,29.013z"
		/>
	<path fill="none" stroke="#F4F4F4" stroke-linecap="round" stroke-miterlimit="10" d="M1584.363-32
		c10.523,13.011,18.062,28.589,26.877,42.985c8.673,14.15,22.209,28.939,38.644,26.57c13.771-1.982,22.822-15.42,27.762-28.431
		c4.93-13.012,7.84-27.352,17.08-37.762c1.045-1.176,2.164-2.29,3.336-3.362"/>
	<path fill="none" stroke="#F4F4F4" stroke-linecap="round" stroke-miterlimit="10" d="M1684.875,1056
		c6.848-12.271,14.422-24.113,23.241-35.025c13.902-17.174,34.732-27.801,46.763-46.002c32.85-49.729,58.68-106.703,87.858-158.813
		c6.392-11.42,12.938-23.313,13.869-36.354c2.529-35.142-35.11-61.632-38.771-96.664c-1.278-12.247,1.75-24.946-1.649-36.773
		c-4.851-16.939-21.16-27.459-32.802-40.688c-23.969-27.238-28.02-65.947-37.719-100.899c-9.688-34.97-32.1-72.6-68.201-76.11
		c-36.27-3.521-68.032,29.5-104.43,27.91c-41.289-1.811-66.022-44.519-94.92-74.08c-41.65-42.641-103.451-62.352-162.98-59.551
		c-59.53,2.813-116.75,26.532-165.971,60.141c-54.059,36.922-102.801,94.059-98.949,159.402
		c1.812,30.729,15.072,59.402,25.933,88.202c16.61,44.099,28.02,91.146,24.26,138.114c-6.09,76.106-51.269,146.264-49.91,222.606
		c0.4,22.728,5.963,46.704,19.24,64.586"/>
	<path fill="none" stroke="#F4F4F4" stroke-linecap="round" stroke-miterlimit="10" d="M1645.678,1056
		c13.799-35.532,25.859-72.474,49.586-102.196c27.602-34.579,70.289-58.654,85.25-100.294c9.477-26.336,6-55.352,2.396-83.122
		l-0.01,0.011c-5.688-43.913-14.51-81.142-36.539-119.538c-9.791-17.063-11.188-37.445-17.25-56.738
		c-6.938-22.082-16.399-43.37-28.201-63.271c-3.469-5.857-7.289-11.75-12.817-15.738c-10.572-7.622-24.871-6.671-37.771-4.895
		c-30.301,4.174-61.139,11.174-91.119,5.11c-62.49-12.652-100.447-76.172-156.219-107.07
		c-76.779-42.54-181.151-12.41-235.161,56.779c-54.01,69.195-61.26,167.524-32.41,250.43c5.842,16.797,13.06,33.27,15.91,50.816
		c11.771,72.541-52.361,147.965-23.021,215.348c15.698,36.043,51.945,54.703,87.577,74.368"/>
	<path fill="none" stroke="#F4F4F4" stroke-linecap="round" stroke-miterlimit="10" d="M1601.018,1056
		c9.038-21.346,12.113-46.286,19.766-68.61c9.121-26.604,25.621-50.631,47.18-68.708c21.361-17.906,48.162-30.793,62.521-54.684
		c17.93-29.874,11.199-67.912,2.289-101.604l-0.021-0.027c-9.567-36.122-20.987-71.747-34.237-106.687
		c-6.529-17.217-13.16-50.708-28.279-63.063c-16.319-13.339-50.16-5.564-70.021-8.089c-54.681-6.936-107.24-30.868-147.869-68.206
		c-30.031-27.599-56.951-63.923-97.101-71.235c-21.25-3.88-43.021,1.301-63.84,7.03c-13.824,3.818-27.942,8.068-39.304,16.83
		c-10.488,8.085-17.908,19.447-24.84,30.729c-29.641,48.217-55.17,102.319-52.039,158.825
		c2.959,53.545,31.527,104.894,25.08,158.142c-3.06,25.216-13.842,48.791-20.201,73.384c-6.357,24.605-7.729,52.577,6.5,73.632
		c16.813,24.874,49.271,32.323,76,46.02c21.337,10.938,39.876,27.046,54.134,46.323"/>
	<path fill="none" stroke="#F4F4F4" stroke-linecap="round" stroke-miterlimit="10" d="M1603.41,916.097
		c10.551,2.104,21.881,2.479,31.672-1.979c23.93-10.895,45.92-54.791,52.229-79.584c9.014-35.356-0.279-75.548-5.559-110.608
		c-5.133-23.517-13.279-47.42-30.279-64.438c-35.721-35.748-94.898-28.813-141.738-47.776
		c-41.83-16.938-71.67-53.653-105.631-83.371c-17.619-15.412-38.01-29.672-61.318-31.729c-20.102-1.776-40.108,5.892-56.801,17.232
		c-16.881,11.47-31.854,28.439-33.433,48.793c-0.763,9.91,1.729,19.837,5.407,29.078c20.965,52.688,75.942,82.188,126.793,107.291
		c50.852,25.091,105.868,54.436,127.063,107.025c6.459,15.987,9.311,33.303,16.146,49.119
		C1541.314,886.006,1570.439,909.521,1603.41,916.097z"/>
	<path fill="none" stroke="#F4F4F4" stroke-linecap="round" stroke-miterlimit="10" d="M1557.902,796.75
		c8.92,22.628,14.5,51.332,37.42,64.483c15.632,8.962,39.644,6.92,49.648-9.521c8.432-13.854,4.75-34.704,4.75-49.992
		c-0.011-27.102,2.514-53.657-12.248-77.95c-12.398-20.442-33.607-34.049-55.552-43.539c-21.938-9.507-45.237-15.6-67.147-25.196
		c-39.271-17.203-72.979-45.146-111.621-63.688c-8.34-4.004-17.317-7.621-26.529-6.854c-9.211,0.766-18.561,7.274-19.567,16.457
		c-0.84,7.684,4.051,14.741,9.188,20.508c26.92,30.168,65.582,46.5,99.433,68.613C1505.652,716.2,1540.402,752.306,1557.902,796.75z
		"/>
	<path fill="none" stroke="#F4F4F4" stroke-linecap="round" stroke-miterlimit="10" d="M1342.541,531.297
		c-6.8-2.62-14.39-2.137-21.521-0.766c-10.35,1.996-20.609,5.936-28.32,13.121c-7.729,7.182-12.538,17.966-10.799,28.36
		c1.761,10.396,11.07,19.56,21.601,19.416c12.198-11.268,23.91-23.965,37.028-34.125
		C1351.031,549.172,1363.143,539.242,1342.541,531.297z"/>
	<path fill="none" stroke="#F4F4F4" stroke-linecap="round" stroke-miterlimit="10" d="M1518.715,1056
		c9.596-2.9,19.023-6.154,27.1-11.854l0.012-0.012c21.619-15.24,39.41-62.332,26.818-87.767
		c-6.979-14.134-24.17-18.281-36.488-26.229c-16.211-10.458-29.83-24.916-39.15-41.812c-9.641-17.455-14.971-37.604-28.301-52.438
		c-12.42-13.838-30.201-21.285-46.389-30.4c-21.332-12.018-40.67-27.538-57.021-45.771c-12.17-13.574-22.698-28.643-36.041-41.063
		c-13.34-12.42-30.356-22.238-48.578-22.082c-18.229,0.156-37.019,12.839-39.49,30.9c-1.16,8.508,1.219,17.032,3.068,25.399
		c7.112,32.009,6.743,65.668-1.068,97.521c-7.15,29.202-20.17,61.228-5.799,87.642c12.776,23.483,41.66,31.667,65.027,44.663
		c28.921,16.076,51.721,42.609,63.981,73.3"/>
	<path fill="none" stroke="#F4F4F4" stroke-linecap="round" stroke-miterlimit="10" d="M1452.367,1056
		c0.071-0.133,0.143-0.27,0.215-0.402c8.657-15.846,23.25-28.375,40.219-34.563c6.592-2.402,13.541-3.896,19.871-6.937l-0.023,0.001
		c23.25-11.188,13.07-37.104,0.562-53.107c-13.228-16.924-28.201-32.695-41.58-49.633c-6.82-8.648-13.681-17.313-19.271-26.788
		c-3.569-6.062-6.66-12.468-11.069-17.952c-5.152-6.42-11.951-11.358-19.011-15.612c-23.42-14.104-51.77-22.412-68.239-44.228
		c-7.761-10.269-12.81-23.437-24.029-29.73c-8.41-4.725-18.619-4.538-28.279-4.225c-8.68,0.277-19.391,1.993-22.1,10.236
		c-0.724,2.184-0.724,4.52-0.644,6.811c0.974,29.406,12.42,57.877,11.961,87.299c-0.219,13.37-2.897,26.616-2.858,39.986
		c0.047,13.371,3.319,27.535,12.938,36.822c9.222,8.897,22.472,11.764,34.328,16.612c31.512,12.89,55.471,42.713,61.271,76.248
		c0.523,3.025,0.921,6.106,1.4,9.16"/>
	<path fill="none" stroke="#F4F4F4" stroke-linecap="round" stroke-miterlimit="10" d="M1417.413,1011.771
		c4.521,5.559,11.351,10.981,18.171,8.786c2.639-0.854,4.788-2.727,6.858-4.563c7.898-6.98,15.791-13.963,23.67-20.943
		c3.761-3.32,7.609-6.748,9.871-11.221c3.488-6.905,2.648-15.381-0.531-22.426c-3.18-7.044-8.448-12.918-13.84-18.468l-0.024,0.008
		c-16.621-17.108-35.699-32.229-47.068-53.544c-10.879-20.397-27.629-22.297-45.939-33.689
		c-7.797-4.848-13.389-12.529-20.608-18.202c-7.228-5.67-17.709-9.146-25.438-4.19c-8.112,5.175-8.981,16.896-6.221,26.104
		c2.762,9.21,8.209,17.577,9.853,27.053c2.288,13.202-2.921,27.82,3.379,39.646c7.6,14.278,26.91,16.13,40.951,24.141
		C1393.143,963.166,1400.975,991.557,1417.413,1011.771z"/>
	<path fill="none" stroke="#F4F4F4" stroke-linecap="round" stroke-miterlimit="10" d="M1408.572,950.438
		c2.879,5.799,4.66,12.232,8.688,17.3c4.041,5.063,11.492,8.319,17.067,5.03c19.265-11.375-8.114-40.143-19.678-44.737
		c-22.317-8.867-26.057-26.102-40.848-42.916c-1.763-2.013-3.92-3.881-6.562-4.286c-5-0.748-9.317,4.521-9.33,9.584
		c0,5.063,3.013,9.615,6.279,13.479C1378.123,920.346,1398.991,931.13,1408.572,950.438z"/>
	<path fill="none" stroke="#F4F4F4" stroke-linecap="round" stroke-miterlimit="10" d="M1235.49,640.701
		c-2.881-8.854-3.647-16.939-4.08-26.229c-0.317-6.479-1.139-13.166-4.487-18.729c-3.343-5.566-9.771-9.709-16.16-8.604
		c-2.063,0.355-4.07,1.275-5.5,2.789c-1.898,2.023-2.644,4.877-3.121,7.619c-2.141,12.029-0.969,24.637,3.33,36.074
		c1.91,5.049,4.41,9.912,5.541,15.195c1.033,4.924,0.82,10.021,0.602,15.053c-0.229,5.424-0.461,10.83-0.701,16.238
		c-0.149,3.645-0.28,7.477,1.359,10.733V690.8c8.65,17.281,25.4-21.485,26.74-29.125
		C1240.32,654.244,1237.762,647.682,1235.49,640.701z"/>
	<path fill="none" stroke="#F4F4F4" stroke-linecap="round" stroke-miterlimit="10" d="M1225.928-32
		c-9.387,7.333-17.979,15.849-26.437,24.283C1192.2-0.446,1184.7,7.154,1181.2,16.834c-3.311,9.101-2.709,19.101-2.026,28.771
		c2.92,41.67,7.42,85.531,31.729,119.5c9.521,13.302,21.688,24.451,33.789,35.461c16.59,15.108,33.393,30.289,52.711,41.729
		c64.658,38.271,152.6,32.101,207.107,83.819c23.42,22.22,38.631,53.72,66.961,69.21c43.84,23.979,102.01-3.41,111.438-52.949
		c4.229-22.301-11.971-40.75-23.181-58.438c-15.303-24.142-21.528-49.711-32.133-75.853l-0.022,0.017
		c-7.683-18.969-19.041-36.197-30.313-53.277c-20.039-30.359-40.067-60.711-60.106-91.07
		c-18.211-27.608-37.041-55.868-63.871-75.221c-11.638-8.398-24.442-14.863-37.648-20.533"/>
	<path fill="none" stroke="#F4F4F4" stroke-linecap="round" stroke-miterlimit="10" d="M1226.427,28.332
		c-6,10.59-7.812,23.011-9.013,35.142c-1.549,15.768-2.19,32.219,3.701,46.948c7.379,18.483,23.869,31.511,39.908,43.313
		c19.901,14.629,40.171,28.729,60.821,42.279c16.018,10.5,32.33,20.721,49.99,28.12c20.459,8.567,42.356,13.22,63.047,21.209
		c39.211,15.149,72.791,41.841,104.19,69.78v0.001h0.004v0.022c17.224,15.33,37.263,33.438,61.172,36.279
		c32.861,3.908,32.572-18.809,30.931-44.449c-2.959-46.591-29.201-84.711-58.979-119.011
		c-24.171-27.841-48.361-55.691-72.552-83.541c-10.893-12.529-21.799-25.091-33.891-36.459c-24.119-22.693-52.5-40.273-80.66-57.683
		c-11-6.789-22.25-13.699-34.812-16.799c-13.047-3.211-26.729-2.121-40.108-1.01C1278.598-4.907,1242.007,0.752,1226.427,28.332z"/>
	<path fill="none" stroke="#F4F4F4" stroke-linecap="round" stroke-miterlimit="10" d="M1255,69.761
		c0,8.49,4.102,16.43,8.602,23.631c35.688,57.139,99.801,89.76,163.07,112.93c24.032,8.801,48.631,16.75,70.563,29.947
		c23.619,14.211,43.289,33.994,62.568,53.683l-0.023-0.001c26.762,27.351,45.58-1.739,33.041-29.729
		c-10.352-23.08-37.869-41.671-57.053-56.681C1468.26,150.76,1410.04,83.688,1332.03,48.239c-14.512-6.59-30.367-12.108-46.129-9.66
		C1270.15,41.031,1255.021,53.822,1255,69.761z"/>
	<path fill="none" stroke="#F4F4F4" stroke-linecap="round" stroke-miterlimit="10" d="M1315.031,107.83
		c27.472,21.48,57.58,39.33,87.58,57.132c10.859,6.438,30.813,21.079,43.709,16.89c-4.146-19.629-37.358-39.778-50.18-54.431
		l0.021,0.002c-10.881-12.421-20.84-25.88-33.988-35.869c-16.352-12.41-36.512-18.59-56.541-23.103
		c-2.311-0.51-4.891-0.979-6.922,0.25c-1.709,1.051-2.578,3.062-3.037,5.021C1292.564,87.212,1304.12,99.312,1315.031,107.83z"/>
	<path fill="none" stroke="#F4F4F4" stroke-linecap="round" stroke-miterlimit="10" d="M258.454,1056
		c0.217-12.787,1.854-25.653,4.41-37.936c8.211-39.439,24.25-77.56,25.933-117.812c2.908-69.643-36.79-132.725-64.58-196.662
		c-23.092-53.141-38.521-113.354-21.603-168.782c21.812-71.396,94.608-118.544,168.619-128.272
		c74-9.722,148.681,11.88,217.42,40.972c56.358,23.858,112.011,53.328,172.92,59.234c40.683,3.939,81.933-2.897,122.46,2.291
		c150.393,19.245,178.121,225.038,131.2,339.313l-0.043,0.043c-11,26.789-25.938,52.205-32.489,80.41
		c-6.96,30.063-3.771,62.396,8.96,90.51c5.454,12.045,12.723,24.295,17.652,36.691"/>
	<path fill="none" stroke="#F4F4F4" stroke-linecap="round" stroke-miterlimit="10" d="M951.387,1056
		c8.993-21.012-7.407-49.462-13.754-68.65c-14.12-42.65-2.821-89.355,12.278-131.664c15.099-42.308,34.219-84.385,35.858-129.279
		c1.759-48.404-19.191-98.252-58.271-126.851c-39.08-28.579-96.039-32.646-136.289-5.702c-29.469,19.729-47.579,52.641-75.279,74.77
		c-34.521,27.553-80.663,35.826-124.811,36.639c-44.149,0.824-88.409-4.861-132.399-1.123c-43.988,3.756-89.54,18.56-117.898,52.406
		c-7.5,8.928-13.722,19.261-15.909,30.699c-3.031,15.678,1.709,31.647,5.438,47.17c11.179,46.563,13.599,95.217,7.07,142.666
		c-3.532,25.695-9.143,53.478-7.246,78.921"/>
	<path fill="none" stroke="#F4F4F4" stroke-linecap="round" stroke-miterlimit="10" d="M838.475,1056
		c27.093-6.735,54.744-25.223,58.015-52.91c2.25-18.979-7.528-37.244-9.602-56.238c-1.898-17.33,2.642-34.645,7.142-51.475
		c5.7-21.365,11.409-42.729,17.108-64.096c4.012-14.978,12.342-25.773,17.16-39.861c12.107-35.404,5.527-80.082-9.512-113.445
		l0.003-0.026c-6.858-15.209-16.578-29.998-31.238-37.961c-24.42-13.265-55.59-3.728-77.721,13.09
		c-22.132,16.813-38.541,39.987-59.149,58.606c-32.21,29.111-74.818,46.455-118.188,48.14c-20.328,0.776-40.642-1.744-60.96-3.103
		c-36.987-2.444-74.25-0.92-110.92,4.551c-14.262,2.117-29.05,5.109-40.38,14.041c-19.382,15.271-23.062,43.166-21.222,67.771
		c2.479,33.271,12.2,66.338,8.37,99.482c-2.092,18.026-8.143,35.42-10.16,53.451c-2.293,20.322,0.972,41.104,8.813,59.981"/>
	<path fill="none" stroke="#F4F4F4" stroke-linecap="round" stroke-miterlimit="10" d="M692.836,1056
		c33.986-23.015,74.119-37.025,115.146-38.971c13.859-0.656,29.301-0.578,39.409-10.101l0.001,0.004h0.04
		c12.398-11.673,9.438-29.779,5.779-44.535c-3.52-14.244-4.148-26.402-2.148-41.173c5.051-37.559,20.162-72.823,34.141-107.729
		c8.34-20.789,16.469-42.449,15.568-64.826c-0.908-22.393-13.14-45.832-34.329-53.076c-15.069-5.157-32.011-1.342-45.959,6.326
		c-13.942,7.666-25.552,18.869-37.341,29.592c-32.279,29.375-68.579,56.662-111.109,66.525
		c-51.36,11.906-105.011-2.978-157.641,0.203c-17.25,1.043-35.178,4.377-48.729,15.114c-16.812,13.322-23.82,35.699-25.6,57.082
		c-1.921,22.97,1.198,46.345,9.068,68.007c3.26,8.958,7.319,17.732,8.771,27.146c1.5,9.785,0.08,19.742-0.881,29.592
		c-1.992,20.35-1.529,42.146,5.813,60.82"/>
	<path fill="none" stroke="#F4F4F4" stroke-linecap="round" stroke-miterlimit="10" d="M620.819,1056
		c8.83-11.178,17.477-22.568,28.077-31.99c11-9.784,23.853-17.219,36.62-24.572c13.45-7.762,27.102-15.602,42.12-19.541
		c11.778-3.087,24.061-3.68,35.97-6.248c10.052-2.184,24.512-4.91,33.052-10.925c10.438-7.356,5.198-14.649,4.16-25.138
		c-2.45-24.746,9.318-49.741,22.028-70.174l0.015-0.033c16.392-26.336,36.96-51.455,42.853-81.922
		c1.89-9.738,2.117-20.07-1.399-29.357c-3.521-9.271-11.301-17.313-21.021-19.264c-12.108-2.414-24.312,4.879-32.238,14.354
		c-7.92,9.476-12.813,21.066-19.45,31.479c-21.938,34.439-61.948,53.889-102.147,61.07c-40.188,7.186-81.408,3.787-122.211,2.149
		c-16.67-0.67-33.67-0.996-49.688,3.681c-16.021,4.674-31.17,15.146-37.488,30.59c-6.91,16.877-2.25,36.264,5.038,52.969
		c7.302,16.703,17.212,32.49,21.229,50.271c3.722,16.531,2.119,33.859,5.357,50.507c1.487,7.659,4.043,15.098,7.497,22.094"/>
	<path fill="none" stroke="#F4F4F4" stroke-linecap="round" stroke-miterlimit="10" d="M527.77,960.273
		c6.601,10.846,14.689,20.94,19.229,32.815c3.149,8.229,4.5,17.08,7.909,25.197c3.399,8.119,9.563,15.881,18.16,17.797
		c7.79,1.744,15.972-1.729,22-6.979c6.021-5.235,10.353-12.108,14.96-18.622c22.932-32.478,56.238-59.298,95.29-66.697
		c14.119-2.683,28.79-2.711,42.642-6.73c14.398-4.176,16.131-8.633,21.159-21.426c11.88-30.219,27.771-59.516,43.932-87.625h-0.029
		v-0.002c2.421-4.19,4.932-8.57,5.182-13.387c0.263-4.83-2.54-10.189-7.3-11.099c-6.182-1.168-10.892,5.176-14.29,10.488
		c-10.239,16.021-23.672,29.98-39.271,40.844c-44.303,30.855-101.771,34.599-155.71,32.398c-16.813-0.688-34.03-1.793-50.132,3.102
		c-16.101,4.896-31.131,17.346-33.721,33.974C515.829,936.885,521.139,949.426,527.77,960.273z"/>
	<path fill="none" stroke="#F4F4F4" stroke-linecap="round" stroke-miterlimit="10" d="M559.881,950.602
		c14.561,12.937,43.17,6.174,59.3-0.67c20.891-8.862,38.819-19.678,61.881-22.953c17.108-2.432,36.141-2.338,49.13-13.729
		c2.182-1.916,4.189-4.238,4.801-7.074c1.449-6.764-6.027-12.686-12.931-12.576c-6.921,0.109-13.062,4.134-19,7.652
		c-35.199,20.928-77.909,28.906-118.312,22.111c-9.739-1.637-21.472-3.441-27.938,4.006
		C551.141,933.914,553.421,944.84,559.881,950.602z"/>
	<path fill="none" stroke="#F4F4F4" stroke-linecap="round" stroke-miterlimit="10" d="M702.662,547.339
		c-10.688-4.612-25.147-3.021-36.539-5.127c-17.933-3.317-35.551-8.617-52.433-15.475c-19.491-7.927-38.1-18.073-55.261-30.273
		c-14.521-10.332-28.119-22.128-43.91-30.421c-24.329-12.779-52.607-16.471-80.038-14.851c-27.421,1.618-54.271,8.288-80.842,15.288
		c-29.42,7.742-60.87,17.266-79.397,41.402c-17.802,23.188-19.563,54.821-17.021,83.948c2,22.768,6.221,45.533,15.07,66.604
		c5.527,13.149,13,25.772,23.72,35.188c10.722,9.414,25.01,15.367,39.21,13.947c18.432-1.84,33.32-15.103,49.12-24.765
		c25.101-15.35,54.688-22.281,84.08-23.764c29.391-1.479,58.8,2.273,87.85,6.996c20.302,3.287,40.7,7.074,61.262,6.404
		c20.55-0.671,41.643-6.203,57.279-19.541c8.851-7.544,15.601-17.224,21.761-27.084
		C707.662,608.084,732.613,560.291,702.662,547.339z"/>
	<path fill="none" stroke="#F4F4F4" stroke-linecap="round" stroke-miterlimit="10" d="M649.948,566.105
		c-16.519-14.461-40.87-22.676-60.317-32.364c-22.132-11.037-44.24-22.069-66.37-33.104c-9.46-4.706-18.979-9.459-29.108-12.448
		c-13.67-4.039-28.08-4.802-42.34-5.021c-17.83-0.264-35.672,0.296-53.45,1.685c-30.861,2.4-64.029,8.541-85.091,31.229
		c-22.48,24.219-24.98,61.447-17.141,93.551c3.06,12.465,7.582,24.84,15.521,34.922c7.928,10.082,19.698,17.668,32.528,18.355
		c15.98,0.84,30.382-8.682,44.642-15.975c51.603-26.349,112.611-25.57,170.221-19.354c19.599,2.119,39.27,4.801,58.949,3.662
		l-0.002-0.017c19.087-1.104,36.479-8.07,40.608-28.359C661.448,588.919,661.05,575.814,649.948,566.105z"/>
	<path fill="none" stroke="#F4F4F4" stroke-linecap="round" stroke-miterlimit="10" d="M601.725,570.637
		c-16.72-13.342-38.88-22.813-58.529-30.871c-40.579-16.645-84.311-25.635-128.181-25.979L415,513.789
		c-20.538-0.172-41.938,1.762-59.608,12.23c-17.67,10.475-30.46,31.526-25.658,51.506c4.021,16.721,19.43,28.983,36.062,33.332
		c16.641,4.348,34.311,1.979,51-2.166c16.688-4.146,32.979-10.054,49.948-12.842c38.882-6.392,78.521,3.883,117.921,3.01
		C603.005,598.453,621.202,586.172,601.725,570.637z"/>
	<path fill="none" stroke="#F4F4F4" stroke-linecap="round" stroke-miterlimit="10" d="M527.196,557.179
		c-7.567-4.235-19.729-3.612-28.141-5.393c-14.524-3.052-28.605-7.915-43.085-11.14c-20.96-4.678-44.103-5.893-62.79,4.688
		c-5.448,3.086-10.83,8.057-10.698,14.32c0.118,5.653,4.771,10.207,9.658,13.043c13.092,7.621,29.271,7.561,44.229,5.252
		c14.96-2.291,29.71-6.623,44.86-6.777c13.25-0.143,31.51,5.672,43.988-0.172C534.455,566.669,535.115,561.605,527.196,557.179z"/>
	<path fill="none" stroke="#F4F4F4" stroke-linecap="round" stroke-miterlimit="10" d="M732.23-32
		c7.019,7.813,14.233,15.449,21.652,22.884c7.84,7.85,16.05,15.719,20.81,25.739c4.44,9.359,5.5,19.949,6.25,30.279
		c1.82,25.549,1.99,51.75-5.77,76.17c-12.9,40.528-47.302,76.25-42.461,118.511c1.688,14.909,8.301,28.771,14.811,42.291
		c15.462,32.118,31.229,64.68,54.813,91.42c13.53,15.312,29.352,28.398,45.102,41.42c19.87,16.41,40.813,33.351,66.04,38.601
		c44.853,9.353,88.131-20.568,120.71-52.75c32.592-32.199,63.644-69.971,107.568-82.949c20.399-6.029,42.371-6.211,62.182-14
		c12.803-5.029,33.711-18.818,29.813-35.029c-3.222-13.4-23.979-26.609-32.291-37.521c-21.379-28.041-35.357-61.791-39.447-96.839
		l-0.026-0.011c-5.08-43.312,3.318-91.183-20.883-127.462c-11.652-17.467-29.131-29.33-47.117-40.752"/>
	<path fill="none" stroke="#F4F4F4" stroke-linecap="round" stroke-miterlimit="10" d="M802.032-32
		c7.543,11.334,14.122,23.202,18.168,36.153c21.938,70.17-35.79,143.199-26.72,216.162c4.979,40.139,29.528,74.75,53.311,107.479
		c9.132,12.561,18.25,25.119,27.382,37.659c9.567,13.188,19.368,26.568,32.459,36.261c13.091,9.699,30.261,15.279,45.921,10.771
		c23.527-6.74,35.25-32.109,48.729-52.563c26.771-40.63,71.17-69.17,119.25-76.699c21.771-3.408,48.512-7.812,36.398-34.642
		c-12.367-27.459-26.521-48.722-27.578-80.261l0.01-0.008c-0.729-21.681,3.563-43.202,4.631-64.86
		c1.08-21.657-1.479-44.629-14.16-62.229c-10.51-14.57-26.67-23.76-41.317-34.15c-15.849-11.253-30.28-24.432-43.048-39.073"/>
	<path fill="none" stroke="#F4F4F4" stroke-linecap="round" stroke-miterlimit="10" d="M974.942-32
		c8.782,16.1,19.759,30.732,33.858,42.47c25.397,21.129,60.291,32.56,76.909,61.119c24.562,42.25,0.562,97.101,12.591,142.92
		c6.422,24.451,5.949,34-19.433,41c-24.496,6.738-50.471,10.87-72.161,24.934"/>
	<polyline fill="none" stroke="#F4F4F4" stroke-linecap="round" stroke-miterlimit="10" points="1006.707,280.442 1006.709,280.441 
		1006.698,280.448 1006.707,280.442 	"/>
	<path fill="none" stroke="#F4F4F4" stroke-linecap="round" stroke-miterlimit="10" d="M1006.707,280.442
		c-25.969,16.841-41.486,45.439-55.826,72.898c-1.7,3.238-3.479,6.59-6.37,8.83c-6.88,5.318-17.438,2.14-23.302-4.271
		c-5.858-6.399-8.391-15.08-11.438-23.2c-7.01-18.642-17.778-35.87-31.448-50.352c-10.66-11.301-23.29-21.24-30.352-35.08
		c-7.829-15.33-7.721-33.609-4.34-50.49c3.397-16.869,9.84-32.969,14.25-49.619c13.897-52.43,7.13-108.358-7.12-160.721
		c-1.866-6.855-3.865-13.688-6.095-20.439"/>
	<path fill="none" stroke="#F4F4F4" stroke-linecap="round" stroke-miterlimit="10" d="M889.254-32
		c7.313,20.493,14.843,40.915,20.354,61.95c8.182,31.312,11.731,64.721,3.021,95.892c-6.74,24.181-20.568,45.941-27.211,70.143
		c-3.972,14.492-4.622,31.77,5.688,42.68c4.771,5.048,11.361,8.087,16.021,13.229c10.682,11.74,11.55,33.83,27.021,37.291
		c13.161,2.949,23.161-10.892,31.141-21.752l-0.021,0.002c12.632-17.181,29.74-30.898,49-39.959
		c12.201-5.75,42.06-7.072,46.729-21.601c2.541-7.899-3.148-21.972-3.959-30.211c-1.068-10.912-1.099-21.912-1.738-32.85
		c-1.201-20.951-3.402-42.75-16.223-60.189c-8.511-11.571-20.679-19.791-31.949-28.682C977.659,30.657,953.173,1.138,935.5-32"/>
	<path fill="none" stroke="#F4F4F4" stroke-linecap="round" stroke-miterlimit="10" d="M925.021,198.234
		c3.969,9.197,16.802,11.388,25.99,7.408l0.03-0.016c12.139-5.273,17.659-17.131,27.438-25.102
		c7.92-6.471,16.397-5.928,24.529-10.699c17.71-10.371,10.04-49.08-1.699-62.699c-6.202-7.2-17.26-10.94-25.521-6.25
		c-9.091,5.158-10.881,17.138-13.591,27.238c-3.71,13.82-10.96,26.68-20.87,36.99c-4.548,4.74-9.688,9.008-13.317,14.479
		C924.362,185.053,922.421,192.203,925.021,198.234z"/>
	<path fill="none" stroke="#F4F4F4" stroke-linecap="round" stroke-miterlimit="10" d="M467.429-32
		c0.293,8.9,0.588,17.803,0.191,26.691c-0.868,19.49-5.671,39.891-19.182,53.961c-13.42,14-33.551,19.869-47.239,33.601
		c-9.13,9.18-14.75,21.239-19.3,33.35c-11.92,31.711-17.74,66.702-9.79,99.622c6.95,28.789,23.92,54.188,43.182,76.67
		c17.421,20.33,37.221,39.01,60.591,52.021c22.13,12.33,46.84,19.262,69.602,30.41c15.771,7.722,30.568,17.45,46.868,23.96
		c15.302,6.108,31.62,9.262,47.229,14.53c25.729,8.68,49.199,22.979,74.521,32.8c16.302,6.33,80.87,31.79,78.25-2.62
		c-1.028-13.59-11.488-26.8-18.729-37.63c-11.432-17.108-22.46-34.438-33.341-51.91l-0.011,0.027
		c-20.788-33.359-42.329-69.352-41.021-108.65c1.858-55.818,49.729-105.358,41.051-160.52C732.709,36.033,685.86,6.244,654.666-32"
		/>
	<path fill="none" stroke="#F4F4F4" stroke-linecap="round" stroke-miterlimit="10" d="M513.653-32
		c-2.942,11.42-4.642,23.161-4.992,34.951c-0.35,11.57,0.563,23.291-1.688,34.672c-9.488,48.261-70.563,73.689-78.568,122.238
		c-2.817,17.041,1.608,34.471,7.688,50.642c26.181,69.501,85.528,125.649,156.392,147.899c14.271,4.488,28.938,7.658,43.102,12.5
		c21.898,7.479,45.291,28.158,67.869,30.972c15.609,1.93,28.422-9.03,22.102-24.19c-6.271-14.96-23.38-26.21-32.432-39.63
		c-13.141-19.479-20.631-43.54-24.391-66.569c-4.49-27.631-3.041-56.301,4.97-83.17l0.027-0.033
		c4.709-15.771,11.488-30.869,15.771-46.75c3.432-12.688,5.239-25.81,5.382-38.959c0.09-8.24-0.5-16.631-3.263-24.399
		c-7-19.779-26.147-32.029-41.34-46.5C632.096,14.332,618.666-7.895,611.644-32"/>
	<path fill="none" stroke="#F4F4F4" stroke-linecap="round" stroke-miterlimit="10" d="M539.39,44.254
		c-5.37,25.579-25.479,44.971-40.688,66.221c-27.891,38.979-40.141,92.6-18.869,135.548c15.182,30.642,44.771,51.603,75.352,66.881
		c30.2,15.091,97.75,41.551,86.971-15.67c-9.449-50.121-14.619-95.42,7.421-143.75l0.007-0.012
		c6.392-14.03,14.682-28.131,14.149-43.541c-0.842-24.81-23.302-42.31-39.271-61.32c-11.473-13.647-20.24-29.559-25.649-46.549
		c-3.75-11.781-7.149-25.65-18.37-30.84c-14.979-6.92-31.897,7.979-36.25,23.889C539.84,11.022,542.791,28.124,539.39,44.254z"/>
	<path fill="none" stroke="#F4F4F4" stroke-linecap="round" stroke-miterlimit="10" d="M552.181,122.442
		c-8.21,16.23-26.09,25.4-36.188,40.531c-13.317,19.949-10.562,47.539,1.563,68.24c13,22.188,87.148,87.938,92.16,27.737
		c1.271-15.091-9.353-30.108-9.971-45.521c-1.029-25.47,7.738-51.602,17.856-74.581v-0.036c3.83-8.711,8.09-18.031,6.25-27.381
		c-0.91-4.619-3.26-8.82-5.58-12.91c-10.6-18.75-21.18-37.5-31.778-56.229c-0.869-1.541-1.771-3.132-3.142-4.25
		c-5.26-4.353-13.271,0.459-16.988,6.18C551.701,66.682,564.271,98.502,552.181,122.442z"/>
	<path fill="none" stroke="#F4F4F4" stroke-linecap="round" stroke-miterlimit="10" d="M70.61-32
		c20.073,9.112,40.405,17.519,61.471,23.849c51.509,15.492,105.889,18.142,159.639,19.93c16.913,0.562,34.36,0.961,50.102-5.237
		c5.77-2.261,11.757-6.17,12.778-12.281c0.642-3.859-0.92-7.769-2.96-11.109c-3.937-6.438-9.356-11.225-15.576-15.152"/>
	<path fill="none" stroke="#F4F4F4" stroke-linecap="round" stroke-miterlimit="10" d="M-32,499.825
		c7.631-2.033,15.173-4.414,22.594-7.164c48.838-18.105,91.209-49.979,137.646-73.586c47.795-24.29,99.637-39.699,151.985-51.278
		c34.13-7.552,103.738-18.938,67.02-63.29c-33.692-40.726-44.705-81.655-39.822-134.614c1.22-13.229,3.01-27.271-2.79-39.24
		c-7.063-14.541-23.398-21.938-39-26.131C194.66,85.483,116.73,109.573,46.916,86.653C18.833,77.43-6.256,61.081-32,46.354"/>
	<path fill="none" stroke="#F4F4F4" stroke-linecap="round" stroke-miterlimit="10" d="M-32,449.74
		c67.178-20.819,128.01-65.897,194.058-93.677l0.034,0.03c21.811-9.181,44.332-16.36,67.07-22.84
		c11.278-3.21,28.059-5.183,36.278-14.63c10.83-12.473,4.5-32.5,2.819-47.08c-2.76-23.75-5.521-47.479-8.26-71.229
		c-1.641-14.112-4.66-30.362-17.16-37.092c-6.259-3.373-13.7-3.541-20.819-3.561c-73.381-0.212-149.88,5.939-217.138-23.369
		c-12.766-5.563-24.919-12.31-36.883-19.43"/>
	<path fill="none" stroke="#F4F4F4" stroke-linecap="round" stroke-miterlimit="10" d="M-32,391.166
		c0.805-0.376,1.607-0.753,2.409-1.134l0.017-0.011C32.868,360.31,90.138,313.59,160.619,304.63
		c26.088-3.299,73.088-1.199,59.898-40.441c-12.308-36.658-39.38-50.158-75.778-46.787C85.104,222.913,24.329,214.866-32,194.56"/>
	<path fill="none" stroke="#F4F4F4" stroke-linecap="round" stroke-miterlimit="10" d="M-32,345.093
		c3.036-1.797,5.994-3.728,8.845-5.839c11.782-8.732,21.445-20.131,33.553-28.393l-0.017-0.026
		c14.399-9.817,29.033-12.198,45.846-13.75c8.809-0.789,28.396-4.829,14.712-17.198c-14.307-12.938-32.442-21.621-51.504-24.621
		C2.48,252.588-14.832,254.289-32,253.757"/>
	<path fill="none" stroke="#F4F4F4" stroke-linecap="round" stroke-miterlimit="10" d="M-32,580.744
		c26.539-10.916,50.703-28.419,77.323-39.811c22.484-9.63,51.473-13.714,69.063,3.288c7.792,7.525,11.938,17.982,15.303,28.283
		c6.47,19.838,10.83,40.359,12.98,61.104c2.617,25.119,1.947,51.658,11.703,75.395c8.681,21.1,26.511,36.074,37.979,55.478
		c23.149,39.161,44.552,88.391,41.143,134.643l0.008-0.021c-2.021,27.6-12.87,53.717-18.5,80.813
		c-5.185,24.967-5.919,50.869-2.152,76.083"/>
	<path fill="none" stroke="#F4F4F4" stroke-linecap="round" stroke-miterlimit="10" d="M167.304,1056
		c-6.208-30-15.371-59.89-10.468-89.879c5.92-36.168,31.995-69.146,27.314-105.498h0.021c-4.41-34.284-33.197-58.22-48.079-87.813
		c-7.121-14.166-9.615-29.313-14.913-44.116c-6.748-18.857-17.607-36.168-22.206-55.806c-3.46-14.817-3.115-30.324-6.479-45.16
		c-3.354-14.85-11.69-29.965-25.964-35.233c-13.465-4.967-28.703,0.143-40.702,8.012s-22.101,18.42-34.253,26.058
		c-7.366,4.631-15.303,8.068-23.574,10.58"/>
	<path fill="none" stroke="#F4F4F4" stroke-linecap="round" stroke-miterlimit="10" d="M124.688,1056
		c0.911-3.271,1.295-6.71,1.365-10.111c0.359-18.263-7.681-35.513-11.732-53.325c-4.225-18.544-4.101-38.068,0.356-56.566
		c3.35-13.867,9.068-27.144,11.283-41.229c3.849-24.593-3.353-49.617-13.122-72.511l-0.011-0.019
		c-9.15-21.428-18.872-43.213-29.769-63.799c-10.425-19.713-15.366-41.826-21.771-63.113c-3.411-11.344-6.996-23-14.522-32.133
		c-7.526-9.131-20.072-15.195-31.354-11.594c-14.604,4.657-20.148,21.784-28.627,34.549c-4.902,7.396-11.362,13.728-18.787,18.58"/>
	<path fill="none" stroke="#F4F4F4" stroke-linecap="round" stroke-miterlimit="10" d="M34.846,1056
		c9.851-6.037,19.215-13.802,30.304-16.835c6.22-1.699,13.12-1.979,18.2-5.938c8.165-6.356,7.668-18.686,5.813-28.858
		c-6.938-37.992-22.206-76.373-13.666-114.021c2.414-10.688,6.729-20.989,7.648-31.897c1.697-20.432-8.618-39.814-19.82-56.975
		c-10.007-15.334-21.336-30.513-26.509-48.354c-3.709-12.81-3.009-26.662-18.936-17.795c-12.889,7.184-24.106,17.481-37.167,24.824
		c-4.218,2.364-8.604,4.851-12.715,7.675"/>
	<path fill="none" stroke="#F4F4F4" stroke-linecap="round" stroke-miterlimit="10" d="M33.968,1025.069
		c6.716,2.961,15.146,2.788,20.882-1.793c15.18-12.076,4.771-43.729-0.717-58.563c-8.789-23.779-16.675-47.422-10.488-73.164
		l0.012-0.016c2.368-11.982,6.766-23.894,5.597-36.045c-2.214-23.033-23.578-40.396-27.318-63.236
		c-0.562-3.396-0.841-7.17-3.239-9.646c-3.115-3.229-8.74-2.694-12.295,0.029c-3.555,2.742-5.455,7.074-6.854,11.348
		c-14.165,42.82,7.979,88.716,8.228,133.83c0.109,19.683-3.957,39.644,0.222,58.872c1.839,8.416,5.232,16.487,9.985,23.673
		C22.033,1016.481,27.25,1022.108,33.968,1025.069z"/>
	<path fill="none" stroke="#F4F4F4" stroke-linecap="round" stroke-miterlimit="10" d="M216.481,435.152
		c-3.778-5.33-11.181-6.643-17.688-6.143c-15.351,1.17-29.079,9.551-43.713,14.301c-10.301,3.342-21.084,4.882-31.587,7.479
		c-6.949,1.729-14.444,4.449-17.827,10.761c-3.507,6.528-1.187,15.004,3.692,20.583c4.877,5.577,11.825,8.882,18.651,11.779
		c12.698,5.393,31.135,11.656,43.243,1.4c3.94-3.336,6.278-7.729,10.758-10.598c5.449-3.49,11.812-5.518,17.602-8.354
		c6.068-2.961,12.021-6.627,15.488-12.605v-0.025c2.53-4.352,3.432-9.438,3.87-14.449
		C219.391,444.412,219.301,439.141,216.481,435.152z"/>
	<path fill="none" stroke="#F4F4F4" stroke-linecap="round" stroke-miterlimit="10" d="M1023.83,469.61
		c-0.067-4.16-0.657-8.683-3.567-11.66c-3.519-3.568-9.431-3.689-14.039-1.71c-4.62,1.979-8.25,5.609-11.921,9.021
		c-5.318,4.941-11.182,9.664-18.17,11.563c-7.771,2.103-16.37,0.592-23.723,3.863c-7.309,3.259-12.197,12.281-9.147,19.683
		c2.29,5.563,8.011,8.79,13.46,11.313c4.54,2.106,9.171,4.005,13.857,5.723c5.16,1.885,10.643,3.536,16.08,2.789
		c4.143-0.576,7.979-2.523,11.62-4.613v-0.001h0.02c7.92-4.537,16.602-10.629,20.932-18.938
		C1023.252,488.946,1023.974,478.085,1023.83,469.61z"/>
	<path fill="none" stroke="#F4F4F4" stroke-linecap="round" stroke-miterlimit="10" d="M262.562,726.805l0.011-0.015
		c3.369,8.102,32.091,37.588,39.739,18.279c1.141-2.871-0.08-6.111-1.5-8.854c-4.211-8.119-10.381-15.226-17.83-20.539
		c-3.211-2.291-6.791-4.285-10.721-4.658c-3.92-0.375-8.222,1.229-10.13,4.688C260.281,719.076,261.091,723.268,262.562,726.805z"/>
	<path fill="none" stroke="#F4F4F4" stroke-linecap="round" stroke-miterlimit="10" d="M400.771,329.061
		c-3.481,0.762-7.281,1.932-9.06,5c-1.203,2.052-1.29,4.7-2.893,6.462c-1.359,1.467-3.432,1.967-5.381,2.438
		c-4.569,1.118-9.468,2.88-11.859,6.93c-2.63,4.493-1.177,10.533,2.263,14.432c3.44,3.91,8.45,6.051,13.43,7.54v-0.011
		c15.03,4.5,35.443-4.291,41.382-19.841C435.471,334.141,414.652,326.021,400.771,329.061z"/>
	<path fill="none" stroke="#F4F4F4" stroke-linecap="round" stroke-miterlimit="10" d="M1788.902,993.42
		c-1.03-1.496-2.147-2.992-3.701-3.957c-1.938-1.229-4.34-1.466-6.629-1.277c-4.678,0.39-9.1,2.511-12.78,5.425
		c-2.431,1.916-4.611,4.254-5.851,7.09c-2.642,6.094-0.459,13.186-1.683,19.713c-0.729,3.881-2.627,7.449-3.688,11.25
		c-1.057,3.804-1.121,8.272,1.433,11.283c3.196,3.756,9.271,3.646,13.592,1.262l0.018,0.018c5.791-3.211,8.471-9.413,13.58-13.245
		c3.852-2.869,8.949-1.825,12.42-4.431C1804.963,1019.523,1793.6,1000.291,1788.902,993.42z"/>
</g>
</svg>
