<?xml version="1.0" encoding="utf-8"?>
<!-- Generator: Adobe Illustrator 16.0.0, SVG Export Plug-In . SVG Version: 6.00 Build 0)  -->
<!DOCTYPE svg PUBLIC "-//W3C//DTD SVG 1.1//EN" "http://www.w3.org/Graphics/SVG/1.1/DTD/svg11.dtd">
<svg version="1.1" id="Layer_1" xmlns="http://www.w3.org/2000/svg" xmlns:xlink="http://www.w3.org/1999/xlink" x="0px" y="0px"
	 width="1536px" height="768px" viewBox="0 0 1536 768" enable-background="new 0 0 1536 768" xml:space="preserve">
<g>
	<g>
		<path fill="#F2F2F2" d="M903.664,667.784c-31.171,0-40.319-18.544-47-32.084c-0.663-1.346-1.302-2.641-1.936-3.859
			c-4.641-8.938-10.441-17.159-16.993-26.213c-5.827-8.054-13.79-14.308-23.669-18.59l-5.778-2.497
			c-14.842-6.412-30.188-13.043-45.034-20.1c-2.112-1.003-4.213-2.018-6.311-3.031c-11.118-5.371-22.616-10.925-35.055-14.264
			c-14.892-3.997-21.504-13.204-21.438-29.854c0.042-10.957,2.521-22.028,7.805-34.843c5.286-12.828,12.303-20.083,22.753-23.522
			c12.411-4.082,27.857-9.162,43.629-9.162l0.315,0.001c6.056,0.026,12.032,1.039,18.133,2.164c10.96,2.011,19.7,4.795,27.504,8.762
			c12.4,6.313,20.706,17.047,25.395,32.82c1.437,4.83,2.722,9.789,3.965,14.585c1.517,5.854,3.086,11.911,4.938,17.761
			c3.229,10.206,9.454,15.978,18.504,17.151c0.95,0.123,1.923,0.186,2.892,0.186c6.383,0,12.306-2.688,17.532-5.06
			c16.573-7.528,30.785-20.036,43.446-38.238c15.088-21.685,21.398-46.667,18.754-74.256c-1.106-11.578-0.576-21.52,1.621-30.392
			c3.395-13.723,11.7-23.179,24.689-28.104c7.758-2.943,15.811-4.437,23.936-4.437c6.002,0,12.245,0.813,18.559,2.418
			c22.598,5.748,37.1,18.78,44.335,39.841c4.364,12.715,5.313,25.953,6.233,38.756c0.334,4.656,0.681,9.47,1.186,14.183
			c0.577,5.373,0.729,10.868,0.876,16.184c0.083,2.989,0.168,6.082,0.328,9.112c0.127,2.363,0.25,4.728,0.373,7.092
			c0.516,9.919,1.049,20.176,1.873,30.235c0.554,6.742,2.052,14.235,8.97,18.685c3.574,2.303,7.575,4.317,11.895,5.989
			c9.551,3.713,16.759,8.295,22.686,14.42c8.262,8.525,11.192,25.678,2.188,36.657c-4.466,5.441-10.161,8.563-15.63,8.563
			c-4.6,0-8.781-2.239-12.097-6.477c-4.898-6.27-10.482-13.621-14.75-21.525c-6.473-12.006-14.355-17.599-24.813-17.599
			c-4.644,0-9.891,1.072-16.041,3.277c-15.809,5.669-30.039,15.218-42.299,28.382c-11.624,12.479-23.454,26.263-36.168,42.14
			l-1.478,1.854C951.448,648.776,936.332,667.784,903.664,667.784z M774.638,451.016c-14.425,0-27.563,3.944-43.237,9.1
			c-10.072,3.316-16.854,10.353-21.989,22.813c-5.219,12.659-7.669,23.58-7.71,34.37c-0.063,15.983,6.265,24.816,20.514,28.643
			c12.552,3.369,24.104,8.949,35.273,14.345c2.096,1.014,4.193,2.026,6.303,3.028c14.826,7.047,30.162,13.673,44.993,20.08
			l5.778,2.499c10.089,4.372,18.226,10.766,24.186,19.003c6.583,9.094,12.412,17.355,17.091,26.369
			c0.638,1.228,1.28,2.53,1.947,3.884c6.535,13.245,15.483,31.387,45.879,31.387c32.065,0,46.964-18.736,57.843-32.419l1.479-1.855
			c12.733-15.901,24.585-29.709,36.229-42.21c12.396-13.313,26.793-22.97,42.791-28.706c6.288-2.255,11.673-3.353,16.462-3.353
			c10.965,0,19.198,5.802,25.912,18.255c4.222,7.818,9.769,15.12,14.635,21.351c3.069,3.922,6.911,5.995,11.112,5.995
			c5.092,0,10.438-2.954,14.663-8.104c8.589-10.472,5.776-26.848-2.119-34.995c-5.797-5.991-12.863-10.479-22.239-14.123
			c-4.396-1.702-8.474-3.757-12.117-6.104c-7.375-4.742-8.962-12.586-9.539-19.633c-0.825-10.078-1.359-20.345-1.876-30.273
			c-0.122-2.362-0.245-4.727-0.372-7.089c-0.161-3.047-0.247-6.146-0.33-9.145c-0.146-5.29-0.297-10.762-0.868-16.085
			c-0.508-4.734-0.854-9.561-1.188-14.227c-0.914-12.723-1.858-25.879-6.17-38.438c-7.088-20.631-21.304-33.399-43.462-39.036
			c-6.211-1.578-12.352-2.378-18.249-2.378c-7.973,0-15.877,1.465-23.491,4.354c-12.583,4.771-20.632,13.936-23.921,27.237
			c-2.162,8.732-2.684,18.536-1.59,29.971c2.673,27.893-3.71,53.155-18.973,75.089c-12.793,18.394-27.171,31.039-43.956,38.663
			c-5.342,2.424-11.396,5.171-18.049,5.171c-1.021,0-2.049-0.064-3.051-0.194c-9.575-1.243-16.147-7.305-19.535-18.016
			c-1.862-5.881-3.438-11.951-4.958-17.823c-1.239-4.785-2.521-9.733-3.951-14.543c-4.585-15.428-12.686-25.914-24.763-32.063
			c-7.693-3.91-16.325-6.658-27.164-8.646c-6.043-1.114-11.959-2.116-17.912-2.144L774.638,451.016z"/>
	</g>
	<g>
		<path fill="#F2F2F2" d="M295.282,233.513c-11.578,0-22.104-4.167-31.017-8.363c-11.057-5.208-22.942-10.671-34.938-15.332
			c-14.188-5.504-29.937-9.537-49.563-12.69c-3.205-0.516-6.478-0.978-9.643-1.424c-6.182-0.873-12.575-1.775-18.778-3.115
			c-10.735-2.313-17.082-7.623-18.863-15.781c-1.829-8.384,1.205-16.474,4.756-23.967c5.962-12.574,15.244-22.925,24.221-32.936
			l1.08-1.204c16.831-18.786,22.591-38.198,17.608-59.346c-3.381-14.36-7.649-28.773-11.777-42.712
			c-1.826-6.166-3.714-12.541-5.501-18.83c-0.095-0.332,0.098-0.678,0.43-0.771c0.332-0.092,0.677,0.098,0.772,0.43
			c1.785,6.282,3.672,12.654,5.497,18.816c4.133,13.955,8.407,28.385,11.795,42.78c5.083,21.574-0.77,41.354-17.894,60.466
			l-1.08,1.204c-8.917,9.943-18.138,20.227-24.021,32.637c-3.457,7.293-6.415,15.147-4.665,23.166
			c1.667,7.637,7.691,12.625,17.905,14.826c6.159,1.329,12.529,2.229,18.689,3.099c3.171,0.448,6.45,0.911,9.667,1.427
			c19.715,3.168,35.545,7.224,49.817,12.76c12.032,4.675,23.941,10.147,35.019,15.366c10.208,4.808,21.416,9.115,34.143,8.101
			c9.414-0.748,18.266-4.359,26.075-7.546c2.986-1.218,6.001-2.526,8.917-3.792c9.196-3.991,18.706-8.118,28.866-10.098
			c9.932-1.936,20.361-2.277,31.882-1.045c11.099,1.187,21.812,4.572,32.172,7.846c8.047,2.543,16.366,5.172,24.755,6.727
			c31.096,5.756,51.937-3.738,67.573-30.786c8.792-15.211,13.563-32.138,17.41-48.164c0.328-1.37,0.664-2.74,1-4.11
			c2.358-9.623,4.796-19.573,4.519-29.776c-0.185-6.644-3.793-11.634-9.42-13.022l-0.262-0.064
			c-6.497-1.606-13.208-3.27-19.756-3.111c-12.555,0.291-25.02-1.477-37.081-3.192l-3.441-0.487
			c-27.569-3.878-55.09-13.422-86.613-30.035l-3.627-1.909c-18.655-9.814-37.945-19.963-54.882-33.408
			c-8.327-6.61-18.852-15.786-26.383-28.167c-0.179-0.295-0.085-0.679,0.209-0.858c0.296-0.179,0.68-0.086,0.859,0.209
			c7.428,12.212,17.846,21.292,26.092,27.837c16.845,13.373,36.083,23.493,54.687,33.28l3.628,1.91
			c31.391,16.544,58.782,26.046,86.204,29.903l3.444,0.488c12.011,1.709,24.423,3.475,36.874,3.18
			c6.688-0.152,13.509,1.521,20.087,3.147l0.261,0.064c6.195,1.53,10.169,6.972,10.37,14.202
			c0.281,10.371-2.177,20.405-4.555,30.108c-0.335,1.368-0.67,2.735-0.998,4.104c-3.868,16.118-8.671,33.149-17.543,48.499
			c-15.942,27.576-37.188,37.257-68.883,31.39c-8.464-1.566-16.822-4.209-24.903-6.763c-10.303-3.255-20.955-6.622-31.93-7.794
			c-11.395-1.219-21.703-0.883-31.51,1.029c-10.027,1.952-19.473,6.053-28.608,10.018c-2.922,1.27-5.944,2.58-8.942,3.803
			c-7.894,3.222-16.841,6.871-26.449,7.635C297.776,233.465,296.522,233.513,295.282,233.513z"/>
	</g>
	<g>
		<path fill="#F2F2F2" d="M1242.966,575.285L1242.966,575.285c-13.871,0-27.287-6.122-35.013-15.977
			c-8.57-10.924-15.357-21.199-20.748-31.413c-6.044-11.455-10.844-23.795-15.484-35.729l-1.054-2.707
			c-3.12-7.998-5.761-15.226-6.462-22.665c-1.335-14.21,0.181-29.552,4.634-46.898c4.707-18.322,6.037-34.962,4.066-50.869
			c-0.796-6.428-2.327-12.827-3.81-19.016c-2.094-8.743-4.259-17.784-4.421-27.156c-0.128-7.506,0.074-14.195,3.863-20.055
			c10.035-15.53,23.689-29.167,44.274-44.218c8.03-5.872,17.5-8.089,27.783-6.514c5.741,0.881,11.507,2.196,17.082,3.469
			c6.394,1.458,13.003,2.966,19.571,3.813c3.489,0.453,7.342,0.673,11.78,0.673c4.038,0,8.162-0.178,12.149-0.351
			c1.452-0.063,2.902-0.125,4.35-0.18c5.629-0.21,11.348-1.048,16.878-1.857l1.636-0.239c0.274-0.04,1.073-0.187,2.247-0.401
			c5.618-1.031,20.542-3.771,27.097-3.771l0.27,0.001c12.404,0.148,22.367,3.344,30.457,9.771
			c11.694,9.308,17.53,21.648,16.873,35.688c-0.462,9.871-4.902,19.863-13.577,30.547c-13.555,16.681-30.529,32.048-51.895,46.98
			c-2.304,1.607-4.615,3.203-6.93,4.801c-14.751,10.18-30.004,20.707-42.267,34.498c-13.714,15.413-21.709,33.787-23.763,54.612
			c-1.063,10.767,0.75,21.861,5.877,35.978c5.03,13.848,8.837,25.489,8.305,38.691c-0.518,12.873-8.024,23.607-19.591,28.014
			C1252.826,574.451,1248.055,575.285,1242.966,575.285z M1234.255,252.826c-7.598,0-14.563,2.275-20.702,6.766
			c-20.456,14.957-34.016,28.492-43.965,43.888c-3.598,5.564-3.787,12.058-3.662,19.355c0.159,9.234,2.31,18.208,4.387,26.886
			c1.489,6.222,3.03,12.656,3.834,19.152c1.99,16.065,0.65,32.856-4.097,51.334c-4.417,17.205-5.922,32.406-4.601,46.471
			c0.687,7.279,3.297,14.419,6.382,22.328l1.055,2.709c4.628,11.899,9.414,24.207,15.426,35.598
			c5.354,10.147,12.103,20.361,20.626,31.227c7.494,9.56,20.532,15.497,34.028,15.497c4.938,0,9.56-0.806,13.736-2.396
			c11.092-4.225,18.291-14.53,18.788-26.896c0.521-12.974-3.248-24.496-8.232-38.214c-5.191-14.3-7.024-25.563-5.944-36.525
			c2.079-21.095,10.18-39.707,24.072-55.32c12.362-13.904,27.68-24.475,42.49-34.696c2.313-1.595,4.622-3.189,6.922-4.796
			c21.271-14.865,38.161-30.155,51.642-46.744c8.5-10.469,12.851-20.223,13.3-29.817c0.637-13.622-5.035-25.604-16.403-34.652
			c-7.863-6.246-17.577-9.353-29.693-9.498l-0.254-0.001c-6.439,0-21.282,2.725-26.87,3.749c-1.197,0.221-2.013,0.369-2.292,0.41
			l-1.637,0.239c-5.563,0.813-11.314,1.656-17.012,1.869c-1.443,0.055-2.892,0.117-4.341,0.18
			c-4.002,0.173-8.141,0.353-12.205,0.353c-4.492,0-8.397-0.225-11.939-0.684c-6.627-0.854-13.269-2.37-19.688-3.835
			c-5.555-1.267-11.297-2.577-16.994-3.451C1238.33,252.988,1236.26,252.826,1234.255,252.826z"/>
	</g>
	<g>
		<path fill="#F2F2F2" d="M455.84,202.955c-9.499,0-19.236-1.31-29.067-3.915c-20.519-5.442-41.406-6.817-57.312-7.406
			c-11.371-0.424-23.304,0.61-36.491,3.162c-9.967,1.933-20.647,3.417-31.742,4.41c-10.563,0.944-20.688-0.851-31.881-3.111
			c-6.16-1.247-12.471-2.303-18.575-3.324c-8.083-1.352-16.442-2.75-24.563-4.61c-13.141-3.01-26.983-6.668-39.075-15.306
			c-6.362-4.542-11.609-9.042-11.386-18.125c0.23-9.368,4.037-16.771,9.683-25.006c2.691-3.917,5.644-7.74,8.5-11.437
			c2.794-3.618,5.684-7.359,8.314-11.174c11.235-16.284,13.047-32.616,5.538-49.928c-4.787-11.037-9.009-21.961-12.549-32.47
			c-2.051-6.087-3.617-12.438-5.131-18.58C189.428,3.4,188.73,0.569,188-2.198c-0.088-0.334,0.111-0.676,0.445-0.764
			c0.336-0.085,0.676,0.11,0.764,0.444c0.733,2.777,1.432,5.612,2.108,8.355c1.508,6.117,3.067,12.441,5.102,18.479
			c3.529,10.477,7.738,21.367,12.511,32.372c7.588,17.492,5.686,34.697-5.655,51.136c-2.65,3.841-5.55,7.596-8.354,11.227
			c-2.845,3.684-5.787,7.492-8.458,11.38c-5.52,8.05-9.242,15.27-9.464,24.329c-0.209,8.485,4.58,12.591,10.862,17.077
			c11.904,8.502,25.609,12.124,38.627,15.104c8.085,1.854,16.425,3.248,24.49,4.598c6.114,1.021,12.437,2.08,18.616,3.331
			c11.095,2.24,21.126,4.021,31.522,3.092c11.053-0.99,21.69-2.468,31.616-4.394c13.283-2.568,25.313-3.611,36.775-3.184
			c15.97,0.592,36.947,1.973,57.584,7.447c13.315,3.527,26.446,4.651,39.034,3.344c3.604-0.375,7.847-2.191,11.073-4.742
			c16.021-12.655,23.276-37.825,16.876-58.547c-4.062-13.158-14.86-19.229-23.815-23.047c-14.752-6.285-31.546-11.139-52.852-15.275
			c-10.478-2.036-21.446-2.622-32.053-3.188c-1.48-0.08-2.959-0.158-4.437-0.241c-1.505-0.085-3.01-0.163-4.514-0.24
			c-12.387-0.638-25.195-1.297-37.255-6.4c-9.117-3.86-18-9.698-27.957-18.373c-20.87-18.178-37.901-40.689-52.067-68.823
			c-0.488-0.968-0.69-2.048-0.886-3.094c-0.088-0.475-0.177-0.949-0.293-1.41c-0.084-0.335,0.119-0.675,0.453-0.759
			c0.335-0.086,0.675,0.118,0.759,0.452c0.123,0.486,0.216,0.986,0.31,1.485c0.188,1.004,0.365,1.952,0.773,2.761
			c14.092,27.987,31.027,50.375,51.772,68.443c9.854,8.585,18.631,14.357,27.623,18.164c11.857,5.019,24.554,5.672,36.832,6.304
			c1.506,0.078,3.013,0.155,4.521,0.24c1.476,0.083,2.954,0.162,4.433,0.241c10.65,0.568,21.662,1.158,32.225,3.21
			c21.394,4.153,38.269,9.032,53.104,15.353c9.203,3.925,20.307,10.181,24.519,23.829c6.546,21.188-0.891,46.938-17.296,59.896
			c-3.453,2.729-7.833,4.601-11.718,5.004C462.821,202.777,459.346,202.955,455.84,202.955z"/>
	</g>
	<g>
		<path fill="#F2F2F2" d="M993.497,302.847c-5.512,0-10.494-0.146-15.294-0.436c-2.972-0.18-5.146-1.354-6.12-3.309
			c-1.063-2.129-0.58-4.999,1.323-7.873c1.85-2.78,4.156-5.295,6.672-7.271c8.636-6.812,18.65-11.381,28.337-15.801
			c2.921-1.333,5.94-2.712,8.875-4.13c7.559-3.649,16.118-8.557,22.295-17.274c5.524-7.793,6.214-16.794,6.88-25.499
			c0.116-1.505,0.231-3.01,0.37-4.508c0.294-3.166-0.039-6.472-0.362-9.668c-0.296-2.94-0.604-5.98-0.437-8.966
			c0.69-12.536,1.785-24.747,3.25-36.294c1.789-14.12,6.993-25.854,15.47-34.873c10.104-10.739,21.004-21.541,33.325-33.019
			c21.961-20.47,36.999-39.983,47.323-61.409c3.851-7.997,7.638-16.188,11.301-24.108c1.699-3.68,3.4-7.357,5.113-11.03
			c0.146-0.314,0.521-0.449,0.83-0.302c0.313,0.146,0.448,0.518,0.304,0.831c-1.712,3.671-3.412,7.349-5.112,11.025
			c-3.665,7.926-7.455,16.122-11.309,24.127c-10.396,21.57-25.521,41.201-47.6,61.781c-12.301,11.459-23.183,22.241-33.267,32.96
			c-8.291,8.823-13.386,20.321-15.141,34.174c-1.461,11.518-2.552,23.699-3.241,36.206c-0.161,2.887,0.141,5.878,0.433,8.771
			c0.328,3.256,0.668,6.623,0.362,9.908c-0.139,1.491-0.253,2.989-0.367,4.488c-0.68,8.874-1.383,18.05-7.107,26.125
			c-6.341,8.95-15.067,13.959-22.771,17.678c-2.945,1.425-5.974,2.806-8.9,4.142c-9.618,4.39-19.563,8.928-28.083,15.646
			c-2.413,1.896-4.626,4.312-6.401,6.981c-1.649,2.49-2.104,4.905-1.247,6.624c0.768,1.537,2.569,2.468,5.078,2.618
			c9.083,0.55,18.836,0.574,31.618,0.082c11.746-0.443,22.411-4.823,30.392-8.588c14.639-6.913,25.81-15.324,34.15-25.716
			c5.063-6.31,10.138-12.789,15.043-19.056c7.553-9.645,15.361-19.619,23.318-29.204c16.516-19.896,33.682-34.919,52.479-45.926
			c16.043-9.39,31.123-20.805,45.707-31.844c4.916-3.722,9.999-7.569,15.048-11.285c7.657-5.638,15.678-11.035,23.434-16.254
			c8.844-5.952,17.989-12.106,26.622-18.636c13.65-10.324,22.072-22.002,25.748-35.699c2.798-10.433,3.029-21.232,0.688-32.103
			c-1.484-6.872-3.985-13.667-6.405-20.237c-1.066-2.897-2.169-5.894-3.173-8.861c-0.11-0.327,0.063-0.683,0.392-0.792
			c0.325-0.112,0.682,0.064,0.792,0.392c0.999,2.953,2.099,5.94,3.162,8.83c2.435,6.611,4.951,13.448,6.455,20.406
			c2.384,11.064,2.146,22.063-0.702,32.688c-3.75,13.977-12.32,25.874-26.201,36.373c-8.66,6.55-17.82,12.715-26.679,18.676
			c-7.745,5.212-15.754,10.602-23.392,16.224c-5.042,3.711-10.12,7.557-15.034,11.275c-14.611,11.061-29.723,22.499-45.829,31.926
			c-18.668,10.931-35.727,25.861-52.147,45.645c-7.945,9.571-15.749,19.538-23.295,29.178c-4.909,6.269-9.984,12.751-15.054,19.066
			c-8.462,10.543-19.777,19.068-34.593,26.063c-8.086,3.815-18.902,8.255-30.875,8.707
			C1003.865,302.73,998.466,302.847,993.497,302.847z"/>
	</g>
	<g>
		<path fill="#F2F2F2" d="M886.582,263.014c-5.808,0-11.057-0.686-16.196-2.074c-11.459-3.097-21.439-9.144-29.667-17.974
			c-12.702-13.641-25.028-28.121-35.586-40.623c-8.025-9.501-15.753-19.528-23.226-29.224l-0.329-0.428
			c-9.312-12.093-16.549-25.697-23.549-38.854c-3.624-6.813-7.371-13.854-11.357-20.594c-7.013-11.857-14.265-24.118-26.757-30.822
			c-15.733-8.448-28.906-14.517-41.456-19.094l-2.578-0.945c-13.221-4.86-33.198-12.209-47.814-11.114
			c-3.042,0.226-6.063,0.519-8.983,0.801c-5.54,0.537-10.772,1.044-16.251,1.147c-6.859,0.133-12.704-2.012-16.895-6.193
			c-4.481-4.47-6.784-10.912-6.658-18.628c0.115-7.021,0.402-14.153,0.681-21.052c0.13-3.241,0.261-6.482,0.375-9.723
			c0.012-0.346,0.3-0.632,0.646-0.604c0.345,0.012,0.614,0.301,0.603,0.646c-0.114,3.242-0.244,6.485-0.375,9.729
			c-0.277,6.891-0.563,14.016-0.68,21.022c-0.121,7.369,2.055,13.497,6.291,17.723c3.944,3.935,9.466,5.966,15.988,5.828
			c5.431-0.103,10.64-0.606,16.154-1.141c2.928-0.284,5.955-0.577,9.011-0.805c14.884-1.104,35.018,6.29,48.34,11.188l2.575,0.944
			c12.607,4.6,25.832,10.689,41.619,19.166c12.8,6.869,20.143,19.283,27.242,31.287c4,6.765,7.754,13.82,11.384,20.644
			c6.977,13.111,14.189,26.669,23.437,38.68l0.329,0.427c7.464,9.686,15.182,19.7,23.189,29.181
			c10.548,12.49,22.862,26.957,35.545,40.576c8.065,8.657,17.85,14.585,29.079,17.619c8.538,2.308,17.406,2.632,28.755,1.058
			c19.199-2.662,36.811-10.297,50.006-16.651c19.06-9.178,33.867-21.64,44.019-37.04c6.122-9.291,9.238-19.79,12.037-32.695
			c0.836-3.863,1.654-7.734,2.474-11.605c2.905-13.732,5.908-27.933,9.725-41.666c3.374-12.152,10.665-23.589,22.945-35.995
			c4.17-4.211,8.538-8.357,12.762-12.366c4.436-4.209,9.021-8.562,13.376-12.989c11.212-11.386,18.462-23.333,22.162-36.525
			c1.618-5.76,2.638-11.812,3.623-17.663c0.446-2.647,0.907-5.385,1.418-8.064c0.065-0.339,0.391-0.562,0.731-0.497
			c0.339,0.064,0.562,0.393,0.497,0.731c-0.51,2.667-0.97,5.397-1.414,8.038c-0.991,5.885-2.017,11.969-3.652,17.793
			c-3.759,13.4-11.11,25.524-22.475,37.063c-4.37,4.443-8.965,8.804-13.406,13.021c-4.217,4.002-8.578,8.142-12.733,12.339
			c-12.124,12.248-19.313,23.512-22.629,35.45c-3.807,13.696-6.806,27.876-9.706,41.59c-0.818,3.873-1.639,7.745-2.477,11.612
			c-2.826,13.042-5.985,23.665-12.215,33.118c-10.275,15.591-25.255,28.199-44.519,37.478
			c-13.279,6.395-31.006,14.078-50.377,16.763C894.917,262.683,890.614,263.014,886.582,263.014z"/>
	</g>
	<g>
		<path fill="#F2F2F2" d="M499.023,492.05c-0.001,0-0.001,0-0.002,0c-8.523,0-17.349-1.441-26.979-4.405
			c-21.057-6.487-40.623-17.425-58.152-32.508c-16.729-14.399-27.313-33.923-32.358-59.688c-1.665-8.503-2.727-17.26-3.753-25.729
			c-0.227-1.871-0.454-3.742-0.687-5.611c-1.476-11.827-2.506-21.436-3.243-30.24c-0.376-4.542-0.846-10.194-0.069-15.517
			c1.253-8.571,7.194-25.181,17.804-33.264c2.647-2.013,6.108-3.309,9.032-3.38c7.532-0.186,15.623-0.356,23.759-0.356
			c6.455,0,12.279,0.107,17.804,0.327c9.229,0.371,18.589,1.196,27.643,1.995c4.562,0.402,9.277,0.818,13.918,1.171l1.518,0.116
			c9.703,0.743,19.736,1.511,29.617,2.06c10.176,0.571,20.348,2.827,30.232,6.705c16.168,6.351,28.063,15.766,36.365,28.782
			c9.308,14.581,10.656,30.99,4.375,53.208c-3.315,11.729-7.002,23.017-10.956,33.545c-5.688,15.173-11.572,30.862-18.667,46.146
			c-7.852,16.916-20.797,28.579-37.435,33.729C512.53,491.07,505.879,492.05,499.023,492.05z M424.375,282.602
			c-8.122,0-16.204,0.171-23.728,0.356c-2.634,0.063-5.895,1.291-8.306,3.125c-10.313,7.857-16.1,24.074-17.324,32.449
			c-0.757,5.181-0.294,10.753,0.078,15.232c0.734,8.787,1.763,18.38,3.237,30.188c0.233,1.87,0.46,3.743,0.688,5.615
			c1.024,8.447,2.083,17.182,3.739,25.641c4.99,25.479,15.439,44.771,31.947,58.979c17.397,14.97,36.813,25.824,57.705,32.26
			c9.509,2.929,18.213,4.352,26.61,4.352h0.002c6.73,0,13.257-0.962,19.396-2.859c16.291-5.042,28.971-16.474,36.67-33.06
			c7.075-15.24,12.95-30.908,18.631-46.061c3.942-10.496,7.617-21.748,10.923-33.444c6.176-21.845,4.872-37.942-4.226-52.196
			c-8.155-12.786-19.855-22.04-35.769-28.291c-9.761-3.83-19.802-6.057-29.846-6.621c-9.894-0.549-19.934-1.317-29.643-2.062
			l-1.519-0.116c-4.646-0.354-9.366-0.77-13.933-1.172c-9.038-0.797-18.383-1.622-27.582-1.991
			C436.621,282.709,430.813,282.602,424.375,282.602z"/>
	</g>
	<g>
		<path fill="#F2F2F2" d="M1150.804,770.949c-0.125,0-0.251-0.037-0.36-0.114c-0.281-0.2-0.348-0.591-0.147-0.872
			c0.195-0.274,19.756-27.924,38.457-63.993c17.23-33.211,45.505-53.558,77.574-55.818c28.172-1.987,33.647-4.559,42.117-11.4
			c5.021-4.056,9.669-8.736,14.163-13.265c2.487-2.507,5.062-5.099,7.674-7.561l1.199-1.134c2.586-2.449,5.261-4.982,8.166-7.119
			c11.998-8.792,25.034-11.628,38.739-8.43c10.749,2.505,20.365,7.832,29.665,12.984l1.612,0.894
			c11.535,6.372,25.451,12.714,41.192,11.343c11.761-1.013,21.503-6.122,28.955-15.188c1.598-1.944,2.353-4.888-0.317-7.31
			c-1.698-1.544-3.315-3.217-4.879-4.834c-1.441-1.489-2.932-3.03-4.47-4.453c-9.448-8.749-21.168-13.946-32.504-18.972
			c-2.912-1.292-5.924-2.627-8.854-4.004c-19.316-9.068-32.659-20.635-41.991-36.398c-7.68-12.956-16.131-24.911-25.117-35.532
			c-5.809-6.866-12.829-12.934-19.618-18.801c-2.272-1.964-4.622-3.994-6.894-6.024c-7.897-7.062-11.099-15.809-9.252-25.297
			c1.403-7.209,5.01-14.3,11.351-22.313c9.498-12.006,21.202-21.627,32.437-30.234c2.583-1.979,5.15-3.984,7.717-5.989
			c12.396-9.683,25.212-19.693,39.886-26.565c13.469-6.305,24.737-5.509,34.448,2.433c5.202,4.25,9.965,9.404,13.775,14.906
			c12.563,18.128,27.778,40.825,42.492,62.773c10.923,16.293,21.238,31.685,30.299,44.959c0.193,0.285,0.121,0.675-0.164,0.869
			c-0.287,0.195-0.675,0.119-0.869-0.164c-9.062-13.279-19.38-28.673-30.304-44.969c-14.711-21.945-29.923-44.637-42.481-62.757
			c-3.745-5.407-8.427-10.473-13.539-14.65c-9.304-7.605-20.141-8.348-33.128-2.269c-14.545,6.812-27.305,16.779-39.646,26.419
			c-2.57,2.007-5.141,4.015-7.728,5.996c-11.169,8.559-22.803,18.119-32.216,30.018c-6.211,7.854-9.739,14.772-11.104,21.777
			c-1.757,9.032,1.307,17.375,8.858,24.127c2.262,2.023,4.607,4.05,6.875,6.011c6.827,5.898,13.887,11.998,19.758,18.939
			c9.031,10.673,17.522,22.686,25.238,35.702c9.197,15.538,22.367,26.946,41.446,35.903c2.918,1.37,5.924,2.703,8.83,3.992
			c11.428,5.066,23.244,10.308,32.847,19.196c1.563,1.447,3.064,3,4.519,4.502c1.55,1.604,3.152,3.262,4.82,4.777
			c3.322,3.015,2.315,6.747,0.443,9.027c-7.675,9.337-17.706,14.601-29.813,15.643c-16.078,1.384-30.205-5.031-41.905-11.495
			l-1.612-0.894c-9.226-5.11-18.764-10.396-29.343-12.86c-13.523-3.153-25.861-0.467-37.718,8.22
			c-2.842,2.09-5.486,4.596-8.046,7.019l-1.202,1.138c-2.598,2.446-5.161,5.03-7.644,7.529c-4.519,4.553-9.19,9.26-14.266,13.356
			c-8.694,7.025-14.282,9.663-42.814,11.675c-31.625,2.231-59.526,22.332-76.553,55.148c-18.742,36.149-38.353,63.864-38.547,64.142
			C1151.192,770.859,1151,770.949,1150.804,770.949z"/>
	</g>
	<g>
		<path fill="#F2F2F2" d="M1218.767,450.978C1218.767,450.978,1218.768,450.978,1218.767,450.978c-1.13,0-2.327-0.116-3.559-0.347
			c-4.342-0.811-6.549-6.973-7.295-9.584c-2.23-7.813-4.007-16.374-5.589-26.947c-0.909-6.085-1.281-12.581-1.14-19.86
			c0.098-4.918,0.03-9.929-0.034-14.774c-0.182-13.785-0.369-28.039,3.14-41.974c4.723-18.743,13.767-32.7,27.647-42.666
			c10.116-7.271,21.896-8.841,33.289-10.359c1.578-0.21,3.156-0.421,4.729-0.646c4.595-0.657,9.292-1.138,13.834-1.602
			c7.313-0.748,14.875-1.521,22.138-3.053c11.714-2.466,25.871-3.346,35.214-3.346c3.046,0,5.797,0.088,8.176,0.261
			c7.104,0.512,12.844,3.353,16.596,8.215c4.398,5.7,5.9,13.775,4.229,22.74c-2.955,15.898-14.172,26.774-22.352,33.572
			c-10.936,9.09-22.726,17.493-34.126,25.62c-6.505,4.635-13.229,9.429-19.721,14.295c-17.165,12.865-34.861,27.334-48.014,45.935
			c-0.571,0.81-1.14,1.62-1.709,2.434c-3.222,4.604-6.554,9.362-10.467,13.469l-0.483,0.509
			C1229.483,446.855,1225.563,450.978,1218.767,450.978z M1341.143,277.069c-9.279,0-23.336,0.872-34.956,3.318
			c-7.327,1.546-14.923,2.322-22.269,3.073c-4.53,0.463-9.214,0.941-13.783,1.596c-1.578,0.227-3.16,0.438-4.742,0.647
			c-11.239,1.499-22.861,3.049-32.726,10.136c-13.632,9.789-22.518,23.513-27.164,41.958c-3.47,13.774-3.282,27.946-3.102,41.65
			c0.063,4.856,0.131,9.877,0.034,14.816c-0.143,7.209,0.227,13.637,1.125,19.649c1.573,10.52,3.339,19.031,5.554,26.789
			c0.684,2.39,2.667,8.019,6.323,8.699c1.155,0.216,2.275,0.325,3.328,0.325c6.262,0,9.826-3.751,13.602-7.722l0.484-0.512
			c3.849-4.038,7.152-8.758,10.349-13.322c0.568-0.814,1.14-1.628,1.711-2.438c13.252-18.743,31.038-33.288,48.285-46.214
			c6.503-4.876,13.233-9.674,19.744-14.313c11.383-8.113,23.152-16.503,34.053-25.563c8.03-6.674,19.04-17.339,21.922-32.84
			c1.604-8.61,0.188-16.334-3.991-21.749c-3.527-4.572-8.956-7.246-15.694-7.73C1346.879,277.155,1344.158,277.069,1341.143,277.069
			z"/>
	</g>
	<g>
		<path fill="#F2F2F2" d="M37.086,451.869C37.085,451.869,37.086,451.869,37.086,451.869c-1.567,0-3.117-0.441-4.606-1.313
			c-3.142-1.834-5.993-5.655-7.095-9.509c-2.234-7.815-4.01-16.379-5.589-26.947c-0.911-6.081-1.284-12.577-1.141-19.86
			c0.095-4.904,0.03-9.902-0.034-14.735c-0.181-13.799-0.368-28.065,3.144-42.013c4.719-18.744,13.761-32.7,27.642-42.666
			c10.119-7.271,21.899-8.842,33.291-10.36c1.578-0.21,3.155-0.42,4.729-0.646c4.594-0.657,9.292-1.138,13.835-1.603
			c7.314-0.747,14.876-1.521,22.139-3.052c11.717-2.466,25.871-3.346,35.21-3.346c3.045,0,5.795,0.088,8.173,0.261
			c7.103,0.512,12.84,3.352,16.592,8.211c4.4,5.699,5.904,13.775,4.236,22.743c-2.954,15.895-14.171,26.772-22.352,33.572
			c-10.93,9.084-22.712,17.482-34.106,25.604c-6.51,4.641-13.242,9.438-19.739,14.311c-19.841,14.876-35.6,28.381-48.014,45.937
			c-0.586,0.828-1.17,1.661-1.754,2.496c-3.207,4.58-6.523,9.316-10.421,13.404l-0.952,1.007
			C46.709,447.155,42.271,451.869,37.086,451.869z M158.611,277.069c-9.276,0-23.329,0.872-34.952,3.318
			c-7.327,1.546-14.923,2.322-22.269,3.073c-4.531,0.463-9.216,0.941-13.786,1.596c-1.578,0.227-3.159,0.438-4.741,0.647
			c-11.239,1.499-22.861,3.048-32.726,10.136c-13.632,9.786-22.516,23.512-27.16,41.958c-3.472,13.788-3.286,27.973-3.106,41.689
			c0.063,4.844,0.129,9.853,0.034,14.777c-0.142,7.213,0.228,13.641,1.127,19.649c1.57,10.516,3.335,19.026,5.555,26.789
			c1.019,3.564,3.641,7.092,6.523,8.773c1.296,0.759,2.634,1.144,3.976,1.144l0,0c4.646,0,8.877-4.497,12.278-8.11l0.958-1.015
			c3.832-4.02,7.121-8.716,10.301-13.259c0.585-0.836,1.17-1.671,1.758-2.502c13.245-18.729,31.034-33.279,48.284-46.213
			c6.508-4.881,13.247-9.684,19.764-14.329c11.375-8.107,23.139-16.493,34.033-25.547c8.031-6.676,19.042-17.344,21.922-32.84
			c1.602-8.613,0.183-16.338-3.997-21.752c-3.528-4.57-8.955-7.243-15.693-7.728C164.345,277.155,161.625,277.069,158.611,277.069z"
			/>
	</g>
	<g>
		<path fill="#F2F2F2" d="M1092.782,181.986c-2.151,0-4.03-0.46-5.621-1.381c-2.599-1.503-4.39-4.227-5.325-8.095
			c-2.557-10.574-0.5-20.273,6.289-29.649c7.246-10.012,17.43-16.403,28.105-22.601c14.77-8.566,26.616-16.219,33.547-30.076
			c5.561-11.123,11.139-22.471,16.532-33.445c4.611-9.381,9.38-19.083,14.116-28.6l0.098-0.195
			c5.703-11.466,11.603-23.321,23.054-30.823c0.289-0.19,0.676-0.108,0.864,0.181c0.189,0.289,0.108,0.676-0.18,0.865
			c-11.168,7.315-16.99,19.019-22.62,30.335l-0.097,0.194c-4.735,9.516-9.503,19.216-14.114,28.596
			c-5.396,10.976-10.974,22.326-16.537,33.452c-7.084,14.167-19.084,21.926-34.036,30.598
			c-10.556,6.126-20.617,12.438-27.722,22.252c-6.562,9.063-8.552,18.425-6.086,28.623c0.853,3.522,2.446,5.981,4.735,7.307
			c2.584,1.496,6.104,1.609,10.454,0.339c13.372-3.893,22.01-13.665,28.693-22.71c7.99-10.811,14.235-18.945,20.248-26.38
			c9.64-11.917,23.412-17.298,36.729-22.502c1.128-0.439,2.256-0.881,3.381-1.325c6.545-2.585,13.229-5.143,19.69-7.616
			c12.936-4.95,26.311-10.068,39.222-15.654c9.436-4.086,21.17-10.289,28.221-22.074c10.728-17.938,8.217-42.578-5.971-58.584
			c-1.031-1.166-2.177-2.282-3.283-3.361c-0.534-0.521-1.067-1.041-1.593-1.567c-0.243-0.245-0.241-0.642,0.003-0.884
			c0.245-0.243,0.642-0.243,0.885,0.003c0.52,0.522,1.049,1.039,1.577,1.554c1.124,1.095,2.286,2.227,3.348,3.428
			c14.539,16.403,17.107,41.66,6.106,60.055c-7.233,12.092-19.189,18.419-28.798,22.579c-12.936,5.597-26.322,10.721-39.271,15.675
			c-6.46,2.472-13.141,5.028-19.679,7.61c-1.126,0.445-2.255,0.887-3.386,1.328c-13.166,5.146-26.78,10.465-36.212,22.124
			c-6.002,7.419-12.235,15.542-20.215,26.337c-6.81,9.213-15.621,19.17-29.35,23.167
			C1096.48,181.678,1094.54,181.986,1092.782,181.986z"/>
	</g>
	<g>
		<path fill="#F2F2F2" d="M498.13,465.312c-0.001,0-0.002,0-0.003,0c-11.497,0-22.374-2.22-33.252-6.784
			c-17.818-7.476-37.246-17.928-46.24-38.765c-2.761-6.385-7.199-19.462-8.793-25.912c-2.342-9.457-3.972-19.825-5.283-33.619
			c-0.782-8.226-0.794-17.414-0.037-28.091c0.822-11.553,4.499-19.385,11.57-24.647c7.163-5.329,15.8-8.145,24.979-8.145
			c13.767,0,28.884,0.68,47.576,2.141c9.215,0.715,17.115,2.163,24.151,4.427c35.784,11.5,43.329,43.733,44.642,61.925
			c0.689,9.592,0.035,19.531-2.001,30.389c-4.275,22.707-11.686,39.345-23.316,52.359c-8.464,9.465-19.238,14.409-32.022,14.699
			C499.441,465.304,498.785,465.312,498.13,465.312z M441.07,300.599c-8.907,0-17.286,2.73-24.231,7.897
			c-6.758,5.029-10.275,12.57-11.069,23.733c-0.752,10.607-0.741,19.728,0.034,27.884c1.306,13.729,2.925,24.042,5.252,33.437
			c1.582,6.4,5.986,19.379,8.727,25.717c8.818,20.431,27.988,30.729,45.576,38.108c10.723,4.498,21.44,6.687,32.769,6.687
			c0.001,0,0.002,0,0.003,0c0.646,0,1.292-0.008,1.941-0.022c12.424-0.28,22.894-5.087,31.119-14.282
			c11.474-12.838,18.788-29.284,23.02-51.757c2.018-10.75,2.666-20.585,1.983-30.068c-1.29-17.876-8.692-49.55-43.777-60.825
			c-6.942-2.232-14.749-3.663-23.867-4.371C469.89,301.278,454.804,300.599,441.07,300.599z"/>
	</g>
	<g>
		<path fill="#F2F2F2" d="M438.854,546.589c-4.443,0-9.041-0.708-12.551-5.848c-1.091-1.595-2.172-3.2-3.254-4.81
			c-4.264-6.336-8.672-12.887-13.727-18.666c-10.357-11.84-21.438-23.399-32.153-34.578l-3.25-3.392
			c-15.513-16.192-28.016-33.824-37.162-52.404c-5.787-11.758-11.376-23.854-16.782-35.552c-2.934-6.35-5.968-12.913-8.998-19.348
			l-2.01-4.269c-5.542-11.772-11.271-23.945-17.139-35.802c-7.74-15.639-5.617-25.899,7.327-35.417l3.787-2.779
			c5.79-4.244,11.777-8.632,17.488-13.166c4.809-3.82,9.633-7.794,14.299-11.638c6.566-5.41,13.356-11.003,20.222-16.267
			c10.683-8.185,22.719-12.163,35.862-11.858c12.386,0.297,24.276,3.565,35.774,6.728l2.069,0.568
			c13.006,3.56,27.817,7.614,42.992,7.104l0.509-0.018c6.964-0.236,21.455-0.729,26.249-1.09c11.833-0.856,23.187-4.45,33.204-7.62
			c20.309-6.422,38.959-15.169,55.433-25.997c18.707-12.288,39.02-23.474,60.376-33.246c3.907-1.788,8.429-2.971,12.735-3.33
			c14.319-1.188,26.489,1.085,37.548,7.009c14.32,7.664,26.297,15.463,36.614,23.84c7.76,6.303,16.481,11.339,24.916,16.208
			c3.267,1.886,6.645,3.836,9.926,5.836c17.793,10.841,32.501,27.073,46.289,51.087c5.988,10.424,11.237,20.777,9.711,32.818
			c-1.747,13.756-7.201,22.293-17.164,26.866c-9.966,4.573-25.461,6.656-35.642,6.656h-0.301c-15.261,0-28.139,4.256-39.37,13.012
			c-4.341,3.384-8.018,5.842-11.568,7.736c-14.128,7.549-28.532,15.15-42.462,22.502c-10.794,5.695-21.587,11.393-32.362,17.12
			c-18.544,9.852-31.541,22.855-39.733,39.757c-5.734,11.831-9.623,24.509-13.382,36.77l-0.675,2.199
			c-3.827,12.454-10.381,27.541-27.242,33.72c-10.159,3.723-21.438,6.791-34.484,9.385c-12.888,2.555-25.978,4.103-39.372,5.591
			c-8.602,0.95-17.374,1.626-25.857,2.278c-4.604,0.354-9.362,0.722-14.036,1.127c-0.675,0.06-1.356,0.262-2.08,0.476
			c-0.888,0.264-1.806,0.536-2.753,0.536l-0.165-0.003c-1.42-0.052-2.899,0.015-4.335,0.074
			C441.084,546.541,439.958,546.589,438.854,546.589z M389.355,242.03c-12.262,0-23.582,3.909-33.646,11.619
			c-6.847,5.25-13.629,10.836-20.187,16.239c-4.67,3.847-9.499,7.824-14.316,11.652c-5.73,4.549-11.727,8.943-17.526,13.194
			l-3.785,2.778c-12.506,9.197-14.454,18.688-6.947,33.855c5.873,11.868,11.605,24.048,17.149,35.825l2.01,4.27
			c3.032,6.438,6.066,13.004,9.001,19.354c5.403,11.69,10.99,23.779,16.77,35.523c9.089,18.466,21.518,35.992,36.942,52.092
			l3.25,3.393c10.726,11.188,21.816,22.759,32.191,34.62c5.107,5.838,9.538,12.423,13.824,18.791c1.08,1.604,2.16,3.209,3.249,4.803
			c3.184,4.659,7.418,5.302,11.52,5.302c1.077,0,2.19-0.047,3.267-0.092c1.458-0.062,2.971-0.121,4.431-0.076l0.123,0.003
			c0.766,0,1.559-0.235,2.398-0.484c0.75-0.223,1.524-0.452,2.326-0.521c4.681-0.406,9.442-0.772,14.048-1.127
			c8.474-0.652,17.235-1.327,25.815-2.275c13.367-1.485,26.429-3.029,39.268-5.574c12.98-2.58,24.199-5.633,34.298-9.332
			c16.344-5.988,22.734-20.734,26.477-32.913l0.675-2.197c3.773-12.307,7.676-25.03,13.452-36.948
			c8.313-17.148,21.485-30.336,40.271-40.315c10.775-5.729,21.571-11.425,32.365-17.122c13.929-7.351,28.331-14.951,42.458-22.5
			c3.486-1.858,7.104-4.28,11.389-7.619c11.458-8.935,24.588-13.276,40.138-13.276h0.301c10.049,0,25.324-2.047,35.119-6.542
			c9.532-4.376,14.759-12.602,16.445-25.888c1.479-11.657-3.676-21.808-9.555-32.04c-13.68-23.823-28.25-39.915-45.855-50.642
			c-3.27-1.992-6.64-3.938-9.899-5.821c-8.478-4.895-17.243-9.955-25.079-16.32c-10.255-8.327-22.167-16.082-36.417-23.708
			c-10.844-5.808-22.787-8.04-36.854-6.865c-4.166,0.349-8.541,1.491-12.319,3.222c-21.299,9.746-41.556,20.899-60.21,33.153
			c-16.569,10.892-35.324,19.688-55.742,26.145c-10.083,3.191-21.512,6.809-33.489,7.675c-4.817,0.364-19.326,0.856-26.298,1.093
			l-0.509,0.018c-15.364,0.514-30.274-3.565-43.364-7.146l-2.071-0.569c-11.425-3.142-23.24-6.391-35.473-6.684
			C390.305,242.035,389.829,242.03,389.355,242.03z"/>
	</g>
	<g>
		<path fill="#F2F2F2" d="M1476.96,560.264L1476.96,560.264c-6.493,0-13.434-1.005-21.22-3.071
			c-23.176-6.149-39.764-16.927-50.709-32.945c-11.989-17.551-25.328-38.605-33.364-61.695
			c-7.384-21.233,8.039-37.791,15.013-43.924c11.604-10.205,23.565-15.166,36.566-15.166c0.482,0,0.971,0.007,1.459,0.021
			c8.686,0.243,15.713,4.559,22.166,8.957c17.728,12.081,34.193,28.133,50.343,49.073c8.692,11.273,19.443,26.526,25.466,44.557
			c2.381,7.138,2.85,13.901,1.432,20.678c-2.399,11.514-9.627,20.446-22.096,27.313
			C1494.429,558.235,1486.233,560.264,1476.96,560.264z M1423.246,404.711c-12.684,0-24.375,4.858-35.74,14.854
			c-6.784,5.966-21.792,22.057-14.659,42.574c7.989,22.951,21.274,43.918,33.216,61.401c10.771,15.761,27.125,26.371,49.998,32.44
			c7.681,2.039,14.517,3.03,20.898,3.03c9.058,0,17.056-1.979,24.453-6.05c12.13-6.681,19.154-15.339,21.475-26.475
			c1.372-6.554,0.916-13.104-1.393-20.024c-5.964-17.854-16.639-32.993-25.271-44.189c-16.064-20.835-32.438-36.799-50.056-48.804
			c-6.301-4.295-13.15-8.507-21.498-8.74C1424.193,404.718,1423.718,404.711,1423.246,404.711z"/>
	</g>
	<g>
		<path fill="#F2F2F2" d="M294.43,560.264L294.43,560.264c-6.493,0-13.433-1.005-21.218-3.071
			c-23.176-6.151-39.763-16.928-50.709-32.945c-13.567-19.857-23.909-41.339-33.338-61.638c-3.066-6.601-5.962-15.252-1.102-23.63
			c3.071-5.29,10.676-15.592,16.086-20.352c11.604-10.206,23.564-15.167,36.566-15.167c0.483,0,0.971,0.007,1.459,0.021
			c8.684,0.243,15.713,4.559,22.169,8.957c17.725,12.078,34.19,28.13,50.337,49.073c8.691,11.267,19.441,26.512,25.469,44.557
			c2.381,7.142,2.851,13.904,1.437,20.678c-2.413,11.521-9.642,20.454-22.102,27.313
			C311.898,558.235,303.702,560.264,294.43,560.264z M240.716,404.711c-12.684,0-24.375,4.858-35.74,14.854
			c-5.315,4.677-12.803,14.824-15.831,20.04c-4.571,7.879-1.784,16.15,1.154,22.477c9.407,20.252,19.723,41.68,33.236,61.46
			c10.77,15.76,27.124,26.37,49.997,32.44c7.679,2.039,14.515,3.03,20.896,3.03c9.057,0,17.056-1.979,24.454-6.05
			c12.121-6.672,19.147-15.332,21.48-26.475c1.368-6.551,0.91-13.102-1.399-20.025c-5.969-17.866-16.642-33-25.273-44.188
			c-16.065-20.838-32.438-36.801-50.051-48.804c-6.303-4.295-13.154-8.507-21.5-8.74
			C241.663,404.718,241.187,404.711,240.716,404.711z"/>
	</g>
	<g>
		<path fill="#F2F2F2" d="M1477.806,233.513c-11.577,0-22.101-4.167-31.01-8.364c-11.077-5.218-22.978-10.686-34.942-15.332
			c-14.185-5.504-29.934-9.537-49.563-12.69c-3.206-0.516-6.48-0.979-9.648-1.425c-6.181-0.873-12.57-1.775-18.771-3.114
			c-10.735-2.313-17.08-7.623-18.859-15.781c-1.834-8.387,1.202-16.476,4.758-23.968c5.971-12.599,15.272-22.967,24.271-32.995
			l1.026-1.146c16.834-18.787,22.594-38.199,17.607-59.345c-3.383-14.363-7.65-28.777-11.779-42.718
			c-1.824-6.164-3.712-12.537-5.498-18.824c-0.095-0.332,0.099-0.678,0.431-0.771c0.333-0.098,0.678,0.098,0.771,0.43
			c1.784,6.28,3.671,12.65,5.494,18.811c4.134,13.957,8.406,28.389,11.798,42.786c5.086,21.572-0.768,41.352-17.894,60.465
			l-1.027,1.146c-8.938,9.961-18.179,20.261-24.071,32.695c-3.459,7.292-6.418,15.145-4.666,23.166
			c1.666,7.637,7.688,12.625,17.902,14.825c6.157,1.329,12.525,2.229,18.684,3.099c3.174,0.448,6.454,0.911,9.674,1.428
			c19.718,3.168,35.548,7.223,49.816,12.76c12,4.659,23.924,10.14,35.022,15.366c9.714,4.577,21.366,9.12,34.137,8.101
			c9.503-0.756,18.137-4.09,26.052-7.58c4.126-1.817,11.532-4.454,18.695-7.003c5.296-1.886,10.298-3.666,13.409-4.92
			c0.315-0.129,0.684,0.025,0.813,0.347c0.129,0.319-0.025,0.684-0.347,0.813c-3.135,1.264-8.148,3.048-13.457,4.938
			c-7.143,2.542-14.526,5.17-18.61,6.969c-8.016,3.535-16.769,6.913-26.456,7.682
			C1480.301,233.466,1479.047,233.513,1477.806,233.513z"/>
	</g>
	<g>
		<path fill="#F2F2F2" d="M1477.799,199.47c-9.229,0-18.346-1.842-25.935-3.375c-6.157-1.247-12.469-2.303-18.57-3.324
			c-8.082-1.352-16.438-2.75-24.559-4.61c-13.141-3.009-26.98-6.667-39.077-15.306c-6.361-4.543-11.61-9.042-11.39-18.125
			c0.232-9.369,4.041-16.771,9.688-25.006c2.693-3.925,5.652-7.755,8.514-11.459c2.789-3.611,5.673-7.345,8.299-11.149
			c11.233-16.289,13.045-32.62,5.537-49.929c-4.788-11.041-9.01-21.965-12.55-32.47c-2.052-6.099-3.62-12.461-5.137-18.615
			c-0.672-2.727-1.366-5.545-2.095-8.3c-0.088-0.334,0.111-0.676,0.445-0.764c0.331-0.088,0.676,0.111,0.764,0.444
			c0.729,2.766,1.427,5.589,2.1,8.32c1.511,6.128,3.072,12.466,5.107,18.515c3.527,10.472,7.737,21.363,12.512,32.372
			c7.587,17.489,5.685,34.693-5.654,51.136c-2.646,3.833-5.539,7.58-8.339,11.204c-2.851,3.69-5.798,7.508-8.472,11.402
			c-5.522,8.051-9.245,15.27-9.471,24.33c-0.207,8.484,4.582,12.59,10.865,17.076c11.908,8.504,25.613,12.124,38.63,15.104
			c8.083,1.854,16.422,3.248,24.485,4.598c6.113,1.022,12.434,2.08,18.611,3.331c9.139,1.846,20.513,4.145,31.516,3.08
			c7.553-0.734,15.193-1.957,22.581-3.142c3.516-0.563,7.149-1.145,10.731-1.667c1.983-0.289,6.26-1.242,10.786-2.252
			c4.835-1.078,9.834-2.193,12.041-2.484c0.337-0.046,0.655,0.195,0.701,0.538c0.045,0.343-0.196,0.656-0.539,0.701
			c-2.15,0.283-7.123,1.393-11.931,2.465c-4.551,1.016-8.849,1.975-10.879,2.271c-3.573,0.521-7.203,1.103-10.714,1.665
			c-7.407,1.187-15.066,2.413-22.658,3.149C1481.77,199.385,1479.781,199.47,1477.799,199.47z"/>
	</g>
	<g>
		<path fill="#F2F2F2" d="M905.862,212.566C905.86,212.566,905.862,212.566,905.862,212.566c-0.289,0-0.577-0.002-0.866-0.005
			c-13.223-0.155-24.188-5.085-32.589-14.654c-9.458-10.779-15.595-23.771-17.746-37.571c-1.072-6.864-5.576-16.609-7.74-21.292
			l-0.479-1.037c-1.967-4.287-2.271-7.956-0.907-10.904c1.275-2.757,3.952-4.726,7.954-5.849c6.93-1.946,14.015-3.761,20.867-5.518
			c6.956-1.781,14.147-3.624,21.173-5.603c1.479-0.416,2.955-0.843,4.432-1.271c9.271-2.678,18.854-5.447,28.752-5.447
			c1.606,0,3.208,0.072,4.761,0.218c12.667,1.181,21.029,6.126,26.315,15.563c7.06,12.613,8.741,26.959,5.141,43.859
			C958.439,193.594,935.804,212.566,905.862,212.566z M928.713,104.667c-9.72,0-19.219,2.745-28.405,5.398
			c-1.479,0.428-2.958,0.854-4.438,1.271c-7.038,1.982-14.238,3.827-21.201,5.609c-6.846,1.754-13.924,3.567-20.84,5.51
			c-3.634,1.021-6.041,2.76-7.157,5.171c-1.204,2.602-0.897,5.918,0.909,9.856l0.477,1.034c2.188,4.734,6.741,14.587,7.84,21.624
			c2.115,13.566,8.15,26.34,17.451,36.94c8.157,9.291,18.813,14.078,31.664,14.229c0.284,0.003,0.568,0.005,0.852,0.005
			c29.319,0,51.484-18.591,57.846-48.518c3.535-16.59,1.896-30.651-5.008-42.988c-5.139-9.171-12.953-13.775-25.341-14.931
			C931.844,104.738,930.28,104.667,928.713,104.667z"/>
	</g>
	<g>
		<path fill="#F2F2F2" d="M283.691,534.649L283.691,534.649c-7.965,0-16.207-2.02-25.937-6.354
			c-22.992-10.257-34.287-43.291-33.601-63.196c0.353-10.201,7.756-19.274,16.855-20.656c1.763-0.268,3.619-0.403,5.518-0.403
			c4.345,0,8.735,0.697,12.698,2.019c14.274,4.752,26.736,13.351,38.1,26.287c6.703,7.632,13.206,16.216,15.393,27.253
			c0.462,2.33,1.104,6.727,1.104,8.918c0,13.155-6.412,21.479-19.058,24.737C291.161,534.178,287.436,534.649,283.691,534.649z
			 M246.526,445.286c-1.836,0-3.629,0.132-5.33,0.391c-8.523,1.294-15.46,9.843-15.793,19.463
			c-0.673,19.553,10.372,51.979,32.861,62.012c9.565,4.263,17.645,6.247,25.427,6.247c3.64,0,7.26-0.457,10.761-1.359
			c12.023-3.099,18.12-11.014,18.12-23.525c-0.001-2.083-0.64-6.452-1.081-8.675c-2.129-10.748-8.518-19.171-15.105-26.672
			c-11.213-12.766-23.498-21.245-37.556-25.927C254.992,445.962,250.738,445.286,246.526,445.286z"/>
	</g>
	<g>
		<path fill="#F2F2F2" d="M1466.224,534.647C1466.224,534.647,1466.225,534.647,1466.224,534.647c-7.968,0-16.21-2.021-25.938-6.36
			c-22.991-10.25-34.287-43.283-33.603-63.188c0.354-10.204,7.755-19.278,16.854-20.659c1.763-0.268,3.62-0.404,5.52-0.404
			c4.347,0,8.735,0.697,12.695,2.017c14.274,4.753,26.737,13.354,38.101,26.293c4.334,4.936,14.618,18.334,16.493,36.104
			c1.299,12.305-5.646,21.345-19.054,24.804C1473.689,534.177,1469.967,534.647,1466.224,534.647z M1429.055,445.282
			c-1.837,0-3.631,0.132-5.332,0.392c-8.521,1.293-15.458,9.844-15.79,19.466c-0.674,19.553,10.371,51.979,32.861,62.005
			c9.563,4.266,17.644,6.252,25.43,6.252c3.639,0,7.257-0.456,10.755-1.357c12.932-3.336,19.367-11.667,18.123-23.461
			c-1.838-17.415-11.935-30.564-16.189-35.412c-11.213-12.768-23.497-21.25-37.556-25.932
			C1437.521,445.957,1433.268,445.282,1429.055,445.282z"/>
	</g>
	<g>
		<path fill="#F2F2F2" d="M476.091,73.322c-3.797,0-7.67-0.343-11.616-1.029c-20.151-3.516-39.376-12.727-60.497-28.988
			c-10.97-8.451-22.506-16.551-33.663-24.383c-5.06-3.553-10.293-7.228-15.406-10.887c-3.139-2.248-6.266-4.518-9.393-6.787
			l-4.271-3.099c-0.279-0.203-0.342-0.593-0.14-0.873c0.202-0.278,0.592-0.341,0.873-0.14l4.272,3.099
			c3.125,2.27,6.25,4.537,9.386,6.782c5.108,3.656,10.339,7.329,15.397,10.88c11.168,7.841,22.716,15.949,33.708,24.417
			c20.955,16.133,40.004,25.269,59.949,28.747c15.48,2.698,29.845-0.011,42.697-8.048c21.77-13.615,35.983-35.046,43.454-65.519
			c0.082-0.335,0.419-0.54,0.756-0.458c0.335,0.082,0.541,0.42,0.458,0.756c-7.552,30.804-21.945,52.484-44.005,66.279
			C498.207,70.227,487.496,73.322,476.091,73.322z"/>
	</g>
	<g>
		<path fill="#F2F2F2" d="M1095.243,770.973c-0.092,0-0.187-0.021-0.273-0.063c-0.586-0.286-58.776-29.04-70.335-61.918
			c-5.788-16.468-0.526-30.86,4.114-43.561c4.608-12.605,8.588-23.493-0.55-32.313c-2.398-2.313-5.427-3.336-8.991-3.033
			c-20.742,1.752-53.863,46.445-54.196,46.896c-13.313,17.156-28.761,27.631-45.922,31.146c-17.763,3.639-33.001-1.08-42.658-5.682
			c-15.493-7.378-26.468-22.832-38.087-39.191c-6.757-9.518-13.745-19.356-21.867-27.854c-11.481-12.008-26.839-21.59-48.327-30.156
			c-11.165-4.439-19.787-5.256-27.955-2.645c-8.819,2.811-17.66,3.248-25.9,3.304c-15.065,0.139-26.272-5.041-34.364-15.718
			c-2.327-3.072-4.668-6.137-7.009-9.2c-7.675-10.05-15.611-20.44-22.981-30.979c-8.729-12.483-12.247-27.568-10.457-44.836
			c0.89-8.645,3.838-15.792,8.764-21.246c1.463-1.62,2.99-3.235,4.466-4.799c3.508-3.712,7.136-7.55,10.141-11.707
			c5.605-7.765,10.967-15.918,16.149-23.803c2.109-3.208,4.218-6.416,6.349-9.606c6.958-10.421,17.082-22.849,33.756-26.471
			c10.67-2.313,21.702-3.279,30.122-3.862c6.382-0.444,12.921,0.271,19.245,0.963l0.521,0.057c6.371,0.699,13.759,1.592,20.825,3.34
			c10.704,2.654,22.16,5.876,35.021,9.85c14.938,4.619,29.411,9.522,42.292,18.672c10.681,7.586,19.405,16.969,27.429,25.928
			c3.6,4.014,10.614,5.223,15.008,2.588c8.836-5.289,13.462-13.967,13.75-25.793c0.132-5.366-0.487-10.858-1.086-16.171
			c-0.334-2.959-0.68-6.018-0.894-9.036c-1.525-21.481,3.897-38.514,16.582-52.066c14.436-15.427,33.43-23.233,61.586-25.313
			c8.534-0.627,17.279-0.005,25.736,0.595c1.829,0.131,3.657,0.261,5.48,0.377c13.782,0.891,24.123,2.911,33.53,6.553
			c2.824,1.094,5.735,2.128,8.55,3.128c4.951,1.758,10.071,3.577,14.932,5.792c11.003,5.006,23.473,11.67,32.527,23.142
			c2.8,3.543,5.683,7.774,4.434,13.165c-0.325,1.396-0.638,2.799-0.951,4.203c-1.243,5.577-2.528,11.345-4.619,16.717
			c-6.252,16.021-12.717,32.587-9.897,51.396c1.214,8.108,3.231,17.47,8.995,25.408c6.522,8.997,13.696,17.271,21.723,26.384
			c14.512,16.487,25.292,33.796,32.956,52.914c2.889,7.21,6.442,14.304,9.882,21.165c1.051,2.095,2.1,4.188,3.133,6.29
			c4.836,9.817,11.833,15.46,21.391,17.247c13.056,2.45,40.229,7.55,59.41,6.482c7.909-0.441,16.909-1.461,23.616-7.998
			c5.174-5.04,10.128-10.203,14.726-15.346c3.544-3.967,7.068-8.077,10.479-12.052c5.631-6.564,11.453-13.353,17.534-19.702
			c6.566-6.854,9.709-13.501,9.34-19.76c-0.327-5.562-3.479-10.84-9.365-15.688c-1.604-1.32-3.131-2.771-4.606-4.175
			c-0.661-0.629-1.323-1.258-1.993-1.877c-2.135-1.977-4.296-3.927-6.457-5.877c-4.771-4.307-9.703-8.76-14.269-13.433
			c-13.609-13.94-19.229-27.213-17.175-40.572c1.424-9.24,7.924-25.637,15.941-36.014c7.8-10.095,17.828-17.889,27.524-25.427
			c3.804-2.956,7.735-6.013,11.47-9.158c11.544-9.723,23.515-19.315,35.092-28.594c6.755-5.413,13.74-11.01,20.563-16.571
			c3-2.445,6.195-4.869,9.286-7.212c11.622-8.811,23.642-17.922,29.641-31.25c3.592-7.969-1.165-16.677-6.347-24.913
			c-11.933-18.97-27.656-33.07-46.736-41.911c-5.113-2.367-11.441-3.76-19.916-4.379c-11.815-0.859-24.1,0.11-37.548,2.969
			c-14.273,2.243-30.517,1.791-37.398,0.089c-31.209-7.69-43.813-34.256-45.202-56.553c-0.945-15.201,4.836-29.33,17.676-43.196
			c7.774-8.39,16.127-16.491,24.202-24.326c3.691-3.581,7.51-7.284,11.22-10.964c9.01-8.932,15.027-17.255,18.939-26.195
			c5.176-11.824,5.117-24.01,3.438-38.67c-1.653-14.392-5.877-27.953-9.963-41.067c-0.103-0.33,0.082-0.681,0.411-0.783
			c0.329-0.104,0.681,0.082,0.782,0.411c4.103,13.17,8.344,26.789,10.011,41.297c1.703,14.86,1.755,27.233-3.534,39.313
			c-3.977,9.089-10.078,17.536-19.203,26.582c-3.717,3.686-7.535,7.391-11.229,10.974c-8.064,7.822-16.404,15.913-24.155,24.277
			c-12.596,13.603-18.27,27.429-17.346,42.27c1.361,21.854,13.702,47.889,44.254,55.417c6.766,1.673,22.784,2.107,36.872-0.104
			c13.532-2.875,25.931-3.854,37.865-2.986c8.63,0.632,15.096,2.059,20.351,4.491c19.303,8.944,35.207,23.203,47.271,42.382
			c5.359,8.522,10.272,17.559,6.427,26.09c-6.13,13.619-18.277,22.828-30.024,31.733c-3.082,2.336-6.269,4.752-9.253,7.185
			c-6.826,5.564-13.813,11.163-20.568,16.578c-11.571,9.273-23.537,18.861-35.069,28.574c-3.751,3.161-7.693,6.227-11.506,9.188
			c-9.637,7.489-19.602,15.234-27.305,25.204c-7.896,10.22-14.295,26.353-15.693,35.438c-1.991,12.945,3.516,25.869,16.833,39.51
			c4.537,4.646,9.455,9.084,14.211,13.377c2.165,1.954,4.329,3.908,6.468,5.888c0.674,0.623,1.34,1.256,2.006,1.889
			c1.461,1.389,2.973,2.824,4.541,4.116c6.166,5.079,9.471,10.657,9.818,16.58c0.391,6.618-2.868,13.582-9.686,20.696
			c-6.058,6.325-11.868,13.101-17.487,19.65c-3.414,3.979-6.944,8.096-10.497,12.071c-4.615,5.164-9.589,10.348-14.783,15.407
			c-7.018,6.839-16.284,7.896-24.42,8.352c-19.346,1.068-46.607-4.043-59.711-6.502c-9.832-1.839-17.328-7.87-22.28-17.925
			c-1.032-2.1-2.08-4.189-3.129-6.282c-3.45-6.884-7.018-14.001-9.925-21.26c-7.61-18.983-18.318-36.174-32.733-52.553
			c-8.047-9.137-15.241-17.435-21.797-26.477c-5.921-8.157-7.983-17.699-9.22-25.957c-2.867-19.139,3.659-35.862,9.971-52.035
			c2.055-5.283,3.33-11.003,4.563-16.535c0.313-1.407,0.627-2.813,0.952-4.214c1.125-4.849-1.457-8.64-4.195-12.105
			c-8.891-11.263-21.198-17.834-32.065-22.779c-4.811-2.193-9.903-4.002-14.83-5.752c-2.822-1.003-5.743-2.04-8.583-3.14
			c-9.282-3.594-19.51-5.59-33.16-6.472c-1.826-0.118-3.656-0.248-5.487-0.378c-8.413-0.597-17.111-1.214-25.558-0.595
			c-27.819,2.055-46.561,9.74-60.766,24.92c-12.434,13.285-17.748,30.007-16.248,51.125c0.213,2.992,0.556,6.038,0.889,8.984
			c0.604,5.354,1.229,10.889,1.095,16.342c-0.301,12.282-5.13,21.311-14.357,26.834c-4.867,2.92-12.614,1.596-16.581-2.826
			c-7.976-8.907-16.646-18.23-27.222-25.742c-12.729-9.042-27.102-13.909-41.938-18.498c-12.838-3.965-24.271-7.18-34.952-9.829
			c-6.99-1.729-14.33-2.614-20.659-3.311l-0.521-0.057c-6.269-0.687-12.75-1.395-19.021-0.959
			c-8.378,0.581-19.353,1.542-29.943,3.838c-16.236,3.527-26.155,15.718-32.981,25.941c-2.129,3.189-4.235,6.396-6.344,9.602
			c-5.19,7.896-10.559,16.062-16.181,23.848c-3.052,4.225-6.708,8.093-10.245,11.834c-1.472,1.559-2.993,3.167-4.447,4.777
			c-4.744,5.253-7.587,12.163-8.449,20.536c-1.758,16.961,1.688,31.762,10.238,43.99c7.355,10.517,15.284,20.896,22.951,30.938
			c2.341,3.063,4.682,6.13,7.011,9.203c7.836,10.343,18.74,15.309,33.359,15.224c8.142-0.055,16.869-0.484,25.528-3.245
			c8.463-2.705,17.346-1.881,28.797,2.675c21.662,8.636,37.158,18.313,48.77,30.454c8.187,8.563,15.2,18.441,21.983,27.994
			c11.521,16.226,22.403,31.55,37.604,38.787c14.834,7.064,53.014,18.763,87.046-25.09c1.36-1.849,33.785-45.591,55.088-47.39
			c3.949-0.337,7.299,0.804,9.967,3.381c9.722,9.385,5.612,20.626,0.854,33.642c-4.569,12.502-9.749,26.671-4.108,42.717
			c11.388,32.396,69.121,60.925,69.703,61.209c0.312,0.151,0.438,0.526,0.287,0.836
			C1095.697,770.844,1095.475,770.973,1095.243,770.973z"/>
	</g>
	<g>
		<path fill="#F2F2F2" d="M1474.52,262.356c-8.714,0-17.423-2.575-26.063-7.725c-10.259-6.109-20.071-12.768-29.562-19.206
			c-14.285-9.693-28.142-15.022-42.358-16.291l-1.22-0.109c-10.509-0.937-21.374-1.905-32.063-2.016
			c-3.177-0.032-7.697-0.033-12.425-0.034c-6.535-0.001-13.293-0.002-17.633-0.083c-10.998-0.206-20.037-4.196-26.143-11.541
			c-7.152-8.606-9.967-21.28-7.718-34.767c1.524-9.14,5.854-17.849,13.236-26.623c5.966-7.081,12.193-14.135,18.218-20.957
			c4.593-5.202,9.343-10.581,13.939-15.932c11.108-12.929,16.549-27.191,16.17-42.396c-0.093-3.842-0.679-7.756-1.245-11.542
			c-0.293-1.958-0.598-3.983-0.83-5.983c-1.917-16.284-6.376-31.337-12.009-49.323c-0.103-0.329,0.08-0.681,0.41-0.783
			c0.328-0.104,0.681,0.08,0.783,0.41c5.65,18.049,10.127,33.158,12.057,49.552c0.23,1.979,0.532,3.995,0.824,5.943
			c0.573,3.822,1.165,7.775,1.26,11.695c0.387,15.522-5.155,30.07-16.473,43.241c-4.603,5.357-9.354,10.739-13.95,15.944
			c-6.019,6.815-12.241,13.864-18.198,20.935c-7.233,8.599-11.474,17.111-12.96,26.023c-2.188,13.129,0.524,25.435,7.446,33.763
			c5.864,7.056,14.58,10.891,25.203,11.089c4.328,0.081,11.08,0.083,17.61,0.083c4.73,0,9.257,0.001,12.437,0.034
			c10.738,0.11,21.629,1.082,32.16,2.021l1.221,0.109c14.436,1.289,28.483,6.688,42.948,16.502
			c9.477,6.428,19.273,13.075,29.5,19.166c16.242,9.679,32.729,10.037,49.005,1.065c3.98-2.193,9.313-4.947,14.959-7.862
			c9.36-4.833,19.97-10.313,26.468-14.323c0.298-0.181,0.68-0.089,0.859,0.204c0.182,0.293,0.09,0.679-0.204,0.86
			c-6.537,4.037-17.17,9.525-26.55,14.37c-5.638,2.91-10.963,5.66-14.929,7.846C1490.674,260.143,1482.595,262.356,1474.52,262.356z
			"/>
	</g>
	<g>
		<path fill="#F2F2F2" d="M883.906,288.83c-8.048,0-16.267-0.878-21.074-1.624c-8.229-1.281-16.236-5.565-23.161-12.391
			c-7.014-6.914-13.773-14.311-20.313-21.464c-3.587-3.924-7.296-7.98-11.003-11.911c-2.633-2.794-5.259-5.692-7.8-8.497
			c-6.689-7.385-13.607-15.021-21.279-21.457c-12.252-10.276-21.667-23.003-30.772-35.311c-1.777-2.402-3.556-4.806-5.357-7.199
			c-12.479-16.563-23.852-28.975-35.784-39.056c-8.789-7.419-19.445-10.158-28.71-11.858c-1.01-0.185-2.945-0.418-5.396-0.712
			c-7.513-0.902-20.088-2.413-25.826-5.023c-10.194-4.646-20.063-2.521-31.063,6.688c-13.122,10.975-23.266,24.993-33.074,38.549
			l-1.816,2.509c-3.521,4.854-7.045,9.837-10.451,14.654c-6.854,9.692-13.942,19.713-21.375,29.215
			c-15.665,20.025-35.264,32.763-58.251,37.859c-9.07,2.01-19.977,2.017-30.709,0.017c-10.037-1.872-20.041-4.763-29.714-7.559
			c-5.513-1.593-11.212-3.241-16.853-4.68c-10.586-2.703-23.118-5.263-35.803-3.741c-13.27,1.595-26.042,6.917-40.195,16.747
			c-8.625,5.991-18.048,12.088-28.507,16.097c-15.183,5.818-30.079,4.288-44.274-4.548c-11.292-7.027-20.499-12.97-28.974-18.703
			c-14.336-9.693-28.192-15.021-42.359-16.287c-10.097-0.897-21.829-1.877-33.292-2.125c-5.27-0.115-11.979-0.101-17.898-0.088
			c-4.58,0.011-8.907,0.019-12.15-0.029c-10.961-0.16-19.983-4.113-26.09-11.432c-7.196-8.622-10.028-21.333-7.77-34.872
			c1.526-9.147,5.857-17.858,13.241-26.625c5.994-7.117,12.253-14.207,18.307-21.063c4.563-5.168,9.28-10.512,13.848-15.825
			c11.106-12.925,16.548-27.188,16.173-42.395c-0.094-3.854-0.684-7.779-1.253-11.576c-0.292-1.947-0.595-3.963-0.829-5.952
			c-1.911-16.238-6.373-31.313-12.008-49.331c-0.103-0.33,0.081-0.681,0.41-0.783c0.329-0.104,0.68,0.081,0.783,0.41
			c5.654,18.082,10.133,33.212,12.056,49.558c0.231,1.97,0.532,3.976,0.823,5.913c0.576,3.833,1.17,7.797,1.267,11.73
			c0.383,15.523-5.16,30.071-16.475,43.238c-4.573,5.32-9.294,10.667-13.859,15.838c-6.049,6.852-12.303,13.936-18.288,21.041
			c-7.235,8.592-11.476,17.104-12.964,26.026c-2.198,13.18,0.535,25.523,7.497,33.865c5.867,7.029,14.563,10.828,25.149,10.982
			c3.232,0.049,7.553,0.039,12.129,0.029c5.928-0.011,12.645-0.026,17.928,0.088c11.501,0.249,23.258,1.229,33.376,2.129
			c14.383,1.286,28.432,6.683,42.948,16.497c8.461,5.724,17.655,11.658,28.934,18.676c14.041,8.739,28.16,10.191,43.167,4.442
			c9.759-3.741,18.348-9.084,28.241-15.956c14.327-9.951,27.279-15.341,40.759-16.962c12.887-1.545,25.563,1.039,36.261,3.771
			c5.658,1.444,11.368,3.095,16.89,4.69c9.646,2.788,19.619,5.67,29.596,7.531c10.571,1.969,21.3,1.966,30.21-0.009
			c22.698-5.032,42.057-17.618,57.538-37.409c7.415-9.479,14.494-19.487,21.339-29.167c3.409-4.821,6.935-9.806,10.459-14.666
			l1.815-2.508c9.854-13.618,20.043-27.7,33.285-38.774c7.18-6.011,18.349-13.264,32.383-6.867
			c5.561,2.531,18.016,4.027,25.457,4.921c2.472,0.297,4.425,0.531,5.472,0.725c9.427,1.729,20.279,4.523,29.292,12.132
			c12.007,10.143,23.438,22.618,35.976,39.259c1.806,2.396,3.587,4.803,5.365,7.207c9.063,12.249,18.433,24.915,30.57,35.096
			c7.737,6.49,14.686,14.159,21.404,21.575c2.535,2.799,5.157,5.694,7.781,8.479c3.713,3.937,7.426,7.998,11.016,11.925
			c6.527,7.142,13.277,14.525,20.268,21.417c6.737,6.64,14.51,10.805,22.477,12.045c7.224,1.12,22.205,2.544,32.534,0.781
			c16.192-2.769,31.374-9.745,44.091-16.204c13.012-6.619,30.043-15.475,46.376-25.285c16.557-9.95,28.111-24.623,33.418-42.433
			c3.352-11.258,5.546-23.09,7.668-34.531c0.766-4.13,1.558-8.401,2.393-12.584c3.008-15.072,7.365-30.727,18.793-43.11
			c11.585-12.554,23.073-24.55,32.783-34.63c12.348-12.828,26.129-28.589,34.724-48.224c3.162-7.229,5.854-14.817,8.456-22.157
			c1.185-3.339,2.408-6.792,3.662-10.17c0.12-0.323,0.478-0.49,0.804-0.368c0.323,0.12,0.488,0.48,0.368,0.803
			c-1.251,3.369-2.474,6.818-3.656,10.153c-2.608,7.36-5.309,14.971-8.488,22.24c-8.675,19.815-22.544,35.683-34.969,48.59
			c-9.704,10.075-21.188,22.064-32.766,34.61c-11.218,12.156-15.514,27.613-18.484,42.507c-0.834,4.175-1.625,8.44-2.391,12.566
			c-2.127,11.476-4.328,23.339-7.699,34.66c-5.396,18.115-17.143,33.035-33.971,43.147c-16.367,9.832-33.424,18.699-46.454,25.328
			c-12.799,6.502-28.089,13.524-44.445,16.321C892.192,288.595,888.071,288.83,883.906,288.83z"/>
	</g>
	<g>
		<path fill="#F2F2F2" d="M900.974,238.943c-8.181,0-17.174-0.515-21.739-1.183c-11.743-1.722-22.523-8.651-32.04-20.595
			c-8.229-10.331-16.923-21.677-27.358-35.704c-1.953-2.626-3.925-5.241-5.896-7.856c-11.704-15.522-23.808-31.575-31.913-49.922
			c-8.733-19.752-12.858-37.985-12.61-55.739c0.065-4.985,2.238-9.506,5.961-12.399c3.245-2.521,7.326-3.432,11.199-2.5
			c9.508,2.284,23.076,5.666,30.613,7.71c6.142,1.666,12.348,3.491,18.351,5.255c8.474,2.492,17.235,5.068,25.938,7.232
			c9.531,2.369,17.878,3.583,25.514,3.709c4.605,0.076,9.361-0.758,13.945-1.563c3.102-0.545,6.308-1.109,9.482-1.397
			c14.117-1.279,26.356-4.229,37.417-9.019c10.889-4.71,17.802-12.626,20.548-23.529c2.411-9.548,3.461-24.088,3.212-44.449
			c-0.004-0.346,0.272-0.629,0.617-0.634c0.003,0,0.006,0,0.008,0c0.342,0,0.621,0.275,0.625,0.617
			c0.251,20.472-0.813,35.116-3.249,44.771c-2.807,11.14-10.159,19.566-21.265,24.371c-11.185,4.842-23.549,7.823-37.8,9.115
			c-3.124,0.283-6.305,0.843-9.379,1.384c-4.645,0.815-9.434,1.658-14.186,1.583c-7.729-0.128-16.168-1.354-25.794-3.746
			c-8.727-2.171-17.502-4.751-25.987-7.246c-5.996-1.764-12.195-3.585-18.325-5.249c-7.525-2.041-21.078-5.419-30.578-7.701
			c-3.553-0.856-7.153-0.049-10.141,2.271c-3.421,2.659-5.417,6.825-5.478,11.431c-0.245,17.569,3.845,35.632,12.503,55.216
			c8.049,18.215,20.106,34.208,31.769,49.675c1.974,2.617,3.946,5.234,5.901,7.862c10.427,14.017,19.112,25.352,27.334,35.671
			c9.312,11.688,19.823,18.463,31.243,20.138c7.106,1.04,26.055,1.719,34.243,0.527c13.196-1.922,22.18-7.088,32.578-13.07
			c15.413-8.868,25.598-19.249,32.049-32.667c8.79-18.297,11.449-37.673,12.893-54.213c0.612-7.046,0.771-14.26,0.922-21.238
			c0.071-3.289,0.146-6.689,0.267-10.033c0.399-11.029,2.529-24.861,15.556-34.009c3.571-2.505,7.177-5.093,10.663-7.596
			c5.615-4.03,11.421-8.197,17.244-12.136c20.294-13.729,30.028-31.537,29.761-54.443c-0.004-0.345,0.271-0.628,0.618-0.632
			c0.002,0,0.005,0,0.007,0c0.342,0,0.621,0.275,0.625,0.618c0.272,23.358-9.642,41.511-30.311,55.493
			c-5.81,3.929-11.607,8.091-17.216,12.115c-3.489,2.505-7.098,5.095-10.674,7.604c-12.575,8.831-14.635,22.291-15.024,33.03
			c-0.12,3.335-0.193,6.731-0.267,10.017c-0.152,6.997-0.31,14.232-0.925,21.319c-1.453,16.651-4.135,36.167-13.013,54.646
			c-6.476,13.471-17.122,24.333-32.552,33.209c-10.511,6.045-19.588,11.268-33.021,13.225
			C910.644,238.752,905.959,238.943,900.974,238.943z"/>
	</g>
	<g>
		<path fill="#F2F2F2" d="M752.065,48.885c-15.152,0-29.746-3.544-46.719-8.837c-12.277-3.833-24.553-7.15-34.941-9.89
			c-3.294-0.865-6.705-1.553-10.003-2.217c-4.088-0.822-8.315-1.674-12.381-2.875c-12.925-3.817-22.18-12.708-28.295-27.181
			c-0.134-0.318,0.016-0.685,0.333-0.819c0.318-0.134,0.686,0.016,0.819,0.333c5.96,14.105,14.955,22.765,27.498,26.47
			c4.012,1.186,8.211,2.03,12.271,2.849c3.316,0.667,6.745,1.358,10.075,2.232c10.403,2.742,22.695,6.064,34.996,9.904
			c18.054,5.63,33.392,9.265,49.539,8.728c6.423-0.216,9.546-2.479,10.778-7.809c1.684-7.266,3.119-15.329,4.385-24.648
			c0.548-3.994,0.729-8.115,0.903-12.102c0.079-1.808,0.158-3.615,0.27-5.42c0.021-0.346,0.322-0.595,0.663-0.585
			c0.344,0.021,0.606,0.318,0.585,0.663c-0.11,1.797-0.189,3.597-0.27,5.398c-0.177,4.014-0.357,8.164-0.913,12.215
			c-1.271,9.357-2.713,17.458-4.406,24.762c-1.368,5.915-4.943,8.54-11.954,8.775C754.219,48.867,753.139,48.885,752.065,48.885z"/>
	</g>
	<g>
		<path fill="#F2F2F2" d="M1537.802,458.735c-0.221,0-0.436-0.117-0.549-0.324c-1.096-1.997-3.363-5.814-5.989-10.236
			c-4.354-7.335-9.291-15.647-10.92-19.072c-4.911-10.301-9.826-20.813-14.578-30.979c-4.006-8.567-8.147-17.428-12.27-26.12
			c-2.813-5.933-5.741-11.932-8.573-17.734c-3.661-7.5-7.447-15.254-11.022-22.953c-4.486-9.652-7.383-19.871,1.735-29.207
			c2.549-2.609,5.517-5.247,9.335-8.3c7.458-5.97,17.703-12.801,27.611-19.406c9.641-6.427,19.609-13.073,26.883-18.85
			c0.271-0.214,0.664-0.17,0.878,0.101c0.215,0.271,0.17,0.664-0.101,0.878c-7.313,5.81-17.305,12.471-26.967,18.911
			c-9.887,6.592-20.107,13.406-27.523,19.343c-3.779,3.021-6.71,5.624-9.222,8.196c-8.588,8.793-5.795,18.562-1.498,27.807
			c3.571,7.688,7.354,15.438,11.014,22.933c2.834,5.806,5.765,11.809,8.579,17.747c4.123,8.694,8.266,17.557,12.271,26.127
			c4.752,10.163,9.666,20.673,14.575,30.97c1.604,3.373,6.524,11.66,10.866,18.971c2.631,4.433,4.903,8.26,6.01,10.274
			c0.166,0.303,0.057,0.683-0.247,0.849C1538.006,458.71,1537.903,458.735,1537.802,458.735z"/>
	</g>
	<g>
		<path fill="#F2F2F2" d="M-2.449,163.061c-0.193,0-0.383-0.089-0.505-0.256c-0.204-0.278-0.143-0.669,0.136-0.873
			c2.034-1.487,4.862-2.979,7.598-4.425c2.717-1.436,5.526-2.918,7.495-4.365c5.692-4.179,11.449-8.474,17.016-12.627
			c12.967-9.675,26.376-19.679,39.955-28.955c2.143-1.465,4.3-2.907,6.454-4.348c10.432-6.979,21.219-14.196,29.931-23.748
			c9.338-10.236,14.583-21.574,15.589-33.698c1.399-16.911-2.125-33.872-10.774-51.852c-0.15-0.312-0.019-0.686,0.292-0.834
			c0.311-0.151,0.685-0.02,0.834,0.292c8.749,18.186,12.312,35.357,10.894,52.498c-1.029,12.404-6.382,23.991-15.911,34.437
			c-8.814,9.664-19.666,16.923-30.16,23.943c-2.151,1.438-4.304,2.879-6.444,4.342c-13.557,9.261-26.955,19.258-39.912,28.925
			c-5.569,4.155-11.328,8.452-17.023,12.633c-2.044,1.5-4.895,3.006-7.652,4.462c-2.696,1.425-5.483,2.896-7.444,4.329
			C-2.191,163.022-2.321,163.061-2.449,163.061z"/>
	</g>
	<g>
		<path fill="#F2F2F2" d="M885.992,49.899c-4.845,0-9.82-0.313-14.956-0.938c-13.376-1.625-25.067-5.289-35.742-11.202
			c-14.427-7.984-29.511-18.986-32.003-40.044c-0.04-0.343,0.205-0.653,0.548-0.694c0.332-0.042,0.653,0.205,0.694,0.547
			c2.425,20.497,17.217,31.267,31.366,39.098c10.53,5.833,22.073,9.449,35.286,11.054c15.321,1.863,29.189,0.927,42.405-2.857
			c17.144-4.908,31.096-26.047,31.767-48.124c0.011-0.344,0.294-0.635,0.644-0.604c0.346,0.01,0.616,0.298,0.606,0.644
			c-0.687,22.588-15.037,44.238-32.673,49.288C904.993,48.626,895.758,49.899,885.992,49.899z"/>
	</g>
	<g>
		<path fill="#F2F2F2" d="M472.411,52.352c-5.831,0-11.968-1.033-18.401-3.104c-16.392-5.278-29.536-15.705-40.232-25.208
			c-7.098-6.311-14.733-12.27-22.117-18.031c-3.29-2.568-6.692-5.223-10.004-7.876c-0.27-0.216-0.313-0.609-0.097-0.878
			c0.216-0.27,0.609-0.313,0.878-0.097c3.306,2.647,6.705,5.301,9.992,7.865c7.399,5.774,15.05,11.746,22.178,18.082
			c10.599,9.417,23.613,19.746,39.785,24.954c19.718,6.348,36.595,2.728,50.166-10.76c10.061-10,17.13-22.657,22.248-39.834
			c0.1-0.331,0.45-0.516,0.778-0.42c0.331,0.099,0.519,0.447,0.42,0.778c-5.181,17.384-12.351,30.21-22.564,40.362
			C495.947,47.618,484.884,52.352,472.411,52.352z"/>
	</g>
	<g>
		<path fill="#F2F2F2" d="M-2.45,110.327c-0.249,0-0.485-0.15-0.582-0.396c-0.126-0.321,0.031-0.684,0.353-0.811
			c5.054-1.99,11.19-4.049,17.125-6.039c3.986-1.337,7.751-2.601,11.117-3.813c17.934-6.474,35.354-13.099,51.313-22.93
			c18.447-11.364,25.998-33.116,19.235-55.417c-2.655-8.734-7.709-16.408-15.024-22.811c-0.26-0.227-0.286-0.622-0.059-0.882
			s0.621-0.287,0.882-0.059c7.493,6.56,12.673,14.428,15.397,23.39c6.932,22.86-0.83,45.173-19.776,56.844
			c-16.06,9.895-33.545,16.544-51.543,23.041c-3.379,1.22-7.15,2.483-11.144,3.823c-5.92,1.985-12.042,4.039-17.065,6.018
			C-2.296,110.314-2.374,110.327-2.45,110.327z"/>
	</g>
	<g>
		<path fill="#F2F2F2" d="M1262.139,356.433c-1.694,0-7.386-0.155-9.427-2.148c-1.935-1.882-2.72-4.361-2.332-7.371
			c1.078-8.365,11.456-19.453,20.474-24.561c11.029-6.245,24.052-8.555,38.776-6.875c5.767,0.657,6.876,3.319,6.792,5.437
			c-0.449,11.345-35.927,34.904-53.465,35.506C1262.71,356.429,1262.436,356.433,1262.139,356.433z M1300.464,316.191
			c-10.743,0-20.498,2.439-28.996,7.251c-8.754,4.958-18.817,15.638-19.848,23.633c-0.335,2.598,0.326,4.723,1.964,6.315
			c1.27,1.239,5.211,1.793,8.555,1.793c0.282,0,0.543-0.004,0.776-0.012c18.054-0.619,51.872-24.577,52.258-34.307
			c0.093-2.31-1.821-3.704-5.685-4.145C1306.407,316.368,1303.371,316.191,1300.464,316.191z"/>
	</g>
	<g>
		<path fill="#F2F2F2" d="M77.03,356.697C77.029,356.697,77.029,356.697,77.03,356.697c-2.981,0-5.286-0.814-6.853-2.422
			c-2.719-2.787-3.849-5.953-3.358-9.408c1.482-10.427,16.839-19.868,21.51-22.513c9.878-5.594,23.275-9.501,32.58-9.501
			c3.513,0,6.401,0.535,8.584,1.589c2.078,1.004,3.331,2.422,3.723,4.216c0.815,3.724-2.225,7.951-4.582,10.808
			c-12.361,14.981-29.01,24.302-48.144,26.95C79.429,356.561,78.275,356.697,77.03,356.697z M120.909,314.102
			c-9.111,0-22.255,3.84-31.964,9.339c-9.368,5.304-19.774,13.765-20.888,21.601c-0.434,3.052,0.581,5.864,3.015,8.359
			c1.341,1.376,3.29,2.045,5.957,2.045l0,0c1.17,0,2.272-0.129,3.29-0.27c19.087-2.644,35.019-11.562,47.352-26.508
			c1.262-1.53,5.104-6.186,4.325-9.744c-0.311-1.42-1.307-2.52-3.045-3.358C126.938,314.595,124.232,314.102,120.909,314.102z"/>
	</g>
	<g>
		<path fill="#F2F2F2" d="M60.697,575.227c-13.417,0-27.489-6.049-35.915-16.382c-2.674-3.279-5.506-6.456-8.245-9.527
			c-7.716-8.655-15.004-16.831-19.562-27.604c-0.134-0.317,0.014-0.686,0.332-0.818c0.319-0.138,0.685,0.015,0.819,0.332
			c4.477,10.583,11.698,18.684,19.344,27.26c2.748,3.082,5.589,6.27,8.28,9.57c11.134,13.653,32.403,19.617,48.42,13.576
			c11.092-4.188,18.29-14.489,18.785-26.891c0.525-12.966-3.244-24.492-8.225-38.215c-5.193-14.3-7.026-25.563-5.946-36.524
			c2.078-21.1,10.177-39.712,24.073-55.321c12.367-13.903,27.681-24.473,42.489-34.694c2.312-1.596,4.623-3.19,6.923-4.798
			c21.412-14.967,38.298-30.261,51.622-46.755c8.853-10.97,13.099-20.784,13.364-30.887c0.338-13.056-5.2-24.622-16.015-33.446
			c-7.874-6.433-18.232-9.661-30.667-9.646c-4.945,0.015-20.241,2.304-32.53,4.143c-6.276,0.939-11.696,1.75-14.945,2.146
			c-9.378,1.146-18.979,1.097-28.536-0.147c-6.751-0.871-13.517-2.415-20.06-3.907c-5.433-1.239-11.051-2.521-16.62-3.407
			c-11.362-1.813-22.313,1.527-31.668,9.657c-4.054,3.521-9.255,7.201-14.285,10.76c-5.7,4.031-11.593,8.201-16.007,12.254
			c-0.254,0.233-0.649,0.218-0.883-0.038c-0.233-0.254-0.216-0.65,0.038-0.883c4.473-4.106,10.4-8.3,16.131-12.354
			c5.005-3.541,10.18-7.202,14.187-10.682c9.643-8.381,20.944-11.821,32.685-9.949c5.609,0.893,11.248,2.179,16.701,3.423
			c6.514,1.486,13.25,3.022,19.942,3.887c9.453,1.229,18.949,1.278,28.224,0.146c3.232-0.395,8.644-1.204,14.911-2.143
			c12.33-1.845,27.675-4.142,32.712-4.156c0.063,0,0.127,0,0.19,0c12.688,0,23.207,3.34,31.271,9.928
			c11.125,9.078,16.822,20.99,16.474,34.447c-0.273,10.391-4.607,20.443-13.642,31.639c-13.399,16.587-30.369,31.959-51.878,46.995
			c-2.302,1.608-4.615,3.204-6.929,4.802c-14.749,10.18-29.999,20.705-42.266,34.496c-13.717,15.409-21.711,33.783-23.763,54.612
			c-1.061,10.767,0.751,21.86,5.877,35.978c5.029,13.853,8.834,25.498,8.299,38.691c-0.516,12.908-8.023,23.642-19.593,28.009
			C70.254,574.446,65.517,575.227,60.697,575.227z"/>
	</g>
	<g>
		<path fill="#F2F2F2" d="M492.188,516.041c-10.437,0-19.706-1.189-28.341-3.639c-5.146-1.463-10.903-3.099-19.264-8.354
			c-20.747-13.045-36.762-24.739-50.398-36.803c-16.334-14.451-28.296-31.748-35.555-51.405
			c-4.985-13.502-9.393-27.379-13.098-41.245c-3.715-13.912-6.207-26.152-7.616-37.421c-1.88-15.018,1.009-29.376,8.588-42.679
			c8.745-15.339,18.568-25.351,30.914-31.508c6.515-3.25,13.579-4.829,21.593-4.829c7.906,0,15.752,1.518,23.055,3.158l2.554,0.577
			c12.044,2.725,24.487,5.539,37.204,5.39c5.333-0.064,12.495-0.021,20.084,0.024c8.552,0.052,17.646,0.107,25.271,0.016
			c6.391-0.076,12.996-0.113,20.197-0.113c7.523,0,15.522,0.04,25.174,0.126c4.144,0.036,8.68,0.384,14.273,1.095
			c7.509,0.956,32.893,3.56,43.691,4.339c7.656,0.563,14.471-2.9,20.455-5.939c1.252-0.637,2.529-1.342,3.765-2.022
			c3.748-2.069,7.624-4.208,11.729-4.977c11.693-2.181,23.841-3.692,36.106-4.498c15.142-0.988,29.714,0.073,43.345,3.155
			c12.039,2.717,25.892,6.287,37.951,14.33c14.046,9.365,17.591,23.354,9.252,36.506c-5.152,8.127-13.496,13.608-24.8,16.29
			l-4.619,1.101c-9.574,2.282-19.475,4.645-29.302,6.529c-5.283,1.014-10.719,1.65-15.974,2.267
			c-3.012,0.353-6.126,0.718-9.173,1.148c-1.368,0.194-2.744,0.367-4.121,0.541c-4.234,0.533-8.615,1.083-12.706,2.271
			c-16.882,4.913-29.497,15.974-39.609,26.146c-14.896,14.984-27.688,33.787-40.255,59.173c-4.141,8.363-7.983,17.057-11.7,25.464
			c-3.644,8.238-7.409,16.759-11.458,24.974c-12.212,24.782-33.623,37.982-65.456,40.354
			C499.789,515.891,495.942,516.041,492.188,516.041z M399.011,259.407c-7.816,0-14.697,1.536-21.036,4.697
			c-12.114,6.042-21.77,15.896-30.386,31.008c-7.442,13.063-10.279,27.162-8.434,41.905c1.402,11.212,3.883,23.398,7.584,37.254
			c3.695,13.829,8.09,27.669,13.063,41.134c7.186,19.463,19.033,36.59,35.21,50.904c13.585,12.016,29.546,23.671,50.235,36.679
			c8.208,5.162,13.875,6.771,18.874,8.192c8.587,2.436,17.746,3.608,28.064,3.608c3.725,0,7.54-0.148,11.667-0.457
			c31.354-2.337,52.428-15.311,64.428-39.66c4.037-8.191,7.798-16.699,11.436-24.928c3.722-8.419,7.57-17.124,11.725-25.512
			c12.629-25.51,25.493-44.417,40.487-59.499c10.227-10.286,22.992-21.475,40.147-26.466c4.186-1.215,8.614-1.772,12.898-2.312
			c1.371-0.172,2.74-0.345,4.102-0.537c3.062-0.435,6.184-0.8,9.203-1.153c5.232-0.614,10.645-1.248,15.883-2.252
			c9.8-1.88,19.687-4.238,29.247-6.52l4.62-1.1c10.976-2.604,19.062-7.901,24.031-15.743c7.938-12.517,4.53-25.85-8.889-34.797
			c-11.882-7.924-25.604-11.459-37.533-14.149c-13.515-3.057-27.968-4.107-42.987-3.128c-12.217,0.802-24.314,2.309-35.958,4.479
			c-3.907,0.732-7.693,2.821-11.354,4.842c-1.244,0.688-2.53,1.396-3.802,2.042c-6.125,3.111-13.132,6.66-21.112,6.073
			c-10.814-0.782-36.238-3.389-43.759-4.346c-5.544-0.705-10.034-1.05-14.126-1.085c-9.648-0.086-17.645-0.126-25.163-0.126
			c-7.196,0-13.797,0.037-20.182,0.112c-7.629,0.096-16.734,0.038-25.294-0.015c-7.581-0.047-14.736-0.091-20.063-0.025
			c-12.86,0.146-25.381-2.679-37.495-5.419l-2.553-0.575C414.56,260.911,406.795,259.407,399.011,259.407z"/>
	</g>
	<g>
		<path fill="#F2F2F2" d="M1538.826,92.75c-0.079,0-0.16-0.016-0.238-0.047c-3.022-1.246-7.001-2.57-11.213-3.974
			c-8.385-2.792-17.889-5.956-23.826-9.771c-20.405-13.126-37.79-33.165-53.148-61.263c-2.427-4.439-4.67-9.068-6.839-13.545
			c-1.009-2.081-2.017-4.162-3.046-6.229c-0.152-0.31-0.026-0.685,0.281-0.838c0.311-0.153,0.684-0.028,0.838,0.28
			c1.031,2.073,2.041,4.157,3.052,6.242c2.162,4.462,4.398,9.077,6.812,13.49c15.255,27.909,32.503,47.8,52.728,60.81
			c5.807,3.731,15.23,6.87,23.546,9.639c4.232,1.409,8.23,2.74,11.295,4.002c0.318,0.132,0.471,0.497,0.34,0.815
			C1539.305,92.605,1539.071,92.75,1538.826,92.75z"/>
	</g>
	<g>
		<path fill="#F2F2F2" d="M467.037,27.18c-6.396,0-13.024-2.403-19.678-7.198c-6.419-4.622-12.512-9.911-18.401-15.024
			c-2.6-2.257-5.289-4.593-7.967-6.835c-0.265-0.223-0.299-0.616-0.078-0.88c0.222-0.265,0.615-0.3,0.88-0.078
			c2.688,2.25,5.379,4.588,7.984,6.849c5.868,5.096,11.938,10.365,18.312,14.955c11.87,8.553,23.153,9.299,33.534,2.219
			c7.882-5.374,13.523-13.357,16.769-23.732c0.104-0.33,0.452-0.513,0.783-0.41c0.33,0.103,0.513,0.454,0.41,0.783
			c-3.332,10.649-9.138,18.856-17.258,24.393C477.474,25.529,472.335,27.18,467.037,27.18z"/>
	</g>
	<g>
		<path fill="#F2F2F2" d="M1539.854,395.897c-0.289,0-0.55-0.202-0.61-0.496c-1.257-5.975-4.767-15.334-8.482-25.244
			c-4.263-11.368-8.671-23.123-9.772-30.221c-1.209-7.775-1.183-15.417,0.079-22.101c0.892-4.708,5.379-12.414,9.718-19.866
			c3.234-5.555,6.291-10.803,7.453-14.153c0.113-0.327,0.47-0.497,0.796-0.385c0.326,0.113,0.499,0.469,0.386,0.795
			c-1.203,3.464-4.288,8.762-7.555,14.372c-4.286,7.361-8.719,14.973-9.569,19.469c-1.235,6.544-1.26,14.041-0.073,21.676
			c1.084,6.973,5.47,18.666,9.71,29.976c3.732,9.956,7.26,19.358,8.534,25.425c0.071,0.338-0.145,0.67-0.481,0.74
			C1539.938,395.893,1539.896,395.897,1539.854,395.897z"/>
	</g>
	<g>
		<path fill="#F2F2F2" d="M1538.827,40.015c-3.64,0-10.64-1.753-19.368-6.675c-14.436-8.138-26.645-20.036-36.286-35.364
			c-0.184-0.292-0.096-0.678,0.196-0.862c0.294-0.186,0.679-0.095,0.862,0.196c9.529,15.15,21.589,26.906,35.841,34.941
			c8.52,4.803,15.273,6.514,18.755,6.514c0.345,0,0.625,0.28,0.625,0.625S1539.172,40.015,1538.827,40.015z"/>
	</g>
	<g>
		<path fill="#F2F2F2" d="M1017.844,15.907c-3.939,0-7.844-2.17-10.247-5.716c-2.737-4.034-3.266-7.938-3.216-12.556
			c0.004-0.343,0.283-0.618,0.625-0.618c0.002,0,0.005,0,0.007,0c0.346,0.004,0.622,0.287,0.618,0.632
			c-0.048,4.384,0.444,8.074,3.001,11.84c2.172,3.206,5.681,5.168,9.211,5.168c0.089,0,0.178-0.002,0.267-0.005
			c3.384-0.095,6.324-1.945,8.28-5.212c2.445-4.088,3.439-7.821,3.13-11.749c-0.026-0.344,0.229-0.645,0.574-0.672
			c0.345-0.03,0.646,0.229,0.672,0.574c0.331,4.198-0.719,8.167-3.304,12.489c-2.184,3.646-5.492,5.713-9.318,5.819
			C1018.044,15.906,1017.944,15.907,1017.844,15.907z"/>
	</g>
	<g>
		<path fill="#F2F2F2" d="M97.35,757.282L97.35,757.282c-1.258,0-2.333-0.465-3.193-1.382c-1.539-1.641-2.121-3.932-1.685-6.625
			c0.87-5.374,5.328-10.823,8.958-12.791c2.136-1.154,4.234-1.739,6.238-1.739c4.425,0,7.205,2.854,8.195,4.08
			c2.053,2.535,3.014,5.696,2.57,8.456c-0.375,2.326-1.694,4.275-3.817,5.641c-1.328,0.854-3.791,0.974-5.964,1.08
			c-1.089,0.053-2.118,0.104-2.589,0.245c-1.053,0.319-2.172,0.832-3.255,1.327C100.975,756.414,99.079,757.282,97.35,757.282z
			 M107.668,735.995c-1.794,0-3.692,0.534-5.643,1.589c-3.385,1.834-7.536,7.051-8.32,11.893c-0.377,2.329,0.081,4.203,1.362,5.569
			c0.632,0.674,1.357,0.986,2.282,0.986c1.457,0,3.147-0.773,4.938-1.594c1.121-0.514,2.279-1.044,3.413-1.388
			c0.619-0.188,1.671-0.239,2.89-0.299c1.917-0.095,4.302-0.211,5.35-0.884c1.816-1.166,2.942-2.82,3.259-4.786
			c0.389-2.414-0.474-5.208-2.308-7.472C114.013,738.525,111.553,735.995,107.668,735.995z"/>
	</g>
	<g>
		<path fill="#F2F2F2" d="M78.384,619.044c-13.381,0-31.084-2.19-53.836-6.652c-12.521-2.454-22.802-10.81-27.502-22.351
			c-0.13-0.319,0.023-0.685,0.343-0.814c0.32-0.13,0.684,0.021,0.814,0.344c4.541,11.149,14.479,19.223,26.585,21.595
			c26.154,5.128,45.582,7.243,59.406,6.477c7.902-0.437,16.895-1.447,23.614-7.995c5.193-5.063,10.147-10.225,14.724-15.345
			c3.548-3.972,7.077-8.086,10.49-12.065c5.628-6.561,11.447-13.346,17.523-19.687c6.568-6.86,9.71-13.513,9.339-19.771
			c-0.33-5.56-3.481-10.836-9.368-15.683c-1.61-1.326-3.144-2.783-4.626-4.192c-0.654-0.622-1.309-1.244-1.971-1.855
			c-2.126-1.968-4.278-3.909-6.43-5.852c-4.78-4.313-9.724-8.774-14.297-13.458c-11.612-11.894-15.599-33.093-16.085-42.641
			c-0.656-12.775,6.339-22.933,14.854-33.945c7.81-10.104,17.851-17.908,27.56-25.454c3.792-2.946,7.714-5.994,11.438-9.131
			c11.569-9.747,23.572-19.365,35.179-28.666c6.726-5.389,13.68-10.962,20.473-16.498c2.999-2.444,6.193-4.866,9.282-7.207
			c11.624-8.811,23.642-17.922,29.646-31.254c3.594-7.975-1.165-16.683-6.346-24.919c-11.931-18.97-27.654-33.069-46.735-41.91
			c-5.136-2.375-11.465-3.765-19.918-4.376c-11.807-0.858-24.09,0.111-37.548,2.965c-5.686,1.21-28.012,1.276-37.326,0.108
			c-31.059-3.901-43.8-32.914-45.274-56.573c-0.946-15.19,4.836-29.319,17.676-43.195c7.819-8.438,16.22-16.586,24.344-24.465
			c3.644-3.534,7.412-7.189,11.077-10.82c9.005-8.925,15.023-17.249,18.939-26.195c5.178-11.829,5.119-24.017,3.438-38.677
			c-1.643-14.333-5.872-27.922-9.962-41.064c-0.103-0.33,0.082-0.68,0.411-0.781c0.329-0.104,0.68,0.081,0.782,0.41
			c4.107,13.197,8.354,26.844,10.011,41.293c1.705,14.862,1.756,27.236-3.534,39.321c-3.981,9.095-10.083,17.542-19.205,26.582
			c-3.669,3.636-7.44,7.293-11.086,10.83c-8.113,7.868-16.501,16.003-24.298,24.417c-12.595,13.61-18.269,27.437-17.345,42.268
			c1.444,23.183,13.881,51.604,44.182,55.41c9.23,1.156,31.307,1.102,36.91-0.092c13.576-2.878,25.971-3.854,37.899-2.988
			c8.608,0.622,15.076,2.049,20.353,4.488c19.304,8.943,35.207,23.201,47.268,42.378c5.362,8.523,10.275,17.559,6.427,26.098
			c-6.135,13.622-18.283,22.831-30.031,31.736c-3.08,2.335-6.265,4.75-9.247,7.18c-6.797,5.539-13.753,11.114-20.481,16.505
			c-11.601,9.297-23.598,18.91-35.155,28.646c-3.743,3.152-7.674,6.207-11.476,9.162c-9.648,7.498-19.625,15.251-27.338,25.229
			c-8.36,10.814-15.229,20.771-14.596,33.117c0.478,9.385,4.38,30.205,15.731,41.832c4.546,4.654,9.474,9.103,14.24,13.403
			c2.156,1.945,4.312,3.891,6.441,5.859c0.667,0.616,1.325,1.242,1.984,1.868c1.467,1.396,2.983,2.836,4.56,4.134
			c6.166,5.076,9.47,10.652,9.82,16.574c0.393,6.619-2.866,13.587-9.684,20.709c-6.053,6.315-11.861,13.087-17.478,19.637
			c-3.417,3.982-6.951,8.104-10.507,12.082c-4.596,5.144-9.57,10.326-14.784,15.407c-7.029,6.851-16.289,7.901-24.417,8.35
			C82.405,618.991,80.446,619.044,78.384,619.044z"/>
	</g>
	<g>
		<path fill="#F2F2F2" d="M-2.376,30.741c-0.079,0-0.159-0.016-0.236-0.047c-0.32-0.13-0.473-0.494-0.343-0.813
			C1.4,19.191,12.934,3.02,23.16-4.015c0.283-0.195,0.672-0.124,0.869,0.161c0.195,0.284,0.124,0.673-0.161,0.869
			C13.826,3.923,2.49,19.83-1.797,30.352C-1.896,30.594-2.129,30.741-2.376,30.741z"/>
	</g>
	<g>
		<path fill="#F2F2F2" d="M298.441,770.718c-0.21,0-0.416-0.106-0.534-0.299c-0.19-0.313-19.008-31.439-19.733-60.573
			c-0.521-21.045,11.981-34.275,23.012-45.949c4.411-4.669,8.578-9.078,11.434-13.551c8.77-13.736,3.65-22.199-0.464-29
			c-0.433-0.716-0.851-1.405-1.233-2.073c-4.017-7.013-3.199-13.565,2.364-18.95c1.683-1.628,3.371-3.251,5.06-4.874
			c6.851-6.588,13.936-13.399,20.555-20.421l1.409-1.493c8.803-9.327,17.906-18.973,25.766-29.279
			c8.603-11.281,8.802-24.266,0.575-37.547c-5.578-8.996-11.724-17.861-17.668-26.435c-2.276-3.282-4.552-6.563-6.802-9.86
			c-4.444-6.505-8.883-13.013-13.322-19.521c-15.301-22.434-31.123-45.628-46.886-68.293c-3.779-5.436-8.46-10.501-13.54-14.651
			c-9.302-7.606-20.137-8.349-33.125-2.269c-14.554,6.814-27.322,16.79-39.669,26.435c-2.563,2.002-5.126,4.004-7.705,5.98
			c-11.162,8.551-22.791,18.104-32.216,30.018c-6.214,7.855-9.743,14.776-11.104,21.78c-1.757,9.023,1.306,17.367,8.856,24.124
			c2.264,2.024,4.611,4.055,6.881,6.017c6.823,5.896,13.879,11.994,19.753,18.934c9.032,10.666,17.522,22.679,25.236,35.703
			c9.201,15.539,22.371,26.947,41.447,35.903c1.672,0.785,3.345,1.563,5.017,2.338c12.456,5.785,25.336,11.767,36.629,20.822
			c4.801,3.849,14.792,11.854,9.829,18.317c-7.044,9.17-17.358,14.584-29.827,15.656c-16.095,1.387-30.211-5.033-41.902-11.498
			l-1.61-0.893c-9.226-5.109-18.765-10.395-29.345-12.859c-14.718-3.434-27.744-0.604-37.671,8.186
			c-4.991,4.416-9.505,9.093-13.871,13.614c-6.493,6.727-12.1,12.534-17.418,15.524c-10.158,5.711-22.677,11.799-42.92,11.467
			c-0.303-0.006-0.609-0.008-0.912-0.008c-48.3,0-85.703,58.271-86.077,58.862c-0.185,0.292-0.572,0.378-0.862,0.194
			c-0.292-0.186-0.379-0.57-0.194-0.862c0.381-0.604,38.638-60.208,88.064-59.438c19.915,0.324,32.272-5.675,42.289-11.306
			c5.159-2.899,10.707-8.647,17.131-15.304c4.382-4.539,8.914-9.233,13.942-13.683c10.242-9.069,23.653-11.997,38.783-8.466
			c10.75,2.504,20.367,7.831,29.667,12.983l1.609,0.891c11.526,6.373,25.434,12.705,41.19,11.347
			c12.11-1.041,22.119-6.287,28.943-15.173c3.716-4.839-2.777-11.098-9.619-16.581c-11.175-8.961-23.985-14.909-36.374-20.662
			c-1.673-0.776-3.348-1.556-5.021-2.342c-19.313-9.065-32.656-20.633-41.991-36.397c-7.678-12.964-16.128-24.919-25.115-35.531
			c-5.812-6.865-12.83-12.931-19.617-18.796c-2.274-1.965-4.626-3.997-6.898-6.03c-7.896-7.066-11.095-15.813-9.25-25.294
			c1.4-7.208,5.007-14.3,11.35-22.316c9.511-12.021,21.21-21.636,32.437-30.234c2.576-1.975,5.136-3.974,7.696-5.974
			c12.402-9.688,25.227-19.706,39.909-26.582c13.467-6.308,24.734-5.512,34.446,2.433c5.168,4.222,9.932,9.376,13.775,14.905
			c15.767,22.67,31.59,45.869,46.893,68.303c4.439,6.508,8.878,13.016,13.322,19.52c2.249,3.294,4.523,6.573,6.797,9.854
			c5.953,8.585,12.109,17.463,17.704,26.488c8.402,13.563,8.174,27.399-0.643,38.962c-7.9,10.359-17.026,20.028-25.851,29.38
			l-1.409,1.493c-6.64,7.043-13.736,13.866-20.598,20.464c-1.687,1.623-3.375,3.245-5.057,4.872
			c-5.179,5.013-5.902,10.877-2.148,17.431c0.377,0.659,0.79,1.341,1.218,2.048c4.067,6.723,9.637,15.929,0.449,30.318
			c-2.92,4.573-7.126,9.023-11.58,13.737c-10.865,11.498-23.179,24.529-22.67,45.06c0.716,28.795,19.361,59.646,19.549,59.952
			c0.18,0.295,0.087,0.68-0.208,0.859C298.665,770.689,298.553,770.718,298.441,770.718z"/>
	</g>
	<g>
		<path fill="#F2F2F2" d="M1536.776,7.788c-2.699,0-12.237-5.322-13.251-10.015c-0.072-0.337,0.142-0.67,0.479-0.743
			c0.332-0.073,0.67,0.143,0.743,0.479c0.866,4.014,9.702,9.027,12.028,9.027c0.345,0,0.625,0.279,0.625,0.625
			C1537.4,7.507,1537.121,7.788,1536.776,7.788z"/>
	</g>
	<g>
		<path fill="#F2F2F2" d="M248.042,156.675L248.042,156.675c-1.915,0-3.914-0.133-5.942-0.396
			c-7.552-0.979-12.075-4.048-13.444-9.12c-1.437-5.324,0.27-10.801,4.804-15.422c6.487-6.613,13.262-10.172,20.135-10.575
			c3.717-0.22,9.947,1.644,13.906,3.479c4.589,2.131,7.55,6.134,8.125,10.98c0.607,5.116-1.585,10.334-5.721,13.617
			C263.691,154.173,256.335,156.675,248.042,156.675z M254.214,122.394c-0.188,0-0.37,0.005-0.545,0.016
			c-6.554,0.385-13.053,3.817-19.316,10.202c-4.211,4.292-5.806,9.343-4.489,14.221c1.224,4.538,5.396,7.299,12.397,8.207
			c10.468,1.354,19.487-0.92,26.868-6.779c3.799-3.016,5.813-7.802,5.256-12.492c-0.522-4.406-3.224-8.049-7.41-9.994
			C263.44,124.136,257.767,122.394,254.214,122.394z"/>
	</g>
	<g>
		<path fill="#F2F2F2" d="M1430.572,156.675C1430.571,156.675,1430.572,156.675,1430.572,156.675c-1.915,0-3.914-0.133-5.942-0.396
			c-7.552-0.979-12.075-4.048-13.446-9.12c-1.436-5.329,0.273-10.806,4.812-15.422c6.485-6.613,13.26-10.172,20.131-10.575
			c3.697-0.223,9.938,1.644,13.902,3.479c4.591,2.132,7.554,6.134,8.128,10.981c0.606,5.115-1.586,10.334-5.724,13.616
			C1446.221,154.173,1438.865,156.675,1430.572,156.675z M1436.744,122.394c-0.188,0-0.37,0.005-0.546,0.016
			c-6.552,0.385-13.05,3.816-19.313,10.202c-4.214,4.288-5.811,9.339-4.495,14.221c1.227,4.538,5.398,7.299,12.399,8.207
			c10.476,1.354,19.488-0.92,26.865-6.779c3.8-3.016,5.814-7.802,5.259-12.491c-0.522-4.407-3.225-8.05-7.413-9.995
			C1445.965,124.136,1440.292,122.394,1436.744,122.394z"/>
	</g>
	<g>
		<path fill="#F2F2F2" d="M910.475,629.957c0,0-0.001,0-0.002,0c-5.146,0-9.855-2.429-13.264-6.836
			c-4.157-5.379-5.555-12.759-3.737-19.74c3.029-11.688,10.594-20.369,23.805-27.317c2.178-1.146,5.004-2.79,7.995-4.531
			c9.893-5.755,22.203-12.917,28.831-12.917c1.462,0,2.62,0.354,3.444,1.051c4.199,3.554-1.523,15.78-8.336,28.465
			c-0.723,1.346-1.294,2.407-1.59,3.029c-5.352,11.242-11.422,22.93-21.543,31.428c-3.161,2.659-7.93,6.294-12.815,7.132
			C912.332,629.877,911.395,629.957,910.475,629.957z M954.104,559.865c-6.291,0-18.955,7.367-28.202,12.747
			c-3.005,1.748-5.843,3.398-8.043,4.558c-12.878,6.772-20.241,15.201-23.177,26.525c-1.721,6.611-0.405,13.588,3.518,18.662
			c3.165,4.095,7.522,6.35,12.273,6.351c0.001,0,0.002,0,0.002,0c0.851,0,1.718-0.074,2.577-0.222
			c4.587-0.786,9.172-4.289,12.223-6.855c9.93-8.337,15.928-19.89,21.219-31.008c0.31-0.648,0.887-1.725,1.617-3.085
			c3.456-6.435,12.636-23.528,8.631-26.917C956.146,560.118,955.26,559.865,954.104,559.865z"/>
	</g>
	<g>
		<path fill="#F2F2F2" d="M973.536,543.466c-0.608,0-1.172-0.085-1.688-0.257c-1.33-0.442-2.324-1.44-2.956-2.967
			c-1.701-4.104,2.271-22.238,5.775-38.239c1.525-6.965,2.843-12.978,3.425-16.676c1.797-11.421,3.118-22.911,4.396-34.023
			c0.526-4.573,0.921-9.246,1.303-13.765c0.287-3.408,0.584-6.933,0.938-10.395c1.564-15.405,8.673-24.923,21.729-29.097
			c0.162-0.05,0.325-0.034,0.466,0.034c0.06-0.027,0.123-0.048,0.19-0.057c12.248-1.553,21.615,2.248,27.84,11.303
			c14.427,20.977,18.304,44.96,11.522,71.289c-4.773,18.54-16.432,33.254-34.647,43.732c-4.887,2.812-10.003,5.396-14.951,7.898
			c-5.506,2.781-11.2,5.659-16.576,8.851C977.65,542.675,975.384,543.466,973.536,543.466z M1006.916,399.209
			c-0.025,0.012-0.052,0.021-0.079,0.03c-12.53,4.005-19.354,13.175-20.865,28.032c-0.352,3.45-0.647,6.969-0.936,10.372
			c-0.382,4.528-0.776,9.21-1.306,13.802c-1.279,11.126-2.604,22.63-4.404,34.076c-0.588,3.734-1.908,9.765-3.438,16.747
			c-3.12,14.245-7.394,33.754-5.842,37.495c0.494,1.191,1.212,1.931,2.196,2.258c1.701,0.567,4.268-0.124,7.419-1.996
			c5.413-3.213,11.126-6.1,16.651-8.893c4.934-2.493,10.033-5.071,14.892-7.866c17.914-10.305,29.373-24.759,34.062-42.961
			c6.687-25.962,2.869-49.604-11.343-70.269c-5.938-8.638-14.907-12.263-26.651-10.771
			C1007.143,399.281,1007.023,399.262,1006.916,399.209z"/>
	</g>
	<g>
		<path fill="#F2F2F2" d="M490.089,436.591c-20.918,0-36.865-10.079-47.396-29.956c-5.607-10.588-8.471-20.384-8.75-29.947
			c-0.056-1.86-0.131-3.726-0.204-5.595c-0.304-7.603-0.616-15.463,0.403-23.037c1.618-11.985,8.67-20.338,20.396-24.154
			c5.046-1.637,16.438-1.684,17.722-1.684l0.505,0.001c14.393,0.075,27.164,5.305,36.935,15.125
			c18.742,18.847,25.15,51.424,14.908,75.777c-6.029,14.343-16.389,22.402-29.957,23.313
			C493.112,436.538,491.578,436.591,490.089,436.591z M472.26,323.469c-4.581,0-13.386,0.342-17.335,1.623
			c-11.235,3.656-17.995,11.655-19.543,23.132c-1.006,7.465-0.694,15.271-0.395,22.82c0.075,1.872,0.148,3.742,0.204,5.606
			c0.274,9.368,3.09,18.984,8.604,29.398c11.035,20.826,28.165,30.674,50.77,29.139c16.507-1.105,24.82-12.873,28.889-22.549
			c10.058-23.913,3.764-55.903-14.642-74.412c-9.532-9.582-22-14.686-36.056-14.757L472.26,323.469z"/>
	</g>
	<g>
		<path fill="#F2F2F2" d="M786.23,533.554L786.23,533.554c-2.472,0-5.146-0.475-8.175-1.447
			c-7.335-2.362-13.825-7.323-20.424-15.611c-2.82-3.546-4.05-7.381-3.56-11.091c0.519-3.918,2.904-7.549,6.902-10.499
			c4.307-3.178,12.03-3.521,15.151-3.521c0.652,0,1.191,0.016,1.579,0.036c11.08,0.587,20.009,6.658,23.302,15.849
			c3.239,9.027,2.187,16.044-3.219,21.45C794.543,531.972,790.762,533.554,786.23,533.554z M776.127,492.634
			c-2.338,0-10.289,0.235-14.409,3.276c-3.718,2.744-5.933,6.083-6.405,9.657c-0.445,3.365,0.694,6.875,3.298,10.148
			c6.438,8.087,12.739,12.917,19.829,15.2c2.902,0.933,5.451,1.387,7.791,1.387c4.183,0,7.674-1.462,10.674-4.469
			c5.027-5.029,5.984-11.618,2.928-20.146c-3.121-8.707-11.624-14.463-22.191-15.021
			C777.27,492.649,776.753,492.634,776.127,492.634z"/>
	</g>
	<g>
		<path fill="#F2F2F2" d="M414.36,165.578C414.359,165.578,414.359,165.578,414.36,165.578c-3.361,0-6.639-0.271-9.402-0.537
			c-10.195-0.979-18.509-3.449-25.417-7.555c-2.523-1.503-4.287-4.054-4.719-6.822c-0.386-2.473,0.298-4.85,1.927-6.691
			c2.827-3.192,5.908-5.687,8.913-7.216c4.144-2.107,10.202-4.128,13.791-4.602c9.938-1.311,19.285-0.222,27.683,3.232
			c3.872,1.595,9.346,4.346,12.175,9.795c1.618,3.115,1.915,6.087,0.884,8.833c-1.375,3.662-5.147,6.789-10.908,9.043
			C424.898,164.777,420.155,165.578,414.36,165.578z M407.518,132.863c-2.568,0-5.227,0.18-7.903,0.533
			c-3.47,0.457-9.351,2.422-13.387,4.477c-2.866,1.458-5.82,3.854-8.543,6.931c-1.377,1.558-1.956,3.572-1.628,5.67
			c0.375,2.405,1.917,4.626,4.123,5.941c6.746,4.008,14.89,6.423,24.897,7.384c2.734,0.262,5.975,0.531,9.283,0.531
			c5.634,0,10.232-0.773,14.47-2.434c5.421-2.122,8.946-4.998,10.193-8.317c0.9-2.4,0.625-5.03-0.823-7.817
			c-2.038-3.924-5.599-6.766-11.542-9.215C420.719,134.101,414.28,132.863,407.518,132.863z"/>
	</g>
	<g>
		<path fill="#F2F2F2" d="M15.312,771.698c-0.053,0-0.106-0.007-0.16-0.021c-0.333-0.088-0.533-0.432-0.445-0.765
			c0.645-2.443,16.108-60.021,43.563-74c12.737-6.485,23.171-7.97,34.219-9.54c12.54-1.781,25.507-3.625,42.247-13.51
			c2.241-1.324,4.451-2.643,6.631-3.942c27.725-16.542,51.668-30.83,73.835-14.706c17.272,12.563,20.037,29.214,22.963,46.841
			c1.076,6.479,2.188,13.179,4.08,19.686c6.794,23.366,33.064,47.009,33.329,47.244c0.258,0.23,0.28,0.625,0.05,0.883
			c-0.23,0.26-0.625,0.279-0.882,0.052c-0.268-0.239-26.804-24.122-33.697-47.828c-1.913-6.578-3.031-13.315-4.113-19.831
			c-2.883-17.366-5.606-33.771-22.465-46.033c-21.498-15.639-43.987-2.22-72.459,14.768c-2.182,1.303-4.393,2.621-6.636,3.946
			c-16.954,10.011-30.045,11.871-42.707,13.671c-10.941,1.557-21.276,3.025-33.828,9.416
			c-26.956,13.725-42.765,72.612-42.921,73.205C15.841,771.514,15.588,771.698,15.312,771.698z"/>
	</g>
	<g>
		<path fill="#F2F2F2" d="M41.612,772.125c-0.316,0-0.587-0.239-0.621-0.561c-0.034-0.325-3.209-32.723,13.247-50.988
			c7.457-8.276,17.796-12.474,30.731-12.474c24.876,0,42.558-6.289,56.765-11.342c14.796-5.263,26.481-9.423,40.327-5.388
			c19.469,5.677,19.926,20.482,20.369,34.804c0.192,6.234,0.374,12.125,2.067,17.236c5.512,16.637,31.487,25.87,31.749,25.962
			c0.326,0.113,0.498,0.471,0.384,0.797c-0.114,0.326-0.471,0.5-0.795,0.384c-1.092-0.381-26.817-9.525-32.524-26.749
			c-1.75-5.284-1.943-11.541-2.13-17.591c-0.428-13.874-0.871-28.222-19.469-33.644c-13.457-3.919-24.975,0.177-39.559,5.365
			c-14.298,5.085-32.092,11.414-57.184,11.414c-12.566,0-22.593,4.058-29.802,12.06c-16.087,17.857-12.965,49.702-12.932,50.021
			c0.036,0.344-0.213,0.65-0.557,0.688C41.656,772.123,41.634,772.125,41.612,772.125z"/>
	</g>
	<g>
		<path fill="#F2F2F2" d="M389.205,769.837c-0.229,0-0.45-0.128-0.56-0.347c-0.154-0.31-0.029-0.685,0.28-0.839
			c25.803-12.875,24.183-30.047,22.468-48.228c-0.755-8.006-1.536-16.284-0.126-24.619c1.145-6.774,5.716-18.435,11.008-31.936
			c12.339-31.476,29.237-74.583,16.705-91.561c-4.1-5.555-11.265-7.986-21.313-7.239c-47.57,3.554-45.858,34.396-44.203,64.224
			c0.412,7.428,0.838,15.107,0.434,22.067c-1.057,18.169-14.81,25.316-29.369,32.884c-13.405,6.967-27.267,14.171-33.018,30.552
			c-11.84,33.721,15.981,51.515,16.263,51.689c0.293,0.183,0.383,0.567,0.201,0.86c-0.184,0.293-0.568,0.382-0.861,0.201
			c-0.291-0.183-28.961-18.481-16.783-53.166c5.915-16.848,20-24.167,33.621-31.246c14.236-7.398,27.682-14.388,28.698-31.848
			c0.401-6.889-0.005-14.192-0.434-21.927c-0.831-14.963-1.689-30.435,3.753-42.603c6.173-13.805,19.783-21.307,41.605-22.937
			c10.496-0.784,18.039,1.821,22.411,7.743c12.942,17.533-4.103,61.012-16.547,92.759c-5.269,13.438-9.816,25.04-10.94,31.688
			c-1.382,8.173-0.609,16.368,0.139,24.293c1.756,18.619,3.415,36.206-23.155,49.464
			C389.394,769.816,389.298,769.837,389.205,769.837z"/>
	</g>
	<g>
		<path fill="#F2F2F2" d="M595.171,770.862c-0.243,0-0.474-0.143-0.575-0.38c-4.395-10.29,6.271-44.953,15.68-75.535
			c4.518-14.687,8.785-28.559,10.513-37.148c5.371-26.748-10.217-63.566-50.401-82.184c-39.604-18.351-72.456-13.089-92.502,14.813
			c-10.145,14.12-8.431,36.186-6.616,59.546c1.54,19.824,3.133,40.323-2.407,57.573c-11.95,37.228-47.503,61.936-47.86,62.181
			c-0.285,0.195-0.674,0.122-0.869-0.162c-0.195-0.285-0.123-0.674,0.162-0.869c0.354-0.243,35.562-24.719,47.377-61.532
			c5.465-17.016,3.882-37.39,2.353-57.094c-1.833-23.595-3.564-45.881,6.847-60.371c9.814-13.663,22.743-22.051,38.423-24.929
			c16.476-3.027,35.188,0.243,55.62,9.709c40.771,18.889,56.567,56.335,51.101,83.563c-1.738,8.652-6.016,22.554-10.543,37.271
			c-8.883,28.874-19.938,64.808-15.724,74.678c0.136,0.317-0.012,0.686-0.329,0.82C595.336,770.846,595.253,770.862,595.171,770.862
			z"/>
	</g>
	<g>
		<path fill="#F2F2F2" d="M563.723,769.092c-0.159,0-0.319-0.063-0.441-0.186c-0.313-0.315-7.501-7.976,7.608-26.783
			c13.964-17.385,27.755-65.182,17.582-100.51c-4.658-16.189-18.283-30.193-36.445-37.462c-14.03-5.614-28.479-6.089-36.81-1.217
			c-15.173,8.871-13.195,31.327-9.92,68.53c0.661,7.51,1.345,15.274,1.966,23.761c3.749,51.178-35.915,73.531-36.315,73.751
			c-0.303,0.167-0.683,0.056-0.849-0.247s-0.055-0.683,0.247-0.849c0.395-0.218,39.359-22.208,35.67-72.563
			c-0.619-8.477-1.303-16.237-1.964-23.743c-3.317-37.694-5.321-60.447,10.535-69.719c8.785-5.14,23.31-4.704,37.904,1.136
			c18.518,7.409,32.418,21.718,37.183,38.276c4.578,15.898,4.759,36.097,0.511,56.872c-3.772,18.447-10.62,35.183-18.318,44.767
			c-14.336,17.842-7.761,25.055-7.692,25.124c0.238,0.247,0.233,0.644-0.012,0.882C564.039,769.031,563.881,769.092,563.723,769.092
			z"/>
	</g>
	<g>
		<path fill="#F2F2F2" d="M1021.055,770.535c-0.187,0-0.372-0.084-0.495-0.242c-0.149-0.195-15.177-19.556-29.882-25.927
			c-14.488-6.274-45.987,24.662-46.305,24.976c-0.245,0.24-0.641,0.242-0.884-0.005c-0.243-0.245-0.24-0.642,0.005-0.885
			c1.316-1.303,32.438-31.841,47.681-25.231c15.003,6.499,30.224,26.111,30.375,26.309c0.211,0.274,0.16,0.666-0.112,0.877
			C1021.322,770.493,1021.188,770.535,1021.055,770.535z"/>
	</g>
	<g>
		<path fill="#F2F2F2" d="M611.561,771.393c-0.049,0-0.099-0.006-0.148-0.018c-0.335-0.082-0.541-0.422-0.458-0.757
			c0.111-0.454,11.299-45.775,27.375-76.729c15.809-30.441,24.717-33.61,46.238-41.266l2.193-0.782
			c7.532-2.688,11.861-4.866,15.681-6.789c7.587-3.817,12.599-6.339,35.379-8.624c17.024-1.696,46.464,13.707,73.25,38.363
			c30.643,28.205,51.934,62.479,58.414,94.035c0.068,0.338-0.148,0.669-0.486,0.738c-0.342,0.066-0.669-0.146-0.738-0.486
			c-6.429-31.305-27.582-65.336-58.036-93.367c-26.539-24.43-55.595-39.725-72.277-38.039c-22.552,2.262-27.48,4.741-34.941,8.497
			c-3.853,1.938-8.219,4.136-15.823,6.85l-2.194,0.782c-21.193,7.539-29.966,10.658-45.549,40.664
			c-16.005,30.818-27.158,75.998-27.27,76.45C612.098,771.2,611.842,771.393,611.561,771.393z"/>
	</g>
	<g>
		<path fill="#F2F2F2" d="M627.487,771.393c-0.04,0-0.08-0.004-0.121-0.012c-0.338-0.066-0.56-0.396-0.493-0.733
			c0.5-2.55,12.536-62.646,36.229-80.267c16.184-12.039,30.131-14.649,42.437-16.952c5.755-1.077,11.191-2.095,16.185-4.003
			l0.841-0.322c15.212-5.831,36.044-13.819,62.094,9.229c26.038,23.026,54.521,88.95,54.805,89.614
			c0.138,0.316-0.011,0.686-0.328,0.82c-0.315,0.135-0.684-0.011-0.819-0.328c-0.283-0.66-28.655-66.329-54.484-89.171
			c-25.482-22.544-45.075-15.032-60.818-8.996l-0.842,0.322c-5.099,1.947-10.588,2.976-16.4,4.063
			c-12.173,2.278-25.97,4.86-41.922,16.728c-23.307,17.333-35.625,78.885-35.746,79.504
			C628.041,771.187,627.78,771.393,627.487,771.393z"/>
	</g>
	<g>
		<path fill="#F2F2F2" d="M665.113,771.393c-0.024,0-0.048-0.001-0.072-0.004c-0.343-0.039-0.589-0.35-0.55-0.691
			c0.06-0.522,6.441-52.525,48.454-71.052c21.996-9.694,39.369-12.961,53.115-9.987c14.603,3.158,25.738,13.386,34.047,31.265
			c16.498,35.495,21.386,48.225,21.434,48.349c0.123,0.322-0.039,0.684-0.361,0.807c-0.321,0.125-0.685-0.039-0.807-0.36
			c-0.047-0.124-4.927-12.825-21.398-48.268c-15.774-33.948-41.353-40.128-85.524-20.659
			c-41.363,18.238-47.657,69.532-47.716,70.049C665.697,771.156,665.427,771.393,665.113,771.393z"/>
	</g>
	<g>
		<path fill="#F2F2F2" d="M702.27,770.116c-0.058,0-0.115-0.008-0.174-0.023c-0.332-0.097-0.522-0.442-0.427-0.774
			c0.514-1.777,12.864-43.604,37.644-48.383c15.962-3.089,29.709,13.483,41.841,28.097c7.057,8.498,13.721,16.525,20.055,19.908
			c0.304,0.163,0.419,0.542,0.257,0.847c-0.163,0.304-0.541,0.42-0.847,0.258c-6.549-3.499-13.29-11.618-20.427-20.213
			c-11.91-14.348-25.416-30.601-40.644-27.67c-24.025,4.635-36.554,47.075-36.678,47.505
			C702.791,769.94,702.541,770.116,702.27,770.116z"/>
	</g>
	<g>
		<path fill="#F2F2F2" d="M724.037,770.116c-0.08,0-0.16-0.015-0.238-0.047c-0.318-0.132-0.472-0.497-0.34-0.815
			c0.35-0.85,8.691-20.76,19.607-20.221c7.219,0.376,13.322,6.634,18.708,12.154c2.683,2.75,5.217,5.349,7.49,6.75
			c0.294,0.182,0.386,0.566,0.204,0.86c-0.182,0.293-0.563,0.384-0.859,0.204c-2.405-1.482-4.991-4.136-7.729-6.942
			c-5.225-5.356-11.146-11.428-17.878-11.778c-10.014-0.561-18.304,19.248-18.385,19.448
			C724.516,769.972,724.283,770.116,724.037,770.116z"/>
	</g>
	<g>
		<path fill="#F2F2F2" d="M1087.831,720.828c-17.393,0-18.577-21.69-18.967-28.818c-0.365-6.665,2.184-13.737,6.649-18.455
			c5.013-5.292,11.896-7.191,19.271-5.251c6.358,1.674,11.439,5.625,14.692,11.427c3.828,6.833,4.809,15.733,2.558,23.229
			c-3.81,12.646-15.529,17.104-21.854,17.747C1089.378,720.786,1088.588,720.828,1087.831,720.828z M1089.188,668.8
			c-4.873,0-9.287,1.94-12.765,5.613c-4.239,4.478-6.657,11.193-6.311,17.527c1.082,19.815,7.603,28.789,19.939,27.521
			c6.019-0.61,17.166-4.85,20.784-16.863c2.157-7.181,1.218-15.71-2.451-22.257c-3.082-5.499-7.896-9.244-13.92-10.829
			C1092.669,669.039,1090.895,668.8,1089.188,668.8z"/>
	</g>
	<g>
		<path fill="#F2F2F2" d="M1478.771,771.907c-0.212,0-0.416-0.105-0.534-0.299c-0.148-0.242-14.822-24.641-13.736-58.133
			c0.65-20.052,12.718-35.592,22.414-48.079c6.796-8.752,12.665-16.311,13.157-23.235c0.767-10.804-2.844-17.681-5.743-23.206
			c-1.648-3.143-3.072-5.854-3.118-8.463c-0.08-4.74,2.26-6.693,6.507-10.239c2.203-1.839,4.944-4.128,8.268-7.517
			c9.73-9.912,33.834-33.718,34.076-33.957c0.247-0.244,0.644-0.238,0.884,0.005c0.243,0.246,0.24,0.643-0.005,0.885
			c-0.241,0.238-24.34,24.038-34.063,33.942c-3.367,3.434-6.135,5.743-8.358,7.601c-4.208,3.514-6.129,5.116-6.059,9.26
			c0.04,2.311,1.335,4.778,2.976,7.903c2.816,5.365,6.674,12.717,5.882,23.875c-0.518,7.304-6.494,15-13.416,23.913
			c-9.586,12.345-21.516,27.707-22.15,47.354c-1.074,33.122,13.406,57.2,13.553,57.439c0.18,0.295,0.087,0.68-0.207,0.858
			C1478.994,771.879,1478.881,771.907,1478.771,771.907z"/>
	</g>
	<g>
		<path fill="#F2F2F2" d="M1518.914,770.883c-0.164,0-0.329-0.064-0.451-0.192c-1.284-1.342-31.386-33.043-27.236-50.631
			c4.131-17.511,46.678-43.907,48.485-45.022c0.297-0.18,0.68-0.089,0.86,0.204c0.181,0.294,0.09,0.68-0.204,0.86
			c-0.438,0.271-43.912,27.236-47.925,44.245c-3.995,16.934,26.611,49.155,26.922,49.479c0.238,0.25,0.229,0.646-0.02,0.884
			C1519.226,770.824,1519.069,770.883,1518.914,770.883z"/>
	</g>
	<g>
		<path fill="#F2F2F2" d="M1454.652,770.15c-0.206,0-0.407-0.102-0.526-0.287c-0.181-0.28-18.046-28.299-19.139-52.521
			c-0.112-2.491-0.193-4.93-0.272-7.319c-0.706-21.218-1.265-37.978-21.016-55.479c-26.031-23.061-54.119-21.948-83.484,3.306
			c-18.667,16.055-29.563,16.481-42.183,16.977c-10.329,0.405-22.037,0.864-40.515,10.023
			c-40.438,20.058-55.629,83.963-55.776,84.605c-0.079,0.337-0.419,0.545-0.75,0.469c-0.337-0.078-0.546-0.414-0.47-0.75
			c0.15-0.649,15.479-65.127,56.441-85.443c18.716-9.278,30.564-9.743,41.021-10.153c12.384-0.484,23.079-0.904,41.417-16.675
			c29.912-25.727,58.555-26.835,85.127-3.294c20.153,17.859,20.749,35.707,21.437,56.374c0.079,2.385,0.16,4.817,0.271,7.305
			c1.079,23.89,18.763,51.623,18.94,51.9c0.188,0.29,0.104,0.677-0.188,0.863C1454.885,770.116,1454.768,770.15,1454.652,770.15z"/>
	</g>
	<g>
		<path fill="#F2F2F2" d="M1407.283,770.521c-0.207,0-0.409-0.103-0.528-0.289c-0.738-1.161-18.041-28.595-14.747-44.106
			c1.721-8.102,1.219-19.864-5.347-28.585c-4.729-6.28-11.688-9.791-20.687-10.432c-13.271-0.94-19.207,1.406-26.076,4.123
			c-5.603,2.215-11.95,4.726-23.356,5.766c-7.359,0.673-13.372,0.42-19.187,0.173c-13.816-0.582-24.729-1.044-43.908,12.075
			c-26.698,18.269-25.639,59.627-25.623,60.043c0.011,0.346-0.26,0.635-0.604,0.646c-0.342-0.019-0.634-0.26-0.646-0.604
			c-0.015-0.422-1.103-42.458,26.168-61.114c19.521-13.354,30.615-12.89,44.666-12.293c5.773,0.242,11.744,0.493,19.021-0.169
			c11.228-1.023,17.486-3.5,23.011-5.685c7.012-2.772,13.069-5.169,26.625-4.206c9.375,0.667,16.641,4.343,21.596,10.926
			c6.816,9.057,7.348,21.227,5.57,29.598c-3.188,15.013,14.401,42.896,14.579,43.175c0.187,0.292,0.101,0.678-0.19,0.863
			C1407.514,770.49,1407.396,770.521,1407.283,770.521z"/>
	</g>
	<g>
		<path fill="#F2F2F2" d="M1281.723,760.462c-1.828,0-3.227-0.689-4.153-2.05c-2.455-3.6-0.757-11.124,0.449-14.203
			c0.882-2.244,4.294-9.566,11.178-9.566c2.258,0,4.667,0.809,7.163,2.403c3.716,2.377,5.647,4.743,5.908,7.236
			c0.343,3.275-2.272,5.849-4.375,7.915c-0.223,0.221-0.438,0.433-0.644,0.639c-3.354,3.382-10.422,7.058-14.541,7.563
			C1282.362,760.442,1282.033,760.462,1281.723,760.462z M1289.195,735.893c-6.094,0-9.204,6.715-10.014,8.773
			c-1.084,2.764-2.733,9.887-0.582,13.043c0.819,1.2,2.099,1.674,3.956,1.449c3.826-0.47,10.665-4.038,13.807-7.203
			c0.208-0.209,0.428-0.426,0.652-0.647c1.91-1.88,4.288-4.218,4.01-6.896c-0.216-2.061-2.013-4.186-5.341-6.313
			C1293.395,736.635,1291.21,735.893,1289.195,735.893z"/>
	</g>
	<g>
		<path fill="#F2F2F2" d="M880.963,13.466c-25.293,0-35.938-15.318-36.043-15.473c-0.193-0.286-0.118-0.675,0.167-0.867
			c0.287-0.194,0.675-0.118,0.868,0.167c0.102,0.148,10.411,14.924,35.008,14.924c24.61,0,33.802-14.748,33.893-14.896
			c0.178-0.295,0.562-0.391,0.857-0.212c0.295,0.18,0.391,0.563,0.212,0.858C915.831-1.879,906.271,13.466,880.963,13.466z"/>
	</g>
</g>
</svg>
