<?xml version="1.0" encoding="utf-8"?>
<!-- Generator: Adobe Illustrator 16.0.0, SVG Export Plug-In . SVG Version: 6.00 Build 0)  -->
<!DOCTYPE svg PUBLIC "-//W3C//DTD SVG 1.1//EN" "http://www.w3.org/Graphics/SVG/1.1/DTD/svg11.dtd">
<svg version="1.1" id="Layer_1" xmlns="http://www.w3.org/2000/svg" xmlns:xlink="http://www.w3.org/1999/xlink" x="0px" y="0px"
	 width="1536px" height="3072px" viewBox="0 0 1536 3072" enable-background="new 0 0 1536 3072" xml:space="preserve">
<g>
	<path fill="none" stroke="#F4F4F4" stroke-linecap="round" stroke-miterlimit="10" d="M-32,2744.338
		c9.712-27.482,17.636-55.39,21.33-84.359c1.309-10.32,1.932-21.449-3.258-30.471c-3.961-6.89-10.741-11.502-18.072-14.809"/>
	<path fill="none" stroke="#F4F4F4" stroke-linecap="round" stroke-miterlimit="10" d="M-32,2923.71
		c22.474-35.467,57.27-63.005,97.006-76.612c75.424-25.818,165.013-2.84,232.94-44.549c34.236-21.02,60.448-57.33,99.732-65.75
		c32.602-6.979,65.436,7.26,97.303,17.07c41.92,12.898,89.621,17.789,127.878-3.65c65.777-36.891,78.385-135.561,146.266-168.398
		c55.083-26.643,124.063,5.049,159.794,54.719c35.729,49.68,46.529,112.451,57.05,172.74c10.521,60.281,22.88,123.09,60.819,171.109
		c28.74,36.352,71.25,61.529,116.941,69.279c27.209,4.611,58.76,4.91,76.479,26.07c5.83,6.949,9.42,15.541,11.861,24.279
		c0.37,1.324,0.712,2.652,1.033,3.982"/>
	<path fill="none" stroke="#F4F4F4" stroke-linecap="round" stroke-miterlimit="10" d="M29.566,3104
		c-3.092-2.391-5.766-5.322-7.867-8.91c-15.24-26,13.59-62.029-1.573-88.09C9.721,2989.131-16.96,2984.619-32,2972.256"/>
	<path fill="none" stroke="#F4F4F4" stroke-linecap="round" stroke-miterlimit="10" d="M376.533,3104
		c-38.812-33.069-89.469-52.203-140.497-52.281c-48.994-0.1-96.586,16.391-145.485,19.512c-5.236,0.33-11.063,0.33-14.991-3.15
		c-4.005-3.541-4.69-9.439-4.8-14.791c-0.67-30.789,5.002-69.27-21.256-85.379c-11.08-6.791-26.181-7.73-34.019-18.111
		c-13.9-18.398,8.695-42.84,30.153-51.279c75.253-29.609,163.143-5.488,239.05-33.408c56.91-20.951,105.001-70.32,165.636-70.721
		c47.95-0.33,94.373,31.029,141.153,20.52c47.545-10.689,74.535-58.971,106.186-96.02c18.232-21.352,39.582-40.051,63.176-55.291
		c34.751-22.459,83.68-36.08,115.239-9.318c10.83,9.18,17.899,21.908,24.37,34.549c20.729,40.561,37.46,83.18,49.851,127.021
		c11.641,41.17,19.511,83.51,34.601,123.539c15.08,40.041,38.46,78.561,74.101,102.23c26.5,17.609,57.949,25.879,86.75,39.43
		c12.804,6.023,25.463,13.637,36.25,22.949"/>
	<path fill="none" stroke="#F4F4F4" stroke-linecap="round" stroke-miterlimit="10" d="M1071.772,3104
		c-27.644-11.833-53.546-27.648-74.683-48.891c-39.021-39.262-58.649-93.602-72.36-147.221
		c-13.72-53.621-22.869-108.961-45.88-159.291c-6.189-13.539-13.76-27.119-25.87-35.799c-16.18-11.611-38.26-12.5-57.191-6.361
		c-18.934,6.16-35.201,18.521-49.99,31.842c-53.249,48.01-92.706,113.84-99.096,185.26c-2.914,32.58,0.795,66.619-11.346,96.99
		c-9.504,23.789-27.815,42.811-41.562,64.43c-3.877,6.104-7.376,12.475-10.474,19.041"/>
	<path fill="none" stroke="#F4F4F4" stroke-linecap="round" stroke-miterlimit="10" d="M537.315,3104
		c3.731-17.018,6.963-31.942,10.1-38.361c13.838-28.328,33.333-53.609,47.016-82c13.682-28.408,21.179-62.119,9.365-91.34
		c-6.872-17-23.484-32.541-41.515-29.221c-8.852,1.639-16.27,7.451-24.466,11.15c-39.146,17.641-82.779-15.211-125.711-14.449
		c-41.531,0.729-75.252,32.209-113.604,48.139c-40.22,16.701-86.877,16.531-124.276,38.861
		c-13.589,8.109-26.493,21.209-25.854,37.01c0.654,16.271,15.91,28.771,31.743,32.561c15.833,3.779,32.382,1.1,48.62-0.109
		c78.12-5.82,156.941,27.129,211.126,83.01c1.162,1.198,2.485,2.814,3.938,4.75"/>
	<path fill="none" stroke="#F4F4F4" stroke-linecap="round" stroke-miterlimit="10" d="M979.324,3104
		c-25.135-17.309-45.342-41.551-61.017-67.893c-18.489-31.09-31.159-65.25-43.359-99.299c-10.899-30.4-21.63-61.5-22.62-93.791
		c-0.63-21.02,2.341-44.131-9.95-61.199c-14.708-20.41-44.664-22.33-69.146-16.531c-9.35,2.211-18.762,5.391-26.071,11.641
		c-6.623,5.66-11.049,13.42-15.334,21.021c-12.154,21.58-24.388,43.289-32.632,66.648c-23.485,66.539-13.214,142.141-41.141,206.932
		c-4.799,11.149-10.668,21.793-16.465,32.471"/>
	<path fill="none" stroke="#F4F4F4" stroke-linecap="round" stroke-miterlimit="10" d="M676.113,3104
		c5.176-10.664,12.121-20.371,17.487-30.93c12.187-24.01,15.631-51.381,18.871-78.121c2.51-20.629,5.019-41.26,7.526-61.91
		c2.432-20.029,4.894-40.158,10.69-59.469c4.021-13.381,9.91-26.682,20.117-36.23c10.207-9.539,25.511-14.6,38.601-9.709
		c15.849,5.92,23.591,23.488,29.161,39.459c15.89,45.6,27.81,92.6,46,137.34c14.697,36.17,33.968,71.304,60.581,99.57"/>
	<path fill="none" stroke="#F4F4F4" stroke-linecap="round" stroke-miterlimit="10" d="M721.79,3104
		c4.406-10.478,9.086-20.86,12.767-31.6c18.218-53.271,10.723-111.531,17.484-167.42c0.687-5.682,1.84-11.92,6.312-15.5
		c2.868-2.291,6.654-3.092,10.332-3.16c13.9-0.271,26.586,9,34.189,20.639c7.604,11.641,11.034,25.441,14.295,38.961
		c13.123,54.391,26.29,110.555,54.821,158.08"/>
	<path fill="none" stroke="#F4F4F4" stroke-linecap="round" stroke-miterlimit="10" d="M498.851,3104
		c0.801-0.924,1.699-2.052,2.768-3.42c4.271-5.451,7.2-12.441,8.961-19.07c3.444-12.92,2.478-26.682,5.953-39.59
		c4.675-17.34,16.831-31.512,28.144-45.451c11.314-13.951,22.519-29.25,24.639-47.1c2.103-17.84-8.463-38.41-26.243-40.98
		c-14.772-2.139-28.236,8.15-42.792,11.5c-20.477,4.721-41.219-4.52-61.68-9.318c-31.805-7.461-66.073-3.971-95.712,9.76
		c-14.649,6.779-28.145,15.949-43.213,21.699c-22.797,8.73-48.059,9.211-70.982,17.602c-5.002,1.82-10.036,4.139-13.525,8.18
		c-3.491,4.02-5.034,10.16-2.416,14.801c3.287,5.828,11.079,6.908,17.765,7.229c41.952,2.08,84.774,0.881,124.932,13.199
		c13.355,4.1,26.228,9.65,38.834,15.66h-0.019c25.899,12.361,51.427,27.51,71.17,48.641c9.694,10.359,14.244,24.189,23.017,34.439
		c0.727,0.848,1.373,1.582,1.966,2.221"/>
	<path fill="none" stroke="#F4F4F4" stroke-linecap="round" stroke-miterlimit="10" d="M1568,2770.15
		c-11.591,3.014-22.471,8.676-31.302,16.789c-9.35,8.58-16.42,19.49-26.189,27.59c-18.9,15.701-44.91,18.811-69.33,21.561
		c-60.64,6.791-121.349,15.189-179.99,32.041c-33.129,9.52-70.25,26.939-77.039,60.719c-5.349,26.6,11.11,53,31.261,71.16
		c20.16,18.141,44.56,31.371,63.278,51c14.171,14.863,24.339,33.272,30.019,52.99"/>
	<path fill="none" stroke="#F4F4F4" stroke-linecap="round" stroke-miterlimit="10" d="M1568,2834.68
		c-4.602-3.245-9.598-5.721-15.142-6.49c-18.189-2.539-32.9,13.32-47.08,24.98c-29.39,24.17-68.11,33.811-105.931,38
		c-37.819,4.18-76.209,3.619-113.608,10.631c-14.971,2.811-30.291,7.119-41.74,17.17c-11.461,10.061-17.881,27.23-11.461,41.049
		c4.241,9.121,12.98,15.131,21.061,21.121c31.01,22.979,57.871,52.229,74.73,86.949c5.563,11.455,9.974,23.529,13.074,35.91"/>
	<path fill="none" stroke="#F4F4F4" stroke-linecap="round" stroke-miterlimit="10" d="M1568,2906.277
		c-3.036-3.284-6.465-6.257-10.383-8.828c-8.459-5.561-18.897-8.602-28.869-6.82c-11.491,2.061-20.85,9.99-30.391,16.719
		c-33.709,23.781-76.14,34.871-117.17,30.621c-14.49-1.5-29.1-4.83-43.449-2.398c-14.349,2.43-28.8,12.779-29.98,27.289
		c-1.229,15.08,11.44,27.16,21.962,38.041c27.312,28.264,45.549,64.625,53.438,103.1"/>
	<path fill="none" stroke="#F4F4F4" stroke-linecap="round" stroke-miterlimit="10" d="M1568,3086.859
		c-2.243-26.421,1.47-53.334-3.542-79.379c-3.379-17.643-10.799-34.5-21.5-48.92c-4.039-5.441-8.949-10.781-15.488-12.531
		c-18.441-4.9-29.83,19.361-45.75,29.85c-19.701,12.961-45.691,3.611-69.271,3.91c-7,0.09-14.34,1.23-19.84,5.551
		c-9.289,7.27-10.298,21.449-6.109,32.49c4.188,11.049,12.369,19.99,19.32,29.529c12.261,16.844,20.641,36.298,25.007,56.641"/>
	<path fill="none" stroke="#F4F4F4" stroke-linecap="round" stroke-miterlimit="10" d="M1530.144,3104
		c-4.501-10.075-9.755-19.734-16.385-28.6c-7.57-10.131-18.979-19.74-31.438-17.531c-11.212,1.98-18.802,13.24-20.541,24.48
		c-1.119,7.188-0.4,14.437,0.816,21.65"/>
	<path fill="none" stroke="#F4F4F4" stroke-linecap="round" stroke-miterlimit="10" d="M1446.108,3026.48
		c6.77,4.16,15.41,8.59,23.541,6.84c7.608-1.631,20.93-10.979,14.989-20.279c-5.34-8.391-22.92-0.801-30.87-0.852l0.02-0.01
		C1441.958,3012.1,1432.8,3018.301,1446.108,3026.48z"/>
	<path fill="none" stroke="#F4F4F4" stroke-linecap="round" stroke-miterlimit="10" d="M780.477,3104
		c0.045-2.101,0.095-4.199,0.139-6.301c0.063-2.92,0.155-5.92,1.293-8.6c2.696-6.279,10.924-8.869,17.407-6.711
		c6.482,2.172,11.174,8.029,13.693,14.391c0.933,2.346,1.614,4.764,2.149,7.221"/>
	<path fill="none" stroke="#F4F4F4" stroke-linecap="round" stroke-miterlimit="10" d="M783.797,2984.709
		c0.176,9.15,3.76,30.209,11.625,12.891c1.839-4.061,5.797-6.799,7.76-10.789c2.339-4.699,1.216-11.029-2.913-14.291
		c-4.13-3.25-10.908-2.68-14.071,1.531C783.969,2977.01,783.72,2981,783.797,2984.709L783.797,2984.709"/>
	<path fill="none" stroke="#F4F4F4" stroke-linecap="round" stroke-miterlimit="10" d="M783.797,2984.709c0-0.006,0-0.014,0-0.02
		V2984.709L783.797,2984.709"/>
	<path fill="none" stroke="#F4F4F4" stroke-linecap="round" stroke-miterlimit="10" d="M486.865,2982.109
		c4.036-1.01,8.508-1.799,11.221-4.971c3.24-3.779,2.57-9.738-0.048-13.979c-3.257-5.291-9.271-8.82-15.489-9.051
		c-11.282-0.42-20.805,8.961-32.04,10.109c-11.999,1.24-24.497-7.068-35.623-2.398c-11.454,4.799-17.313,19.02-3.227,22.539
		c13.808,3.439,27.193,17.201,42.216,13.68l0.015-0.01c6.202-1.449,11.268-5.76,16.705-9.07
		C475.629,2985.869,481.13,2983.551,486.865,2982.109z"/>
	<path fill="none" stroke="#F4F4F4" stroke-linecap="round" stroke-miterlimit="10" d="M121.995,2914.369
		c-2.619-4.209-7.621-6.809-12.56-6.529c-4.675,0.26-8.85,2.85-13.246,4.48c-4.27,1.609-8.836,2.33-13.215,3.619
		c-23.063,6.781-13.464,30.201,7.387,29.111C103.311,2944.359,132.172,2930.811,121.995,2914.369z"/>
	<path fill="none" stroke="#F4F4F4" stroke-linecap="round" stroke-miterlimit="10" d="M645.479,2816.73
		c-0.763-0.691-1.807-1-2.836-1.131c-3.91-0.48-7.434,1.381-10.55,3.979c-1.792,1.49-3.443,3.24-4.955,4.92
		c-4.146,4.631-22.409,27.68-6.67,27.102c12.468-0.449,23.204-18.039,25.884-28.189l-0.015-0.01
		C646.944,2821.109,647.24,2818.299,645.479,2816.73z"/>
	<path fill="none" stroke="#F4F4F4" stroke-linecap="round" stroke-miterlimit="10" d="M1568,1548.123
		c-1.575,1.184-3.222,2.314-4.963,3.377c-40.647,24.82-94.988-7.029-140.369,7.449c-43.5,13.871-63.349,65.91-61.369,111.512
		c1.979,45.6,19.449,89.18,24.449,134.549c10.051,91.16-32.33,182.65-96.82,247.871c-64.479,65.199-148.959,107.1-235.278,138.068
		c-34.811,12.48-70.51,23.531-102.361,42.32c-28.66,16.91-53.639,39.861-73.449,66.59c-16.94,22.859-30.561,50.859-25.771,78.91
		c4.87,28.58,27.47,50.49,49.89,68.869c74.241,60.822,167.762,118.152,182.812,212.932c5.72,36-1.289,72.99,3.239,109.16
		c4.541,36.17,26.449,75.018,62.541,80.109c42.89,6.07,76.479-36.85,118.31-48.07c52.159-13.98,109.44,23.25,160.069,4.461
		c23.03-8.561,40.431-27.4,60.562-41.49c23.12-16.173,50.48-25.234,78.51-27.512"/>
	<path fill="none" stroke="#F4F4F4" stroke-linecap="round" stroke-miterlimit="10" d="M-32,1237.15
		c7.572,7.746,14.547,16.16,21.249,24.661c77.153,97.859,129.093,215.42,149.476,338.359c5.765,34.699,7.573,74.611-16.27,100.471
		c-30.558,33.141-83.775,24.701-127.689,34.93c-9.321,2.174-18.236,5.228-26.766,9.035"/>
	<path fill="none" stroke="#F4F4F4" stroke-linecap="round" stroke-miterlimit="10" d="M-32,910.763
		c17.638-6.39,35.104-13.139,51.262-22.554c37.945-22.109,68.489-69.75,48.791-109c-5.625-11.22-14.695-20.279-21.926-30.521
		c-56.661-80.235,10.285-206.228-49.493-284.176C-11.57,453.816-21.245,445.217-32,438.156"/>
	<path fill="none" stroke="#F4F4F4" stroke-linecap="round" stroke-miterlimit="10" d="M220.43-32
		c1.508,15.34,2.978,30.682,4.782,45.937c6.966,59.046,20.164,119.868,56.926,166.587c36.762,46.72,102.742,74.939,157.625,52.096
		c48.886-20.354,81.626-76.173,134.359-80.895c18.265-1.637,37.433,3.288,54.59-3.194c19.322-7.293,30.605-26.818,45.301-41.343
		c25.262-24.949,63.86-35.529,98.3-26.928c25.416,6.343,47.575,22.019,72.556,29.967c40.78,12.965,86.431,3.896,123.471-17.531
		c37.061-21.427,66.4-54.152,90.722-89.354c7.923-11.468,15.684-23.5,23.712-35.341"/>
	<path fill="none" stroke="#F4F4F4" stroke-linecap="round" stroke-miterlimit="10" d="M1568,279.189
		c-10.938-15.227-20.331-31.87-28.991-48.367c-20.109-38.287-39.13-78.867-72.23-106.698
		c-33.118-27.832-85.409-38.585-119.139-11.501c-28.721,23.063-34.541,64.936-29.262,101.386
		c5.271,36.448,19.32,71.435,22.021,108.164c5.639,77.123-38.51,147.653-68.691,218.854
		c-40.68,95.916-57.318,201.913-48.029,305.685c2.1,23.439,5.919,47.859,19.939,66.739c14.01,18.91,41.19,29.989,61.92,18.84
		c8.819-4.729,15.381-12.729,21.24-20.851c20.631-28.55,35.541-60.9,56.239-89.379c20.69-28.511,49.241-53.94,84.021-59.41
		c35.397-5.561,69.152,10.046,100.962,28.318"/>
	<path fill="none" stroke="#F4F4F4" stroke-linecap="round" stroke-miterlimit="10" d="M-32,2565.986
		c22.333,8.64,47.045,14.723,68.326,4.674c13.792-6.52,23.796-18.859,32.85-31.119c17.142-23.221,32.678-47.631,46.47-72.979
		c10.893-20.041,20.819-40.861,35.312-58.471c14.462-17.58,33.053-31.451,47.077-49.381c14.011-17.939,23.126-42.439,14.493-63.49
		c-4.083-9.969-11.672-18.049-19.402-25.539c-39.035-37.949-85.334-67.631-125.71-104.16s-75.875-82.67-83.168-136.619
		c-2.073-15.352-2.868-33.102-15.163-42.512c-0.355-0.272-0.718-0.529-1.085-0.781"/>
	<path fill="none" stroke="#F4F4F4" stroke-linecap="round" stroke-miterlimit="10" d="M-32,2138.483
		c2.149,6.308,4.115,12.69,6.244,18.677c21.178,59.49,77.169,98.391,130.168,132.75c18.403,11.92,39.348,29.279,35.077,50.789
		c-2.54,12.811-13.479,21.891-22.642,31.182c-12.841,13.01-23.344,28.33-30.824,45c-9.053,20.18-13.714,42.189-23.779,61.869
		c-10.083,19.68-27.678,37.68-49.712,39.461c-15.824,1.269-30.21-5.797-44.532-13.588"/>
	<path fill="none" stroke="#F4F4F4" stroke-linecap="round" stroke-miterlimit="10" d="M-32,2224.802
		c0.933,2.813,1.812,5.623,2.641,8.407c7.871,26.41,15.491,55.461,37.604,71.932c15.926,11.859,37.759,15.658,50.428,30.949
		c4.348,5.23,7.386,12.061,6.311,18.779c-2.353,14.66-20.648,19.58-31.509,29.73c-8.992,8.398-12.856,20.729-18.03,31.898
		c-5.174,11.17-13.309,22.551-25.417,24.781c-7.66,1.399-14.858-1.122-22.028-4.476"/>
	<path fill="none" stroke="#F4F4F4" stroke-linecap="round" stroke-miterlimit="10" d="M41.877,2744.67
		c8.056,16.629,11.952,37.561,32.242,42.5c19.073,4.641,43.663-1.391,62.925-2.67c24.061-1.592,49.353-4.08,69.439-18.771
		l-0.03-0.039c17.438-12.76,28.003-32.641,41.889-49.189c23.266-27.74,57.689-46.641,93.858-48.221
		c35.826-1.561,70.031,13.189,104.58,22.852c34.548,9.658,74.441,13.479,103.754-7.201c42.263-29.811,44.554-97.318,88.141-125.139
		c9.303-5.92,19.992-9.631,28.563-16.58c23.109-18.771,23.142-54.16,15.489-82.951c-5.188-19.51-13.151-38.68-26.383-53.898
		c-13.229-15.24-32.272-26.199-52.453-26.512c-26.009-0.389-48.808,16.08-70.313,30.721c-21.505,14.631-46.891,28.689-72.229,22.779
		c-26.414-6.16-42.886-31.398-60.854-51.719c-26.009-29.391-64.671-52.441-103.131-44.602c-34.268,6.98-59.669,36.811-74.021,68.689
		c-14.353,31.9-20.306,66.881-32.148,99.781c-11.844,32.898-31.557,65.479-63.315,80.148c-20.71,9.561-44.818,10.67-64.577,22.051
		c-20.446,11.75-33.941,33.77-37.993,57C20.262,2692.658,29.441,2719.01,41.877,2744.67z"/>
	<path fill="none" stroke="#F4F4F4" stroke-linecap="round" stroke-miterlimit="10" d="M66.807,2690.98
		c2.478,19.699,10.238,41.109,28.206,49.539h0.031c13.713,6.439,30.169,4.6,44.88,4.74c9.226,0.09,18.685,1.18,27.474-2.24
		c25.93-10.119,42.792-41.02,61.663-59.949c30.576-30.67,72.51-48.59,115.395-54.67c42.887-6.09,86.77-0.949,128.75,9.721
		c14.789,3.76,29.702,8.25,44.958,7.84c15.256-0.4,31.34-6.701,39.1-19.85c12.481-21.182-0.811-50.41,11.11-71.922
		c10.38-18.729,35.857-24.229,47.811-41.979c10.129-15.051,7.621-36.529-3.692-50.711c-11.314-14.18-29.905-21.35-48.044-21.469
		c-39.161-0.27-73.491,28.609-112.574,31.061c-35.219,2.189-68.193-17.492-94.638-40.852c-20.087-17.73-42.807-39.641-69.159-34.76
		c-14.353,2.641-26.196,13.27-33.894,25.68c-7.7,12.402-11.875,26.602-16.27,40.51c-11.064,35.07-23.999,69.6-39.832,102.781
		c-12.528,26.25-28.174,52.979-53.699,66.939c-20.524,11.219-45.691,13.119-64.468,27.068c-5.611,4.182-10.645,9.58-12.64,16.301
		C65.716,2680,66.121,2685.58,66.807,2690.98z"/>
	<path fill="none" stroke="#F4F4F4" stroke-linecap="round" stroke-miterlimit="10" d="M282.089,2578.289v0.002h0.016
		c16.955,24.008,42.449,22.889,68.333,21.279c32.99-2.039,66.556,1.58,98.487,10.041c13.151,3.488,26.506,7.889,40.064,6.688
		c13.558-1.199,27.645-9.818,30.106-23.209c1.091-5.971-0.202-12.09-0.233-18.17c-0.063-12.4,5.469-24.73,14.772-32.93
		c7.263-6.381,16.411-10.189,24.312-15.75c7.899-5.561,14.96-14.031,14.492-23.689c-0.593-12.121-13.152-20.791-25.245-21.689
		c-12.094-0.9-23.796,3.828-35.203,7.988c-23.048,8.42-47.202,14.791-71.746,14.73s-49.664-7.041-68.426-22.859
		c-11.064-9.32-19.557-21.32-30.201-31.121c-10.644-9.799-24.715-17.561-39.021-15.379c-2.883,0.449-5.767,1.311-8.182,2.959
		c-5.235,3.57-7.511,10.25-7.947,16.58c-0.436,6.33,0.624,12.689,0.421,19.029c-0.53,16.16-9.101,30.84-13.355,46.441
		C268.142,2539.051,270.23,2561.5,282.089,2578.289z"/>
	<path fill="none" stroke="#F4F4F4" stroke-linecap="round" stroke-miterlimit="10" d="M327.853,2573.26
		c8.836,5.539,19.977,6,30.279,4.369c10.284-1.639,20.18-5.209,30.419-7.199h0.031c17.001-3.34,34.502-2.25,51.44,0.869
		c9.365,1.711,19.651,5.531,29.22,3.07c21.052-5.41,49.976-51.852,13.401-54.17c-7.605-0.48-15.054,1.92-22.472,3.621
		c-33.303,7.619-69.658,0.67-97.802-18.691c-8.82-6.059-18.435-13.68-28.938-11.58c-11.376,2.301-17.313,14.82-19.915,26.121
		C309.075,2538.93,311.101,2562.789,327.853,2573.26z"/>
	<path fill="none" stroke="#F4F4F4" stroke-linecap="round" stroke-miterlimit="10" d="M1044.621,2903.455
		c9.132,21.709,30.589,45.017,50.939,56.846c15.528,9.02,47.278,4.52,52.33-15.021c4.938-19.109-7.812-38.318-22.353-51.66
		c-14.539-13.34-32.01-24.479-41.34-41.869c-11.179-20.789-8.388-46.02-13.199-69.131c-3.881-18.539-12.689-35.67-22.52-51.859
		c-4.32-7.119-9.102-14.35-16.191-18.729c-7.09-4.381-17.109-5.1-23.279,0.51c-5.101,4.648-6.311,12.389-5.011,19.148
		c1.31,6.781,4.741,12.91,7.731,19.121c17.379,36.059,20.949,76.959,25.309,116.74
		C1038.377,2879.744,1039.877,2892.129,1044.621,2903.455"/>
	<polyline fill="none" stroke="#F4F4F4" stroke-linecap="round" stroke-miterlimit="10" points="1044.621,2903.455 
		1044.619,2903.449 1044.628,2903.471 1044.621,2903.455 	"/>
	<path fill="none" stroke="#F4F4F4" stroke-linecap="round" stroke-miterlimit="10" d="M693.68,2387.879
		c4.737,19.57,23.267,32.182,34.72,48.73c7.839,11.33,12.42,24.871,13.06,38.631c0.903,19.309-3.055,52.059,25.026,51.92
		c26.212-0.143,46.332,4.66,69.813,17.6l0.03-0.02c22.601,12.439,44.141,27.58,68.88,34.83c7.141,2.09,14.95,3.459,21.91,0.869
		c10.46-3.891,16.08-16.209,14.76-27.289c-1.34-11.063-8.34-20.75-16.75-28.08c-8.42-7.301-18.3-12.701-27.63-18.813
		c-33.489-21.92-61.06-55.488-68.01-94.898c-3.851-21.852-1.46-45.16-10.521-65.4c-3.181-7.109-7.771-13.68-13.882-18.5
		c-5.642-4.439-12.404-7.26-19.34-9.08c-27.566-7.229-58.826,2.191-77.808,23.451
		C696.812,2354.299,689.753,2371.619,693.68,2387.879z"/>
	<path fill="none" stroke="#F4F4F4" stroke-linecap="round" stroke-miterlimit="10" d="M739.769,2411.129
		c3.677,8.482,9.709,15.711,14.398,23.682c4.255,7.238,7.418,15.09,9.365,23.238c1.31,5.48,2.088,11.17,4.551,16.25
		c3.179,6.58,8.977,11.58,15.365,15.121c6.404,3.52,13.417,5.721,20.383,7.92c17.377,5.48,35.138,11.43,49.138,23.09h0.001v0.029
		c3.301,2.762,13.2,14.48,17.721,7.932c3.459-5-4.101-15.561-6.812-19.689c-3.81-5.82-8.37-11.08-13.271-15.99
		c-9.92-9.961-21.2-18.441-31.85-27.6c-7.931-6.83-15.613-14.232-20.708-23.381c-6.92-12.4-8.524-26.961-12.482-40.59
		c-3.942-13.641-11.563-27.711-24.902-32.592c-3.849-1.408-8.15-1.938-12.062-0.699c-8.166,2.621-12.109,12.029-12.717,20.59
		C735.343,2396.17,736.683,2404.02,739.769,2411.129z"/>
	<path fill="none" stroke="#F4F4F4" stroke-linecap="round" stroke-miterlimit="10" d="M635.24,2664.59
		c10.005,4.311,14.929-6.18,19.899-12.119c3.476-4.141,12.872-10.711,10.814-17.141v-0.02h0.001
		c-0.654-2.051-2.758-3.291-4.846-3.852c-6.234-1.689-12.919,1.031-17.969,5.051C637.78,2640.75,624.021,2659.76,635.24,2664.59z"/>
	<path fill="none" stroke="#F4F4F4" stroke-linecap="round" stroke-miterlimit="10" d="M722.596,2568.369
		c10.036-6.59,13.9-21.709,11.983-32.93c-0.608-3.641-1.917-7.379-4.722-9.83c-2.789-2.449-7.387-3.1-10.177-0.65
		c-1.418,1.24-2.181,3.051-2.897,4.801h-0.015c-3.18,7.68-6.639,15.42-8.978,23.43
		C704.83,2563.34,710.441,2576.369,722.596,2568.369z"/>
	<path fill="none" stroke="#F4F4F4" stroke-linecap="round" stroke-miterlimit="10" d="M1568,2680.625
		c-31.939,4.006-63.11,14.975-90.651,31.715c-33.75,20.529-73.18,50.51-107.948,31.76c-28.802-15.52-32.601-57.42-18.351-86.879
		c14.238-29.451,40.931-50.49,63.699-73.971c55.41-57.18,90.039-134.08,96.17-213.461c3.141-40.85-0.99-82.139,4.41-122.75
		c5.158-38.785,21.009-78.726,52.671-101.186"/>
	<path fill="none" stroke="#F4F4F4" stroke-linecap="round" stroke-miterlimit="10" d="M1568,2629.261
		c-3.466,0.443-6.908,1.067-10.312,1.948c-17.92,4.66-33.34,15.74-48.989,25.639c-25.229,15.961-52.109,29.303-80.08,39.75
		c-15.49,5.781-35.42,9.711-46.469-2.58c-8.642-9.617-6.951-25.158-0.07-36.1c6.891-10.93,17.789-18.57,27.76-26.77
		c24.119-19.82,43.98-44.24,63.671-68.471c18.391-22.631,37.041-45.711,47.909-72.76c9.472-23.621,12.591-49.26,15.222-74.57
		c5.549-53.49,9.289-107.18,11.237-160.939c0.673-18.65,1.521-38.57,12.4-53.73c2.251-3.143,4.851-5.925,7.721-8.365"/>
	<path fill="none" stroke="#F4F4F4" stroke-linecap="round" stroke-miterlimit="10" d="M1568,2511.347
		c-2.727,13.674-7.02,26.854-15.319,37.903c-7.841,10.439-19.67,20.699-17.58,33.58c1.7,10.41,12.58,17.219,23.08,18.27
		c3.286,0.325,6.559,0.232,9.819-0.119"/>
	<path fill="none" stroke="#F4F4F4" stroke-linecap="round" stroke-miterlimit="10" d="M1472.05,2638.869
		c0.039-3.59-0.83-7.479-3.621-9.76c-3.58-2.939-8.91-2.129-13.279-0.539c-5.721,2.09-11,5.229-16.801,7.061
		c-3.83,1.209-7.869,1.84-11.561,3.439c-4.719,2.061-8.709,5.719-11.17,10.25c-2.139,3.93-2.869,9.34,0.33,12.459
		c7.34,7.16,19.18,0.17,26-3.92c7.891-4.721,22.352-3.379,27.881-11.08l0.02,0.021
		C1471.47,2644.539,1472.009,2641.66,1472.05,2638.869z"/>
	<path fill="none" stroke="#F4F4F4" stroke-linecap="round" stroke-miterlimit="10" d="M1316.098,2622.309
		c14.931-14.551,33-25.631,47.642-40.5c17.23-17.51,29.01-39.57,39.969-61.551c19.541-39.24,37.4-79.98,44.25-123.27
		c5.011-31.59,2.341-68-21.389-89.461c-28.33-25.609-72.642-18.75-108.59-31.609c-26.892-9.6-48.271-30.01-72.121-45.73
		c-41.181-27.158-96.289-40.049-139.97-17.129c-31.101,16.33-52,48.201-83.489,63.77c-30.651,15.16-69.131,13.711-95.48,35.512
		c-28.461,23.549-30.67,72.289-4.439,98.318c11.189,11.109,25.829,17.83,39.909,24.92c35.069,17.682,68.661,39.281,95.69,67.771
		c56.48,59.51,79.73,146.16,70.779,227.699c-2.209,20.262-4.689,44.682,11.43,57.182c7.871,6.107,18.4,7.488,28.371,7.42
		l-0.011-0.043c30.37-0.24,62.32-13.02,83.809-34.789c20.221-20.5,19.821-54.531,28.051-80.65
		C1287.377,2658.359,1299.719,2638.279,1316.098,2622.309z"/>
	<path fill="none" stroke="#F4F4F4" stroke-linecap="round" stroke-miterlimit="10" d="M1277.858,2592.061
		c21.99-26.83,53.16-44.842,75.721-71.199c10.66-12.451,19.209-26.551,26.869-41.041c14.641-27.73,26.352-59.98,17.221-89.98
		c-5.971-19.59-20.42-35.84-37.541-47.08c-17.129-11.229-36.859-17.898-56.709-22.92c-15.041-3.799-30.359-6.768-44.77-12.479
		c-25.062-9.949-46.131-27.699-69.631-40.879c-23.5-13.182-52.35-21.723-77.23-11.393c-39.469,16.381-52.529,72.461-93.459,84.801
		c-8.68,2.619-17.891,2.932-26.671,5.131c-8.79,2.199-17.71,6.891-21.46,15.131c-4.62,10.148,0.201,22.469,8.101,30.33
		c7.899,7.869,18.359,12.479,28.069,17.949c21.021,11.84,39.17,28.1,57.051,44.318c20.93,18.99,41.949,38.33,57.869,61.689
		c35.381,51.859,42.131,119.041,31.971,180.99c-2.449,14.91-4.729,32.99,6.961,42.59c6.97,5.721,17.1,6.221,25.699,3.541h0.009
		c16.58-5.16,25.279-13.811,31.841-28.961c7.479-17.25,14.95-34.5,22.409-51.75
		C1250.599,2636.77,1261.229,2612.35,1277.858,2592.061z"/>
	<path fill="none" stroke="#F4F4F4" stroke-linecap="round" stroke-miterlimit="10" d="M1223.919,2614.869
		c11.971-40.42,52.67-66.621,82.642-93.621c12.228-11.02,24.599-22.189,33.778-35.879c12.11-18.041,18.142-40.48,14.84-61.971
		c-3.301-21.479-16.43-41.639-35.659-51.779c-20.38-10.771-44.911-9.74-66.771-17.051c-20.26-6.781-37.4-20.42-53.811-34.1
		c-10.779-8.98-21.65-18.23-34.529-23.781c-12.891-5.549-28.4-6.889-40.609,0c-25.531,14.373-25.39,55.652-51.271,69.352
		c-4.369,2.299-9.17,3.609-13.75,5.42c-9.581,3.75-19.491,12.4-17.229,22.459c0.78,3.471,2.94,6.461,5.14,9.271
		c36.919,47.041,98.72,73.16,125.479,126.641c17.391,34.77,16.869,75.859,10.25,114.17c-1.199,6.869-2.551,14.02-0.67,20.74
		c1.891,6.729,8.231,12.789,15.129,11.75c6.442-0.971,10.541-7.311,13.141-13.281c6.681-15.379,9.101-32.238,13.871-48.318
		L1223.919,2614.869z"/>
	<path fill="none" stroke="#F4F4F4" stroke-linecap="round" stroke-miterlimit="10" d="M1246.158,2537.592
		c23.099-14.82,42.519-35.41,55.729-59.48c6.58-11.988,11.75-25.779,8.851-39.129c-3.211-14.82-15.75-25.949-29.26-32.842
		c-13.521-6.879-28.43-10.578-42.191-16.949c-24.979-11.58-45.021-31.449-67.879-46.77c-6.23-4.191-12.859-8.102-20.23-9.561
		c-7.35-1.471-15.661-0.102-21.02,5.148c-9.349,9.15-6.541,25.65-14.73,35.881c-5.43,6.789-14.459,9.299-21.909,13.799
		c-7.44,4.51-13.91,13.891-9.671,21.48c2.802,5.029,9,6.85,14.552,8.439c30.25,8.65,59.08,23.951,80.549,46.961h-0.001v0.012
		c11.281,12.08,20.34,26.309,26.24,41.76c2.67,7.02,4.701,14.279,5.961,21.67c0.93,5.43,0.199,13.91,3.539,18.619
		C1221.479,2556.211,1238.898,2542.252,1246.158,2537.592z"/>
	<path fill="none" stroke="#F4F4F4" stroke-linecap="round" stroke-miterlimit="10" d="M1221.579,2467.189
		c2.59,4.48,4.82,9.172,6.59,14.031c1.359,3.709,1.812,12.33,4.459,15.02c7.291,7.42,19.422-8.068,23.75-13.59
		c5.111-6.51,9.99-13.801,10.521-22.061c0.739-11.68-7.341-21.99-15.91-29.939c-17.972-16.66-39.881-28.439-58.801-44.01
		c-7.5-6.17-14.771-13.07-23.921-16.311c-9.159-3.24-20.979-1.551-26.069,6.709c-3.129,5.08-3.1,11.461-2.449,17.391
		c0.73,6.66,2.28,13.52,6.471,18.74c6.609,8.24,17.92,10.469,27.879,13.99l0.01-0.02
		C1194.079,2434.221,1211.009,2448.93,1221.579,2467.189z"/>
	<path fill="none" stroke="#F4F4F4" stroke-linecap="round" stroke-miterlimit="10" d="M1568,1875.016
		c-6.414-0.609-12.774-1.511-19.042-2.885c-29.109-6.371-56.779-22.891-86.449-20.16c-21.51,1.979-41.74,14.82-52.68,33.439
		c-8.08,13.76-11.08,29.801-15.131,45.221c-11.33,43.139-31.66,83.279-51.84,123.049c-5.821,11.42-11.709,22.99-20.181,32.58
		c-14.448,16.35-35.051,25.58-53.66,36.98c-14.149,8.67-28.938,22.209-26.569,38.641c1.98,13.77,15.42,22.82,28.43,27.76
		c13.012,4.93,27.352,7.84,37.762,17.08c11.931,10.6,17.75,28.76,32.83,34.01c6.81,2.369,14.271,1.52,21.431,0.609l0.008-0.02
		c19.189-2.479,38.651-5.221,58.049-3.91c13.683,0.92,36.221,13.951,43.433,0.23c3.84-7.26,3.448-19.49,5.879-27.631
		c2.711-9.049,6.26-17.83,10.53-26.26c8.209-16.199,19.06-31.051,31.729-44.029c16.118-16.513,35.058-30.019,55.472-40.828"/>
	<path fill="none" stroke="#F4F4F4" stroke-linecap="round" stroke-miterlimit="10" d="M1568,1922.937
		c-11.879,0.758-23.75,0.812-35.231-2.056c-14.391-3.58-27.77-11.672-42.59-12.16c-15.35-0.49-29.858,7.359-41.529,17.33
		c-35,29.908-49.11,76.92-61.84,121.18c-5.079,17.66-10.391,35.699-21.271,50.49c-10.6,14.398-25.771,24.75-37.379,38.35
		c-7.59,8.881-13.83,20.369-11.471,31.811c2.12,10.33,10.829,18.121,20.211,22.92c22.799,11.67,83.959,19.449,104.239-0.84
		c9.439-9.461,11.609-28.26,16.84-40.148c7.729-17.57,17.921-34.25,31.921-47.563l0.009-0.01
		c21.577-20.527,49.421-31.11,78.091-40.572"/>
	<path fill="none" stroke="#F4F4F4" stroke-linecap="round" stroke-miterlimit="10" d="M1568,1956.139
		c-10.738,2.146-21.503,4.139-32.349,3.271c-9.73-0.779-19.25-3.84-28.99-3.529c-14.48,0.469-27.711,8.309-38.93,17.469
		c-21.181,17.291-37.76,40.111-47.642,65.59c-9.33,24.08-13.039,50.9-28.26,71.75c-9.25,12.65-22.51,22.75-28.09,37.381
		c-0.681,1.811-1.26,3.73-1.07,5.66c0.529,5.891,7.312,8.93,13.17,9.801c19.931,2.979,44.271-6.92,54.65-24.791
		c10.24-17.629,11.84-36.141,26.83-52.029l-0.032,0.01c10.32-10.951,23.08-19.291,36.061-26.891
		c23.787-13.943,48.804-25.771,74.651-35.354"/>
	<path fill="none" stroke="#F4F4F4" stroke-linecap="round" stroke-miterlimit="10" d="M1555.249,1991.84
		c-8.59-9.459-22.801-12.141-35.359-9.779c-12.561,2.35-23.86,9-34.641,15.84c-13.42,8.529-27.82,19.641-29.25,35.49
		c-0.25,2.68-0.051,5.51,1.359,7.811c6.391,10.33,34.333-14.756,42.201-18.84c15.677-8.138,50.839-10.115,58.389-23.971
		C1558.796,1996.835,1556.899,1993.67,1555.249,1991.84z"/>
	<path fill="none" stroke="#F4F4F4" stroke-linecap="round" stroke-miterlimit="10" d="M1568,1597.109
		c-3.572,1.201-7.17,2.313-10.85,3.121c-32.382,7.08-66.961-10-98.781-0.67c-8.279,2.43-15.959,6.578-23.25,11.209
		c-24.08,15.33-45.521,38.779-48.139,67.221c-3.011,32.729,18.159,61.109,29.299,90.279c2.801,7.34,5.19,14.881,6.42,22.67
		c1.229,7.75-1.39,18.381,1.42,25.5c5.642,14.359,34.11,0.121,45.729,0.121h0.02c22.92,0.02,44.102,11.25,64.701,21.32
		c10.69,5.215,21.935,10.242,33.431,13.306"/>
	<path fill="none" stroke="#F4F4F4" stroke-linecap="round" stroke-miterlimit="10" d="M1568,1629.123
		c-5.466,0.805-10.973,1.992-16.392,2.607c-19.06,2.15-38.23-2.961-57.4-2.24c-18.109,0.682-36.26,6.92-49.77,18.99
		c-13.5,12.08-21.859,30.27-20.379,48.33c1.459,18.068,12.028,33.91,19.397,50.471c5.44,12.219,9.239,25.219,10.562,38.51
		c0.25,2.539,0.438,5.17,1.579,7.459c2.521,5.131,9.101,7.051,14.771,6.313c5.67-0.74,10.852-3.5,16.24-5.422
		c17.44-6.221,36.881-3.551,54.489,2.15c9.156,2.969,18.027,6.722,26.902,10.468"/>
	<path fill="none" stroke="#F4F4F4" stroke-linecap="round" stroke-miterlimit="10" d="M1568,1667.689
		c-0.064-0.018-0.126-0.043-0.19-0.061c-15.131-4.09-30.73,5.869-46.352,4.631c-7.879-0.631-15.219-4.09-22.869-6.07
		c-8.58-2.209-17.881-2.539-26.08,0.771c-8.209,3.299-15.06,10.658-16.229,19.408c-1.979,14.82,11.53,26.992,15.25,41.471
		c1.81,7.09,1.22,14.541,1.78,21.83c0.559,7.301,2.648,15.061,8.369,19.619c8.4,6.721,20.52,3.961,31.121,2.201l0.03-0.031
		c18.285-3.031,37.34-1.928,55.17,3.173"/>
	<path fill="none" stroke="#F4F4F4" stroke-linecap="round" stroke-miterlimit="10" d="M1550.97,1701.391
		c-1.451-1.158-3.022-2.221-4.802-2.75c-1.899-0.549-3.91-0.459-5.869-0.439c-7.141,0.08-14.282-0.811-21.182-2.629
		c-7.818-2.08-16.397-5.291-23.609-1.641c-1.319,0.67-2.589,1.619-3.149,2.988c-0.529,1.313-0.34,2.781-0.15,4.182
		c0.841,6.141,1.682,12.279,2.521,18.42c1.039,7.68,2.148,15.529,5.59,22.479c1.41,2.83,3.309,5.58,6.139,6.939
		c2.361,1.121,5.07,1.15,7.67,1.15c14.23,0.02,49.25,5.461,51.07-15.488C1566.269,1722.102,1560.758,1709.232,1550.97,1701.391z"/>
	<path fill="none" stroke="#F4F4F4" stroke-linecap="round" stroke-miterlimit="10" d="M-32,1949.99
		c3.345,3.152,6.784,6.182,10.248,9.088c21.769,18.281,46.188,34.631,61.195,58.771c14.322,23.041,18.654,51.029,31.806,74.77
		c24.046,43.381,72.822,65.621,117.764,86.621h-0.001v0.018c24.435,11.42,48.948,23.83,70.016,40.859
		c17.173,13.9,27.801,34.73,46.002,46.762c49.728,32.85,106.701,58.68,158.812,87.859c11.422,6.391,23.313,12.939,36.355,13.869
		c35.141,2.529,61.632-35.109,96.664-38.77c12.248-1.279,24.948,1.75,36.775-1.65c16.939-4.85,27.458-21.158,40.688-32.801
		c27.24-23.969,65.949-28.02,100.902-37.719c34.969-9.689,72.599-32.1,76.109-68.201c3.52-36.27-29.5-68.031-27.91-104.43
		c1.81-41.289,44.52-66.021,74.08-94.92c42.641-41.65,62.35-103.449,59.55-162.98c-2.811-59.529-26.53-116.75-60.14-165.969
		c-36.921-54.059-94.061-102.801-159.402-98.951c-30.729,1.813-59.403,15.072-88.201,25.932
		c-44.101,16.609-91.147,28.02-138.115,24.26c-76.109-6.09-146.265-51.27-222.608-49.91c-30.093,0.531-62.381,10.1-79.804,34.66
		c-22.423,31.6-13.167,76.309-29.607,111.4c-15.429,32.959-50.771,51.77-85.537,62.52c-34.751,10.74-71.605,15.93-103.91,32.67
		c-7.608,3.938-14.964,8.773-21.732,14.324"/>
	<path fill="none" stroke="#F4F4F4" stroke-linecap="round" stroke-miterlimit="10" d="M-2.407,1899.33
		c13.791,32.24,33.457,61.961,57.752,87.24c12.965,13.48,27.348,25.859,37.571,41.529c11.875,18.17,17.484,39.801,28.813,58.311
		c20.974,34.27,58.936,54.07,96.273,68.91c37.339,14.83,76.796,26.879,108.196,51.939c34.579,27.602,58.656,70.291,100.294,85.25
		c26.336,9.48,55.353,6,83.122,2.4l-0.014-0.01c43.913-5.689,81.142-14.51,119.539-36.539c17.063-9.791,37.446-11.189,56.739-17.25
		c22.082-6.939,43.369-16.4,63.269-28.199c5.859-3.471,11.75-7.291,15.739-12.82c7.621-10.572,6.67-24.871,4.894-37.771
		c-4.176-30.301-11.174-61.141-5.111-91.119c12.653-62.492,76.172-100.449,107.071-156.221c42.54-76.779,12.41-181.15-56.78-235.16
		c-69.194-54.01-167.525-61.26-250.429-32.41c-16.798,5.842-33.27,13.061-50.816,15.91c-72.541,11.77-147.966-52.359-215.348-23.02
		c-65.34,28.459-73.553,124.449-134.188,161.879c-43.322,26.742-100.996,15.742-146.998,37.561
		c-10.363,4.92-20.554,12.191-24.466,22.971C-11.601,1874.57-7.363,1887.721-2.407,1899.33z"/>
	<path fill="none" stroke="#F4F4F4" stroke-linecap="round" stroke-miterlimit="10" d="M91.806,1964.23
		c19.916,17.148,44.568,29.289,60.464,50.209c18.996,25.02,23.281,59.84,45.706,81.83c24.435,23.949,62.287,25.42,94.638,36.51
		c26.602,9.121,50.63,25.621,68.707,47.18c17.906,21.361,30.793,48.162,54.683,62.521c29.873,17.93,67.912,11.199,101.604,2.289
		l0.029-0.02c36.122-9.57,71.746-20.99,106.685-34.24c17.218-6.529,50.708-13.16,63.065-28.279
		c13.34-16.32,5.563-50.16,8.088-70.021c6.935-54.68,30.871-107.238,68.209-147.869c27.597-30.029,63.923-56.951,71.233-97.1
		c3.88-21.25-1.301-43.021-7.03-63.84c-3.819-13.822-8.069-27.941-16.83-39.301c-8.087-10.49-19.448-17.91-30.73-24.84
		c-48.215-29.641-102.319-55.17-158.826-52.041c-53.544,2.961-104.892,31.529-158.14,25.08
		c-25.214-3.059-48.792-13.84-73.382-20.199c-24.607-6.359-52.58-7.73-73.632,6.5c-24.872,16.811-32.321,49.27-46.019,76
		c-21.893,42.711-64.514,74.211-111.778,82.609c-17.204,3.051-34.938,3.221-51.847,7.66c-16.924,4.451-33.706,14.25-40.532,30.35
		C55.902,1919.418,71.875,1947.09,91.806,1964.23z"/>
	<path fill="none" stroke="#F4F4F4" stroke-linecap="round" stroke-miterlimit="10" d="M365.882,2147.08
		c10.893,23.93,54.791,45.92,79.584,52.23c35.358,9.01,75.549-0.281,110.61-5.561c23.516-5.131,47.42-13.279,64.438-30.279
		c35.748-35.721,28.813-94.9,47.777-141.74c16.938-41.83,53.654-71.67,83.371-105.631c15.412-17.619,29.672-38.01,31.729-61.318
		c1.777-20.102-5.891-40.109-17.234-56.801c-11.47-16.881-28.439-31.85-48.792-33.43c-9.911-0.762-19.837,1.729-29.078,5.408
		c-52.688,20.961-82.188,75.941-107.292,126.791c-25.089,50.85-54.433,105.869-107.026,127.061
		c-15.988,6.459-33.302,9.311-49.119,16.148c-30.854,13.352-54.37,42.48-60.946,75.451
		C361.799,2125.959,361.425,2137.289,365.882,2147.08z"/>
	<path fill="none" stroke="#F4F4F4" stroke-linecap="round" stroke-miterlimit="10" d="M428.291,2156.971
		c13.854,8.43,34.704,4.75,49.992,4.75c27.1-0.012,53.653,2.51,77.948-12.25c20.445-12.4,34.05-33.609,43.541-55.551
		c9.506-21.939,15.599-45.24,25.197-67.15c17.204-39.27,45.146-72.979,63.688-111.619c4.005-8.34,7.621-17.32,6.856-26.529
		c-0.765-9.211-7.276-18.561-16.456-19.57c-7.684-0.84-14.741,4.051-20.508,9.189c-30.169,26.92-46.501,65.58-68.612,99.432
		c-26.135,39.979-62.241,74.729-106.685,92.229c-22.627,8.92-51.332,14.5-64.483,37.42
		C409.809,2122.951,411.851,2146.961,428.291,2156.971z"/>
	<path fill="none" stroke="#F4F4F4" stroke-linecap="round" stroke-miterlimit="10" d="M722.699,1852.529
		c8.134,10.5,18.062,22.611,26.008,2.01c2.619-6.799,2.136-14.389,0.765-21.52c-1.994-10.35-5.937-20.609-13.121-28.32
		c-7.184-7.73-17.967-12.539-28.361-10.799c-10.395,1.76-19.558,11.07-19.417,21.6
		C699.839,1827.699,712.538,1839.41,722.699,1852.529z"/>
	<path fill="none" stroke="#F4F4F4" stroke-linecap="round" stroke-miterlimit="10" d="M158.938,1962.971
		c16.488,8.459,35.531,13.74,47.638,27.77c16.051,18.57,15.116,47,29.281,67.07l0.013,0.012
		c15.242,21.619,62.334,39.41,87.767,26.818c14.134-6.979,18.279-24.17,26.227-36.488c10.457-16.211,24.917-29.83,41.811-39.15
		c17.454-9.641,37.604-14.971,52.438-28.301c13.838-12.42,21.287-30.201,30.402-46.389c12.016-21.332,27.537-40.672,45.77-57.021
		c13.574-12.17,28.643-22.699,41.063-36.041c12.421-13.34,22.237-30.359,22.081-48.578c-0.154-18.23-12.839-37.02-30.9-39.49
		c-8.508-1.16-17.033,1.219-25.401,3.068c-32.009,7.111-65.669,6.742-97.521-1.068c-29.203-7.15-61.228-20.17-87.642-5.801
		c-23.484,12.779-31.666,41.66-44.662,65.029c-20.93,37.652-59.577,64.951-102.057,72.09c-13.027,2.18-26.475,2.6-38.942,6.951
		c-12.465,4.35-24.293,13.789-26.647,26.789C126.353,1938.471,142.45,1954.51,158.938,1962.971z"/>
	<path fill="none" stroke="#F4F4F4" stroke-linecap="round" stroke-miterlimit="10" d="M196.868,1944.189
		c4.784,10.65,17.298,14.791,27.536,20.391c15.847,8.66,28.376,23.25,34.563,40.219c2.4,6.592,3.896,13.541,6.935,19.871v-0.021
		c11.188,23.25,37.104,13.07,53.108,0.561c16.923-13.229,32.694-28.201,49.633-41.58c8.648-6.82,17.312-13.68,26.788-19.27
		c6.062-3.57,12.466-6.66,17.952-11.07c6.42-5.15,11.359-11.949,15.613-19.01c14.104-23.42,22.41-51.77,44.227-68.24
		c10.269-7.76,23.437-12.809,29.732-24.029c4.723-8.41,4.536-18.621,4.224-28.279c-0.279-8.682-1.993-19.393-10.237-22.102
		c-2.183-0.721-4.52-0.721-6.811-0.641c-29.406,0.971-57.877,12.42-87.299,11.961c-13.37-0.219-26.616-2.9-39.986-2.861
		c-13.371,0.051-27.536,3.32-36.824,12.941c-8.898,9.219-11.764,22.469-16.612,34.33c-12.887,31.51-42.714,55.469-76.249,61.27
		c-8.478,1.471-17.391,1.932-24.934,6.061C198.068,1920.258,192.115,1933.629,196.868,1944.189z"/>
	<path fill="none" stroke="#F4F4F4" stroke-linecap="round" stroke-miterlimit="10" d="M259.444,1947.58
		c0.857,2.639,2.727,4.789,4.566,6.859c6.981,7.9,13.963,15.791,20.943,23.67c3.321,3.76,6.748,7.609,11.221,9.871
		c6.904,3.49,15.381,2.648,22.425-0.531s12.918-8.449,18.466-13.84l-0.012-0.021c17.109-16.621,32.226-35.699,53.543-47.07
		c20.398-10.879,22.3-27.629,33.69-45.939c4.848-7.799,12.529-13.389,18.202-20.609c5.671-7.229,9.146-17.709,4.191-25.439
		c-5.174-8.111-16.894-8.98-26.103-6.219c-9.21,2.76-17.578,8.209-27.053,9.85c-13.2,2.289-27.818-2.92-39.645,3.379
		c-14.276,7.6-16.13,26.91-24.14,40.951c-12.903,22.648-41.296,30.48-61.508,46.92C262.671,1933.93,257.247,1940.76,259.444,1947.58
		z"/>
	<path fill="none" stroke="#F4F4F4" stroke-linecap="round" stroke-miterlimit="10" d="M307.232,1946.328
		c11.376,19.262,40.142-8.119,44.74-19.68c8.867-22.318,26.101-26.059,42.916-40.848c2.012-1.762,3.881-3.92,4.286-6.561
		c0.748-5-4.52-9.32-9.584-9.33c-5.065,0-9.615,3.01-13.48,6.279c-16.456,13.93-27.24,34.801-46.547,44.381
		c-5.797,2.879-12.233,4.66-17.298,8.689C307.201,1933.299,303.944,1940.748,307.232,1946.328z"/>
	<path fill="none" stroke="#F4F4F4" stroke-linecap="round" stroke-miterlimit="10" d="M692.864,1722.76
		c-0.357-2.061-1.276-4.07-2.789-5.5c-2.025-1.898-4.878-2.641-7.62-3.119c-12.03-2.141-24.637-0.971-36.075,3.33
		c-5.049,1.91-9.911,4.41-15.193,5.539c-4.925,1.031-10.021,0.82-15.054,0.602c-5.424-0.23-10.831-0.461-16.237-0.701
		c-3.647-0.15-7.48-0.279-10.737,1.359h0.045c-17.281,8.65,21.489,25.4,29.125,26.74c7.434,1.311,13.995-1.25,20.976-3.52
		c8.853-2.881,16.939-3.65,26.228-4.08c6.482-0.32,13.168-1.141,18.73-4.49C689.826,1735.58,693.971,1729.15,692.864,1722.76z"/>
	<path fill="none" stroke="#F4F4F4" stroke-linecap="round" stroke-miterlimit="10" d="M953.889,2016.508
		c-22.22,23.42-53.72,38.631-69.21,66.961c-23.979,43.842,3.41,102.012,52.949,111.439c22.301,4.229,40.75-11.971,58.44-23.18
		c24.14-15.301,49.71-21.529,75.851-32.131l-0.019-0.027c18.969-7.682,36.198-19.041,53.278-30.311
		c30.359-20.041,60.711-40.07,91.07-60.109c27.609-18.211,55.869-37.041,75.221-63.871c13.949-19.33,22.58-41.869,31.06-64.141
		c6.76-17.75,13.569-35.67,16.28-54.469c3.011-20.852,0.89-42.092-2.131-62.922c-2.25-15.51-5.051-31.17-11.75-45.318
		c-8.59-18.141-23.029-32.721-37.209-46.939c-7.271-7.291-14.871-14.791-24.551-18.291c-9.1-3.311-19.1-2.709-28.77-2.029
		c-41.671,2.92-85.531,7.42-119.5,31.73c-13.302,9.52-24.451,21.689-35.461,33.789c-15.109,16.59-30.289,33.391-41.73,52.711
		C999.438,1874.061,1005.608,1962,953.889,2016.508z"/>
	<path fill="none" stroke="#F4F4F4" stroke-linecap="round" stroke-miterlimit="10" d="M1055.868,1883.83
		c-8.568,20.461-13.219,42.359-21.209,63.051c-15.15,39.209-41.841,72.789-69.781,104.189h-0.021
		c-15.33,17.221-33.439,37.262-36.28,61.17c-3.909,32.861,18.81,32.572,44.45,30.932c46.59-2.959,84.711-29.201,119.01-58.98
		c27.84-24.17,55.691-48.361,83.541-72.551c12.529-10.889,25.09-21.799,36.459-33.889c22.692-24.121,40.272-52.5,57.682-80.66
		c6.789-11,13.699-22.25,16.8-34.811c3.211-13.049,2.12-26.73,1.01-40.109c-2.619-31.58-8.279-68.17-35.859-83.75
		c-10.59-6-23.01-7.811-35.141-9.012c-15.77-1.549-32.219-2.189-46.949,3.701c-18.481,7.379-31.51,23.869-43.311,39.908
		c-14.63,19.9-28.73,40.17-42.279,60.82C1073.489,1849.859,1063.269,1866.17,1055.868,1883.83z"/>
	<polyline fill="none" stroke="#F4F4F4" stroke-linecap="round" stroke-miterlimit="10" points="990.05,2071.8 990.049,2071.801 
		990.05,2071.801 990.05,2071.8 	"/>
	<path fill="none" stroke="#F4F4F4" stroke-linecap="round" stroke-miterlimit="10" d="M990.05,2071.8v-0.021
		c-27.351,26.76,1.739,45.58,29.729,33.041c23.08-10.352,41.67-37.871,56.68-57.051c52.781-67.51,119.853-125.73,155.301-203.74
		c6.591-14.51,12.109-30.369,9.66-46.129c-2.45-15.75-15.241-30.881-31.18-30.9c-8.49,0-16.431,4.1-23.631,8.6
		c-57.14,35.689-89.761,99.801-112.931,163.07c-8.801,24.031-16.75,48.631-29.949,70.561
		C1029.519,2032.85,1009.74,2052.519,990.05,2071.8"/>
	<polyline fill="none" stroke="#F4F4F4" stroke-linecap="round" stroke-miterlimit="10" points="1152.58,1908.159 1152.579,1908.16 
		1152.58,1908.16 1152.58,1908.159 	"/>
	<path fill="none" stroke="#F4F4F4" stroke-linecap="round" stroke-miterlimit="10" d="M1152.58,1908.159
		c12.42-10.88,25.878-20.839,35.868-33.989c12.41-16.35,18.59-36.51,23.102-56.539c0.51-2.311,0.979-4.891-0.25-6.922
		c-1.051-1.709-3.061-2.578-5.021-3.039c-13.49-3.109-25.59,8.449-34.109,19.359c-21.479,27.471-39.33,57.58-57.131,87.58
		c-6.438,10.859-21.08,30.811-16.889,43.711c19.629-4.15,39.778-37.361,54.43-50.182V1908.159"/>
	<path fill="none" stroke="#F4F4F4" stroke-linecap="round" stroke-miterlimit="10" d="M1568,876.014
		c-12.786,7.149-24.616,16.386-35.001,26.586c-18.109,17.801-33.359,39.359-39.359,64.029c-6,24.671-1.58,52.69,15.389,71.551
		c10.82,12.01,25.642,19.49,38.761,28.92c7.216,5.191,13.953,11.025,20.211,17.345"/>
	<path fill="none" stroke="#F4F4F4" stroke-linecap="round" stroke-miterlimit="10" d="M1568,912.547
		c-6.885,4.021-13.272,8.871-18.929,14.521c-19.35,19.34-29.5,47.96-25.051,74.97c1.311,8.011,3.939,16,9.02,22.341
		c8.102,10.101,21.08,14.59,32.57,20.56c0.805,0.418,1.597,0.857,2.39,1.294"/>
	<path fill="none" stroke="#F4F4F4" stroke-linecap="round" stroke-miterlimit="10" d="M1568,950.953
		c-6.906,7.33-11.646,16.718-12.981,26.707c-1.897,14.261,3.216,29.152,12.981,39.641"/>
	<path fill="none" stroke="#F4F4F4" stroke-linecap="round" stroke-miterlimit="10" d="M-32,1177.499
		c29.957,19.743,61.578,37.336,85.887,63.521c26.991,29.08,42.87,66.5,58.22,103.091c12.419,29.62,24.95,59.549,30.559,91.189
		c3.069,17.329,4.067,35.17,9.739,51.829c5.657,16.66,17.19,32.602,34.003,37.801c25.276,7.81,50.194-10.36,74.286-21.271
		c28.113-12.73,60.448-15.92,90.509-8.96c28.205,6.551,53.622,21.489,80.41,32.489l0.046,0.041
		c114.273,46.92,320.068,19.19,339.313-131.2c5.189-40.529-1.65-81.779,2.291-122.46c5.906-60.91,35.376-116.561,59.235-172.92
		c29.091-68.74,50.69-143.42,40.971-217.42c-9.729-74.01-56.88-146.81-128.272-168.619c-55.43-16.92-115.644-1.49-168.783,21.601
		c-63.938,27.79-127.02,67.489-196.663,64.58c-40.252-1.681-78.369-17.721-117.81-25.931c-39.442-8.21-84.899-6.95-114.445,20.431
		c-37.305,34.579-35.342,96.989-70.654,133.609c-24.59,25.5-61.772,32.989-96.118,41.619c-4.215,1.06-8.47,2.196-12.723,3.427"/>
	<path fill="none" stroke="#F4F4F4" stroke-linecap="round" stroke-miterlimit="10" d="M-32,1123.91
		c42.222,35.175,97.527,56.554,138.51,94.39h0v-0.021c47.482,43.84,71.465,105.8,87.547,166.96
		c5.034,19.17,5.454,55.59,19.511,70.72c21.006,22.591,56.474,1.15,79.085-6.329c42.652-14.12,89.355-2.819,131.664,12.279
		c42.308,15.1,84.384,34.22,129.279,35.859c48.402,1.76,98.254-19.19,126.85-58.271c28.58-39.08,32.646-96.039,5.703-136.289
		c-19.729-29.47-52.641-47.58-74.77-75.28c-27.552-34.521-35.826-80.661-36.637-124.811c-0.826-44.149,4.861-88.409,1.122-132.399
		c-3.756-43.989-18.56-89.54-52.407-117.899c-8.928-7.5-19.26-13.721-30.698-15.91c-15.678-3.03-31.649,1.71-47.171,5.439
		c-46.563,11.18-95.216,13.6-142.666,7.07c-42.621-5.859-90.992-17.47-124.887,9.02c-25.791,20.15-33.162,55.461-50.396,83.28
		c-29.453,47.52-86.161,70.53-140.796,82.41c-6.273,1.362-12.638,2.651-18.844,4.347"/>
	<path fill="none" stroke="#F4F4F4" stroke-linecap="round" stroke-miterlimit="10" d="M34.369,1113.05
		c15.849,14.78,39.801,15.64,59.81,23.95c20.491,8.51,36.604,24.789,52.11,40.649c25.854,26.449,52.547,54.25,63.721,89.521
		c8.462,26.72,7.247,55.6,13.869,82.84c6.639,27.24,25.183,55.189,53.03,58.479c18.98,2.25,37.244-7.53,56.24-9.601
		c17.329-1.899,34.642,2.641,51.472,7.141c21.365,5.7,42.729,11.409,64.096,17.109c14.976,4.011,25.774,12.341,39.861,17.16
		c35.406,12.109,80.083,5.529,113.447-9.51h0.028c15.21-6.859,29.998-16.579,37.961-31.239c13.263-24.42,3.726-55.59-13.09-77.72
		c-16.814-22.131-39.986-38.541-58.609-59.15c-29.109-32.21-46.453-74.819-48.137-118.189c-0.779-20.33,1.745-40.641,3.102-60.96
		c2.447-36.989,0.92-74.25-4.551-110.92c-2.118-14.261-5.11-29.05-14.041-40.38c-15.271-19.381-43.166-23.061-67.771-21.221
		c-33.27,2.479-66.338,12.2-99.483,8.37c-18.03-2.091-35.421-8.141-53.451-10.16c-39.707-4.479-81.19,12.21-106.731,42.939
		c-9.927,11.96-17.484,25.721-27.317,37.761c-18.045,22.13-43.711,37.92-71.604,44.02c-11.798,2.591-24.218,3.57-34.86,9.28
		C19.316,1056.151,14.33,1094.35,34.369,1113.05z"/>
	<path fill="none" stroke="#F4F4F4" stroke-linecap="round" stroke-miterlimit="10" d="M127.149,1119.27
		c9.989,9.48,22.362,15.971,33.925,23.471c59.419,38.46,98.548,106.54,101.9,177.24c0.655,13.859,0.577,29.3,10.098,39.409h-0.001
		v0.04c11.672,12.4,29.78,9.439,44.537,5.78c14.243-3.521,26.399-4.149,41.171-2.149c37.557,5.05,72.821,20.16,107.729,34.14
		c20.789,8.341,42.448,16.47,64.826,15.569c22.394-0.909,45.831-13.14,53.077-34.33c5.158-15.068,1.341-32.01-6.327-45.959
		c-7.666-13.94-18.87-25.551-29.592-37.341c-29.375-32.279-56.662-68.579-66.525-111.109c-11.905-51.36,2.977-105.011-0.203-157.641
		c-1.044-17.25-4.378-35.179-15.114-48.729c-13.324-16.811-35.702-23.82-57.082-25.6c-22.97-1.921-46.345,1.199-68.006,9.069
		c-8.96,3.26-17.734,7.321-27.147,8.771c-9.785,1.5-19.743,0.08-29.592-0.881c-27.91-2.73-58.547-0.86-80.115,17.07
		c-13.525,11.24-21.94,27.59-35,39.37c-10.472,9.44-23.469,15.55-34.969,23.72c-11.501,8.16-22.035,19.551-23.593,33.58
		C109.617,1096.459,117.144,1109.8,127.149,1119.27z"/>
	<path fill="none" stroke="#F4F4F4" stroke-linecap="round" stroke-miterlimit="10" d="M184.153,1082.801
		c0.733,8.12,5.003,15.521,10.005,21.949c17.157,22.011,43.307,35.291,61.835,56.141c9.786,11,17.22,23.851,24.575,36.62
		c7.76,13.45,15.6,27.101,19.541,42.12c3.086,11.779,3.678,24.06,6.249,35.97c2.182,10.051,4.909,24.511,10.924,33.051
		c7.356,10.439,14.649,5.199,25.136,4.16c24.747-2.45,49.743,9.319,70.173,22.029l0.032,0.019
		c26.335,16.391,51.456,36.96,81.921,42.85c9.74,1.891,20.072,2.12,29.359-1.398c9.272-3.521,17.313-11.301,19.262-21.021
		c2.415-12.109-4.878-24.31-14.354-32.239c-9.474-7.921-21.067-12.811-31.478-19.45c-34.438-21.939-53.889-61.949-61.071-102.149
		c-7.185-40.189-3.787-81.41-2.15-122.21c0.67-16.67,0.997-33.67-3.679-49.689c-4.675-16.021-15.146-31.17-30.59-37.489
		c-16.877-6.91-36.263-2.25-52.969,5.039c-16.704,7.301-32.49,17.211-50.271,21.229c-16.534,3.721-33.863,2.12-50.506,5.359
		c-18.965,3.681-36.621,13.811-49.383,28.311C189.188,1060.562,183.141,1071.44,184.153,1082.801z"/>
	<path fill="none" stroke="#F4F4F4" stroke-linecap="round" stroke-miterlimit="10" d="M250.897,1107.069
		c5.236,6.021,12.108,10.351,18.622,14.96c32.476,22.931,59.295,56.239,66.697,95.29c2.68,14.119,2.711,28.79,6.731,42.641
		c4.176,14.399,8.633,16.13,21.427,21.16c30.217,11.88,59.514,27.77,87.625,43.93v-0.029c4.192,2.42,8.571,4.931,13.388,5.181
		c4.83,0.261,10.19-2.54,11.096-7.3c1.169-6.181-5.175-10.891-10.488-14.29c-16.02-10.24-29.981-23.671-40.844-39.271
		c-30.855-44.301-34.596-101.771-32.398-155.71c0.687-16.811,1.793-34.03-3.101-50.13c-4.894-16.101-17.344-31.131-33.971-33.721
		c-12.562-1.949-25.105,3.359-35.951,9.989c-10.846,6.601-20.944,14.69-32.819,19.229c-8.228,3.15-17.079,4.5-25.197,7.91
		c-8.119,3.4-15.881,9.561-17.798,18.16C242.171,1092.859,245.645,1101.04,250.897,1107.069z"/>
	<path fill="none" stroke="#F4F4F4" stroke-linecap="round" stroke-miterlimit="10" d="M330.069,1131.18
		c8.865,20.89,19.679,38.82,22.953,61.881c2.431,17.109,2.337,36.14,13.729,49.129c1.917,2.182,4.239,4.19,7.075,4.801
		c6.764,1.449,12.686-6.029,12.576-12.93c-0.11-6.921-4.13-13.061-7.652-19c-20.928-35.2-28.906-77.91-22.112-118.311
		c1.636-9.74,3.443-21.471-4.005-27.939c-6.545-5.671-17.47-3.391-23.235,3.069C316.464,1086.44,323.227,1115.05,330.069,1131.18z"
		/>
	<path fill="none" stroke="#F4F4F4" stroke-linecap="round" stroke-miterlimit="10" d="M732.66,1214.661
		c4.612-10.689,3.022-25.149,5.127-36.54c3.319-17.931,8.618-35.55,15.475-52.431c7.931-19.49,18.075-38.1,30.276-55.26
		c10.332-14.521,22.128-28.119,30.42-43.91c12.78-24.33,16.471-52.609,14.852-80.039c-1.621-27.42-8.291-54.271-15.291-80.841
		c-7.742-29.42-17.264-60.87-41.402-79.399c-23.188-17.801-54.821-19.561-83.948-17.021c-22.767,2-45.533,6.22-66.603,15.069
		c-13.152,5.53-25.775,13-35.188,23.721c-9.413,10.721-15.366,25.01-13.947,39.21c1.838,18.431,15.101,33.319,24.763,49.12
		c15.349,25.1,22.284,54.689,23.764,84.08c1.481,29.391-2.274,58.8-6.996,87.85c-3.288,20.301-7.075,40.7-6.403,61.261
		c0.67,20.55,6.201,41.641,19.541,57.28c7.543,8.85,17.22,15.6,27.084,21.76C671.915,1219.661,719.709,1244.611,732.66,1214.661z"/>
	<path fill="none" stroke="#F4F4F4" stroke-linecap="round" stroke-miterlimit="10" d="M648.772,1129.989
		c1.106,19.089,8.072,36.479,28.362,40.609c13.947,2.851,27.052,2.451,36.761-8.649c14.461-16.52,22.675-40.87,32.366-60.319
		c11.035-22.131,22.067-44.24,33.101-66.37c4.706-9.46,9.459-18.979,12.451-29.109c4.036-13.67,4.799-28.08,5.018-42.34
		c0.265-17.83-0.296-35.671-1.684-53.45c-2.4-30.86-8.541-64.029-31.229-85.091c-24.218-22.479-61.446-24.979-93.549-17.14
		c-12.466,3.06-24.84,7.581-34.922,15.521c-10.082,7.929-17.671,19.699-18.356,32.529c-0.842,15.98,8.681,30.381,15.974,44.641
		c26.35,51.601,25.571,112.61,19.354,170.22c-2.119,19.6-4.8,39.271-3.662,58.95v-0.001H648.772z"/>
	<path fill="none" stroke="#F4F4F4" stroke-linecap="round" stroke-miterlimit="10" d="M671.31,928.792
		c4.146,16.689,10.052,32.979,12.841,49.949c6.39,38.88-3.88,78.521-3.007,117.92c0.404,18.34,12.685,36.54,28.221,17.061
		c13.34-16.72,22.813-38.88,30.871-58.53c16.644-40.579,25.635-84.31,25.978-128.18V927h-0.001
		c0.172-20.54-1.761-41.939-12.232-59.61c-10.473-17.67-31.525-30.46-51.504-25.659c-16.721,4.021-28.984,19.43-33.332,36.061
		C664.796,894.431,667.164,912.101,671.31,928.792z"/>
	<path fill="none" stroke="#F4F4F4" stroke-linecap="round" stroke-miterlimit="10" d="M702.051,948.37
		c2.29,14.96,6.622,29.71,6.777,44.86c0.142,13.25-5.672,31.51,0.172,43.989c4.332,9.24,9.397,9.899,13.822,1.979
		c4.239-7.569,3.616-19.729,5.393-28.14c3.054-14.529,7.915-28.609,11.142-43.089c4.675-20.96,5.891-44.101-4.69-62.79
		c-3.086-5.449-8.057-10.83-14.321-10.699c-5.656,0.119-10.207,4.771-13.043,9.659C699.682,917.231,699.743,933.411,702.051,948.37z
		"/>
	<path fill="none" stroke="#F4F4F4" stroke-linecap="round" stroke-miterlimit="10" d="M877.438,1546.182
		c32.2,32.59,69.971,63.641,82.95,107.568c6.03,20.4,6.21,42.371,14,62.182c5.03,12.801,18.819,33.709,35.03,29.811
		c13.399-3.221,26.608-23.98,37.52-32.291c28.041-21.379,61.791-35.359,96.841-39.449l0.01-0.021
		c43.311-5.08,91.182,3.318,127.461-20.881c36.949-24.65,48.82-75.359,84.49-101.82c22.399-16.609,51.34-21.459,79.199-22.79
		c21.711-1.021,44.211-0.37,64.17-8.96c23.91-10.279,41.08-33.25,47.621-58.431c6.528-25.189,3.229-52.239-5.812-76.63
		c-8.211-22.141-21.16-43.159-22.75-66.71c-2.979-44.07,34.271-88.84,15.938-129.029c-11.198-24.562-40.729-36.65-67.649-34.75
		c-26.908,1.92-51.658,15.13-74.439,29.59c-37.159,23.58-71.739,51.22-102.899,82.31c-7.851,7.841-15.719,16.051-25.74,20.811
		c-9.359,4.439-19.949,5.5-30.279,6.25c-25.549,1.82-51.75,1.99-76.17-5.77c-40.529-12.9-76.25-47.301-118.51-42.461
		c-14.91,1.69-28.771,8.301-42.291,14.811c-32.119,15.461-64.68,31.23-91.42,54.811c-15.311,13.53-28.399,29.351-41.42,45.101
		c-16.41,19.87-33.351,40.811-38.601,66.04C815.338,1470.322,845.258,1513.601,877.438,1546.182z"/>
	<path fill="none" stroke="#F4F4F4" stroke-linecap="round" stroke-miterlimit="10" d="M867.519,1464.55
		c6.74,23.53,32.109,35.25,52.561,48.729c40.63,26.771,69.17,71.169,76.7,119.25c3.41,21.771,7.811,48.51,34.641,36.4
		c27.459-12.369,48.721-26.521,80.26-27.58l0.009,0.01c21.681-0.729,43.201,3.561,64.861,4.631
		c21.658,1.08,44.629-1.48,62.229-14.16c14.569-10.51,23.76-26.67,34.149-41.32c38.32-53.959,98.83-91.669,164.16-102.29
		c14.631-2.38,30.4-3.84,41.811-13.3c8.4-6.99,13.181-17.439,15.959-27.99c13.431-51.04-14.399-105.109-5.85-157.189
		c2.971-18,9.92-37.779,0.461-53.37c-8.342-13.75-27.041-18.159-42.721-14.54c-15.66,3.609-29.029,13.511-41.871,23.15
		c-23.389,17.569-46.779,35.13-70.17,52.689c-18.279,13.729-37.039,27.709-58.859,34.529c-70.17,21.939-143.198-35.79-216.159-26.72
		c-40.14,4.979-74.75,29.529-107.48,53.31c-12.56,9.131-25.119,18.25-37.659,27.381c-13.189,9.569-26.569,19.369-36.261,32.46
		C868.59,1431.72,863.01,1448.89,867.519,1464.55z"/>
	<path fill="none" stroke="#F4F4F4" stroke-linecap="round" stroke-miterlimit="10" d="M917.829,1456.51
		c2.24,2.891,5.591,4.67,8.83,6.37c27.46,14.34,56.06,29.859,72.9,55.829l-0.009-0.01c14.069,21.691,18.2,47.669,24.94,72.169
		c7,25.381,16.549,25.852,41,19.432c45.82-12.031,100.67,11.969,142.92-12.59c28.56-16.621,39.99-51.512,61.119-76.911
		c24.451-29.37,61.44-45.219,98.16-55.819c29.33-8.461,63.189-17.12,76.76-44.461c8.771-17.648,6.34-38.739,1.611-57.869
		c-3.432-13.871-8.682-28.461-20.48-36.521c-12.051-8.21-28.28-7.54-42.061-2.75c-13.779,4.78-25.959,13.15-38.91,19.851
		c-16.771,8.68-34.83,14.569-53.049,19.529c-52.362,14.25-108.291,21.02-160.722,7.12c-16.649-4.41-32.75-10.851-49.619-14.25
		c-16.881-3.38-35.159-3.49-50.489,4.34c-13.841,7.061-23.781,19.69-35.081,30.351c-14.48,13.67-31.71,24.439-50.351,31.449
		c-8.12,3.05-16.801,5.58-23.199,11.439C915.688,1439.071,912.51,1449.63,917.829,1456.51z"/>
	<path fill="none" stroke="#F4F4F4" stroke-linecap="round" stroke-miterlimit="10" d="M1012.569,1477.289v-0.02
		c17.18,12.631,30.9,29.74,39.959,49c5.75,12.2,7.07,42.059,21.6,46.729c7.9,2.541,21.972-3.148,30.211-3.959
		c10.911-1.07,21.911-1.1,32.851-1.74c20.95-1.199,42.75-3.4,60.188-16.221c11.571-8.51,19.791-20.678,28.683-31.949
		c32.148-40.69,76.18-71.891,125.219-88.75c7.522-2.58,15.362-4.95,21.561-9.92c6.222-4.971,10.462-13.391,8-20.961
		c-2.279-7.019-9.711-11.329-17.051-12.109c-7.317-0.76-14.629,1.341-21.66,3.57c-30.84,9.779-60.778,22.449-92.078,30.649
		c-31.311,8.181-64.721,11.73-95.891,3.021c-24.18-6.74-45.94-20.569-70.141-27.21c-14.491-3.971-31.771-4.621-42.681,5.689
		c-5.05,4.771-8.089,11.36-13.229,16.021c-11.74,10.681-33.83,11.55-37.29,27.021
		C987.869,1459.311,1001.708,1469.311,1012.569,1477.289"/>
	<polyline fill="none" stroke="#F4F4F4" stroke-linecap="round" stroke-miterlimit="10" points="1012.569,1477.289 
		1012.569,1477.29 1012.57,1477.29 1012.569,1477.289 	"/>
	<path fill="none" stroke="#F4F4F4" stroke-linecap="round" stroke-miterlimit="10" d="M1074.359,1463.01l0.018,0.03
		c5.272,12.14,17.131,17.66,25.103,27.44c6.469,7.92,5.929,16.398,10.698,24.529c10.371,17.71,49.08,10.04,62.699-1.699
		c7.201-6.201,10.941-17.261,6.25-25.521c-5.158-9.09-17.138-10.88-27.238-13.59c-13.819-3.71-26.681-10.96-36.989-20.87
		c-4.74-4.549-9.01-9.689-14.48-13.319c-5.47-3.649-12.619-5.59-18.65-2.99C1072.57,1440.99,1070.379,1453.821,1074.359,1463.01z"/>
	<path fill="none" stroke="#F4F4F4" stroke-linecap="round" stroke-miterlimit="10" d="M1343.839,979.57
		c-19.461-1.54-39.029,0.92-58.529,0.05c-19.489-0.869-39.891-5.67-53.961-19.181c-14-13.42-19.869-33.55-33.6-47.239
		c-9.18-9.13-21.24-14.75-33.35-19.3c-31.712-11.92-66.701-17.74-99.621-9.79c-28.789,6.95-54.189,23.92-76.67,43.181
		c-20.33,17.42-39.011,37.22-52.021,60.59c-12.33,22.13-19.261,46.84-30.41,69.601c-7.721,15.771-17.45,30.569-23.96,46.869
		c-6.109,15.301-9.261,31.62-14.529,47.23c-8.681,25.729-22.98,49.199-32.801,74.52c-6.33,16.301-31.79,80.87,2.62,78.25
		c13.59-1.029,26.8-11.489,37.63-18.729c17.109-11.432,34.439-22.461,51.91-33.341l-0.029-0.011
		c33.359-20.789,69.351-42.33,108.65-41.02c55.82,1.859,105.359,49.729,160.521,41.05c63.409-9.97,94.92-87.67,155.59-108.66
		c23.461-8.12,52.961-9.14,65.989-30.271c3.99-6.479,5.74-14.069,7.359-21.521c3.602-16.609,6.82-33.84,3.24-50.46
		C1419.999,1004.939,1381.009,982.54,1343.839,979.57z"/>
	<path fill="none" stroke="#F4F4F4" stroke-linecap="round" stroke-miterlimit="10" d="M1373.759,1060.99
		c-6.479-9.399-16.188-16.101-26.25-21.51c-21.619-11.591-45.938-18.091-70.459-18.82c-11.57-0.35-23.291,0.561-34.672-1.689
		c-48.26-9.489-73.689-70.561-122.238-78.569c-17.041-2.819-34.471,1.609-50.641,7.689c-69.501,26.18-125.65,85.529-147.9,156.391
		c-4.49,14.271-7.66,28.939-12.5,43.101c-7.479,21.899-28.16,45.29-30.971,67.87c-1.93,15.609,9.03,28.42,24.189,22.1
		c14.961-6.271,26.211-23.38,39.631-32.43c19.479-13.141,43.539-20.631,66.569-24.391c27.631-4.49,56.302-3.041,83.17,4.97
		l0.032,0.029c15.771,4.709,30.869,11.489,46.75,15.771c12.689,3.43,25.81,5.239,38.959,5.38c8.24,0.09,16.631-0.5,24.4-3.261
		c19.779-7,32.029-26.149,46.5-41.34c19.721-20.681,45.76-35.22,73.699-41.17c10.771-2.29,21.85-3.351,32.221-7
		c10.379-3.65,20.34-10.439,24.5-20.63C1383.069,1082.9,1380.249,1070.379,1373.759,1060.99z"/>
	<path fill="none" stroke="#F4F4F4" stroke-linecap="round" stroke-miterlimit="10" d="M1284.89,1056.189
		c-15.91-4.35-33.012-1.399-49.141-4.8c-25.58-5.37-44.971-25.479-66.221-40.689c-38.979-27.89-92.601-40.14-135.549-18.87
		c-30.642,15.181-51.603,44.771-66.882,75.351c-15.09,30.199-41.55,97.75,15.671,86.971c50.12-9.45,95.42-14.62,143.75,7.42
		l0.011,0.009c14.03,6.391,28.131,14.681,43.541,14.15c24.809-0.841,42.309-23.301,61.319-39.271
		c13.648-11.471,29.56-20.24,46.549-25.649c11.781-3.75,25.65-7.15,30.841-18.371
		C1315.699,1077.459,1300.8,1060.54,1284.89,1056.189z"/>
	<path fill="none" stroke="#F4F4F4" stroke-linecap="round" stroke-miterlimit="10" d="M1235.779,1078.361
		c-22.459-14.66-54.279-2.091-78.22-14.181c-16.229-8.21-25.399-26.09-40.53-36.189c-19.949-13.319-47.539-10.561-68.24,1.561
		c-22.189,13-87.939,87.149-27.738,92.16c15.09,1.271,30.109-9.351,45.521-9.971c25.469-1.029,51.6,7.74,74.58,17.859h0.037
		c8.712,3.83,18.031,8.09,27.382,6.25c4.618-0.91,8.819-3.26,12.909-5.58c18.75-10.6,37.5-21.18,56.229-31.779
		c1.541-0.87,3.131-1.771,4.25-3.141C1246.312,1090.09,1241.5,1082.08,1235.779,1078.361z"/>
	<path fill="none" stroke="#F4F4F4" stroke-linecap="round" stroke-miterlimit="10" d="M1556.479,1138.111
		c16.129-15.36-9.641-34.411-21.941-39.811c-12.318-5.431-50.189-19.37-45.33,6.601c1.871,9.99,17.58,27.41,26.32,32.68
		C1525.108,1143.35,1547.649,1146.542,1556.479,1138.111z"/>
	<path fill="none" stroke="#F4F4F4" stroke-linecap="round" stroke-miterlimit="10" d="M1487.589,848.299
		c-1.199-1.819-2.63-3.62-4.609-4.569c-2.42-1.16-5.271-0.901-7.93-0.511c-14.352,2.12-28.262,7.141-40.641,14.681
		c-15.23,9.271-19.92,19.96-24.63,36.448c-2.821,9.881-8.44,18.85-9.47,29.2c-1.39,14.011,2.271,29.409,14.681,37.449
		c9.33,6.051,22.58,7.46,31.709,0.25c14.211-11.21,11.56-33.879,21.649-48.899c4.83-7.199,12.32-12.219,17.609-19.109
		C1495.679,880.56,1496.368,861.65,1487.589,848.299z"/>
	<path fill="none" stroke="#F4F4F4" stroke-linecap="round" stroke-miterlimit="10" d="M1568,364.721
		c-59.446-55.134-80.189-150.474-150.359-193.424c-5.491-3.351-11.491-6.405-17.932-6.42c-10.509-0.031-19.58,8.399-23.568,18.139
		c-3.979,9.74-3.899,20.617-3.569,31.136c2.409,76.233,15.039,153.809-2.871,227.954c-17.06,70.688-60.619,132.334-81.549,201.978
		c-15.491,51.507-18.142,105.887-19.931,159.637c-0.561,16.911-0.961,34.36,5.238,50.101c2.261,5.77,6.17,11.759,12.281,12.779
		c3.858,0.641,7.769-0.92,11.108-2.96c21.211-12.969,24.562-42,37.961-62.939c6.81-10.66,16.318-19.25,25.709-27.71
		c13.481-12.141,26.951-24.28,40.431-36.42c10.65-9.6,21.491-19.32,34.311-25.729c35.271-17.61,78.011-6.9,113.931,9.319
		c6.348,2.867,12.616,5.907,18.81,9.094"/>
	<path fill="none" stroke="#F4F4F4" stroke-linecap="round" stroke-miterlimit="10" d="M1405.828,675.825
		c-26.541,19.666-48.041,49.835-80.599,55.465c-2.882,0.49-5.931,0.761-8.611-0.43c-2.229-0.979-3.93-2.88-5.271-4.9
		c-9.739-14.59-3.489-34.399,5.25-49.59c13.73-23.874,32.972-44.553,43.99-69.798c4.939-11.313,8.119-23.313,12.76-34.735
		c6.16-15.162,14.841-29.188,21.562-44.116c31.01-68.91,17.57-148.541,23.93-223.84c0.49-5.735,1.16-11.673,4.09-16.629
		c2.931-4.954,8.75-8.68,14.359-7.354c3.15,0.732,5.771,2.898,8.15,5.08c41.781,38.147,54.301,101.604,98.319,137.118
		c7.7,6.216,16.182,11.4,24.242,17.125"/>
	<path fill="none" stroke="#F4F4F4" stroke-linecap="round" stroke-miterlimit="10" d="M1405.828,675.825h-0.021
		c30.068-22.285,69.459-30.154,106.129-24.062c19.17,3.179,34.67,10.986,51.75,19.573c1.562,0.784,2.989,1.413,4.313,1.92"/>
	<polyline fill="none" stroke="#F4F4F4" stroke-linecap="round" stroke-miterlimit="10" points="1405.828,675.825 1405.829,675.825 
		1405.829,675.824 1405.828,675.825 	"/>
	<path fill="none" stroke="#F4F4F4" stroke-linecap="round" stroke-miterlimit="10" d="M1412.09,638.099
		c8.32-2.603,14.961-8.758,22.119-13.76c13.649-9.567,29.99-15.287,46.649-16.129h0.02c22.342-1.122,36.15,11.032,55.291,15.738
		c-0.891-17.578-5.1-34.049-0.25-51.705c3.081-11.251,9.071-21.646,11.02-33.146c3.08-18.201-4.377-36.605-14.198-52.235
		s-22.142-29.687-30.562-46.127c-10.08-19.696-14.4-42.527-28.16-59.841c-4.49-5.641-11.799-10.939-18.369-8.01
		c-5.89,2.634-7.42,10.192-7.819,16.644c-1.31,20.664,0.84,41.404,0.6,62.115c-0.641,55.071-18.709,109.831-51.02,154.447
		c-5.169,7.152-11,15.864-7.73,24.061C1392.91,638.255,1403.771,640.702,1412.09,638.099z"/>
	<path fill="none" stroke="#F4F4F4" stroke-linecap="round" stroke-miterlimit="10" d="M1463.019,582.749
		c5.24-2.119,8.621-4.565,14.621-4.831c6.56-0.296,13.26,1.685,19.601-0.949c6.84-2.836,10.739-10.395,11.459-17.75
		c0.711-7.371-1.161-14.694-2.81-21.91c-2.521-11.002-4.57-22.175-4.711-33.456c-0.09-7.122,0.58-14.306-0.459-21.365
		c-1.05-7.061-4.121-14.229-10.021-18.217c-5.91-3.99-15.011-3.631-19.261,2.104c-2.219,2.961-2.84,6.826-3.01,10.519
		c-0.471,10.551,2.301,21.1,1.449,31.619c-1.75,21.38-18.049,39.41-20.09,60.76l-0.02,0.014
		C1448.82,579.321,1453.229,586.723,1463.019,582.749z"/>
	<path fill="none" stroke="#F4F4F4" stroke-linecap="round" stroke-miterlimit="10" d="M1568,83.015
		c-7.174-10.782-15.448-20.673-25.581-29.075c-27.68-22.97-64.471-30.715-97.93-43.914c-22.817-9.002-45.957-22.861-60.208-42.026"
		/>
	<path fill="none" stroke="#F4F4F4" stroke-linecap="round" stroke-miterlimit="10" d="M1568,17.23
		c-3.664-2.729-7.462-5.293-11.412-7.655c-21.819-13.044-46.819-19.62-69.99-30.046c-7.286-3.278-14.522-7.097-21.301-11.53"/>
	<path fill="none" stroke="#F4F4F4" stroke-linecap="round" stroke-miterlimit="10" d="M942.269,174.785
		c-19.801,6.39-40.301,11.188-58.761,20.771c-20.011,10.41-36.859,26.104-51.261,43.462
		c-59.586,71.841-77.336,176.062-44.905,263.578c18.106,48.838,49.977,91.209,73.586,137.647
		c24.29,47.794,39.699,99.636,51.279,151.985c7.551,34.13,18.94,103.739,63.29,67.021c40.723-33.699,81.653-44.71,134.612-39.829
		c13.229,1.22,27.27,3.01,39.239-2.79c14.541-7.061,21.939-23.399,26.131-39c19.039-70.971-5.051-148.901,17.869-218.716
		c15.431-46.983,50.812-85.584,65.16-132.896c29.892-98.486-37.811-205.888-11.891-305.496c3.881-14.93,9.801-29.267,13.49-44.24
		c5.461-22.098,5.739-46.299-4.22-66.76c-9.961-20.461-31.682-36.06-54.37-34.253c-31.5,2.509-51.181,33.77-69.351,59.607
		C1086.139,100.311,1018.408,150.209,942.269,174.785z"/>
	<path fill="none" stroke="#F4F4F4" stroke-linecap="round" stroke-miterlimit="10" d="M1150.89,86.285
		c-44.631,40.282-95.23,73.941-149.642,99.53c-30.81,14.492-62.899,26.445-92.329,43.556c-29.431,17.11-56.631,40.22-71.391,70.904
		c-10.899,22.658-14.42,48.074-16.649,73.102c-1.46,16.565-2.44,33.223-1.41,49.819c5.641,91.085,69.091,166.742,104.47,250.861
		l-0.029,0.033c9.181,21.812,16.36,44.332,22.84,67.071c3.21,11.279,5.181,28.06,14.63,36.279c12.471,10.83,32.5,4.5,47.08,2.82
		c23.75-2.761,47.479-5.521,71.229-8.261c14.111-1.639,30.361-4.659,37.09-17.159c3.373-6.26,3.541-13.7,3.562-20.82
		c0.211-73.38-5.94-149.879,23.369-217.137c13.262-30.436,33.221-57.395,49.041-86.582c15.819-29.187,27.66-62.363,22.5-95.151
		c-5.75-36.527-31.901-68.224-33.59-105.155c-1.101-23.518,7.91-46.127,14.739-68.646c6.82-22.518,11.42-47.498,1.949-69.05
		c-4.289-9.724-12.75-18.95-23.399-19.028C1165.599,73.194,1157.829,80.019,1150.89,86.285z"/>
	<path fill="none" stroke="#F4F4F4" stroke-linecap="round" stroke-miterlimit="10" d="M1135.419,203.216
		c-2.859-4.488-6.42-8.851-11.33-10.908c-10.23-4.285-21.49,2.836-29.92,10.067c-29.82,25.524-55.85,57.814-92.75,71.169
		c-27,9.771-57.561,8.353-83.211,21.256c-31.369,15.786-49.569,51.16-52.039,86.191c-2.461,35.031,8.709,69.704,23.8,101.416
		l0.011,0.017c29.71,62.442,76.43,119.712,85.39,190.194c3.3,26.091,1.2,73.091,40.44,59.9c36.66-12.31,50.16-39.38,46.789-75.779
		c-7.85-84.944,11.771-172.212,55.211-245.626c13.39-22.627,29.64-46.734,25.869-72.758c-1.77-12.327-8.051-23.891-8.18-36.342
		c-0.121-12.886,6.301-24.809,9.59-37.274C1150.519,244.092,1146.938,221.215,1135.419,203.216z"/>
	<path fill="none" stroke="#F4F4F4" stroke-linecap="round" stroke-miterlimit="10" d="M1082.729,326.731
		c-1.68-13.432-6.971-30.419-20.49-31.026c-6.771-0.313-12.731,4.02-18.551,7.495c-22.17,13.23-48.841,15.803-73.78,22.409
		c-24.95,6.607-51.069,19.869-59.939,44.116c-7.42,20.306-0.79,42.73,5.83,63.301c6.279,19.495,12.761,39.362,24.949,55.818
		c8.731,11.781,20.13,21.443,28.391,33.552l0.029-0.016c9.819,14.399,12.199,29.032,13.75,45.846
		c0.789,8.806,4.829,28.394,17.199,14.711c12.94-14.306,21.621-32.444,24.621-51.503c3.17-20.071,0.189-40.642,2.061-60.884
		c3.27-35.235,21.05-67.508,41.789-96.182c6.081-8.399,12.631-17.002,14.562-27.192
		C1084.428,340.46,1083.588,333.526,1082.729,326.731z"/>
	<path fill="none" stroke="#F4F4F4" stroke-linecap="round" stroke-miterlimit="10" d="M1023.06,360.334
		c-0.75-2.977-1.95-5.999-4.28-7.979c-5.049-4.286-12.83-2.026-18.59,1.246c-8.341,4.737-15.73,11.127-24.45,15.084
		c-5.52,2.51-11.49,3.99-16.87,6.811c-11.25,5.907-18.98,17.47-21.64,29.89c-2.651,12.42-0.58,25.558,4.359,37.26h0.021
		c6.33,15.008,17.97,36.092,36.62,35.796c4.21-0.078,8.41-0.687,12.47-1.839c2.321-0.655,4.69-1.559,6.311-3.351
		c1.521-1.699,2.181-3.959,2.721-6.172c3.46-14.041,4.069-28.72,8.109-42.604c3.1-10.722,8.189-20.757,11.9-31.292
		C1023.449,382.65,1025.759,371.165,1023.06,360.334z"/>
	<path fill="none" stroke="#F4F4F4" stroke-linecap="round" stroke-miterlimit="10" d="M170.883,334.164
		c-18.842,0.281-38.368,1.247-55.104,9.911c-35.654,18.435-46.406,65.31-41.249,105.109c5.158,39.784,21.957,77.543,25.386,117.53
		c2.556,29.749-2.4,59.855,0.966,89.526c3.366,29.687,17.936,61.089,45.814,71.81c24.045,9.261,50.725,0.899,76.172-3.04
		c25.572-3.96,51.877-3.271,77.216,1.99c27.099,5.63,53.217,16.479,80.815,18.5l-0.016-0.01c46.251,3.41,95.479-17.99,134.64-41.141
		c19.402-11.469,34.378-29.299,55.478-37.979c23.734-9.755,50.272-9.085,75.394-11.702c20.742-2.151,41.265-6.514,61.103-12.981
		c10.301-3.365,20.758-7.511,28.284-15.303c17.001-17.594,12.918-46.579,3.288-69.065c-14.649-34.236-39.411-64.406-47.266-100.793
		c-12.7-58.844,21.507-117.624,23.143-177.808c0.374-13.744-2.198-29.624-13.963-36.745c-13.495-8.166-30.45-0.296-45.878,2.992
		c-31.65,6.747-65.247-7.028-96.633,0.919c-32.989,8.368-55.164,38.132-81.563,59.606c-43.462,35.343-102.118,49.134-157.875,43.711
		c-25.01-2.432-49.523-8.462-74.441-11.719C220.189,334.304,195.504,333.79,170.883,334.164z"/>
	<path fill="none" stroke="#F4F4F4" stroke-linecap="round" stroke-miterlimit="10" d="M267.534,398.305
		c-29.764-6.187-59.202-16.346-89.604-15.691c-20.134,0.437-42.2,7.262-52.096,24.793c-12.591,22.314-0.264,49.68,9.101,73.521
		c12.265,31.229,19.262,64.531,20.602,98.051c1.168,28.815-1.48,59.296,11.874,84.852c3.804,7.293,9.194,14.228,16.784,17.407
		c7.106,2.976,15.162,2.291,22.783,1.152c35.731-5.329,71.247-19.386,106.902-13.558c36.169,5.922,69.143,31.997,105.499,27.317
		v0.021c34.284-4.41,58.22-33.197,87.813-48.079c14.164-7.121,29.312-9.615,44.115-14.913c18.856-6.748,36.169-17.608,55.805-22.206
		c14.819-3.46,30.326-3.116,45.16-6.482c14.851-3.352,29.967-11.688,35.234-25.962c4.971-13.465-0.141-28.705-8.011-40.704
		s-18.419-22.098-26.056-34.252c-13.728-21.833-17.016-48.667-16.533-74.458c0.483-25.79,4.41-51.487,3.678-77.263
		c-0.343-12.201-2.338-25.618-11.563-33.612c-8.727-7.589-21.382-8.104-32.944-7.776c-36.356,1.028-75.269,7.932-100.965,33.661
		c-9.382,9.38-16.534,20.88-26.538,29.607c-13.309,11.594-30.621,17.438-47.748,21.676
		C370.805,407.781,317.993,408.778,267.534,398.305z"/>
	<path fill="none" stroke="#F4F4F4" stroke-linecap="round" stroke-miterlimit="10" d="M314.037,448.341
		c-36.73-3.538-72.992-11.127-109.754-14.26c-10.581-0.903-22.3-1.09-30.465,5.688c-7.729,6.405-10.005,17.578-8.493,27.506
		c1.512,9.925,6.156,19.026,10.27,28.189c12.887,28.705,20.896,59.591,23.608,90.944c1.559,18.201,3.506,40.127,19.807,48.371
		c4.629,2.353,9.912,3.163,15.101,3.271c18.263,0.358,35.513-7.683,53.326-11.733c18.544-4.224,38.07-4.1,56.568,0.357
		c13.868,3.351,27.145,9.069,41.232,11.283c24.591,3.849,49.618-3.352,72.51-13.122l0.017-0.014
		c21.428-9.148,43.212-18.872,63.798-29.766c19.713-10.425,41.826-15.365,63.113-21.771c11.344-3.411,23.001-6.996,32.133-14.522
		c9.133-7.527,15.193-20.072,11.595-31.354c-4.66-14.603-21.786-20.148-34.55-28.627c-12.2-8.088-21.535-20.397-26.039-34.33
		c-4.785-14.789-4.504-31.728-13.807-44.193c-11.828-15.865-34.971-18.404-54.263-14.058c-27.021,6.078-50.506,22.409-76.437,32.087
		C388.728,451.194,350.767,451.877,314.037,448.341z"/>
	<path fill="none" stroke="#F4F4F4" stroke-linecap="round" stroke-miterlimit="10" d="M448.924,470.73
		c-41.42,16.596-87.096,22.408-131.353,16.721c-20.818-2.665-41.935-7.838-62.505-3.709c-20.57,4.13-40.626,21.428-38.896,42.341
		c1.558,19.012,19.635,32.662,24.668,51.066c1.698,6.218,1.979,13.12,5.938,18.201c6.358,8.165,18.684,7.667,28.86,5.813
		c37.992-6.935,76.374-22.205,114.023-13.666c10.689,2.415,20.991,6.731,31.898,7.651c20.431,1.698,39.815-8.618,56.974-19.822
		c15.334-10.005,30.512-21.334,48.354-26.507c12.811-3.709,26.663-3.009,17.797-18.935c-7.186-12.889-17.484-24.107-24.824-37.167
		c-6.811-12.14-14.539-25.712-28.799-29.951l0.017,0.017C477.083,458.622,462.481,465.306,448.924,470.73z"/>
	<path fill="none" stroke="#F4F4F4" stroke-linecap="round" stroke-miterlimit="10" d="M486.021,511.54
		c-42.823-14.164-88.717,7.979-133.831,8.229c-19.682,0.109-39.644-3.958-58.874,0.219c-8.415,1.839-16.487,5.235-23.671,9.988
		c-6.124,4.053-11.75,9.271-14.711,15.989c-2.961,6.716-2.789,15.146,1.792,20.882c12.077,15.179,43.727,4.769,58.563-0.717
		c23.78-8.789,47.421-16.676,73.164-10.488l0.016,0.015c11.983,2.368,23.891,6.764,36.045,5.595
		c23.032-2.214,40.393-23.578,63.236-27.318c3.397-0.562,7.169-0.841,9.646-3.24c3.227-3.117,2.696-8.742-0.03-12.295
		C494.622,514.843,490.29,512.942,486.021,511.54z"/>
	<path fill="none" stroke="#F4F4F4" stroke-linecap="round" stroke-miterlimit="10" d="M773.005,205.764l0.016,0.016
		c5.578-4.379,10.783-9.334,17.017-12.699c8.058-4.349,17.313-5.782,26.242-7.87c8.93-2.073,18.09-5.111,24.391-11.766
		c6.31-6.654,8.63-17.858,2.909-25.013c-3-3.755-7.63-5.827-12.279-7.12c-10.16-2.821-21.021-2.524-31.086-5.688
		c-7.152-2.261-13.65-6.188-20.647-8.931c-13.417-5.235-28.721-5.797-42.31-0.997c-8.041,2.853-15.334,7.465-22.533,12.029
		c-14.509,9.195-29.018,18.404-43.524,27.601c-27.302,17.313,21.816,29.107,32.942,34.969c11.532,6.063,19.075,17.422,32.944,18.622
		C750.146,220.054,762.953,213.479,773.005,205.764z"/>
	<path fill="none" stroke="#F4F4F4" stroke-linecap="round" stroke-miterlimit="10" d="M850.989,710.791
		c-1.17-15.35-9.55-29.079-14.3-43.713c-3.341-10.3-4.88-21.084-7.48-31.587c-1.729-6.95-4.449-14.445-10.76-17.828
		c-6.529-3.506-15.004-1.184-20.583,3.694c-5.578,4.877-8.882,11.826-11.78,18.652c-5.392,12.699-11.656,31.135-1.401,43.243
		c3.334,3.942,7.729,6.28,10.597,10.758c3.489,5.449,5.517,11.811,8.353,17.601c2.961,6.069,6.627,12.021,12.606,15.489h0.028
		c4.351,2.53,9.439,3.431,14.45,3.87c4.87,0.42,10.141,0.33,14.13-2.489C850.179,724.701,851.489,717.3,850.989,710.791z"/>
	<path fill="none" stroke="#F4F4F4" stroke-linecap="round" stroke-miterlimit="10" d="M270.689-32
		c11.466,54.142,29.988,106.779,54.98,156.143c13.901,27.476,33.849,56.771,64.345,60.993
		c51.177,7.061,83.139-58.779,133.237-71.355c23.204-5.827,49.618,0.155,70.143-12.139c21.1-12.639,28.002-39.769,44.318-58.173
		c32.211-36.311,90.212-29.827,136.589-15.521c46.378,14.321,97.368,33.317,141.468,13.027C946.563,26.811,964.556-1.995,982.055-32
		"/>
	<path fill="none" stroke="#F4F4F4" stroke-linecap="round" stroke-miterlimit="10" d="M329.04-32
		c10.28,43.238,25.454,85.316,45.22,125.118c4.893,9.848,11.313,20.569,22.034,23.001c7.745,1.744,15.771-1.42,22.503-5.61
		c21.334-13.246,36.06-37.089,59.997-44.647c23.857-7.526,51.58,3.133,73.975-8.041c19.666-9.816,28.127-32.771,41.717-50.038
		c13.542-17.234,33.333-29.452,54.821-33.801c27.293-5.542,57.387,0.91,83.513-5.981"/>
	<path fill="none" stroke="#F4F4F4" stroke-linecap="round" stroke-miterlimit="10" d="M375.365-32
		c5.841,25.579,17.782,52.679,42.612,59.027c27.816,7.122,55.57-16.439,84.088-13.121c9.008,1.045,17.875,4.784,26.834,3.397
		c8.759-1.355,15.989-7.386,22.316-13.604C562.763-7.652,573.132-20.563,584.583-32"/>
	<path fill="none" stroke="#F4F4F4" stroke-linecap="round" stroke-miterlimit="10" d="M838.922-32
		c7.372,12.505,19.405,22.197,33.656,23.263C890.272-7.409,906.021-19.072,918.44-32"/>
	<path fill="none" stroke="#F4F4F4" stroke-linecap="round" stroke-miterlimit="10" d="M-32,314.812
		c0.133-0.044,0.265-0.088,0.398-0.131c35.031-11.5,71.59-21.691,108.305-18.153c30.263,2.929,62.646,14.74,89.558,0.606
		c24.855-13.06,34.876-44.506,32.568-72.494c-2.306-27.986-14.227-54.104-22.829-80.846C157.833,87.319,154.226,26.947,146.163-32"
		/>
	<path fill="none" stroke="#F4F4F4" stroke-linecap="round" stroke-miterlimit="10" d="M-32,269.342
		c20.696-4.102,41.782-6.251,62.888-6.382c27.287-0.172,57.269,2.243,79.055-14.182c20.727-15.63,27.442-44.429,24.637-70.233
		c-2.805-25.807-13.433-50.007-21.287-74.754c-9.474-29.826-14.959-60.729-20.85-91.475C89.615-2.46,86.678-17.251,83.527-32"/>
	<path fill="none" stroke="#F4F4F4" stroke-linecap="round" stroke-miterlimit="10" d="M-32,219.928
		c25.563-10.138,51.036-20.413,78.02-18.663c6.155,0.405,12.763,1.341,18.17-1.636c4.301-2.369,7.028-6.811,9.038-11.298
		c13.122-29.079,3.85-62.832-5.578-93.298C54.564,52.683,41.479,10.343,28.393-32"/>
	<path fill="none" stroke="#F4F4F4" stroke-linecap="round" stroke-miterlimit="10" d="M-32,178.893
		c23.502-14.77,35.396-45.18,35.383-73.575C3.351,73.544-8.352,43.141-17.873,12.815C-22.521-1.987-26.69-16.975-30.754-32"/>
	<path fill="none" stroke="#F4F4F4" stroke-linecap="round" stroke-miterlimit="10" d="M352.471,305.125
		c-1.651-7.48-9.101-11.923-15.553-16.052c-15.535-9.911-29.094-22.893-39.675-37.978c-2.712-3.864-5.267-7.916-8.819-11.032
		c-11.376-10.021-30.966-6.653-40.19,5.376c-31.212,40.688,38.103,70.951,67.383,78.213c8.025,1.995,16.658,3.304,24.45,0.499
		C347.859,321.346,354.263,313.212,352.471,305.125z"/>
	<path fill="none" stroke="#F4F4F4" stroke-linecap="round" stroke-miterlimit="10" d="M56.844,354.113
		c-0.467-3.086-1.651-6.203-4.036-8.213c-3.366-2.82-8.227-2.773-12.606-2.368c-14.322,1.34-28.409,5.08-41.515,11.018
		c-3.366,1.526-6.747,3.257-9.287,5.953h-0.016c-12.95,13.775,2.493,36.091,11.875,47.03c5.547,6.468,12.061,11.001,19.603,4.659
		c7.699-6.468,7.169-17.796,13.449-25.214c4.005-4.737,10.176-7.059,14.789-11.204C55.052,370.444,58.06,362.012,56.844,354.113z"/>
	<path fill="none" stroke="#F4F4F4" stroke-linecap="round" stroke-miterlimit="10" d="M1328.81,40.764
		c-11.2-7.667-28.159-4.971-36.541,5.719c-1.899,2.432-3.409,5.268-3.868,8.322c-0.731,4.955,1.34,9.833,2.528,14.695l-0.019-0.03
		c2.42,9.926,0.59,19.837-2.631,29.281c-2.559,7.463-0.091,16.877,8.84,18.605c3.531,0.686,7.211-0.172,10.59-1.434
		c4.82-1.809,9.41-4.566,12.441-8.711c4.27-5.844,4.859-13.652,8.51-19.916c2.179-3.74,5.369-6.811,7.688-10.473
		C1343.599,65.354,1340.019,48.431,1328.81,40.764z"/>
	<polyline fill="none" stroke="#F4F4F4" stroke-linecap="round" stroke-miterlimit="10" points="1281.419,290.149 1281.419,290.15 
		1281.419,290.149 1281.419,290.149 	"/>
	<path fill="none" stroke="#F4F4F4" stroke-linecap="round" stroke-miterlimit="10" d="M1281.419,290.149h-0.008
		c1.449,15.162,12.789,27.192,8.48,42.746c-1.532,5.516-3.92,13.806,0.487,18.544c4.013,4.284,11.66,3.443,15.871-0.048
		c5.129-4.238,7.119-11.11,8.57-17.608c1.569-7.075,2.819-14.29,2.569-21.536c-0.221-6.513-1.65-12.919-3.09-19.276
		c-1.569-7.013-3.311-14.352-8.131-19.696c-2.59-2.868-6.189-5.064-10.051-5.081c-2.09,0-4.149,0.624-5.969,1.651
		C1283.358,273.662,1280.679,282.389,1281.419,290.149"/>
	<path fill="none" stroke="#F4F4F4" stroke-linecap="round" stroke-miterlimit="10" d="M759.81,1498.66
		c0.575,4.141,2.522,7.979,4.611,11.62h0.001v0.02c4.535,7.92,10.628,16.601,18.935,20.931c7.697,4.021,18.559,4.74,27.033,4.601
		c4.16-0.07,8.681-0.66,11.66-3.57c3.569-3.52,3.689-9.43,1.71-14.04c-1.98-4.62-5.61-8.25-9.021-11.92
		c-4.94-5.319-9.662-11.181-11.563-18.17c-2.104-7.771-0.592-16.37-3.865-23.72c-3.257-7.311-12.279-12.2-19.681-9.15
		c-5.563,2.29-8.79,8.01-11.313,13.46c-2.104,4.54-4.006,9.17-5.72,13.86C760.712,1487.74,759.062,1493.22,759.81,1498.66z"/>
	<path fill="none" stroke="#F4F4F4" stroke-linecap="round" stroke-miterlimit="10" d="M-32,1687.68
		c17.409-2.289,35.034-3.619,52.012-8.029c27.255-7.063,54.915-25.84,58.655-53.75c1.605-11.92-1.387-23.932-4.473-35.563
		c-10.893-40.92-23.469-81.389-37.648-121.278C19.125,1420.062-1.791,1370.58-32,1328.783"/>
	<path fill="none" stroke="#F4F4F4" stroke-linecap="round" stroke-miterlimit="10" d="M-32,1625.673
		c8.88-1.006,17.724-2.211,26.424-4.083c6.669-1.43,13.635-3.49,18.201-8.551c3.958-4.398,5.531-10.439,6.187-16.33
		c2.275-20.629-5.438-41.66-18.56-57.738c-8.855-10.832-20.002-19.543-32.252-26.376"/>
	<path fill="none" stroke="#F4F4F4" stroke-linecap="round" stroke-miterlimit="10" d="M-32,839.909
		c3.429-1.667,6.781-3.485,10.014-5.539c15.74-10.01,28.721-27.26,26.928-45.819C3.556,774.29-5.982,762.39-12.854,749.83
		c-21.972-40.159-17.282-88.858-15.427-134.596c0.884-21.813,0.494-44.811-3.719-66.353"/>
	<path fill="none" stroke="#F4F4F4" stroke-linecap="round" stroke-miterlimit="10" d="M94.067,709.34
		c-2.229-4.13-3.086-8.82-4.208-13.37c-1.137-4.55-2.665-9.209-5.922-12.575c-3.241-3.365-8.648-5.079-12.762-2.836
		c-4.817,2.634-5.814,9.054-5.595,14.521c0.343,8.15,1.559,22.79,9.351,27.689c5.065,3.201,19.9,4.981,22.736-1.729
		C99.335,717.13,96.093,713.08,94.067,709.34z"/>
	<path fill="none" stroke="#F4F4F4" stroke-linecap="round" stroke-miterlimit="10" d="M564.294,774.13
		c-3.367-1.85-7.559-1.04-11.097,0.431l0.016,0.01c-8.104,3.369-37.588,32.09-18.278,39.74c2.867,1.14,6.107-0.08,8.851-1.5
		c8.119-4.211,15.226-10.381,20.539-17.83c2.291-3.211,4.285-6.791,4.659-10.721C569.356,780.34,567.753,776.04,564.294,774.13z"/>
	<path fill="none" stroke="#F4F4F4" stroke-linecap="round" stroke-miterlimit="10" d="M950.938,912.77c-0.76-3.48-1.93-7.28-5-9.06
		c-2.05-1.201-4.699-1.29-6.459-2.891c-1.47-1.359-1.97-3.431-2.44-5.381c-1.119-4.569-2.88-9.469-6.93-11.859
		c-4.491-2.63-10.531-1.179-14.431,2.261c-3.91,3.44-6.051,8.451-7.54,13.43h0.011c-4.5,15.03,4.289,35.441,19.84,41.381
		C945.859,947.47,953.979,926.651,950.938,912.77z"/>
	<path fill="none" stroke="#F4F4F4" stroke-linecap="round" stroke-miterlimit="10" d="M756.135,390.076
		c-0.607-1.169-1.526-2.369-2.836-2.493c-1.013-0.109-1.964,0.467-2.821,1.028c-2.478,1.604-4.955,3.227-7.434,4.831v0.001h0.018
		c-10.41,6.778-15.241,20.273-6.623,31.072c10.159,12.763,14.787-9.817,18.996-16.425
		C758.816,402.777,759.096,395.639,756.135,390.076z"/>
	<path fill="none" stroke="#F4F4F4" stroke-linecap="round" stroke-miterlimit="10" d="M739,184.478
		c5.236,3.616,11.673,5.906,17.969,4.973c4.005-0.593,7.697-2.446,11.406-4.1c8.307-3.709,17.003-6.545,25.9-8.445
		c1.323-0.28,2.711-0.576,3.771-1.402c1.184-0.936,1.809-2.446,1.963-3.942c0.546-5.517-4.689-10.098-10.066-11.453
		c-5.376-1.355-11.033-0.529-16.564-0.997c-7.121-0.607-13.869-3.319-20.804-5.019c-6.951-1.683-14.648-2.244-20.897,1.23
		C715.532,164.298,729.402,177.855,739,184.478z"/>
	<path fill="none" stroke="#F4F4F4" stroke-linecap="round" stroke-miterlimit="10" d="M1011.93-32
		c-2.222,4.438-4.443,8.943-7.283,13.102c-8.169,11.953,0.141,32.538,16.771,23.999c5.43-2.79,8.709-8.399,12.311-13.34
		c4.661-6.404,10.3-12.108,14.271-18.965c0.885-1.524,1.67-3.136,2.333-4.796"/>
	<path fill="none" stroke="#F4F4F4" stroke-linecap="round" stroke-miterlimit="10" d="M235.794,2281.59l-0.016,0.02
		c3.21,5.791,9.413,8.471,13.246,13.58c2.868,3.85,1.823,8.949,4.426,12.42c7.028,9.35,26.258-2.01,33.13-6.709
		c1.496-1.031,2.992-2.15,3.958-3.701c1.231-1.939,1.466-4.34,1.278-6.629c-0.389-4.68-2.509-9.1-5.423-12.781
		c-1.917-2.43-4.254-4.609-7.09-5.85c-6.094-2.641-13.185-0.459-19.713-1.68c-3.882-0.73-7.449-2.629-11.251-3.689
		c-3.804-1.061-8.275-1.121-11.283,1.43C233.301,2271.199,233.409,2277.27,235.794,2281.59z"/>
</g>
</svg>
