<?xml version="1.0" encoding="utf-8"?>
<!-- Generator: Adobe Illustrator 16.0.0, SVG Export Plug-In . SVG Version: 6.00 Build 0)  -->
<!DOCTYPE svg PUBLIC "-//W3C//DTD SVG 1.1//EN" "http://www.w3.org/Graphics/SVG/1.1/DTD/svg11.dtd">
<svg version="1.1" id="Layer_1" xmlns="http://www.w3.org/2000/svg" xmlns:xlink="http://www.w3.org/1999/xlink" x="0px" y="0px"
	 width="80px" height="80px" viewBox="0 0 80 80" enable-background="new 0 0 80 80" xml:space="preserve">
<g>
	<g>
		<circle opacity="0.45" enable-background="new    " cx="34.8" cy="34" r="34"/>
		<circle opacity="0.25" enable-background="new    " cx="34.8" cy="46" r="34"/>
		<circle opacity="0.6" enable-background="new    " cx="45.2" cy="40" r="34"/>
		<path d="M34.8,12c-4.036,0-7.905,0.707-11.497,1.998C15.904,20.234,11.2,29.566,11.2,40c0,10.434,4.704,19.766,12.103,26.002
			C26.895,67.293,30.764,68,34.8,68c16.729,0,30.626-12.086,33.462-28C65.426,24.085,51.529,12,34.8,12z"/>
	</g>
	<path fill="#FFFFFF" d="M44.807,29.952c0.626,0.709,2.229,2.6,2.704,3.663c0.406,0.452,0.703,0.878,0.89,1.281
		c0.186,0.404,0.431,1.039,0.736,1.909l0.457,1.305C49.864,38.98,50,39.771,50,40.479c0,0.419-0.034,0.766-0.102,1.039
		c-0.068,0.273-0.101,0.443-0.101,0.508c-0.137,0.322-0.34,0.482-0.611,0.482c-0.339,0-0.729-0.329-1.168-0.99
		c-0.44-0.661-0.848-1.491-1.22-2.49c-0.948-2.384-2.94-5.321-3.872-6.804c-0.238-0.38-0.47-0.719-0.695-1.018
		c-0.338-0.451-0.645-0.572-0.637-0.311c0.004,0.146,0.006,0.303,0.006,0.473c0,1.806-0.059,8.061-0.178,10.735
		c-0.119,2.676-0.297,8.511-0.533,9.479c-0.102,0.903-0.212,1.531-0.331,1.886S40.279,54,40.076,54c-0.17,0-0.407-0.096-0.711-0.289
		c-0.271-0.129-0.458-0.282-0.559-0.46c-0.102-0.178-0.152-0.491-0.152-0.942c-0.168-0.484-0.254-1.047-0.254-1.693
		c0-1.48,0.034-7.278,0.102-9.356c0.067-2.08,0.118-7.665,0.152-8.729c0,0,0.031-0.369,0.068-0.823
		c0.038-0.455-0.107-0.53-0.304-0.16c-0.109,0.207-0.224,0.432-0.344,0.677c-0.338,0.741-1.696,3.345-1.968,3.796
		c-1.151,2.224-2.1,4.223-2.844,5.994l-0.609,1.402c-0.171,0.192-0.366,0.354-0.586,0.483c-0.22,0.129-0.364,0.209-0.431,0.241
		c-0.137,0.065-0.254,0.033-0.356-0.097c-0.103-0.128-0.221-0.321-0.355-0.58c-0.137-0.258-0.306-0.467-0.509-0.629
		c-0.034-0.031-0.11-0.096-0.229-0.192c-0.119-0.098-0.178-0.241-0.178-0.436v-0.097c-0.034-0.129,0.025-0.346,0.178-0.652
		c0.152-0.306,0.33-0.588,0.534-0.847c0.135-0.257,0.414-0.708,0.839-1.353c0.422-0.645,0.904-1.644,1.447-2.998l0.458-0.869
		c0.677-1.386,2.314-4.538,2.806-5.441c0.489-0.901,0.906-1.579,1.244-2.031c0.034-0.063,0.194-0.354,0.483-0.87
		c0.117-0.209,0.213-0.397,0.288-0.564c0.143-0.318,0.537-0.542,0.957-0.475l0.762,0.121l2.339,1.643
		C43.358,28.518,44.18,29.243,44.807,29.952z"/>
</g>
</svg>
