<?xml version="1.0" encoding="utf-8"?>
<!-- Generator: Adobe Illustrator 16.0.0, SVG Export Plug-In . SVG Version: 6.00 Build 0)  -->
<!DOCTYPE svg PUBLIC "-//W3C//DTD SVG 1.1//EN" "http://www.w3.org/Graphics/SVG/1.1/DTD/svg11.dtd">
<svg version="1.1" id="Layer_1" xmlns="http://www.w3.org/2000/svg" xmlns:xlink="http://www.w3.org/1999/xlink" x="0px" y="0px"
	 width="45px" height="45px" viewBox="0 0 45 45" enable-background="new 0 0 45 45" xml:space="preserve">
<path fill="#1E55F4" d="M4.469,0H40.51c0.432,0.072,0.84,0.332,1.029,0.735c0.18,0.34,0.138,0.735,0.141,1.106
	c0.005,1.818,0,3.637-0.003,5.456c0.003,0.668-0.571,1.268-1.24,1.296c-0.72,0.057-1.397-0.573-1.392-1.296
	c-0.006-1.553,0.002-3.107-0.002-4.66c-1.176-0.001-2.351-0.002-3.524,0c0.005,3.18-0.012,6.36,0.013,9.541
	c2.24,1.045,3.749,3.451,3.723,5.924c0.007,1.142-0.004,2.283,0.007,3.425c0.024,1.255,0.612,2.481,1.571,3.29
	c0.365,0.332,0.832,0.518,1.229,0.807c1.766,1.217,2.875,3.302,2.939,5.441v3.083c-0.045,1.267-0.428,2.522-1.129,3.581
	c-0.58,0.892-1.376,1.631-2.283,2.181c1,0.71,1.957,1.622,2.301,2.837c0.128,0.522,0.238,1.127-0.063,1.612
	c-0.201,0.351-0.575,0.564-0.964,0.642H2.171c-0.428-0.063-0.833-0.313-1.033-0.702c-0.257-0.476-0.151-1.046-0.029-1.544
	c0.342-1.219,1.303-2.135,2.305-2.848C1.396,38.732,0.051,36.494,0,34.155V31.07c0.058-2.339,1.391-4.596,3.426-5.754
	c1.372-0.73,2.272-2.238,2.313-3.788c0.021-1.283-0.019-2.567,0.021-3.851c0.122-2.333,1.609-4.515,3.715-5.514
	c0.016-3.175-0.002-6.351,0.007-9.526c-1.64-0.006-3.28,0.008-4.92-0.007C3.824,2.609,3.211,1.875,3.333,1.145
	C3.401,0.56,3.898,0.095,4.469,0z M12.118,2.637c0,2.959,0,5.918,0,8.878c3.647-0.084,7.454,0.769,10.359,3.071
	c0.79-0.657,1.667-1.208,2.601-1.633c2.431-1.122,5.143-1.511,7.803-1.447c0.002-2.957,0.001-5.913,0-8.869
	C25.961,2.639,19.039,2.638,12.118,2.637z M13.653,14.179c0.003,3.799-0.001,7.6,0.003,11.399c0.021,1.67,0.555,3.328,1.519,4.693
	c1.159,1.682,2.955,2.908,4.944,3.374c1.035,0.265,2.112,0.239,3.172,0.219c2.187-0.073,4.313-1.065,5.793-2.672
	c1.436-1.531,2.263-3.611,2.263-5.71c-0.002-3.772,0.004-7.542-0.002-11.313c-2.58,0.137-5.258,0.809-7.261,2.52
	c-0.415,0.319-0.71,0.826-1.246,0.958c-0.499,0.149-1.036-0.066-1.379-0.439C19.389,15.202,16.473,14.348,13.653,14.179z
	 M8.524,17.048c-0.21,0.715-0.128,1.468-0.145,2.202c-0.011,0.905,0.034,1.813-0.026,2.719c-0.177,2.337-1.586,4.555-3.661,5.66
	c-1.237,0.734-2.044,2.131-2.054,3.57c-0.001,0.938-0.007,1.874,0.004,2.811c0.006,0.975,0.363,1.943,0.995,2.685
	C4.381,37.578,5.5,38.16,6.66,38.195c2.464-0.988,5.03-1.699,7.62-2.267c0.003-0.877,0-1.755,0.001-2.632
	c-2.036-2.019-3.243-4.848-3.263-7.719c-0.003-3.734,0.001-7.467-0.002-11.202C9.818,14.795,8.856,15.822,8.524,17.048z
	 M33.984,14.376c-0.003,3.322,0,6.645-0.002,9.967c-0.004,0.822,0.024,1.65-0.085,2.469c-0.294,2.438-1.444,4.752-3.18,6.486
	c0.003,0.875-0.002,1.753,0.003,2.63c2.588,0.563,5.149,1.276,7.609,2.265c0.992-0.023,1.961-0.455,2.684-1.133
	c0.838-0.775,1.336-1.904,1.343-3.047c0.013-0.938,0.007-1.877,0.005-2.814c-0.012-1.461-0.841-2.877-2.107-3.604
	c-2.133-1.146-3.548-3.478-3.625-5.892c-0.025-1.275,0.008-2.551-0.018-3.827C36.539,16.321,35.455,14.882,33.984,14.376z
	 M23.201,36.502c-0.884,0.014-1.772,0.025-2.649-0.097c-1.267-0.175-2.501-0.571-3.633-1.167c0.016,0.557-0.03,1.115,0.022,1.67
	c0.487,1.815,0.994,3.627,1.479,5.443c2.715,0.027,5.432,0.003,8.147,0.013c0.47-1.669,0.915-3.343,1.374-5.015
	c0.248-0.676,0.103-1.404,0.143-2.107C26.578,36.021,24.898,36.479,23.201,36.502z M7.554,40.688
	c-1.055,0.453-2.106,0.956-3.008,1.675c3.716,0.001,7.432-0.001,11.148,0.001c-0.348-1.272-0.69-2.547-1.044-3.816
	C12.241,39.1,9.839,39.735,7.554,40.688z M30.35,38.549c-0.35,1.271-0.696,2.542-1.041,3.813c3.717-0.001,7.434,0.003,11.149-0.001
	c-1.477-1.14-3.246-1.803-4.987-2.417C33.791,39.385,32.078,38.926,30.35,38.549z"/>
</svg>
