<?xml version="1.0" encoding="utf-8"?>
<!-- Generator: Adobe Illustrator 16.0.0, SVG Export Plug-In . SVG Version: 6.00 Build 0)  -->
<!DOCTYPE svg PUBLIC "-//W3C//DTD SVG 1.1//EN" "http://www.w3.org/Graphics/SVG/1.1/DTD/svg11.dtd">
<svg version="1.1" id="Layer_1" xmlns="http://www.w3.org/2000/svg" xmlns:xlink="http://www.w3.org/1999/xlink" x="0px" y="0px"
	 width="40px" height="40px" viewBox="0 0 40 40" enable-background="new 0 0 40 40" xml:space="preserve">
<g id="Layer_2">
</g>
<g id="Layer_4">
	<g>
		<g>
			<path fill="#00A09B" d="M20,39.25C9.386,39.25,0.75,30.614,0.75,20S9.386,0.75,20,0.75c5.142,0,9.977,2.002,13.614,5.639
				c0.488,0.488,0.488,1.279,0,1.768s-1.279,0.488-1.768,0C28.682,4.993,24.475,3.25,20,3.25C10.764,3.25,3.25,10.764,3.25,20
				c0,9.236,7.514,16.75,16.75,16.75c9.236,0,16.75-7.514,16.75-16.75c0-0.69,0.56-1.25,1.25-1.25s1.25,0.56,1.25,1.25
				C39.25,30.614,30.614,39.25,20,39.25z"/>
		</g>
		<g>
			<path fill="#00A09B" d="M18,25.25c-0.32,0-0.64-0.122-0.884-0.366l-4-4c-0.488-0.488-0.488-1.279,0-1.768s1.279-0.488,1.768,0
				L18,22.232l7.116-7.116c0.488-0.488,1.279-0.488,1.768,0s0.488,1.279,0,1.768l-8,8C18.64,25.128,18.32,25.25,18,25.25z"/>
		</g>
	</g>
</g>
</svg>
