<svg width="46" height="46" viewBox="0 0 46 46" fill="none" xmlns="http://www.w3.org/2000/svg">
<path d="M20.2027 0.466007C23.9185 0.0389394 27.6822 0.538723 31.1578 1.92073C34.6334 3.30273 37.7127 5.52393 40.1206 8.38601C42.1763 10.8946 43.7012 13.7945 44.6026 16.91C45.7568 21.2299 45.6195 25.7933 44.2077 30.036C43.2687 32.8461 41.7849 35.4435 39.841 37.6795C37.8972 39.9155 35.5315 41.7462 32.8793 43.0669C30.2271 44.3876 27.3406 45.1723 24.3848 45.3762C21.429 45.5801 18.462 45.1991 15.6536 44.255C12.4847 43.2047 9.59079 41.4591 7.18367 39.1459C4.77655 36.8328 2.9172 34.0106 1.74165 30.886C0.303063 27.117 -0.0957345 23.0305 0.587051 19.0545C1.26984 15.0785 3.00907 11.3592 5.62263 8.28601C7.2031 6.37274 9.1078 4.75238 11.2496 3.499C13.979 1.85052 17.0337 0.814325 20.2027 0.46201V0.466007ZM21.0626 11.674C19.9116 13.633 20.2626 15.994 20.2066 18.161H17.2996V22.775C18.2676 22.775 19.2366 22.775 20.2066 22.775V35.406H25.9696V22.775H29.7807C29.9973 21.2417 30.164 19.7047 30.2807 18.164H25.9666C25.9846 17.001 26.0026 15.839 26.0346 14.678C26.2917 14.3234 26.6784 14.0847 27.1106 14.014C28.1626 13.93 29.2216 13.962 30.2776 13.952C30.2836 12.428 30.2616 10.905 30.2916 9.38101C28.7616 9.36501 27.2307 9.32101 25.7027 9.42501C24.8053 9.40115 23.9153 9.59338 23.1078 9.98548C22.3003 10.3776 21.5988 10.9581 21.0626 11.678V11.674Z" fill="#2654CE"/>
</svg>
