<svg width="50" height="47" viewBox="0 0 50 47" fill="none" xmlns="http://www.w3.org/2000/svg">
<path fill-rule="evenodd" clip-rule="evenodd" d="M23.5352 1.46484C23.5352 0.655859 24.191 0 25 0C25.809 0 26.4648 0.655859 26.4648 1.46484V4.39453C26.4648 5.20351 25.809 5.85937 25 5.85937C24.191 5.85937 23.5352 5.20351 23.5352 4.39453V1.46484ZM41.7318 30.2796C46.2579 32.0167 49.4618 35.4644 49.6142 35.6304C50.1274 36.1892 50.1287 37.0475 49.6174 37.6082C49.3814 37.867 43.7565 43.9453 36.7187 43.9453C34.5 43.9453 32.4318 43.3414 30.6317 42.5062C28.7317 44.9809 25.8549 46.6104 25.7155 46.6885C25.4932 46.8128 25.2466 46.875 25 46.875C24.7535 46.875 24.5069 46.8129 24.2846 46.6885C24.1452 46.6104 21.2683 44.9809 19.3684 42.5062C17.5681 43.3414 15.4999 43.9453 13.2812 43.9453C6.24342 43.9453 0.61852 37.867 0.382582 37.6083C-0.128746 37.0476 -0.127378 36.1893 0.385805 35.6305C0.538149 35.4644 3.74205 32.0167 8.26822 30.2797C6.80182 27.8524 5.95699 25.0095 5.95699 21.9726V19.043C5.95699 18.234 6.61285 17.5781 7.42184 17.5781H10.3515C13.12 17.5781 15.7768 18.2667 18.1498 19.5853C19.5769 13.699 23.7478 9.43594 23.9603 9.22187C24.2354 8.94482 24.6096 8.78906 25 8.78906C25.3903 8.78906 25.7645 8.94482 26.0395 9.22197C26.252 9.43603 30.4229 13.699 31.85 19.5854C34.2231 18.2667 36.8799 17.5781 39.6484 17.5781H42.5781C43.3871 17.5781 44.0429 18.234 44.0429 19.043V21.9726C44.0429 25.0095 43.1981 27.8524 41.7318 30.2796ZM29.3945 23.4375C29.3945 18.6632 26.5803 14.4671 25.0021 12.4895C23.4248 14.4724 20.6054 18.682 20.6054 23.4375C20.6054 28.2118 23.4196 32.4079 24.9978 34.3854C26.5751 32.4026 29.3945 28.193 29.3945 23.4375ZM3.57975 36.6233C5.33014 38.1776 9.09918 41.0156 13.2812 41.0156C16.1092 41.0156 18.8565 39.7248 21.1433 38.0586C16.7679 37.8092 12.8545 35.8063 10.0964 32.7432C7.2649 33.635 4.87389 35.4775 3.57975 36.6233ZM8.88668 20.5078V21.9726C8.88668 29.1853 14.709 35.0627 21.9004 35.1541C20.0661 32.6069 17.6757 28.3464 17.6757 23.4375C17.6757 23.2039 17.6815 22.9719 17.6919 22.7413C15.5199 21.2791 12.999 20.5078 10.3515 20.5078H8.88668ZM21.9586 41.057C22.9415 42.2227 24.216 43.1627 25 43.684C25.7834 43.163 27.0582 42.2229 28.0411 41.057C26.7546 40.2128 25.7153 39.3414 24.9999 38.6832C24.2844 39.3414 23.2451 40.2128 21.9586 41.057ZM32.308 22.7413C32.3184 22.9719 32.3242 23.2039 32.3242 23.4375C32.3242 28.3464 29.9338 32.6069 28.0995 35.1541C35.2909 35.0627 41.1132 29.1853 41.1132 21.9726V20.5078H39.6484C37.0009 20.5078 34.48 21.2791 32.308 22.7413ZM28.8662 38.058C30.8291 39.4851 33.6494 41.0156 36.7187 41.0156C40.9198 41.0156 44.6779 38.1802 46.4226 36.6254C45.1295 35.4803 42.7372 33.6357 39.9036 32.7432C37.1474 35.8042 33.2377 37.8062 28.8662 38.058ZM15.3528 8.78909L13.2812 6.7175C12.7091 6.14543 11.7817 6.14543 11.2096 6.7175C10.6375 7.28957 10.6375 8.21702 11.2096 8.78909L13.2812 10.8607C13.8531 11.4326 14.7806 11.4328 15.3528 10.8607C15.9248 10.2886 15.9248 9.36116 15.3528 8.78909ZM36.7186 6.7175C37.2908 6.14543 38.2182 6.14543 38.7903 6.7175C39.3623 7.28957 39.3623 8.21702 38.7903 8.78909L36.7187 10.8607C36.1466 11.4327 35.2191 11.4327 34.6471 10.8607C34.0751 10.2886 34.0751 9.36116 34.6471 8.78909L36.7186 6.7175Z" fill="#00B34F"/>
</svg>
