<?xml version="1.0" encoding="utf-8"?>
<!-- Generator: Adobe Illustrator 16.0.0, SVG Export Plug-In . SVG Version: 6.00 Build 0)  -->
<!DOCTYPE svg PUBLIC "-//W3C//DTD SVG 1.1//EN" "http://www.w3.org/Graphics/SVG/1.1/DTD/svg11.dtd">
<svg version="1.1" id="Layer_1" xmlns="http://www.w3.org/2000/svg" xmlns:xlink="http://www.w3.org/1999/xlink" x="0px" y="0px"
	 width="53px" height="61px" viewBox="0 0 53 61" enable-background="new 0 0 53 61" xml:space="preserve">
<path fill="#1E55F4" d="M12.001,13.17h22c0.266,0,0.52-0.105,0.707-0.293s0.293-0.442,0.293-0.707s-0.105-0.52-0.293-0.707
	s-0.441-0.293-0.707-0.293h-22c-0.265,0-0.52,0.105-0.707,0.293s-0.293,0.442-0.293,0.707s0.105,0.52,0.293,0.707
	S11.736,13.17,12.001,13.17z"/>
<path fill="#1E55F4" d="M12.001,19.17h22c0.266,0,0.52-0.105,0.707-0.293s0.293-0.442,0.293-0.707s-0.105-0.52-0.293-0.707
	s-0.441-0.293-0.707-0.293h-22c-0.265,0-0.52,0.105-0.707,0.293s-0.293,0.442-0.293,0.707s0.105,0.52,0.293,0.707
	S11.736,19.17,12.001,19.17z"/>
<path fill="#1E55F4" d="M12.001,25.17h22c0.266,0,0.52-0.105,0.707-0.293s0.293-0.442,0.293-0.707s-0.105-0.52-0.293-0.707
	s-0.441-0.293-0.707-0.293h-22c-0.265,0-0.52,0.105-0.707,0.293s-0.293,0.442-0.293,0.707s0.105,0.52,0.293,0.707
	S11.736,25.17,12.001,25.17z"/>
<path fill="#1E55F4" d="M12.001,31.17h22c0.266,0,0.52-0.105,0.707-0.293s0.293-0.442,0.293-0.707s-0.105-0.52-0.293-0.707
	s-0.441-0.293-0.707-0.293h-22c-0.265,0-0.52,0.105-0.707,0.293s-0.293,0.442-0.293,0.707s0.105,0.52,0.293,0.707
	S11.736,31.17,12.001,31.17z"/>
<path fill="#1E55F4" d="M12.001,37.17h8c0.265,0,0.52-0.105,0.707-0.293s0.293-0.441,0.293-0.707s-0.105-0.52-0.293-0.707
	s-0.442-0.293-0.707-0.293h-8c-0.265,0-0.52,0.105-0.707,0.293s-0.293,0.441-0.293,0.707s0.105,0.52,0.293,0.707
	S11.736,37.17,12.001,37.17z"/>
<path fill="#1E55F4" d="M51.519,23.797c-0.687-0.401-1.505-0.514-2.274-0.313s-1.428,0.699-1.831,1.385l-2.411,4.114V4.17
	c0-0.266-0.105-0.52-0.293-0.708S44.268,3.17,44.002,3.17h-7.586c0,0-3.005-3.06-3.125-2.957C33.197,0.184,33.1,0.17,33.002,0.169
	h-29c-0.265,0-0.52,0.105-0.707,0.293S3.001,0.904,3.001,1.169v3.127C2.143,4.518,1.381,5.019,0.838,5.72
	C0.295,6.421,0,7.283,0,8.17c0,0.887,0.295,1.749,0.838,2.45c0.543,0.701,1.304,1.202,2.163,1.423v2.253
	c-0.859,0.221-1.62,0.722-2.163,1.423C0.295,16.421,0,17.283,0,18.17s0.295,1.749,0.838,2.45c0.543,0.701,1.304,1.202,2.163,1.423
	v2.253c-0.859,0.222-1.62,0.722-2.163,1.423C0.295,26.421,0,27.283,0,28.17s0.295,1.749,0.838,2.45
	c0.543,0.701,1.304,1.202,2.163,1.423v1.254c-0.859,0.221-1.62,0.722-2.163,1.423C0.295,35.421,0,36.283,0,37.17
	s0.295,1.749,0.838,2.45c0.543,0.701,1.304,1.202,2.163,1.423v6.127c0,0.266,0.105,0.52,0.293,0.707s0.442,0.293,0.707,0.293h1v3
	c0,0.266,0.105,0.52,0.293,0.707s0.442,0.293,0.707,0.293h25.412l-0.685,1.17c-0.063,0.104-0.104,0.22-0.123,0.34
	c-0.001,0.006-0.002,0.01-0.004,0.016L30.6,53.713v0.004l-0.801,5.305c-0.029,0.197,0.001,0.399,0.087,0.58
	c0.087,0.18,0.225,0.33,0.397,0.432c0.172,0.101,0.371,0.148,0.57,0.135c0.199-0.013,0.391-0.086,0.548-0.208l4.254-3.302
	c0.272-0.213,0.405-0.342,0.384-0.516l2.328-3.973h5.635c0.266,0,0.52-0.105,0.707-0.293s0.293-0.441,0.293-0.707V40.85
	l7.588-12.948c0.4-0.687,0.514-1.504,0.313-2.274C52.702,24.858,52.204,24.2,51.519,23.797z M49.749,25.417
	c0.191-0.05,0.394-0.042,0.58,0.022c0.187,0.065,0.351,0.184,0.47,0.341s0.189,0.348,0.201,0.545s-0.035,0.394-0.136,0.564
	l-0.505,0.863l-1.726-1.012l0.506-0.862c0.065-0.113,0.153-0.213,0.259-0.292C49.502,25.508,49.622,25.45,49.749,25.417z
	 M34.685,54.499l-1.726-1.011l13.146-22.432l1.725,1.011L34.685,54.499z M34.002,3.584l3.586,3.586h-3.586V3.584z M47.116,29.331
	l0.506-0.863l1.726,1.011l-0.506,0.863L47.116,29.331z M43.002,5.17v27c0,0.064,0.006,0.129,0.02,0.193l-2.02,3.445V8.17
	c0-0.131-0.025-0.261-0.076-0.382c-0.05-0.121-0.123-0.231-0.216-0.324l-0.001-0.001L38.416,5.17H43.002z M5.001,2.169h27v6
	c0,0.265,0.105,0.52,0.293,0.707s0.441,0.293,0.707,0.293h6v30.051L34.93,46.17H5.001v-5.127c0.692-0.178,1.324-0.539,1.83-1.044
	s0.866-1.138,1.044-1.829c0.066-0.258,0.027-0.53-0.107-0.759c-0.135-0.229-0.355-0.394-0.612-0.46
	c-0.127-0.033-0.259-0.04-0.39-0.021c-0.13,0.018-0.255,0.063-0.368,0.129c-0.229,0.135-0.394,0.355-0.46,0.612
	c-0.066,0.257-0.183,0.499-0.344,0.71c-0.161,0.211-0.362,0.389-0.592,0.521v-6.858c0.692-0.178,1.324-0.539,1.83-1.044
	c0.505-0.505,0.866-1.138,1.044-1.83c0.066-0.257,0.027-0.53-0.107-0.758c-0.135-0.229-0.355-0.394-0.612-0.46
	c-0.257-0.066-0.529-0.027-0.758,0.107c-0.229,0.135-0.394,0.355-0.46,0.612c-0.066,0.257-0.183,0.498-0.344,0.709
	c-0.161,0.211-0.362,0.389-0.592,0.521v-7.858c0.692-0.178,1.324-0.539,1.83-1.044c0.505-0.506,0.866-1.138,1.044-1.83
	c0.066-0.257,0.027-0.529-0.107-0.758c-0.135-0.229-0.355-0.394-0.612-0.46c-0.257-0.066-0.529-0.028-0.758,0.107
	c-0.229,0.135-0.394,0.355-0.46,0.612c-0.066,0.257-0.183,0.499-0.344,0.71c-0.161,0.211-0.362,0.388-0.592,0.521v-7.857
	c0.692-0.179,1.324-0.539,1.83-1.045c0.505-0.505,0.866-1.137,1.044-1.83c0.066-0.257,0.027-0.53-0.107-0.758
	c-0.135-0.229-0.355-0.394-0.612-0.46C6.899,7.885,6.626,7.923,6.398,8.059C6.169,8.193,6.004,8.414,5.938,8.67
	C5.872,8.928,5.755,9.169,5.594,9.38C5.433,9.591,5.232,9.769,5.001,9.901V2.169z M2.001,8.17c0-0.351,0.093-0.695,0.269-0.999
	C2.446,6.868,2.698,6.616,3.001,6.44v3.458C2.698,9.724,2.446,9.472,2.27,9.168C2.095,8.865,2.002,8.521,2.001,8.17z M2.001,18.17
	c0-0.351,0.093-0.695,0.269-0.999c0.176-0.304,0.428-0.556,0.731-0.731v3.459c-0.304-0.175-0.556-0.428-0.731-0.731
	C2.095,18.865,2.002,18.521,2.001,18.17z M2.001,28.17c0-0.351,0.093-0.695,0.269-0.999c0.176-0.304,0.428-0.556,0.731-0.731v3.459
	c-0.304-0.175-0.556-0.428-0.731-0.731C2.095,28.865,2.002,28.521,2.001,28.17z M2.001,37.17c0-0.351,0.093-0.695,0.269-0.998
	c0.176-0.304,0.428-0.557,0.731-0.731v3.459c-0.304-0.175-0.556-0.427-0.731-0.731C2.095,37.865,2.002,37.521,2.001,37.17z
	 M7.001,50.17v-2h26.756l-1.172,2H7.001z M32.359,55.455l0.902,0.528l-1.112,0.864L32.359,55.455z M43.002,50.17h-3.463l3.463-5.908
	V50.17z"/>
</svg>
