<?xml version="1.0" encoding="utf-8"?>
<!-- Generator: Adobe Illustrator 16.0.0, SVG Export Plug-In . SVG Version: 6.00 Build 0)  -->
<!DOCTYPE svg PUBLIC "-//W3C//DTD SVG 1.1//EN" "http://www.w3.org/Graphics/SVG/1.1/DTD/svg11.dtd">
<svg version="1.1" id="Layer_1" xmlns="http://www.w3.org/2000/svg" xmlns:xlink="http://www.w3.org/1999/xlink" x="0px" y="0px"
	 width="50px" height="47px" viewBox="0 0 50 47" enable-background="new 0 0 50 47" xml:space="preserve">
<path fill="#00A09B" d="M23.535,1.465C23.535,0.656,24.191,0,25,0c0.809,0,1.465,0.656,1.465,1.465v2.93
	c0,0.809-0.656,1.465-1.465,1.465c-0.809,0-1.465-0.656-1.465-1.465V1.465z M41.732,30.279c4.525,1.737,7.729,5.186,7.882,5.352
	c0.513,0.559,0.515,1.416,0.003,1.978c-0.236,0.259-5.861,6.337-12.898,6.337c-2.219,0-4.287-0.604-6.087-1.439
	c-1.9,2.475-4.776,4.104-4.917,4.183c-0.222,0.124-0.468,0.187-0.715,0.187s-0.493-0.063-0.715-0.187
	c-0.14-0.078-3.016-1.708-4.917-4.183c-1.8,0.836-3.868,1.439-6.087,1.439c-7.038,0-12.663-6.078-12.898-6.337
	c-0.512-0.562-0.51-1.419,0.003-1.978c0.152-0.166,3.356-3.614,7.882-5.352c-1.466-2.427-2.311-5.27-2.311-8.307v-2.93
	c0-0.809,0.656-1.465,1.465-1.465h2.93c2.769,0,5.425,0.688,7.798,2.007c1.427-5.886,5.598-10.149,5.811-10.364
	c0.275-0.277,0.649-0.433,1.04-0.433c0.39,0,0.765,0.156,1.039,0.433c0.213,0.214,4.384,4.477,5.811,10.363
	c2.373-1.319,5.03-2.007,7.799-2.007h2.93c0.809,0,1.465,0.656,1.465,1.465v2.93C44.043,25.01,43.198,27.853,41.732,30.279z
	 M29.395,23.438c0-4.774-2.814-8.97-4.393-10.948c-1.577,1.982-4.396,6.192-4.396,10.948c0,4.774,2.814,8.971,4.393,10.947
	C26.575,32.402,29.395,28.193,29.395,23.438z M3.58,36.623c1.75,1.555,5.52,4.393,9.702,4.393c2.828,0,5.575-1.291,7.862-2.957
	c-4.375-0.25-8.289-2.252-11.047-5.315C7.265,33.635,4.874,35.478,3.58,36.623z M8.887,20.508v1.465
	c0,7.213,5.822,13.09,13.014,13.182c-1.834-2.547-4.225-6.809-4.225-11.717c0-0.233,0.006-0.466,0.016-0.696
	c-2.172-1.462-4.693-2.233-7.34-2.233H8.887z M21.958,41.057c0.983,1.166,2.257,2.105,3.042,2.627
	c0.783-0.521,2.059-1.461,3.041-2.627c-1.287-0.844-2.326-1.715-3.041-2.373C24.284,39.342,23.245,40.213,21.958,41.057z
	 M32.309,22.741c0.01,0.23,0.016,0.463,0.016,0.696c0,4.908-2.391,9.17-4.225,11.717c7.191-0.092,13.014-5.969,13.014-13.182v-1.465
	h-1.465C37.001,20.508,34.48,21.279,32.309,22.741z M28.866,38.059c1.963,1.426,4.783,2.957,7.853,2.957
	c4.201,0,7.959-2.836,9.704-4.391c-1.294-1.145-3.686-2.989-6.519-3.882C37.147,35.805,33.238,37.807,28.866,38.059z M15.353,8.789
	l-2.072-2.072c-0.572-0.572-1.5-0.572-2.072,0c-0.572,0.572-0.572,1.5,0,2.072l2.072,2.072c0.572,0.572,1.5,0.572,2.072,0
	C15.925,10.289,15.925,9.361,15.353,8.789z M36.719,6.717c0.572-0.572,1.5-0.572,2.071,0c0.572,0.572,0.572,1.5,0,2.072
	l-2.071,2.072c-0.572,0.572-1.5,0.572-2.072,0c-0.571-0.572-0.571-1.5,0-2.072L36.719,6.717z"/>
</svg>
