<svg width="46" height="46" viewBox="0 0 46 46" fill="none" xmlns="http://www.w3.org/2000/svg">
<path d="M19.9236 0.44496C23.2574 0.0731403 26.6322 0.445331 29.805 1.53472C32.9777 2.62411 35.8693 4.40358 38.2716 6.74496C39.2278 7.72714 40.121 8.76888 40.9456 9.86396C43.4473 13.4916 44.858 17.7599 45.0106 22.164C45.1941 27.3212 43.5976 32.3845 40.489 36.5036C37.3805 40.6228 32.9493 43.5469 27.9396 44.785C22.9298 46.0231 17.6466 45.4997 12.9772 43.3027C8.30774 41.1057 4.53644 37.369 2.29656 32.72C1.10044 30.1565 0.338401 27.4121 0.041552 24.599C-0.0566883 22.9123 0.0193862 21.22 0.268557 19.549C1.01522 14.587 3.38548 10.0125 7.00856 6.54096C10.5655 3.20152 15.0847 1.06842 19.9236 0.44496ZM13.9236 11.098C12.9029 11.3281 11.9869 11.8889 11.3178 12.6933C10.6487 13.4977 10.264 14.5005 10.2236 15.546C10.1996 20.562 10.2235 25.579 10.2135 30.595C10.2069 31.5429 10.4761 32.4722 10.9883 33.2698C11.5006 34.0674 12.2338 34.6988 13.0986 35.087C14.0401 35.4086 15.0379 35.5328 16.0296 35.452C20.6386 35.444 25.2486 35.452 29.8576 35.452C31.1027 35.4522 32.2984 34.9642 33.1878 34.0928C34.0772 33.2213 34.5894 32.0359 34.6146 30.791C34.6245 25.711 34.6245 20.6306 34.6146 15.55C34.5585 14.3206 34.0343 13.1593 33.1494 12.304C32.2646 11.4487 31.0861 10.9643 29.8556 10.95C25.5096 10.95 21.1616 10.982 16.8156 10.994C15.8514 10.9121 14.8809 10.9484 13.9256 11.102L13.9236 11.098Z" fill="#D2296F"/>
<path d="M27.6996 17.9627C27.6086 16.5602 27.626 15.1526 27.7516 13.7527C29.1106 13.7367 30.4676 13.7767 31.8266 13.7907C31.8886 15.1817 31.8446 16.5707 31.8106 17.9607C30.4399 17.9654 29.0696 17.9661 27.6996 17.9627Z" fill="#D2296F"/>
<path d="M21.1125 19.1019C22.1498 18.7776 23.2708 18.8536 24.2548 19.3148C25.2388 19.7761 26.0143 20.5892 26.4285 21.5939C26.7272 22.331 26.8166 23.1363 26.6868 23.921C26.557 24.7057 26.2131 25.4394 25.6929 26.0411C25.1728 26.6428 24.4967 27.0893 23.739 27.3313C22.9814 27.5733 22.1716 27.6014 21.399 27.4125C20.6264 27.2237 19.9209 26.8252 19.3603 26.261C18.7996 25.6968 18.4057 24.9888 18.2218 24.215C18.0378 23.4412 18.0711 22.6316 18.3179 21.8755C18.5647 21.1194 19.0155 20.4461 19.6205 19.9299C20.0674 19.5714 20.5719 19.2915 21.1125 19.1019Z" fill="#D2296F"/>
<path d="M12.5566 20.7101C13.7656 20.7261 14.9726 20.7221 16.1806 20.7101C15.6046 22.3998 15.665 24.2417 16.3506 25.8901C16.8223 26.9874 17.5842 27.9355 18.5543 28.6323C19.5244 29.3291 20.6661 29.7484 21.8566 29.8451C23.533 29.9925 25.2029 29.4975 26.5281 28.4602C27.8534 27.4229 28.735 25.9208 28.9946 24.2581C29.1308 23.0496 29.0161 21.8261 28.6576 20.6641C29.8646 20.6941 31.0736 20.7021 32.2816 20.7201C32.3396 24.0821 32.2556 27.4461 32.2616 30.8071C32.2538 31.1162 32.1851 31.4207 32.0594 31.7032C31.9336 31.9857 31.7534 32.2406 31.5289 32.4532C31.3044 32.6659 31.0402 32.8322 30.7513 32.9425C30.4625 33.0528 30.1547 33.105 29.8456 33.0961C24.8356 33.0961 19.8246 33.1121 14.8166 33.0881C14.2199 33.0668 13.6541 32.8169 13.2366 32.39C12.8191 31.9632 12.5817 31.3921 12.5736 30.7951C12.5426 27.4341 12.5886 24.0721 12.5566 20.7101Z" fill="#D2296F"/>
</svg>
