<svg width="46" height="46" viewBox="0 0 46 46" fill="none" xmlns="http://www.w3.org/2000/svg">
<path d="M20.5445 0.474425C25.4585 -0.0810183 30.4172 1.02097 34.6335 3.60543C37.4079 5.27555 39.7886 7.52553 41.6125 10.2013C43.4364 12.8771 44.6605 15.9154 45.201 19.1083C45.7415 22.3012 45.5855 25.5731 44.7438 28.7001C43.9022 31.8271 42.3946 34.7352 40.3244 37.2254C37.8509 40.2563 34.6166 42.5758 30.9525 43.9464C27.5483 45.2433 23.8805 45.6951 20.2634 45.2631C16.6463 44.8311 13.1879 43.5281 10.185 41.466C7.18207 39.4039 4.72412 36.6441 3.02203 33.4234C1.31994 30.2027 0.424506 26.6172 0.412476 22.9744C0.433712 21.0946 0.651212 19.2221 1.06146 17.3874C1.78395 14.6483 2.98877 12.0598 4.61945 9.74343C6.47138 7.16437 8.84744 5.00577 11.5919 3.40909C14.3363 1.81242 17.3872 0.813718 20.5445 0.47843V0.474425ZM16.0865 14.2104C14.6395 14.2784 13.0055 14.2104 11.8325 15.2004C10.6955 16.4194 10.6325 18.1854 10.4875 19.7574C10.3491 21.9011 10.3551 24.0516 10.5054 26.1944C10.4935 27.5705 10.8212 28.9283 11.4594 30.1474C11.8581 30.5802 12.3469 30.9202 12.8914 31.1432C13.4359 31.3663 14.0227 31.4671 14.6104 31.4384C20.2912 31.7742 25.9869 31.7722 31.6674 31.4324C32.3946 31.4237 33.1047 31.2106 33.7165 30.8174C34.465 30.2539 34.9686 29.4245 35.1235 28.5004C35.4851 25.7451 35.5854 22.9617 35.4234 20.1874C35.4883 18.6542 35.1766 17.1283 34.5154 15.7434C34.205 15.3261 33.8064 14.9822 33.3481 14.7362C32.8897 14.4903 32.3829 14.3483 31.8635 14.3204C26.6098 14.0141 21.344 13.9764 16.0865 14.2074V14.2104Z" fill="#FF0000"/>
<path d="M20.3185 18.9863C22.6095 20.2253 24.9184 21.4243 27.2324 22.6263C24.9194 23.7873 22.6325 25.0033 20.3325 26.1863C20.3385 23.7873 20.3665 21.3863 20.3185 18.9863Z" fill="#FF0000"/>
</svg>
