<svg width="45" height="45" viewBox="0 0 45 45" fill="none" xmlns="http://www.w3.org/2000/svg">
<path d="M4.46924 0H40.5097C40.9412 0.0720703 41.3499 0.331348 41.5397 0.734766C41.719 1.0749 41.6769 1.47041 41.6795 1.84131C41.6848 3.65977 41.6795 5.47822 41.6769 7.29668C41.6795 7.96553 41.1056 8.56494 40.4367 8.59307C39.7169 8.6502 39.0393 8.02002 39.0454 7.29756C39.0384 5.74453 39.0472 4.19063 39.0428 2.6376C37.8677 2.63672 36.6926 2.63584 35.5184 2.6376C35.5236 5.81748 35.5069 8.99824 35.5307 12.1781C37.7719 13.2231 39.2801 15.6296 39.2537 18.102C39.2607 19.2437 39.2493 20.3854 39.2607 21.5271C39.2845 22.7821 39.8733 24.0082 40.8322 24.8168C41.1978 25.1481 41.6637 25.3336 42.0601 25.6236C43.8258 26.84 44.9358 28.9248 45 31.0641V34.1473C44.9552 35.4138 44.572 36.6706 43.8706 37.7288C43.2914 38.62 42.4951 39.3601 41.5872 39.9094C42.5874 40.6187 43.5454 41.531 43.8882 42.7465C44.0165 43.2686 44.1264 43.8724 43.8267 44.3584C43.6254 44.7091 43.251 44.9227 42.8625 45H2.1709C1.74287 44.9376 1.33857 44.6871 1.13818 44.2978C0.880664 43.8223 0.987012 43.2527 1.10918 42.7544C1.45107 41.5354 2.4126 40.6195 3.41455 39.9067C1.3957 38.7325 0.0509766 36.4948 0 34.1552V31.0702C0.0580078 28.7314 1.39043 26.4744 3.42598 25.316C4.79795 24.5856 5.69795 23.0774 5.73926 21.5288C5.76035 20.2456 5.7208 18.9615 5.76035 17.6783C5.88164 15.3448 7.36963 13.1634 9.47549 12.1641C9.49131 8.98857 9.47373 5.81309 9.48252 2.6376C7.84248 2.63145 6.20244 2.64551 4.5624 2.63057C3.82412 2.60947 3.21152 1.87559 3.33281 1.14521C3.40137 0.559863 3.89795 0.0949219 4.46924 0ZM12.1184 2.63672C12.1175 5.596 12.1175 8.55527 12.1184 11.5146C15.7658 11.4302 19.5724 12.2836 22.4771 14.5854C23.2664 13.9289 24.1436 13.3778 25.0787 12.9524C27.5089 11.831 30.2212 11.4416 32.8808 11.5058C32.8825 8.54912 32.8816 5.59336 32.8808 2.63672C25.9603 2.63848 19.0389 2.6376 12.1184 2.63672ZM13.6529 14.1785C13.6556 17.978 13.6512 21.7784 13.6556 25.5779C13.6767 27.2479 14.211 28.9063 15.1743 30.2713C16.3336 31.9526 18.1292 33.1796 20.1182 33.6454C21.1535 33.91 22.2302 33.8845 23.2901 33.8643C25.476 33.7913 27.6029 32.799 29.083 31.1924C30.5183 29.6613 31.3453 27.581 31.3453 25.4821C31.3436 21.7107 31.3497 17.9402 31.3436 14.1688C28.7631 14.306 26.0859 14.9774 24.0829 16.6887C23.6681 17.0077 23.3736 17.514 22.8375 17.6467C22.3383 17.7952 21.8013 17.5799 21.4585 17.2072C19.3887 15.2016 16.4725 14.3481 13.6529 14.1785ZM8.52451 17.0481C8.31445 17.7636 8.39619 18.5159 8.37949 19.2507C8.36807 20.156 8.41377 21.0639 8.35312 21.9691C8.17559 24.3062 6.7667 26.5245 4.69248 27.6293C3.45498 28.3632 2.64814 29.7598 2.63848 31.1994C2.6376 32.1363 2.63145 33.0732 2.64287 34.0093C2.64902 34.984 3.00586 35.9525 3.63779 36.6943C4.38135 37.5785 5.5002 38.1595 6.65947 38.1955C9.12393 37.2076 11.6895 36.4966 14.2796 35.9288C14.2831 35.0517 14.2796 34.1745 14.2813 33.2974C12.2449 31.2785 11.0382 28.4493 11.0188 25.5788C11.0153 21.8443 11.0197 18.1107 11.0162 14.3763C9.81826 14.7955 8.85586 15.8221 8.52451 17.0481ZM33.9847 14.3763C33.9812 17.6985 33.9838 21.0208 33.982 24.3431C33.9785 25.1666 34.0066 25.9937 33.8977 26.8119C33.6041 29.2509 32.4536 31.5642 30.7178 33.2982C30.7204 34.1745 30.716 35.0517 30.7204 35.9288C33.3079 36.4913 35.8699 37.205 38.33 38.1929C39.3223 38.17 40.2917 37.7385 41.0133 37.0608C41.8518 36.2848 42.3492 35.1562 42.3563 34.0137C42.3686 33.0759 42.3633 32.1372 42.3615 31.1994C42.3501 29.7387 41.5204 28.3219 40.2539 27.5959C38.1217 26.4498 36.7058 24.1181 36.6284 21.7037C36.6029 20.4284 36.6363 19.1522 36.6108 17.877C36.5388 16.3213 35.4551 14.8825 33.9847 14.3763ZM23.2005 36.5027C22.3172 36.5159 21.4286 36.5273 20.5515 36.4052C19.285 36.2312 18.0501 35.8339 16.9189 35.238C16.9348 35.7943 16.8891 36.3542 16.9409 36.9079C17.4278 38.7237 17.935 40.5352 18.4201 42.3519C21.1351 42.3782 23.8518 42.3545 26.5676 42.3642C27.0378 40.696 27.4825 39.0208 27.9413 37.35C28.19 36.6732 28.0441 35.9446 28.0837 35.2424C26.5781 36.022 24.8985 36.4781 23.2005 36.5027ZM7.5542 40.6881C6.49951 41.1407 5.44834 41.6435 4.5457 42.3624C8.26172 42.3633 11.9777 42.3606 15.6937 42.3633C15.3457 41.0906 15.0038 39.8171 14.6496 38.5471C12.2405 39.099 9.83936 39.7354 7.5542 40.6881ZM30.3495 38.5488C30.0006 39.8197 29.6534 41.0906 29.308 42.3624C33.0249 42.3606 36.7418 42.365 40.4578 42.3606C38.9813 41.2216 37.212 40.558 35.47 39.9445C33.7904 39.3855 32.0783 38.9259 30.3495 38.5488Z" fill="#0082CB"/>
</svg>
