<?xml version="1.0" encoding="utf-8"?>
<!-- Generator: Adobe Illustrator 16.0.0, SVG Export Plug-In . SVG Version: 6.00 Build 0)  -->
<!DOCTYPE svg PUBLIC "-//W3C//DTD SVG 1.1//EN" "http://www.w3.org/Graphics/SVG/1.1/DTD/svg11.dtd">
<svg version="1.1" id="Layer_1" xmlns="http://www.w3.org/2000/svg" xmlns:xlink="http://www.w3.org/1999/xlink" x="0px" y="0px"
	 width="160px" height="40px" viewBox="0 0 160 40" enable-background="new 0 0 160 40" xml:space="preserve">
<g>
	<g>
		<polygon fill="#00589F" points="27.576,31.654 31.537,8.404 37.877,8.404 33.909,31.654 27.576,31.654 		"/>
		<path fill="#00589F" d="M56.896,8.977C55.642,8.505,53.674,8,51.216,8c-6.262,0-10.673,3.153-10.712,7.674
			c-0.035,3.34,3.149,5.205,5.553,6.316c2.469,1.141,3.298,1.867,3.287,2.885c-0.018,1.559-1.972,2.27-3.794,2.27
			c-2.535,0-3.882-0.352-5.964-1.22l-0.816-0.368l-0.89,5.204c1.479,0.649,4.216,1.212,7.06,1.239
			c6.663,0,10.985-3.116,11.035-7.943C56,21.413,54.312,19.4,50.656,17.74c-2.217-1.076-3.574-1.793-3.561-2.883
			c0-0.966,1.148-2,3.631-2c2.07-0.033,3.574,0.419,4.741,0.891l0.57,0.269L56.896,8.977L56.896,8.977z"/>
		<path fill="#00589F" d="M73.146,8.426H68.25c-1.518,0-2.652,0.415-3.318,1.928l-9.411,21.31h6.655c0,0,1.086-2.865,1.334-3.494
			c0.727,0,7.191,0.01,8.116,0.01c0.188,0.813,0.77,3.484,0.77,3.484h5.882L73.146,8.426L73.146,8.426z M65.332,23.414
			c0.525-1.341,2.524-6.5,2.524-6.5c-0.035,0.062,0.521-1.347,0.841-2.22l0.429,2.006c0,0,1.213,5.55,1.468,6.715H65.332
			L65.332,23.414z"/>
		<path fill="#00589F" d="M22.261,8.421l-6.205,15.856l-0.663-3.221c-1.152-3.717-4.751-7.741-8.776-9.756l5.673,20.336l6.705-0.009
			l9.978-23.207H22.261L22.261,8.421z"/>
		<path fill="#F9A51A" d="M10.301,8.407H0.078L0,8.89c7.95,1.926,13.212,6.577,15.393,12.167l-2.22-10.688
			C12.79,8.897,11.676,8.458,10.301,8.407L10.301,8.407z"/>
	</g>
	<g>
		<circle fill="#ED1B2D" cx="116" cy="20" r="20"/>
		<circle fill="#FCB330" cx="140" cy="20" r="20"/>
		<path fill="#ED1B2D" d="M116,32h15.973c0.481-0.64,0.927-1.305,1.33-2H116V32z"/>
		<path fill="#ED1B2D" d="M116,36h11.964c0.817-0.612,1.594-1.272,2.308-2H116V36z"/>
		<path fill="#ED1B2D" d="M116,28h18.325c0.284-0.65,0.541-1.315,0.757-2H116V28z"/>
		<path fill="#ED1B2D" d="M116,24h19.599c0.133-0.656,0.233-1.322,0.301-2H116V24z"/>
		<path fill="#ED1B2D" d="M116,20h20c0-0.676-0.035-1.342-0.101-2H116V20z"/>
		<path fill="#ED1B2D" d="M116,16h19.599c-0.139-0.68-0.312-1.347-0.517-2H116V16z"/>
		<path fill="#ED1B2D" d="M116,12h18.325c-0.302-0.689-0.648-1.354-1.022-2H116V12z"/>
		<path fill="#ED1B2D" d="M116,8h15.973c-0.527-0.701-1.088-1.375-1.701-2H116V8z"/>
	</g>
</g>
</svg>
