<svg width="22" height="23" viewBox="0 0 22 23" fill="none" xmlns="http://www.w3.org/2000/svg">
<path d="M0.786001 22.0357C0.577541 22.0357 0.377619 21.9528 0.230215 21.8054C0.0828116 21.658 1.14819e-06 21.4581 1.14819e-06 21.2497C-0.000793338 19.9409 0.410738 18.6651 1.17616 17.6035C1.94159 16.5419 3.022 15.7484 4.264 15.3357L7.609 14.2207C7.68893 14.1938 7.77267 14.1799 7.857 14.1797H14.143C14.2273 14.1799 14.3111 14.1938 14.391 14.2207L17.736 15.3357C18.978 15.7484 20.0584 16.5419 20.8238 17.6035C21.5893 18.6651 22.0008 19.9409 22 21.2497C22 21.4581 21.9172 21.658 21.7698 21.8054C21.6224 21.9528 21.4225 22.0357 21.214 22.0357H0.786001ZM6.286 7.89266V4.74966C6.286 3.49929 6.78271 2.30014 7.66685 1.416C8.55099 0.531861 9.75014 0.0351563 11.0005 0.0351562C12.2509 0.0351563 13.45 0.531861 14.3342 1.416C15.2183 2.30014 15.715 3.49929 15.715 4.74966V7.89266C15.715 9.14302 15.2183 10.3422 14.3342 11.2263C13.45 12.1105 12.2509 12.6072 11.0005 12.6072C9.75014 12.6072 8.55099 12.1105 7.66685 11.2263C6.78271 10.3422 6.286 9.14302 6.286 7.89266Z" fill="#233746"/>
</svg>
