<svg width="45" height="46" viewBox="0 0 45 46" fill="none" xmlns="http://www.w3.org/2000/svg">
<path d="M44.5416 30.9754C43.8433 28.7708 42.4385 27.2505 40.586 26.6944C38.9074 26.1902 37.1627 26.5893 35.6654 27.5532C35.3149 27.7787 34.91 27.9042 34.488 27.9168C34.4745 27.9165 34.4605 27.9158 34.4464 27.9163H34.3987C33.9865 27.9163 33.5542 27.793 33.1815 27.5532C32.3118 26.9934 31.3873 26.6439 30.4718 26.5232V2.64973H25.1724V0H5.29946V2.64973H0V39.746H25.1831C26.7485 42.9466 29.4429 45.0457 32.2042 45.0454C32.7154 45.0453 33.2201 44.9716 33.7029 44.8267C33.7127 44.8245 34.0402 44.717 34.4263 44.717C34.4386 44.718 34.7556 44.7088 35.1258 44.8213L35.1422 44.8261C35.6267 44.9716 36.1316 45.0453 36.6426 45.0453C39.9471 45.0453 43.1573 42.0401 44.4492 37.7372C45.1504 35.4022 45.1831 33.0008 44.5416 30.9754ZM7.9492 2.64973H22.5226V5.29946H7.9492V2.64973ZM2.64973 5.29946H5.29946V7.94919H25.1724V5.29946H27.8221V26.8481C26.1868 27.5006 24.9473 28.9485 24.3053 30.9754C23.7223 32.8159 23.6981 34.9667 24.2243 37.0962H2.64973V5.29946ZM41.9115 36.9753C40.9838 40.0654 38.7187 42.3957 36.6428 42.3957C36.39 42.3957 36.1415 42.3596 35.9107 42.2903C35.8563 42.2827 34.5628 41.7962 32.9538 42.2851C32.8998 42.2971 32.6218 42.3956 32.2041 42.3957C30.1283 42.3959 27.8633 40.0657 26.9356 36.9753C26.386 35.1451 26.3491 33.2985 26.8315 31.7755C27.6207 29.2834 29.5851 28.389 31.7475 29.7813C32.5186 30.2776 33.4114 30.5491 34.3246 30.5664C34.3427 30.5664 34.36 30.5675 34.4136 30.566C35.2925 30.579 36.2633 30.3195 37.0997 29.7812C39.2628 28.3887 41.2266 29.284 42.0157 31.7756C42.498 33.2984 42.461 35.1451 41.9115 36.9753Z" fill="#00B34F"/>
<path d="M15.8984 10.5989H25.1724V13.2486H15.8984V10.5989Z" fill="#00B34F"/>
<path d="M15.8984 15.8984H25.1724V18.5482H15.8984V15.8984Z" fill="#00B34F"/>
<path d="M13.2487 10.5989H5.29956V18.5481H13.2487V10.5989ZM10.5989 15.8983H7.94929V13.2486H10.5989V15.8983Z" fill="#00B34F"/>
<path d="M5.29956 21.1979H19.873V23.8476H5.29956V21.1979Z" fill="#00B34F"/>
<path d="M5.29956 26.4973H19.873V29.147H5.29956V26.4973Z" fill="#00B34F"/>
<path d="M30.4719 34.4464H33.1217V37.0933H30.4719V34.4464Z" fill="#00B34F"/>
<path d="M35.7714 34.4464H38.4211V37.0933H35.7714V34.4464Z" fill="#00B34F"/>
</svg>
