<?xml version="1.0" encoding="utf-8"?>
<!-- Generator: Adobe Illustrator 16.0.0, SVG Export Plug-In . SVG Version: 6.00 Build 0)  -->
<!DOCTYPE svg PUBLIC "-//W3C//DTD SVG 1.1//EN" "http://www.w3.org/Graphics/SVG/1.1/DTD/svg11.dtd">
<svg version="1.1" id="Layer_1" xmlns="http://www.w3.org/2000/svg" xmlns:xlink="http://www.w3.org/1999/xlink" x="0px" y="0px"
	 width="45px" height="38px" viewBox="0 0 45 38" enable-background="new 0 0 45 38" xml:space="preserve">
<path fill="#1E55F4" d="M13.033,12.225c-0.233-0.004-0.468-0.008-0.69,0.068c-0.646,0.193-1.063,0.935-0.871,1.585
	c0.141,0.563,0.686,0.988,1.267,0.982c2.154,0.001,4.308,0.001,6.462,0.001c2.154,0,4.307,0,6.461,0.001
	c0.391,0.019,0.795-0.125,1.063-0.416c0.385-0.4,0.476-1.048,0.198-1.533c-0.226-0.423-0.696-0.694-1.175-0.691
	c-2.217,0.003-4.435,0.002-6.652,0.002c-1.94,0-3.88-0.001-5.821,0.001C13.195,12.227,13.114,12.226,13.033,12.225z"/>
<path fill="#1E55F4" d="M12.526,17.578c2.375-0.022,4.752-0.019,7.129-0.016c1.358,0.001,2.717,0.003,4.075,0
	c0.725-0.025,1.37,0.634,1.334,1.357c-0.01,0.694-0.639,1.296-1.333,1.278h-1.688c-3.102,0.002-6.203,0.004-9.303-0.002
	c-0.619,0.004-1.193-0.479-1.292-1.088C11.303,18.411,11.828,17.683,12.526,17.578z"/>
<path fill="#1E55F4" d="M9.58,0.002c-0.425,0-0.85,0-1.274,0H8.304C5.977,0.001,3.65,0,1.324,0.004C0.67-0.012,0.099,0.517,0,1.152
	v30.213c0.09,0.638,0.662,1.174,1.317,1.16c4.05,0.002,8.101,0.002,12.151,0.002h0.119c5.023-0.001,10.046-0.002,15.069,0.001
	c0.002,0.546,0.001,1.093,0,1.638c0,0.692-0.002,1.385,0.003,2.076c-0.013,0.648,0.515,1.211,1.143,1.313h0.308
	c0.252-0.047,0.498-0.137,0.699-0.299c0.323-0.255,0.643-0.514,0.963-0.772l0.005-0.003v-0.001c0.476-0.384,0.951-0.769,1.438-1.14
	c0.263,0.213,0.524,0.424,0.788,0.635c0.161,0.129,0.322,0.259,0.484,0.389c0.359,0.287,0.719,0.576,1.078,0.865
	c0.203,0.171,0.455,0.271,0.715,0.326h0.324c0.598-0.1,1.115-0.613,1.138-1.232c0.012-0.693,0.01-1.388,0.008-2.082l0,0
	c-0.002-0.572-0.003-1.143,0.003-1.715c0.829,0.002,1.659,0.002,2.488,0.001h0.008c0.998,0,1.997,0,2.996,0.001
	c0.02,0,0.041,0,0.061,0c0.032,0,0.064,0.001,0.096,0.001c0.289,0.003,0.584,0.007,0.846-0.13c0.414-0.186,0.68-0.602,0.754-1.041
	V1.139c-0.106-0.598-0.617-1.11-1.238-1.131C41.624-0.002,39.486,0,37.348,0.002c-0.643,0-1.285,0.001-1.928,0.001h-0.149
	L9.844,0.002H9.58z M2.637,17.867c0-5.076-0.001-10.152,0.003-15.228c13.24-0.001,26.48-0.001,39.719,0
	c0.004,5.814,0.004,11.628,0.004,17.442v0.025c-0.001,3.262-0.002,6.522-0.001,9.784c-0.605,0.001-1.211,0-1.816-0.002h-0.009
	c-0.93-0.001-1.857-0.002-2.786,0.002c-0.003-0.408-0.003-0.817-0.003-1.227c0-0.318,0-0.636-0.001-0.953
	c-0.024-0.111,0.05-0.188,0.122-0.259c0.018-0.019,0.037-0.038,0.053-0.057c1.156-1.196,1.813-2.853,1.804-4.516
	c0.002-3.374,0.002-6.749,0.002-10.122v-2.541c0.028-0.522-0.264-1.053-0.743-1.275c-0.254-0.133-0.535-0.139-0.816-0.145
	c-0.158-0.003-0.316-0.007-0.47-0.033c-0.449-0.054-0.935-0.212-1.188-0.615c-0.27-0.424-0.289-0.931-0.309-1.421v0
	c-0.002-0.058-0.005-0.115-0.008-0.172c-0.002-0.04-0.004-0.08-0.006-0.119c-0.066-0.671-0.709-1.199-1.377-1.16
	c-8.207-0.001-16.413-0.001-24.62,0C9.709,5.257,9.223,5.512,8.982,5.934C8.829,6.188,8.807,6.477,8.784,6.766
	c-0.02,0.252-0.04,0.505-0.146,0.738c-0.253,0.79-1.058,1.29-1.869,1.29c-0.425-0.01-0.874,0.12-1.158,0.454
	C5.372,9.51,5.258,9.871,5.272,10.223c0.001,1.6,0,3.2,0,4.8c0,2.473-0.001,4.946,0.003,7.418c0.005,0.686,0.619,1.295,1.308,1.283
	c0.691-0.009,1.471,0.189,1.866,0.808c0.3,0.446,0.345,0.999,0.36,1.521c0.044,0.65,0.639,1.203,1.291,1.199
	c2.579,0.002,5.158,0.002,7.737,0.002h0.073c3.468-0.002,6.936-0.002,10.403,0.003c0.135,0.086,0.283,0.208,0.337,0.361
	c0.009,0.459,0.007,0.918,0.006,1.378v0.002c-0.001,0.297-0.003,0.594-0.001,0.891c-8.673,0.002-17.347,0.002-26.02,0
	C2.639,25.882,2.638,21.875,2.637,17.867z M7.911,11.288c1.646-0.375,2.959-1.748,3.359-3.375c6.38-0.003,12.76-0.002,19.14-0.001
	l3.264,0c0.195,1.093,0.756,2.168,1.717,2.773c0.514,0.336,1.107,0.524,1.703,0.651c-0.006,2.109-0.008,4.22-0.005,6.329
	c-1.273-0.952-2.903-1.405-4.485-1.259c-1.348,0.12-2.651,0.679-3.67,1.57c-1.065,0.919-1.822,2.191-2.11,3.57
	c-0.22,1.01-0.177,2.071,0.085,3.07c-0.602,0-1.203,0-1.805,0c-1.134-0.001-2.268,0-3.402,0h-0.007c-3.467,0-6.935,0-10.402-0.004
	c-0.335-1.658-1.7-3.047-3.366-3.371c-0.024-1.99-0.02-3.981-0.016-5.973C7.914,13.942,7.917,12.615,7.911,11.288z M29.623,21.393
	c0.502-1.209,1.65-2.118,2.943-2.324c1.068-0.181,2.209,0.112,3.053,0.792c0.791,0.625,1.321,1.568,1.439,2.569
	c0.148,1.157-0.269,2.37-1.092,3.196c-0.834,0.859-2.08,1.291-3.268,1.129c-1.138-0.141-2.189-0.824-2.792-1.799
	C29.246,23.907,29.131,22.533,29.623,21.393z M31.294,31.219v-0.002c0.002-0.691,0.004-1.383,0.001-2.074
	c1.236,0.381,2.58,0.369,3.818,0.002c0,0.514,0,1.027,0,1.541v0.036c0,0.919,0.001,1.839-0.004,2.758
	c-0.168-0.13-0.332-0.264-0.496-0.397c-0.212-0.174-0.424-0.346-0.644-0.509c-0.438-0.325-1.083-0.331-1.522-0.007
	c-0.219,0.166-0.433,0.339-0.646,0.512l0,0l0,0l-0.002,0.001c-0.167,0.136-0.335,0.271-0.506,0.403
	C31.29,32.729,31.292,31.974,31.294,31.219z"/>
</svg>
