<svg width="45" height="38" viewBox="0 0 45 38" fill="none" xmlns="http://www.w3.org/2000/svg">
<path d="M13.0329 12.2244C12.7995 12.2206 12.5649 12.2169 12.3425 12.2926C11.6965 12.4859 11.279 13.2269 11.4715 13.8772C11.613 14.4397 12.1579 14.8651 12.7389 14.8599C14.8926 14.8612 17.0466 14.861 19.2006 14.8607C21.3545 14.8605 23.5085 14.8603 25.6623 14.8616C26.0534 14.881 26.4568 14.7368 26.724 14.4459C27.1099 14.046 27.2004 13.3974 26.9226 12.9131C26.6968 12.4903 26.2266 12.2188 25.7484 12.2223C23.5308 12.2256 21.3133 12.2248 19.0959 12.2241C17.1557 12.2235 15.2154 12.2228 13.275 12.2249C13.1948 12.2269 13.1139 12.2256 13.0329 12.2244Z" fill="#00B34F"/>
<path d="M12.5262 17.5774C14.9015 17.5556 17.2785 17.5587 19.6555 17.5618C21.0139 17.5636 22.3724 17.5654 23.7305 17.5625C24.4547 17.537 25.1007 18.1962 25.0638 18.9195C25.0541 19.613 24.4257 20.2159 23.7314 20.1966L22.0429 20.1975C18.9416 20.1992 15.8404 20.2009 12.7398 20.1957C12.121 20.1992 11.5471 19.7167 11.4478 19.1067C11.3027 18.4106 11.8283 17.6829 12.5262 17.5774Z" fill="#00B34F"/>
<path fill-rule="evenodd" clip-rule="evenodd" d="M9.58008 0.00196571C9.15524 0.00187988 8.7304 0.00178332 8.30558 0.00167603H8.3042C5.97716 0.0011074 3.65027 0.000538774 1.32364 0.00371451C0.669737 -0.0121105 0.0993061 0.516993 0 1.15244V31.3649C0.0905299 32.0029 0.661819 32.5391 1.31748 32.5259C5.36766 32.527 9.41799 32.5268 13.4684 32.5266H13.587C18.61 32.5264 23.6331 32.5261 28.6559 32.5285C28.6578 33.0744 28.6572 33.6205 28.6565 34.1666C28.6558 34.8586 28.655 35.5507 28.6594 36.2428C28.6471 36.8905 29.1735 37.453 29.802 37.5541H30.1096C30.3609 37.5075 30.6079 37.4179 30.8083 37.2553C31.1316 37.0008 31.4518 36.7421 31.772 36.4833L31.7763 36.4798L31.7765 36.4797C32.2521 36.0953 32.7278 35.7108 33.2139 35.3401C33.4761 35.5522 33.7389 35.7636 34.002 35.9748C34.1632 36.1041 34.3244 36.2334 34.4857 36.3627C34.8455 36.651 35.2052 36.9394 35.5641 37.2289C35.768 37.3994 36.0193 37.4996 36.2786 37.5541H36.6029C37.2015 37.4557 37.7191 36.9415 37.7411 36.3219C37.7527 35.6283 37.7508 34.9345 37.7489 34.2406V34.24C37.7473 33.6687 37.7457 33.0973 37.7517 32.5259C38.5813 32.5267 39.4109 32.5266 40.2405 32.5265H40.2479C41.2466 32.5263 42.2453 32.5262 43.2439 32.5276C43.2642 32.5275 43.2846 32.5276 43.305 32.5277C43.3369 32.5278 43.369 32.5282 43.4011 32.5285C43.689 32.5318 43.9844 32.5351 44.2459 32.3984C44.6599 32.213 44.9262 31.7964 45 31.3569V1.13927C44.8937 0.541605 44.3821 0.0292062 43.7616 0.00811333C41.624 -0.00259405 39.4859 -0.000383906 37.348 0.00183696C36.7053 0.00250215 36.0626 0.00316734 35.4199 0.0034892H35.2704L9.84375 0.00196571H9.58008ZM2.63741 17.8669C2.63661 12.7909 2.63582 7.71476 2.64024 2.63867C15.8801 2.63779 29.1199 2.63779 42.3589 2.63867C42.3639 8.45283 42.3633 14.267 42.3626 20.0809V20.1065C42.3622 23.3681 42.3618 26.6296 42.3624 29.8909C41.7569 29.8916 41.1514 29.8905 40.5458 29.8894H40.5366C39.608 29.8878 38.6794 29.8861 37.7508 29.8909C37.7483 29.4821 37.7483 29.0733 37.7484 28.6644C37.7484 28.3464 37.7484 28.0284 37.7473 27.7104C37.7222 27.599 37.7974 27.5235 37.8686 27.452C37.8874 27.4331 37.9059 27.4146 37.9222 27.3957C39.0779 26.1986 39.7354 24.5428 39.7257 22.8799C39.7278 19.5057 39.7277 16.1315 39.7275 12.7578L39.7274 10.2166C39.7556 9.69453 39.4638 9.16367 38.9848 8.94131C38.73 8.80856 38.4489 8.80253 38.1677 8.7965C38.0096 8.79311 37.8515 8.78972 37.698 8.76377C37.2489 8.70928 36.7638 8.55108 36.5098 8.14853C36.2409 7.72433 36.2206 7.21768 36.2009 6.72683L36.2009 6.72661C36.1986 6.66897 36.1963 6.61156 36.1936 6.55452C36.1917 6.51466 36.1896 6.47498 36.1872 6.43554C36.1204 5.76407 35.4788 5.23673 34.81 5.27539C26.6036 5.27451 18.3973 5.27451 10.1909 5.27539C9.70927 5.25694 9.22324 5.51181 8.98242 5.93369C8.82934 6.18867 8.80672 6.47676 8.784 6.76608C8.76419 7.01827 8.74432 7.27138 8.63789 7.5043C8.38476 8.29443 7.57969 8.79454 6.76846 8.79454C6.34306 8.78487 5.89483 8.91407 5.61095 9.24804C5.37189 9.50997 5.25762 9.8712 5.27256 10.2228C5.27359 11.8228 5.27314 13.4228 5.27269 15.0229C5.27198 17.4957 5.27127 19.9685 5.27608 22.4413C5.28136 23.1277 5.89483 23.7368 6.58388 23.7245C7.27559 23.7157 8.05517 23.9144 8.44979 24.5322C8.74952 24.9787 8.79434 25.5307 8.81016 26.0527C8.8541 26.7031 9.44912 27.256 10.1013 27.2524C12.6801 27.2543 15.2591 27.2538 17.8383 27.2532H17.911C21.3789 27.2525 24.8468 27.2518 28.3148 27.2568C28.4493 27.343 28.597 27.4643 28.6515 27.6181C28.66 28.077 28.6585 28.5362 28.657 28.9954V28.9987C28.656 29.2956 28.655 29.5924 28.6567 29.8892C19.9828 29.8909 11.3098 29.8909 2.63672 29.8892C2.63865 25.8818 2.63803 21.8743 2.63741 17.8669ZM7.91104 11.288C9.55723 10.9127 10.8703 9.53985 11.2702 7.91299C17.6498 7.90999 24.0301 7.91084 30.4105 7.9117L33.6735 7.91211C33.8687 9.00548 34.4303 10.0804 35.39 10.6851C35.9042 11.0217 36.4975 11.2089 37.0942 11.3363C37.0881 13.4457 37.0863 15.556 37.089 17.6653C35.8154 16.7135 34.1859 16.26 32.603 16.4068C31.2557 16.5263 29.9522 17.0861 28.9336 17.9765C27.8684 18.8958 27.1107 20.1676 26.8233 21.5466C26.6036 22.5573 26.6458 23.6182 26.9077 24.6166C26.3063 24.6165 25.7048 24.6165 25.1034 24.6165C23.9695 24.6164 22.8356 24.6166 21.7018 24.6167H21.6946C18.2274 24.6171 14.7603 24.6175 11.2931 24.614C10.9582 22.9555 9.59325 21.5659 7.92685 21.2425C7.9026 19.2518 7.90681 17.2607 7.91104 15.2697C7.91385 13.9424 7.91666 12.6151 7.91104 11.288ZM29.6235 21.3928C30.1245 20.1843 31.2732 19.2746 32.5661 19.0689C33.6349 18.8879 34.7757 19.1814 35.6194 19.8617C36.4104 20.4866 36.9404 21.4297 37.0582 22.4308C37.2076 23.5883 36.7901 24.8003 35.9666 25.6273C35.1334 26.486 33.8862 26.9185 32.6997 26.7559C31.5615 26.6152 30.5103 25.9314 29.9074 24.9576C29.2465 23.9073 29.1305 22.5336 29.6235 21.3928ZM31.2939 31.2187V31.2174C31.2958 30.5259 31.2977 29.8344 31.2952 29.143C32.5309 29.5235 33.8757 29.5121 35.1132 29.1439C35.1126 29.6575 35.1128 30.1713 35.1131 30.6851V30.7216C35.1136 31.6409 35.1142 32.5604 35.1097 33.4795C34.9416 33.3502 34.7774 33.216 34.6133 33.0819C34.4014 32.9088 34.1896 32.7358 33.9697 32.5733C33.532 32.2481 32.8869 32.2429 32.4475 32.5663C32.228 32.7321 32.0144 32.9051 31.8007 33.0781L31.8004 33.0783L31.8002 33.0785L31.7995 33.079C31.6318 33.2148 31.4641 33.3506 31.2935 33.483C31.2898 32.7282 31.2919 31.9735 31.2939 31.2187Z" fill="#00B34F"/>
</svg>
