<svg width="46" height="46" viewBox="0 0 46 46" fill="none" xmlns="http://www.w3.org/2000/svg">
<path d="M21.0036 0.359675C24.5994 0.104402 28.2042 0.709941 31.5193 2.12608C34.8343 3.54221 37.764 5.72815 40.0656 8.50267C42.7882 11.7678 44.5157 15.7462 45.0426 19.9647C45.5305 23.6738 45.0854 27.4461 43.7475 30.9398C42.4096 34.4335 40.2212 37.5382 37.3806 39.9727C35.0507 41.9734 32.3424 43.4854 29.4166 44.4187C24.7714 45.8699 19.7803 45.7719 15.1956 44.1397C11.5984 42.8797 8.3742 40.7385 5.81758 37.9117C3.53824 35.2806 1.85658 32.1865 0.888564 28.8427C-0.0555771 25.3161 -0.13617 21.614 0.653579 18.0497C1.54739 13.8777 3.61208 10.047 6.60557 7.00668C10.4538 3.13683 15.5641 0.777955 21.0056 0.359675H21.0036ZM11.2656 16.4977C11.0656 18.0257 11.8406 19.4347 12.3466 20.8257C13.3592 22.9767 14.6129 25.0057 16.0836 26.8737C16.9075 27.8693 17.9254 28.6869 19.0754 29.2765C20.2253 29.8662 21.4832 30.2157 22.7726 30.3037C23.3336 30.2777 24.0576 30.3537 24.4646 29.8967C24.5962 28.7918 24.6317 27.6777 24.5706 26.5667C24.8096 26.3437 25.0436 26.0137 25.4266 26.1277C27.0886 26.7347 28.1586 28.2167 29.3266 29.4617C29.689 29.9272 30.2044 30.2495 30.7816 30.3717C31.8521 30.4192 32.9247 30.3784 33.9886 30.2497C34.085 30.0287 34.1285 29.7882 34.1156 29.5474C34.1028 29.3066 34.0339 29.0722 33.9146 28.8627C32.884 27.2638 31.6698 25.7911 30.2966 24.4747C30.13 24.2835 30.0418 24.0364 30.0495 23.7829C30.0573 23.5295 30.1606 23.2883 30.3386 23.1077C31.5039 21.4771 32.5318 19.7525 33.4116 17.9517C33.5714 17.4919 33.6621 17.011 33.6806 16.5247C32.531 16.3864 31.3711 16.3536 30.2156 16.4267C29.6966 16.4587 29.3736 16.9357 29.1816 17.3647C28.5022 18.9469 27.6546 20.4516 26.6536 21.8527C26.1882 22.5254 25.5269 23.0383 24.7596 23.3217C24.2946 21.0787 24.8596 18.7507 24.4106 16.5017C22.7344 16.3734 21.0508 16.3734 19.3746 16.5017C19.2566 17.4277 20.1146 18.0637 20.1746 18.9517C20.2666 19.9517 20.2746 20.9627 20.2746 21.9687C20.3452 22.7709 20.2775 23.5793 20.0746 24.3587C19.6656 24.2553 19.2899 24.0487 18.9836 23.7587C17.5311 21.9131 16.4142 19.8267 15.6836 17.5947C15.4836 17.1417 15.2906 16.5267 14.7256 16.4337C13.5732 16.3331 12.4134 16.3546 11.2656 16.4977Z" fill="#4A76A8"/>
</svg>
