<svg width="53" height="61" viewBox="0 0 53 61" fill="none" xmlns="http://www.w3.org/2000/svg">
<path d="M12.0016 13.1699H34.0018C34.267 13.1699 34.5214 13.0646 34.7089 12.877C34.8964 12.6895 35.0018 12.4351 35.0018 12.1699C35.0018 11.9047 34.8964 11.6504 34.7089 11.4628C34.5214 11.2753 34.267 11.1699 34.0018 11.1699H12.0016C11.7364 11.1699 11.482 11.2753 11.2945 11.4628C11.107 11.6504 11.0016 11.9047 11.0016 12.1699C11.0016 12.4351 11.107 12.6895 11.2945 12.877C11.482 13.0646 11.7364 13.1699 12.0016 13.1699Z" fill="#00B34F"/>
<path d="M12.0016 19.1699H34.0018C34.267 19.1699 34.5214 19.0646 34.7089 18.877C34.8964 18.6895 35.0018 18.4351 35.0018 18.1699C35.0018 17.9047 34.8964 17.6504 34.7089 17.4628C34.5214 17.2753 34.267 17.1699 34.0018 17.1699H12.0016C11.7364 17.1699 11.482 17.2753 11.2945 17.4628C11.107 17.6504 11.0016 17.9047 11.0016 18.1699C11.0016 18.4351 11.107 18.6895 11.2945 18.877C11.482 19.0646 11.7364 19.1699 12.0016 19.1699Z" fill="#00B34F"/>
<path d="M12.0016 25.1699H34.0018C34.267 25.1699 34.5214 25.0646 34.7089 24.877C34.8964 24.6895 35.0018 24.4351 35.0018 24.1699C35.0018 23.9047 34.8964 23.6504 34.7089 23.4628C34.5214 23.2753 34.267 23.1699 34.0018 23.1699H12.0016C11.7364 23.1699 11.482 23.2753 11.2945 23.4628C11.107 23.6504 11.0016 23.9047 11.0016 24.1699C11.0016 24.4351 11.107 24.6895 11.2945 24.877C11.482 25.0646 11.7364 25.1699 12.0016 25.1699Z" fill="#00B34F"/>
<path d="M12.0016 31.1699H34.0018C34.267 31.1699 34.5214 31.0646 34.7089 30.877C34.8964 30.6895 35.0018 30.4351 35.0018 30.1699C35.0018 29.9047 34.8964 29.6504 34.7089 29.4628C34.5214 29.2753 34.267 29.1699 34.0018 29.1699H12.0016C11.7364 29.1699 11.482 29.2753 11.2945 29.4628C11.107 29.6504 11.0016 29.9047 11.0016 30.1699C11.0016 30.4351 11.107 30.6895 11.2945 30.877C11.482 31.0646 11.7364 31.1699 12.0016 31.1699Z" fill="#00B34F"/>
<path d="M12.0016 37.1702H20.0017C20.2669 37.1702 20.5213 37.0648 20.7088 36.8773C20.8963 36.6897 21.0017 36.4354 21.0017 36.1702C21.0017 35.905 20.8963 35.6506 20.7088 35.4631C20.5213 35.2755 20.2669 35.1702 20.0017 35.1702H12.0016C11.7364 35.1702 11.482 35.2755 11.2945 35.4631C11.107 35.6506 11.0016 35.905 11.0016 36.1702C11.0016 36.4354 11.107 36.6897 11.2945 36.8773C11.482 37.0648 11.7364 37.1702 12.0016 37.1702Z" fill="#00B34F"/>
<path d="M51.5184 23.7967C50.8318 23.3953 50.0139 23.2826 49.2443 23.4834C48.4747 23.6843 47.8161 24.1823 47.4133 24.8681L45.0019 28.9824V4.16971C45.0019 3.90449 44.8965 3.65014 44.709 3.4626C44.5215 3.27506 44.2671 3.1697 44.0019 3.1697H36.4161C36.4161 3.1697 33.4113 0.109677 33.291 0.212678C33.1973 0.184206 33.0998 0.169716 33.0018 0.169678H4.00155C3.73633 0.169678 3.48198 0.275035 3.29444 0.462573C3.1069 0.650111 3.00154 0.904467 3.00154 1.16969V4.29634C2.14256 4.51777 1.38156 5.01844 0.838209 5.71961C0.294861 6.42079 0 7.28268 0 8.16974C0 9.0568 0.294861 9.9187 0.838209 10.6199C1.38156 11.321 2.14256 11.8217 3.00154 12.0431V14.2964C2.14256 14.5178 1.38156 15.0185 0.838209 15.7197C0.294861 16.4209 0 17.2828 0 18.1698C0 19.0569 0.294861 19.9188 0.838209 20.62C1.38156 21.3211 2.14256 21.8218 3.00154 22.0432V24.2965C2.14256 24.5179 1.38156 25.0186 0.838209 25.7198C0.294861 26.421 0 27.2828 0 28.1699C0 29.057 0.294861 29.9189 0.838209 30.62C1.38156 31.3212 2.14256 31.8219 3.00154 32.0433V33.2966C2.14256 33.518 1.38156 34.0187 0.838209 34.7199C0.294861 35.421 0 36.2829 0 37.17C0 38.057 0.294861 38.9189 0.838209 39.6201C1.38156 40.3213 2.14256 40.822 3.00154 41.0434V47.1701C3.00154 47.4353 3.1069 47.6896 3.29444 47.8772C3.48198 48.0647 3.73633 48.1701 4.00155 48.1701H5.00156V51.1701C5.00156 51.4353 5.10692 51.6897 5.29446 51.8772C5.48199 52.0647 5.73635 52.1701 6.00157 52.1701H31.4133L30.728 53.3394C30.6667 53.4443 30.6251 53.5596 30.6054 53.6795C30.6044 53.6852 30.6028 53.6901 30.6019 53.696L30.5994 53.7124V53.7161L29.7994 59.0212C29.7696 59.2188 29.7997 59.4208 29.8859 59.6012C29.972 59.7815 30.1102 59.9319 30.2826 60.033C30.4551 60.134 30.6538 60.1811 30.8533 60.1681C31.0527 60.1551 31.2437 60.0826 31.4015 59.96L35.6551 56.6576C35.9276 56.446 36.0607 56.3165 36.0396 56.1428L38.3676 52.1701H44.0019C44.2671 52.1701 44.5215 52.0647 44.709 51.8772C44.8965 51.6897 45.0019 51.4353 45.0019 51.1701V40.8498L52.5895 27.9018C52.9908 27.2152 53.1035 26.3974 52.9027 25.6278C52.7019 24.8583 52.2041 24.1997 51.5184 23.7967ZM49.7491 25.4174C49.9404 25.3674 50.1423 25.3754 50.3292 25.4402C50.5161 25.505 50.6795 25.6237 50.7989 25.7814C50.9183 25.9391 50.9882 26.1287 50.9998 26.3261C51.0115 26.5236 50.9643 26.72 50.8643 26.8906L50.3587 27.7532L48.6337 26.7419L49.1394 25.8794C49.2054 25.7659 49.2933 25.6666 49.398 25.5873C49.5026 25.508 49.6219 25.4503 49.7491 25.4174ZM34.6846 54.4991L32.9595 53.4879L46.1051 31.0561L47.8302 32.0673L34.6846 54.4991ZM34.0018 3.58396L37.5876 7.16974H34.0018V3.58396ZM47.1164 29.3304L47.6219 28.4679L49.3475 29.4792L48.8419 30.3417L47.1164 29.3304ZM43.0019 5.16972V32.1699C43.002 32.2348 43.0083 32.2995 43.0209 32.3632L41.0019 35.8085V8.16974C41.002 8.03863 40.9763 7.90877 40.9262 7.7876C40.8761 7.66643 40.8026 7.55634 40.7099 7.46361L40.709 7.46261L38.4161 5.16972H43.0019ZM5.00156 2.16969H32.0018V8.16974C32.0018 8.43496 32.1071 8.68932 32.2947 8.87686C32.4822 9.06439 32.7366 9.16975 33.0018 9.16975H39.0018V39.2212L34.9296 46.1701H5.00156V41.0435C5.69387 40.8652 6.32569 40.5045 6.83116 39.999C7.33664 39.4934 7.69726 38.8616 7.87546 38.1692C7.94156 37.9123 7.9029 37.6396 7.76796 37.4112C7.63303 37.1828 7.41288 37.0173 7.15595 36.9512C7.02873 36.9185 6.89631 36.9111 6.76625 36.9296C6.63619 36.948 6.51103 36.9919 6.39793 37.0587C6.16951 37.1937 6.00405 37.4138 5.93794 37.6707C5.87168 37.9279 5.75471 38.1692 5.59392 38.3805C5.43312 38.5918 5.23172 38.7688 5.00156 38.9012V32.0434C5.69387 31.8652 6.32569 31.5044 6.83116 30.9989C7.33664 30.4934 7.69726 29.8615 7.87546 29.1692C7.94156 28.9122 7.9029 28.6396 7.76796 28.4111C7.63303 28.1827 7.41288 28.0173 7.15595 27.9512C6.89902 27.885 6.62635 27.9237 6.39793 28.0587C6.16951 28.1936 6.00405 28.4137 5.93794 28.6707C5.87168 28.9278 5.75471 29.1691 5.59392 29.3804C5.43312 29.5917 5.23172 29.7688 5.00156 29.9012V22.0434C5.69387 21.8651 6.32569 21.5044 6.83116 20.9988C7.33664 20.4933 7.69726 19.8614 7.87546 19.1691C7.94156 18.9122 7.9029 18.6395 7.76796 18.4111C7.63303 18.1826 7.41288 18.0172 7.15595 17.9511C6.89902 17.885 6.62635 17.9236 6.39793 18.0586C6.16951 18.1935 6.00405 18.4136 5.93794 18.6706C5.87168 18.9277 5.75471 19.169 5.59392 19.3803C5.43312 19.5916 5.23172 19.7687 5.00156 19.9011V12.0433C5.69387 11.865 6.32569 11.5043 6.83116 10.9987C7.33664 10.4932 7.69726 9.86133 7.87546 9.169C7.94156 8.91207 7.9029 8.6394 7.76796 8.41098C7.63303 8.18256 7.41288 8.0171 7.15595 7.95099C6.89902 7.88489 6.62635 7.92355 6.39793 8.05849C6.16951 8.19342 6.00405 8.41357 5.93794 8.6705C5.87168 8.92763 5.75471 9.16893 5.59392 9.38024C5.43312 9.59155 5.23172 9.7686 5.00156 9.90101V2.16969ZM2.00153 8.16974C2.002 7.81912 2.09464 7.47478 2.27015 7.17125C2.44567 6.86772 2.69789 6.61567 3.00154 6.44035V9.89913C2.69789 9.72382 2.44567 9.47177 2.27015 9.16823C2.09464 8.8647 2.002 8.52037 2.00153 8.16974ZM2.00153 18.1698C2.002 17.8192 2.09464 17.4749 2.27015 17.1713C2.44567 16.8678 2.69789 16.6157 3.00154 16.4404V19.8992C2.69789 19.7239 2.44567 19.4718 2.27015 19.1683C2.09464 18.8648 2.002 18.5204 2.00153 18.1698ZM2.00153 28.1699C2.002 27.8193 2.09464 27.4749 2.27015 27.1714C2.44567 26.8679 2.69789 26.6158 3.00154 26.4405V29.8993C2.69789 29.724 2.44567 29.4719 2.27015 29.1684C2.09464 28.8649 2.002 28.5205 2.00153 28.1699ZM2.00153 37.17C2.002 36.8194 2.09464 36.475 2.27015 36.1715C2.44567 35.868 2.69789 35.6159 3.00154 35.4406V38.8994C2.69789 38.7241 2.44567 38.472 2.27015 38.1685C2.09464 37.8649 2.002 37.5206 2.00153 37.17ZM7.00158 50.1701V48.1701H33.7574L32.5853 50.1701H7.00158ZM32.3594 55.4546L33.2618 55.9835L32.1493 56.847L32.3594 55.4546ZM43.0019 50.1701H39.5393L43.0019 44.2624V50.1701Z" fill="#00B34F"/>
</svg>
