<svg width="22" height="16" viewBox="0 0 22 16" fill="none" xmlns="http://www.w3.org/2000/svg">
<path d="M0.786 15.7492C0.577713 15.7492 0.377942 15.6665 0.230567 15.5193C0.0831924 15.3721 0.000264996 15.1724 0 14.9642V1.42316L10.5 10.0742C10.6408 10.1902 10.8175 10.2537 11 10.2537C11.1825 10.2537 11.3592 10.1902 11.5 10.0742L22 1.53516V14.9642C22 15.1726 21.9172 15.3725 21.7698 15.5199C21.6224 15.6673 21.4225 15.7502 21.214 15.7502L0.786 15.7492ZM0.786 0.0351562H21.214C21.2533 0.0399065 21.2921 0.0479345 21.33 0.0591563L11 8.44816L0.786 0.0351562Z" fill="#233746"/>
</svg>
