<?xml version="1.0" encoding="utf-8"?>
<!-- Generator: Adobe Illustrator 16.0.0, SVG Export Plug-In . SVG Version: 6.00 Build 0)  -->
<!DOCTYPE svg PUBLIC "-//W3C//DTD SVG 1.1//EN" "http://www.w3.org/Graphics/SVG/1.1/DTD/svg11.dtd">
<svg version="1.1" id="Layer_1" xmlns="http://www.w3.org/2000/svg" xmlns:xlink="http://www.w3.org/1999/xlink" x="0px" y="0px"
	 width="264px" height="48px" viewBox="0 0 264 48" enable-background="new 0 0 264 48" xml:space="preserve">
<g>
	<path fill="#EEEEEE" d="M98.107,11.207h-1.446V2.978h1.458l2.809,3.842l2.68-3.844h1.364v8.231h-1.434V5.259l-2.6,3.656h-0.21
		l-2.622-3.621L98.107,11.207L98.107,11.207z M112.72,11.207h-4.879V2.978h4.758V4.33h-3.312v2.045h2.962v1.352h-2.962v2.128h3.433
		V11.207z M114.167,11.207l3.22-4.287l-3.088-3.942h1.657l2.983,3.927V2.978h1.434v3.926l2.975-3.926h1.668l-3.091,3.927l3.222,4.3
		h-1.67l-3.1-4.267v4.269h-1.438V6.94l-3.115,4.267H114.167L114.167,11.207z M127.285,12.676h-1.352V9.855h0.881
		c0.361-0.557,0.619-1.174,0.765-1.822c0.305-1.113,0.476-2.259,0.506-3.413l0.082-1.646h5.1v6.877h1.117v2.825h-1.35v-1.469h-5.75
		V12.676z M129.566,4.33l-0.129,1.434c-0.053,0.879-0.199,1.751-0.436,2.6c-0.121,0.526-0.324,1.03-0.6,1.493h3.433V4.33H129.566z
		 M141.198,2.978h1.459l-2.801,6.313c-0.215,0.548-0.547,1.043-0.971,1.452c-0.349,0.307-0.8,0.472-1.265,0.464
		c-0.401,0.024-0.799-0.092-1.123-0.329l0.505-1.223c0.18,0.125,0.393,0.195,0.609,0.2c0.179,0.001,0.355-0.054,0.498-0.157
		c0.146-0.104,0.257-0.25,0.313-0.419l0.118-0.282l-3.631-6.019h1.635l2.691,4.6L141.198,2.978z M151.172,11.207h-1.435V7.692
		h-3.762v3.515h-1.445V2.978h1.445V6.34h3.762V2.978h1.435V11.207z M154.44,11.207h-1.459l3.479-8.252h1.271l3.479,8.252h-1.54
		l-0.857-2.1h-3.515L154.44,11.207z M158.261,7.751l-1.199-2.931l-1.211,2.931H158.261z M164.478,8.233v2.974h-1.444V2.978
		c0.346,0,0.717-0.004,1.116-0.012c0.4-0.008,0.81-0.012,1.224-0.012c0.513-0.01,1.022,0.063,1.513,0.217
		c0.375,0.114,0.717,0.32,0.992,0.6c0.227,0.241,0.4,0.525,0.518,0.835c0.112,0.319,0.168,0.655,0.164,0.993
		c0.008,0.354-0.062,0.705-0.199,1.031c-0.139,0.326-0.342,0.62-0.6,0.862c-0.299,0.27-0.646,0.478-1.027,0.611
		c-0.379,0.133-0.781,0.189-1.184,0.165C165.069,8.268,164.714,8.256,164.478,8.233L164.478,8.233z M165.513,4.307l-1.033,0.023
		v2.527c0.412,0.042,0.752,0.063,1.021,0.063c0.397,0.021,0.791-0.1,1.11-0.341c0.142-0.121,0.252-0.273,0.324-0.444
		c0.072-0.171,0.104-0.357,0.092-0.543C167.028,4.735,166.524,4.307,165.513,4.307L165.513,4.307z M170.144,7.093
		c-0.014-0.558,0.086-1.114,0.291-1.633c0.207-0.519,0.517-0.991,0.91-1.388c0.402-0.403,0.883-0.72,1.412-0.93
		s1.098-0.31,1.667-0.293c0.563-0.02,1.125,0.074,1.651,0.275c0.527,0.201,1.01,0.506,1.416,0.896
		c0.406,0.398,0.725,0.876,0.936,1.405c0.211,0.529,0.309,1.095,0.288,1.663c0.019,0.564-0.082,1.127-0.292,1.651
		c-0.211,0.524-0.527,0.999-0.932,1.394c-0.403,0.396-0.883,0.707-1.412,0.914c-0.525,0.206-1.09,0.304-1.655,0.287
		c-0.563,0.019-1.126-0.076-1.653-0.278c-0.526-0.202-1.008-0.507-1.414-0.898c-0.403-0.399-0.721-0.877-0.928-1.405
		C170.22,8.225,170.122,7.66,170.144,7.093L170.144,7.093z M171.672,7.093c-0.013,0.38,0.052,0.758,0.187,1.114
		c0.136,0.355,0.341,0.68,0.603,0.956c0.251,0.268,0.556,0.479,0.894,0.621c0.34,0.142,0.703,0.21,1.069,0.202
		c0.375,0.018,0.749-0.046,1.097-0.188c0.348-0.142,0.658-0.359,0.914-0.634c0.508-0.567,0.777-1.308,0.752-2.069
		c0.012-0.382-0.053-0.764-0.189-1.121s-0.344-0.684-0.609-0.959c-0.255-0.264-0.561-0.472-0.897-0.611
		c-0.339-0.14-0.701-0.208-1.065-0.2c-0.367-0.01-0.732,0.057-1.072,0.197s-0.648,0.349-0.902,0.614
		c-0.26,0.278-0.461,0.606-0.596,0.963C171.72,6.332,171.657,6.712,171.672,7.093L171.672,7.093z M181.017,12.677h-1.352V9.855
		h0.883c0.361-0.557,0.619-1.174,0.764-1.822c0.306-1.113,0.476-2.259,0.506-3.413l0.082-1.642H187v6.877h1.117v2.821h-1.351v-1.469
		h-5.748L181.017,12.677z M183.299,4.33l-0.129,1.434c-0.052,0.879-0.198,1.751-0.435,2.6c-0.121,0.526-0.324,1.03-0.602,1.493
		h3.434V4.33H183.299z M196.782,11.207h-1.436V7.692h-3.762v3.515h-1.445V2.978h1.445V6.34h3.762V2.978h1.436V11.207z
		 M207.526,11.207h-1.436V2.978h1.436V11.207z M201.899,7.093c-0.125,0-0.394,0.02-0.801,0.059v2.692
		c0.063,0,0.188,0.006,0.375,0.018c0.188,0.012,0.321,0.018,0.399,0.018c1.084,0,1.625-0.483,1.625-1.447
		c0.013-0.187-0.019-0.375-0.09-0.548c-0.07-0.173-0.183-0.328-0.321-0.452C202.743,7.184,202.323,7.064,201.899,7.093z
		 M199.653,2.979h1.445V5.8c0.305-0.037,0.608-0.057,0.916-0.059c0.809-0.057,1.606,0.193,2.239,0.7
		c0.263,0.251,0.468,0.556,0.601,0.894s0.19,0.701,0.17,1.063c0.018,0.391-0.053,0.78-0.205,1.14
		c-0.154,0.359-0.389,0.679-0.684,0.936c-0.693,0.539-1.562,0.809-2.438,0.758c-0.439,0-0.819-0.004-1.141-0.012
		c-0.32-0.008-0.623-0.012-0.904-0.012V2.979z M215.981,5.365l-4.318,5.842h-1.264V2.978h1.445v5.854l4.313-5.854h1.271v8.229
		h-1.445L215.981,5.365z M211.698,0.98h1.354c0.094,0.455,0.426,0.682,1,0.682c0.594,0,0.908-0.228,0.939-0.682h1.352
		c-0.004,0.243-0.066,0.481-0.184,0.695c-0.117,0.213-0.283,0.395-0.486,0.528c-0.48,0.317-1.047,0.478-1.621,0.458
		c-0.589,0.028-1.172-0.13-1.664-0.453c-0.201-0.138-0.367-0.321-0.488-0.534C211.78,1.461,211.712,1.224,211.698,0.98z
		 M229.638,11.207h-6.266V2.978h1.445v6.877h3.609V2.978h1.444v6.877h1.116v2.821h-1.352v-1.469H229.638z M237.89,11.207h-4.877
		V2.978h4.76V4.33h-3.313v2.045h2.962v1.352h-2.962v2.128h3.433L237.89,11.207z M246.999,11.207h-1.434V7.692h-3.762v3.515h-1.445
		V2.978h1.445V6.34h3.764V2.978h1.432V11.207z M251.515,4.33h-2.668V2.978h6.782V4.33h-2.668v6.877h-1.446V4.33z M258.92,8.23v2.977
		h-1.446V2.978c0.346,0,0.717-0.004,1.117-0.012c0.4-0.008,0.809-0.012,1.223-0.012c0.513-0.01,1.022,0.063,1.513,0.217
		c0.375,0.114,0.717,0.32,0.991,0.6c0.228,0.241,0.402,0.525,0.519,0.835c0.113,0.319,0.168,0.655,0.164,0.993
		c0.007,0.354-0.062,0.705-0.199,1.031c-0.139,0.326-0.342,0.62-0.6,0.862c-0.3,0.27-0.647,0.478-1.027,0.611
		c-0.379,0.133-0.782,0.189-1.185,0.165c-0.477,0-0.834-0.012-1.068-0.035L258.92,8.23L258.92,8.23z M259.954,4.304l-1.034,0.024
		v2.527c0.415,0.04,0.757,0.059,1.022,0.059c0.398,0.021,0.793-0.101,1.111-0.341c0.141-0.121,0.252-0.273,0.324-0.444
		c0.071-0.171,0.104-0.357,0.092-0.542c0-0.853-0.506-1.279-1.517-1.279L259.954,4.304L259.954,4.304z M103.222,28.84h-1.445v-6.877
		h-3.668v6.877h-1.446v-8.229h6.559V28.84z M105.479,24.725c-0.015-0.563,0.086-1.125,0.297-1.648
		c0.21-0.524,0.525-0.999,0.926-1.396c0.401-0.396,0.879-0.708,1.403-0.915c0.526-0.206,1.088-0.302,1.652-0.283
		c0.564-0.019,1.126,0.076,1.653,0.277c0.526,0.202,1.008,0.508,1.415,0.899c0.406,0.398,0.724,0.876,0.936,1.404
		c0.211,0.529,0.309,1.096,0.287,1.664c0.018,0.563-0.082,1.127-0.292,1.649c-0.211,0.524-0.528,1-0.931,1.396
		c-0.404,0.396-0.885,0.707-1.412,0.914c-0.527,0.205-1.09,0.304-1.656,0.287c-0.564,0.018-1.126-0.076-1.652-0.279
		c-0.527-0.201-1.008-0.506-1.416-0.897c-0.403-0.399-0.72-0.878-0.928-1.407C105.552,25.859,105.456,25.293,105.479,24.725z
		 M107.006,24.725c-0.012,0.381,0.052,0.76,0.187,1.113c0.136,0.355,0.34,0.682,0.602,0.956c0.251,0.269,0.555,0.479,0.895,0.621
		c0.338,0.142,0.701,0.21,1.068,0.202c0.375,0.018,0.749-0.047,1.096-0.189c0.348-0.142,0.66-0.357,0.914-0.634
		c0.508-0.567,0.778-1.308,0.752-2.069c0.013-0.382-0.052-0.764-0.188-1.121c-0.138-0.356-0.345-0.684-0.61-0.959
		c-0.525-0.519-1.232-0.81-1.97-0.81s-1.444,0.291-1.969,0.81c-0.261,0.279-0.462,0.606-0.595,0.963S106.993,24.344,107.006,24.725
		L107.006,24.725z M120.654,20.611h1.693l-2.773,4.032l2.88,4.2h-1.692l-2.129-3.092l-2.115,3.089h-1.692l2.88-4.199l-2.751-4.03
		h1.692l2.022,2.974L120.654,20.611z M129.529,20.611h1.459l-2.801,6.313c-0.215,0.549-0.545,1.044-0.97,1.452
		c-0.349,0.308-0.8,0.472-1.264,0.464c-0.403,0.025-0.802-0.091-1.128-0.329l0.505-1.223c0.179,0.126,0.392,0.194,0.61,0.2
		c0.179,0.001,0.354-0.055,0.498-0.158c0.146-0.104,0.256-0.249,0.313-0.418l0.118-0.282l-3.629-6.019h1.634l2.692,4.6
		L129.529,20.611z M132.386,30.311h-1.353v-2.821h0.882c0.361-0.558,0.621-1.175,0.765-1.822c0.305-1.11,0.475-2.256,0.504-3.409
		l0.082-1.646h5.102v6.877h1.117v2.819h-1.352V28.84h-5.748V30.311L132.386,30.311z M134.667,21.965l-0.129,1.434
		c-0.051,0.881-0.197,1.752-0.436,2.601c-0.119,0.526-0.322,1.028-0.6,1.493h3.434v-5.529L134.667,21.965z M146.388,28.842h-4.879
		v-8.231h4.762v1.352h-3.315v2.045h2.963v1.352h-2.963v2.13h3.435v1.353H146.388z M155.497,28.842h-1.434v-3.517h-3.765v3.515
		h-1.442v-8.229h1.442v3.362h3.763v-3.362h1.438L155.497,28.842z M163.95,23l-4.314,5.84h-1.27v-8.229h1.445v5.854l4.313-5.854
		h1.272v8.229h-1.448L163.95,23L163.95,23z M173.413,28.842h-1.436v-2.847h-1.188l-1.844,2.845h-1.623l2.101-3.139
		c-0.425-0.208-0.788-0.524-1.052-0.917c-0.266-0.405-0.4-0.88-0.391-1.364c-0.012-0.379,0.059-0.757,0.203-1.107
		c0.146-0.352,0.365-0.668,0.643-0.927c0.709-0.59,1.619-0.881,2.539-0.811l1.035,0.024c0.344,0.008,0.682,0.012,1.01,0.012
		L173.413,28.842z M170.661,24.643h1.316v-2.681c-0.398-0.022-0.701-0.035-0.904-0.035c-0.414-0.02-0.818,0.119-1.133,0.388
		c-0.143,0.127-0.254,0.283-0.328,0.459c-0.074,0.175-0.108,0.362-0.102,0.553c-0.011,0.318,0.104,0.629,0.321,0.863
		C170.056,24.425,170.345,24.583,170.661,24.643L170.661,24.643z M180.808,28.842h-1.447v-8.231h1.447v3.9l3.244-3.9h1.738
		l-3.385,3.833l3.601,4.399h-1.837l-3.361-4.243V28.842z M189.294,25.868v2.972h-1.445v-8.229c0.344,0,0.717-0.004,1.116-0.012
		c0.399-0.008,0.808-0.012,1.224-0.012c0.513-0.01,1.021,0.063,1.511,0.217c0.377,0.114,0.717,0.32,0.993,0.6
		c0.226,0.241,0.402,0.526,0.517,0.835c0.113,0.317,0.169,0.655,0.166,0.993c0.006,0.354-0.063,0.705-0.2,1.031
		c-0.138,0.325-0.343,0.619-0.601,0.861c-0.298,0.271-0.646,0.479-1.026,0.611c-0.38,0.132-0.781,0.188-1.183,0.164
		c-0.479,0-0.837-0.012-1.07-0.034L189.294,25.868L189.294,25.868z M190.327,21.941l-1.033,0.024v2.524
		c0.414,0.039,0.756,0.059,1.023,0.059c0.397,0.021,0.791-0.1,1.109-0.341c0.143-0.121,0.252-0.272,0.325-0.444
		c0.072-0.171,0.104-0.356,0.093-0.541C191.845,22.368,191.338,21.941,190.327,21.941L190.327,21.941L190.327,21.941z M201.213,23
		l-4.313,5.84h-1.271v-8.229h1.446v5.854l4.313-5.854h1.271v8.229h-1.446V23z M211.239,26.962l0.553,1.081
		c-0.313,0.309-0.693,0.537-1.111,0.67c-0.488,0.174-1.004,0.262-1.521,0.26c-0.563,0.021-1.125-0.07-1.653-0.271
		c-0.527-0.2-1.009-0.504-1.414-0.894c-0.396-0.406-0.707-0.89-0.908-1.418c-0.201-0.531-0.295-1.097-0.269-1.662
		c-0.038-1.123,0.362-2.215,1.117-3.045c0.397-0.411,0.881-0.729,1.414-0.937c0.534-0.207,1.106-0.297,1.678-0.264
		c0.908-0.047,1.802,0.251,2.5,0.835l-0.647,1.071c-0.549-0.367-1.195-0.56-1.855-0.553c-0.359-0.012-0.717,0.053-1.049,0.188
		c-0.332,0.137-0.631,0.341-0.879,0.601c-0.521,0.573-0.789,1.328-0.752,2.101c-0.018,0.383,0.045,0.767,0.18,1.127
		c0.136,0.358,0.342,0.688,0.607,0.965c0.27,0.267,0.592,0.476,0.945,0.613c0.354,0.137,0.731,0.2,1.11,0.188
		c0.707,0.007,1.396-0.227,1.957-0.657L211.239,26.962z M215.46,21.962h-2.668v-1.351h6.783v1.352h-2.668v6.877h-1.446
		L215.46,21.962z M227.004,22.996l-4.313,5.842h-1.271v-8.227h1.446v5.854l4.313-5.854h1.271v8.229h-1.446V22.996z M237.96,28.838
		h-1.434v-3.513h-3.764v3.515h-1.443v-8.229h1.445v3.362h3.762v-3.362h1.435L237.96,28.838z M248.704,28.838h-1.436v-8.227h1.436
		V28.838z M243.073,24.725c-0.125,0-0.393,0.021-0.801,0.06v2.69c0.063,0,0.188,0.006,0.377,0.02
		c0.188,0.012,0.32,0.018,0.398,0.018c1.081,0,1.622-0.48,1.622-1.445c0.013-0.188-0.019-0.375-0.09-0.547
		c-0.069-0.175-0.183-0.328-0.321-0.453C243.915,24.816,243.497,24.695,243.073,24.725L243.073,24.725z M240.829,20.611h1.445v2.821
		c0.305-0.037,0.609-0.057,0.918-0.059c0.807-0.057,1.605,0.193,2.238,0.7c0.262,0.251,0.467,0.556,0.6,0.894
		s0.191,0.701,0.17,1.063c0.02,0.391-0.051,0.78-0.205,1.141c-0.152,0.359-0.387,0.679-0.682,0.937
		c-0.695,0.539-1.562,0.809-2.439,0.758c-0.438,0-0.818-0.004-1.139-0.012c-0.322-0.01-0.623-0.014-0.906-0.014V20.611z
		 M106.099,46.473h-9.436v-8.229h1.446v6.876h2.551v-6.876h1.446v6.876h2.551v-6.876h1.442V46.473z M113.845,46.473h-4.875v-8.229
		h4.762v1.352h-3.315v2.045h2.962v1.354h-2.962v2.127h3.433L113.845,46.473z M117.759,43.499v2.974h-1.441v-8.229
		c0.345,0,0.717-0.004,1.117-0.012c0.399-0.008,0.808-0.013,1.223-0.013c0.512-0.011,1.021,0.063,1.511,0.218
		c0.376,0.112,0.718,0.319,0.993,0.6c0.227,0.24,0.402,0.525,0.518,0.835c0.112,0.319,0.168,0.655,0.164,0.993
		c0.006,0.354-0.062,0.705-0.199,1.031c-0.139,0.326-0.343,0.619-0.601,0.86c-0.298,0.271-0.647,0.479-1.026,0.611
		c-0.379,0.134-0.783,0.188-1.184,0.165c-0.479,0-0.835-0.012-1.07-0.035L117.759,43.499L117.759,43.499z M118.798,39.572
		l-1.033,0.022v2.524c0.414,0.039,0.756,0.061,1.022,0.061c0.399,0.02,0.792-0.103,1.11-0.343c0.142-0.121,0.252-0.272,0.326-0.444
		c0.071-0.17,0.104-0.355,0.092-0.541C120.314,39.998,119.808,39.572,118.798,39.572z M128.978,46.473h-4.879v-8.229h4.76v1.352
		h-3.313v2.045h2.962v1.354h-2.962v2.127h3.433V46.473z M132.894,46.473h-1.447v-8.229h1.458l2.809,3.844l2.68-3.844h1.364v8.229
		h-1.435V40.52l-2.602,3.656h-0.211l-2.619-3.615v5.912H132.894z M147.505,46.473h-4.879v-8.229h4.762v1.352h-3.316v2.045h2.964
		v1.354h-2.964v2.127h3.435L147.505,46.473L147.505,46.473z M151.618,39.596h-2.668v-1.352h6.783v1.352h-2.67v6.877h-1.445V39.596z
		 M159.849,42.357c-0.143,0-0.416,0.02-0.824,0.059v2.691l0.802,0.035c1.144,0,1.715-0.481,1.715-1.445
		c0.013-0.19-0.022-0.381-0.101-0.555c-0.078-0.176-0.196-0.328-0.346-0.445C160.728,42.45,160.288,42.331,159.849,42.357
		L159.849,42.357z M157.579,38.243h1.445v2.821c0.313-0.039,0.627-0.059,0.939-0.061c0.831-0.061,1.655,0.188,2.314,0.694
		c0.27,0.247,0.479,0.554,0.615,0.893c0.135,0.341,0.195,0.705,0.174,1.07c0.019,0.392-0.055,0.782-0.211,1.142
		c-0.155,0.36-0.392,0.68-0.688,0.934c-0.721,0.545-1.61,0.813-2.51,0.759c-0.455,0-0.845-0.004-1.164-0.013
		c-0.321-0.008-0.627-0.013-0.918-0.013L157.579,38.243z M170.198,46.473h-4.873v-8.229h4.761v1.352h-3.315v2.045h2.963v1.354
		h-2.963v2.127h3.429L170.198,46.473L170.198,46.473z M172.667,46.461v-8.193c0.848-0.039,1.639-0.06,2.375-0.06
		c0.721-0.054,1.438,0.137,2.035,0.541c0.221,0.179,0.396,0.407,0.513,0.667c0.116,0.259,0.171,0.542,0.157,0.826
		c0.021,0.395-0.078,0.787-0.289,1.123c-0.211,0.334-0.521,0.596-0.887,0.746v0.022c0.43,0.095,0.813,0.339,1.078,0.69
		c0.264,0.352,0.396,0.785,0.367,1.226c0.02,0.351-0.045,0.699-0.188,1.019c-0.144,0.318-0.36,0.6-0.636,0.815
		c-0.653,0.455-1.438,0.679-2.232,0.636c-0.938,0-1.701-0.021-2.289-0.06L172.667,46.461L172.667,46.461z M175.138,42.934h-1.02
		v2.176c0.314,0.035,0.634,0.057,0.951,0.06c1,0,1.5-0.396,1.5-1.188c0.01-0.149-0.021-0.303-0.086-0.438
		c-0.066-0.138-0.166-0.254-0.289-0.342c-0.316-0.193-0.684-0.286-1.055-0.267H175.138z M175.019,39.561
		c-0.345,0-0.646,0.013-0.903,0.035v2.08h0.976c0.319,0.016,0.635-0.084,0.889-0.281c0.113-0.102,0.203-0.227,0.262-0.367
		c0.058-0.141,0.082-0.293,0.072-0.443c0.01-0.145-0.019-0.289-0.076-0.421c-0.061-0.132-0.15-0.248-0.264-0.337
		c-0.277-0.19-0.611-0.284-0.949-0.266H175.019z M179.897,42.359c-0.017-0.563,0.086-1.125,0.297-1.648
		c0.209-0.523,0.523-0.999,0.926-1.396c0.4-0.397,0.879-0.709,1.404-0.914c0.524-0.207,1.088-0.303,1.65-0.283
		c0.565-0.021,1.127,0.072,1.655,0.275c0.526,0.201,1.01,0.506,1.418,0.897c0.785,0.824,1.222,1.919,1.222,3.058
		c0,1.137-0.437,2.231-1.222,3.055c-0.836,0.769-1.931,1.195-3.063,1.199c-1.135,0.006-2.23-0.414-3.072-1.175
		c-0.404-0.399-0.723-0.878-0.932-1.405c-0.209-0.528-0.305-1.096-0.281-1.664L179.897,42.359z M181.425,42.359
		c-0.012,0.381,0.051,0.759,0.188,1.113c0.136,0.354,0.339,0.68,0.602,0.957c0.251,0.268,0.555,0.479,0.895,0.619
		c0.338,0.143,0.701,0.211,1.068,0.202c0.375,0.019,0.749-0.047,1.098-0.188c0.346-0.142,0.658-0.357,0.912-0.633
		c0.51-0.568,0.778-1.31,0.752-2.07c0.014-0.383-0.051-0.765-0.188-1.121c-0.139-0.357-0.346-0.684-0.611-0.959
		c-0.522-0.52-1.231-0.811-1.969-0.811c-0.736,0-1.445,0.291-1.969,0.811c-0.26,0.277-0.461,0.604-0.594,0.963
		c-0.133,0.355-0.191,0.734-0.178,1.115L181.425,42.359z M196.308,40.632l-4.309,5.841h-1.271v-8.229h1.446v5.854l4.313-5.854h1.271
		v8.229h-1.446L196.308,40.632z M192.028,36.247h1.352c0.094,0.454,0.428,0.683,1,0.683c0.596,0,0.908-0.229,0.939-0.683h1.353
		c-0.005,0.243-0.067,0.481-0.183,0.694c-0.117,0.213-0.285,0.395-0.487,0.528c-0.496,0.3-1.063,0.457-1.642,0.458
		c-0.58,0.002-1.147-0.154-1.646-0.451c-0.2-0.141-0.366-0.322-0.483-0.537c-0.119-0.213-0.188-0.449-0.199-0.693L192.028,36.247z"
		/>
	<g>
		<path fill="#00A09B" d="M39,5l8.5-5v48L39,43V5z"/>
		<path fill="#0082CB" d="M20,5l8.5-5v48L20,43V5z"/>
		<path fill="#1E55F4" d="M1,5l8.5-5v48L1,43V5z"/>
		<path fill="#00B34F" d="M52.81,24.002C59.538,16.004,66.261,8.004,72.978,0c2.196,1.86,4.412,3.697,6.618,5.549
			C74.447,11.705,69.293,17.855,64.133,24c5.153,6.15,10.306,12.302,15.458,18.458c-2.207,1.849-4.419,3.687-6.611,5.542
			C66.252,40.006,59.528,32.006,52.81,24.002z"/>
	</g>
</g>
</svg>
