<?xml version="1.0" encoding="utf-8"?>
<!-- Generator: Adobe Illustrator 16.0.0, SVG Export Plug-In . SVG Version: 6.00 Build 0)  -->
<!DOCTYPE svg PUBLIC "-//W3C//DTD SVG 1.1//EN" "http://www.w3.org/Graphics/SVG/1.1/DTD/svg11.dtd">
<svg version="1.1" id="Layer_1" xmlns="http://www.w3.org/2000/svg" xmlns:xlink="http://www.w3.org/1999/xlink" x="0px" y="0px"
	 width="264px" height="48px" viewBox="0 0 264 48" enable-background="new 0 0 264 48" xml:space="preserve">
<g>
	<path fill="#233746" d="M98.108,11.207h-1.446V2.978h1.458l2.809,3.842l2.68-3.844h1.364v8.231h-1.434V5.259l-2.6,3.656h-0.21
		l-2.622-3.621V11.207z M112.721,11.207h-4.879V2.978h4.757V4.33h-3.311v2.045h2.962v1.352h-2.962v2.128h3.433V11.207z
		 M114.167,11.207l3.22-4.287l-3.088-3.942h1.657l2.983,3.927V2.978h1.434v3.926l2.974-3.926h1.669l-3.091,3.927l3.221,4.3h-1.669
		l-3.1-4.267v4.269h-1.438V6.94l-3.115,4.267H114.167z M127.285,12.676h-1.352V9.855h0.882c0.361-0.557,0.619-1.174,0.764-1.822
		c0.305-1.113,0.475-2.259,0.506-3.413l0.082-1.646h5.101v6.877h1.117v2.825h-1.35v-1.469h-5.75V12.676z M129.566,4.33l-0.129,1.434
		c-0.052,0.879-0.198,1.751-0.435,2.6c-0.121,0.526-0.324,1.03-0.6,1.493h3.433V4.33H129.566z M141.199,2.978h1.459l-2.801,6.313
		c-0.215,0.548-0.546,1.043-0.97,1.452c-0.349,0.307-0.8,0.472-1.265,0.464c-0.401,0.024-0.799-0.092-1.123-0.329l0.505-1.223
		c0.179,0.125,0.392,0.195,0.61,0.2c0.178,0.001,0.354-0.054,0.498-0.157c0.146-0.104,0.256-0.25,0.313-0.419l0.118-0.282
		l-3.631-6.019h1.635l2.691,4.6L141.199,2.978z M151.173,11.207h-1.435V7.692h-3.762v3.515h-1.445V2.978h1.445V6.34h3.762V2.978
		h1.435V11.207z M154.441,11.207h-1.459l3.48-8.252h1.27l3.48,8.252h-1.54l-0.858-2.1H155.3L154.441,11.207z M158.261,7.751
		l-1.199-2.931l-1.211,2.931H158.261z M164.479,8.233v2.974h-1.445V2.978c0.346,0,0.717-0.004,1.117-0.012
		c0.4-0.008,0.809-0.012,1.223-0.012c0.513-0.01,1.022,0.063,1.512,0.217c0.376,0.114,0.717,0.32,0.993,0.6
		c0.226,0.241,0.401,0.525,0.517,0.835c0.113,0.319,0.168,0.655,0.165,0.993c0.007,0.354-0.062,0.705-0.2,1.031
		c-0.138,0.326-0.342,0.62-0.6,0.862c-0.298,0.27-0.646,0.478-1.027,0.611c-0.379,0.133-0.781,0.189-1.183,0.165
		C165.07,8.268,164.715,8.256,164.479,8.233L164.479,8.233z M165.513,4.307l-1.033,0.023v2.527c0.413,0.042,0.753,0.063,1.021,0.063
		c0.398,0.021,0.791-0.1,1.111-0.341c0.141-0.121,0.252-0.273,0.324-0.444c0.072-0.171,0.104-0.357,0.092-0.543
		C167.029,4.735,166.525,4.307,165.513,4.307L165.513,4.307z M170.145,7.093c-0.014-0.558,0.085-1.114,0.291-1.633
		c0.207-0.519,0.516-0.991,0.909-1.388c0.403-0.403,0.884-0.72,1.413-0.93c0.529-0.21,1.097-0.31,1.667-0.293
		c0.563-0.02,1.125,0.074,1.651,0.275c0.527,0.201,1.01,0.506,1.416,0.896c0.406,0.398,0.725,0.876,0.936,1.405
		s0.309,1.095,0.288,1.663c0.019,0.564-0.082,1.127-0.292,1.651c-0.211,0.524-0.528,0.999-0.932,1.394
		c-0.403,0.396-0.883,0.707-1.412,0.914c-0.526,0.206-1.09,0.304-1.655,0.287c-0.563,0.019-1.126-0.076-1.653-0.278
		c-0.527-0.202-1.008-0.507-1.414-0.898c-0.404-0.399-0.721-0.877-0.929-1.405C170.22,8.225,170.123,7.66,170.145,7.093
		L170.145,7.093z M171.673,7.093c-0.013,0.38,0.051,0.758,0.187,1.114c0.135,0.355,0.34,0.68,0.602,0.956
		c0.251,0.268,0.555,0.479,0.894,0.621c0.339,0.142,0.702,0.21,1.069,0.202c0.375,0.018,0.749-0.046,1.096-0.188
		c0.348-0.142,0.659-0.359,0.914-0.634c0.508-0.567,0.778-1.308,0.752-2.069c0.012-0.382-0.052-0.764-0.189-1.121
		c-0.137-0.357-0.344-0.684-0.61-0.959c-0.254-0.264-0.56-0.472-0.897-0.611c-0.338-0.14-0.701-0.208-1.065-0.2
		c-0.368-0.01-0.733,0.057-1.073,0.197s-0.648,0.349-0.902,0.614c-0.26,0.278-0.461,0.606-0.595,0.963
		C171.72,6.332,171.658,6.712,171.673,7.093L171.673,7.093z M181.018,12.677h-1.352V9.855h0.883
		c0.361-0.557,0.619-1.174,0.764-1.822c0.305-1.113,0.475-2.259,0.506-3.413l0.082-1.642h5.1v6.877h1.117v2.821h-1.35v-1.469h-5.749
		L181.018,12.677z M183.3,4.33l-0.129,1.434c-0.052,0.879-0.198,1.751-0.435,2.6c-0.121,0.526-0.324,1.03-0.601,1.493h3.433V4.33
		H183.3z M196.783,11.207h-1.435V7.692h-3.762v3.515h-1.446V2.978h1.446V6.34h3.762V2.978h1.435V11.207z M207.527,11.207h-1.435
		V2.978h1.435V11.207z M201.9,7.093c-0.125,0-0.393,0.02-0.801,0.059v2.692c0.063,0,0.188,0.006,0.376,0.018
		c0.188,0.012,0.321,0.018,0.399,0.018c1.084,0,1.625-0.483,1.625-1.447c0.013-0.187-0.018-0.375-0.09-0.548
		c-0.07-0.173-0.182-0.328-0.321-0.452C202.744,7.184,202.324,7.064,201.9,7.093z M199.654,2.979h1.445V5.8
		c0.305-0.037,0.609-0.057,0.917-0.059c0.808-0.057,1.606,0.193,2.239,0.7c0.262,0.251,0.467,0.556,0.6,0.894
		s0.191,0.701,0.17,1.063c0.018,0.391-0.052,0.78-0.205,1.14c-0.154,0.359-0.388,0.679-0.683,0.936
		c-0.694,0.539-1.562,0.809-2.438,0.758c-0.439,0-0.819-0.004-1.141-0.012c-0.32-0.008-0.623-0.012-0.904-0.012V2.979z
		 M215.982,5.365l-4.318,5.842H210.4V2.978h1.445v5.854l4.314-5.854h1.27v8.229h-1.445L215.982,5.365z M211.699,0.98h1.353
		c0.094,0.455,0.427,0.682,1,0.682c0.595,0,0.909-0.228,0.94-0.682h1.352c-0.004,0.243-0.066,0.481-0.184,0.695
		c-0.117,0.213-0.283,0.395-0.486,0.528c-0.48,0.317-1.047,0.478-1.622,0.458c-0.588,0.028-1.171-0.13-1.663-0.453
		c-0.201-0.138-0.368-0.321-0.488-0.534C211.781,1.461,211.713,1.224,211.699,0.98z M229.639,11.207h-6.266V2.978h1.445v6.877h3.609
		V2.978h1.445v6.877h1.117v2.821h-1.352V11.207z M237.891,11.207h-4.878V2.978h4.761V4.33h-3.314v2.045h2.962v1.352h-2.962v2.128
		h3.433L237.891,11.207z M247,11.207h-1.434V7.692h-3.762v3.515h-1.445V2.978h1.446V6.34h3.763V2.978H247V11.207z M251.515,4.33
		h-2.668V2.978h6.783V4.33h-2.668v6.877h-1.446L251.515,4.33z M258.921,8.23v2.977h-1.446V2.978c0.346,0,0.717-0.004,1.117-0.012
		c0.4-0.008,0.809-0.012,1.223-0.012c0.512-0.01,1.022,0.063,1.512,0.217c0.375,0.114,0.717,0.32,0.992,0.6
		c0.227,0.241,0.402,0.525,0.518,0.835c0.113,0.319,0.168,0.655,0.164,0.993c0.007,0.354-0.062,0.705-0.199,1.031
		c-0.139,0.326-0.342,0.62-0.6,0.862c-0.299,0.27-0.647,0.478-1.027,0.611c-0.379,0.133-0.782,0.189-1.184,0.165
		c-0.478,0-0.834-0.012-1.069-0.035V8.23z M259.955,4.304l-1.034,0.024v2.527c0.415,0.04,0.756,0.059,1.022,0.059
		c0.399,0.021,0.793-0.101,1.111-0.341c0.141-0.121,0.252-0.273,0.325-0.444c0.071-0.171,0.104-0.357,0.092-0.542
		c0-0.853-0.506-1.279-1.517-1.279V4.304z M103.222,28.84h-1.445v-6.877h-3.668v6.877h-1.446v-8.229h6.559V28.84z M105.479,24.725
		c-0.015-0.564,0.086-1.125,0.297-1.649c0.21-0.524,0.525-0.999,0.926-1.396s0.879-0.709,1.404-0.915
		c0.526-0.206,1.088-0.302,1.652-0.283c0.564-0.019,1.126,0.076,1.653,0.277c0.527,0.202,1.008,0.508,1.415,0.899
		c0.406,0.398,0.724,0.876,0.935,1.405s0.309,1.095,0.288,1.663c0.018,0.564-0.082,1.127-0.292,1.65
		c-0.211,0.525-0.528,1-0.931,1.395c-0.404,0.396-0.884,0.707-1.412,0.914c-0.527,0.206-1.09,0.304-1.656,0.287
		c-0.564,0.018-1.126-0.076-1.653-0.278c-0.527-0.202-1.008-0.507-1.415-0.898c-0.404-0.399-0.721-0.878-0.929-1.407
		C105.552,25.859,105.456,25.293,105.479,24.725z M107.007,24.725c-0.012,0.381,0.051,0.759,0.187,1.113
		c0.135,0.355,0.339,0.681,0.601,0.956c0.251,0.268,0.555,0.479,0.894,0.621c0.338,0.142,0.702,0.21,1.069,0.202
		c0.375,0.018,0.749-0.047,1.096-0.189c0.347-0.142,0.659-0.357,0.914-0.634c0.508-0.567,0.778-1.308,0.752-2.069
		c0.012-0.382-0.052-0.764-0.189-1.121c-0.138-0.357-0.345-0.684-0.611-0.959c-0.524-0.519-1.232-0.81-1.969-0.81
		c-0.737,0-1.445,0.291-1.969,0.81c-0.26,0.279-0.462,0.606-0.595,0.963C107.054,23.964,106.993,24.344,107.007,24.725
		L107.007,24.725z M120.655,20.611h1.693l-2.774,4.032l2.88,4.2h-1.693l-2.128-3.092l-2.115,3.089h-1.693l2.88-4.199l-2.751-4.03
		h1.693l2.022,2.974L120.655,20.611z M129.53,20.611h1.458l-2.8,6.313c-0.215,0.549-0.546,1.044-0.97,1.452
		c-0.349,0.307-0.8,0.472-1.264,0.464c-0.403,0.025-0.802-0.091-1.128-0.329l0.505-1.223c0.179,0.126,0.392,0.194,0.611,0.2
		c0.178,0.001,0.353-0.055,0.498-0.158c0.146-0.103,0.255-0.249,0.313-0.418l0.118-0.282l-3.629-6.019h1.634l2.692,4.6
		L129.53,20.611z M132.387,30.311h-1.353v-2.822h0.882c0.361-0.558,0.621-1.174,0.765-1.822c0.305-1.111,0.475-2.256,0.505-3.409
		l0.082-1.646h5.101v6.877h1.117v2.82h-1.351V28.84h-5.749V30.311z M134.668,21.965l-0.129,1.434c-0.051,0.88-0.197,1.751-0.435,2.6
		c-0.12,0.526-0.323,1.029-0.6,1.493h3.433v-5.529L134.668,21.965z M146.389,28.842h-4.879v-8.231h4.761v1.352h-3.315v2.045h2.963
		v1.352h-2.963v2.129h3.434V28.842z M155.498,28.842h-1.434v-3.517H150.3v3.515h-1.442v-8.229h1.442v3.362h3.762v-3.362h1.438
		L155.498,28.842z M163.951,23l-4.314,5.84h-1.27v-8.229h1.445v5.854l4.314-5.854h1.273v8.229h-1.449V23z M173.414,28.842h-1.435
		v-2.847h-1.188l-1.844,2.845h-1.623l2.101-3.139c-0.425-0.208-0.788-0.524-1.052-0.917c-0.266-0.405-0.401-0.88-0.391-1.364
		c-0.012-0.379,0.059-0.757,0.204-1.108s0.365-0.667,0.642-0.926c0.709-0.59,1.619-0.881,2.539-0.811l1.035,0.024
		c0.344,0.008,0.682,0.012,1.01,0.012L173.414,28.842z M170.662,24.643h1.317v-2.681c-0.399-0.023-0.702-0.035-0.905-0.035
		c-0.414-0.02-0.818,0.119-1.133,0.388c-0.142,0.127-0.254,0.283-0.328,0.458s-0.108,0.363-0.102,0.553
		c-0.01,0.319,0.105,0.629,0.322,0.864C170.056,24.425,170.346,24.583,170.662,24.643L170.662,24.643z M180.808,28.842h-1.446
		v-8.231h1.446v3.9l3.244-3.9h1.739l-3.385,3.832l3.601,4.4h-1.837l-3.362-4.243V28.842z M189.295,25.868v2.972h-1.446v-8.229
		c0.345,0,0.718-0.004,1.117-0.012c0.399-0.008,0.808-0.012,1.223-0.012c0.513-0.01,1.022,0.063,1.511,0.217
		c0.377,0.114,0.717,0.32,0.994,0.6c0.225,0.241,0.401,0.525,0.516,0.835c0.113,0.318,0.169,0.655,0.166,0.993
		c0.006,0.354-0.063,0.705-0.2,1.031c-0.138,0.326-0.343,0.62-0.601,0.862c-0.297,0.271-0.646,0.479-1.026,0.611
		s-0.782,0.189-1.183,0.164c-0.479,0-0.836-0.012-1.07-0.034V25.868z M190.328,21.942l-1.033,0.024v2.524
		c0.414,0.039,0.756,0.059,1.023,0.059c0.398,0.021,0.791-0.1,1.11-0.341c0.142-0.121,0.252-0.273,0.325-0.444
		c0.072-0.171,0.104-0.357,0.092-0.542c0-0.854-0.506-1.281-1.518-1.281V21.942z M201.214,23l-4.313,5.84h-1.271v-8.229h1.446v5.854
		l4.313-5.854h1.271v8.229h-1.446V23z M211.24,26.962l0.553,1.081c-0.313,0.308-0.693,0.537-1.111,0.67
		c-0.488,0.174-1.004,0.262-1.521,0.26c-0.563,0.021-1.125-0.07-1.653-0.271c-0.527-0.2-1.009-0.504-1.415-0.894
		c-0.396-0.406-0.706-0.889-0.908-1.418c-0.201-0.53-0.294-1.096-0.268-1.662c-0.038-1.122,0.363-2.214,1.117-3.045
		c0.398-0.41,0.881-0.729,1.414-0.936c0.535-0.207,1.106-0.297,1.678-0.264c0.908-0.047,1.802,0.251,2.5,0.835l-0.647,1.07
		c-0.55-0.366-1.196-0.559-1.856-0.552c-0.359-0.012-0.717,0.052-1.049,0.188c-0.332,0.136-0.631,0.34-0.879,0.6
		c-0.52,0.573-0.789,1.328-0.752,2.101c-0.017,0.383,0.045,0.766,0.18,1.126c0.136,0.359,0.342,0.688,0.607,0.966
		c0.27,0.266,0.592,0.475,0.946,0.612c0.353,0.138,0.731,0.201,1.11,0.188c0.707,0.007,1.396-0.226,1.957-0.657L211.24,26.962z
		 M215.461,21.962h-2.668v-1.351h6.783v1.352h-2.668v6.877h-1.446L215.461,21.962z M227.005,22.996l-4.313,5.842h-1.271v-8.227
		h1.446v5.854l4.313-5.854h1.271v8.229h-1.446V22.996z M237.961,28.838h-1.434v-3.513h-3.763v3.515h-1.444v-8.229h1.445v3.362h3.762
		v-3.362h1.435L237.961,28.838z M248.705,28.838h-1.435v-8.227h1.435V28.838z M243.074,24.725c-0.125,0-0.393,0.02-0.801,0.059
		v2.691c0.063,0,0.188,0.006,0.377,0.019c0.188,0.012,0.32,0.018,0.399,0.018c1.081,0,1.622-0.481,1.622-1.446
		c0.013-0.187-0.018-0.374-0.09-0.547c-0.07-0.174-0.182-0.328-0.321-0.453C243.916,24.816,243.498,24.696,243.074,24.725
		L243.074,24.725z M240.83,20.611h1.445v2.821c0.305-0.037,0.61-0.057,0.918-0.059c0.807-0.056,1.606,0.194,2.238,0.7
		c0.262,0.251,0.467,0.556,0.6,0.894s0.191,0.701,0.17,1.063c0.02,0.391-0.051,0.781-0.205,1.141
		c-0.153,0.359-0.387,0.679-0.682,0.936c-0.695,0.539-1.561,0.809-2.439,0.758c-0.438,0-0.818-0.004-1.139-0.012
		c-0.322-0.009-0.623-0.013-0.906-0.013V20.611z M106.099,46.473h-9.436v-8.229h1.446v6.876h2.551v-6.876h1.446v6.876h2.551v-6.876
		h1.442V46.473z M113.846,46.473h-4.875v-8.229h4.761v1.352h-3.315v2.045h2.962v1.353h-2.962v2.127h3.432L113.846,46.473z
		 M117.76,43.499v2.974h-1.442v-8.229c0.345,0,0.717-0.004,1.117-0.012s0.808-0.012,1.223-0.012
		c0.512-0.011,1.022,0.063,1.511,0.217c0.376,0.113,0.717,0.32,0.993,0.6c0.226,0.24,0.402,0.525,0.517,0.835
		c0.113,0.319,0.168,0.655,0.165,0.993c0.006,0.354-0.062,0.705-0.2,1.031c-0.138,0.326-0.342,0.619-0.6,0.861
		c-0.298,0.271-0.647,0.479-1.027,0.611c-0.379,0.134-0.782,0.189-1.183,0.165c-0.479,0-0.835-0.012-1.07-0.035H117.76z
		 M118.799,39.572l-1.034,0.023v2.524c0.415,0.039,0.756,0.06,1.023,0.06c0.399,0.02,0.792-0.102,1.111-0.342
		c0.141-0.121,0.252-0.273,0.325-0.444c0.072-0.171,0.104-0.356,0.092-0.542C120.315,39.998,119.809,39.572,118.799,39.572z
		 M128.979,46.473h-4.88v-8.229h4.761v1.352h-3.314v2.045h2.962v1.353h-2.962v2.127h3.433V46.473z M132.894,46.473h-1.447v-8.229
		h1.459l2.809,3.844l2.68-3.844h1.364v8.229h-1.435V40.52l-2.601,3.656h-0.212l-2.618-3.615V46.473z M147.506,46.473h-4.879v-8.229
		h4.761v1.352h-3.315v2.045h2.963v1.353h-2.963v2.127h3.434V46.473z M151.619,39.596h-2.668v-1.352h6.783v1.352h-2.67v6.877h-1.445
		V39.596z M159.849,42.357c-0.142,0-0.416,0.02-0.823,0.059v2.691l0.801,0.035c1.144,0,1.715-0.481,1.715-1.445
		c0.013-0.19-0.022-0.381-0.1-0.555c-0.078-0.175-0.197-0.328-0.347-0.445C160.728,42.45,160.289,42.331,159.849,42.357
		L159.849,42.357z M157.58,38.243h1.445v2.821c0.313-0.038,0.627-0.058,0.94-0.06c0.831-0.06,1.655,0.188,2.315,0.694
		c0.269,0.248,0.479,0.554,0.614,0.893c0.136,0.34,0.196,0.705,0.175,1.07c0.018,0.392-0.055,0.782-0.211,1.142
		c-0.156,0.36-0.392,0.679-0.689,0.933c-0.721,0.545-1.61,0.813-2.51,0.759c-0.455,0-0.844-0.004-1.164-0.013
		c-0.321-0.008-0.627-0.012-0.918-0.012L157.58,38.243z M170.199,46.473h-4.873v-8.229h4.761v1.352h-3.315v2.045h2.963v1.353h-2.963
		v2.127h3.428V46.473z M172.668,46.461v-8.193c0.848-0.04,1.639-0.06,2.375-0.06c0.72-0.054,1.437,0.137,2.035,0.541
		c0.221,0.179,0.396,0.407,0.513,0.667c0.116,0.259,0.17,0.542,0.157,0.826c0.022,0.395-0.078,0.787-0.289,1.123
		c-0.211,0.334-0.521,0.596-0.887,0.746v0.023c0.43,0.094,0.813,0.339,1.078,0.69c0.264,0.352,0.396,0.786,0.367,1.226
		c0.02,0.35-0.044,0.699-0.188,1.018c-0.144,0.319-0.361,0.6-0.635,0.816c-0.654,0.455-1.439,0.678-2.233,0.635
		c-0.938,0-1.701-0.02-2.289-0.059H172.668z M175.138,42.934h-1.019v2.176c0.315,0.035,0.634,0.056,0.951,0.059
		c1,0,1.5-0.396,1.5-1.188c0.01-0.15-0.021-0.303-0.086-0.439c-0.066-0.137-0.166-0.254-0.289-0.342
		c-0.316-0.193-0.684-0.286-1.054-0.266H175.138z M175.02,39.561c-0.345,0-0.646,0.012-0.904,0.035v2.08h0.976
		c0.319,0.016,0.635-0.084,0.888-0.281c0.114-0.102,0.203-0.227,0.262-0.367c0.058-0.141,0.082-0.293,0.073-0.444
		c0.009-0.145-0.019-0.289-0.077-0.421c-0.06-0.132-0.15-0.248-0.264-0.337c-0.277-0.19-0.611-0.284-0.949-0.265H175.02z
		 M179.898,42.359c-0.016-0.563,0.086-1.125,0.297-1.648c0.209-0.523,0.524-0.999,0.926-1.396c0.4-0.398,0.879-0.709,1.404-0.915
		s1.088-0.303,1.651-0.283c0.565-0.021,1.127,0.073,1.655,0.275c0.527,0.202,1.01,0.507,1.418,0.898
		c0.785,0.824,1.222,1.919,1.222,3.057s-0.437,2.232-1.222,3.056c-0.836,0.768-1.93,1.195-3.063,1.199
		c-1.135,0.005-2.231-0.414-3.073-1.175c-0.404-0.399-0.722-0.878-0.931-1.406s-0.305-1.095-0.282-1.663L179.898,42.359z
		 M181.426,42.359c-0.012,0.381,0.051,0.759,0.188,1.114c0.135,0.354,0.338,0.68,0.601,0.956c0.251,0.268,0.555,0.479,0.894,0.62
		c0.338,0.142,0.702,0.211,1.069,0.202c0.375,0.018,0.749-0.047,1.097-0.188c0.346-0.142,0.658-0.358,0.913-0.634
		c0.509-0.567,0.778-1.309,0.752-2.07c0.013-0.383-0.052-0.764-0.188-1.121c-0.139-0.357-0.346-0.684-0.611-0.959
		c-0.523-0.519-1.232-0.81-1.969-0.81c-0.737,0-1.445,0.291-1.969,0.81c-0.26,0.278-0.461,0.605-0.594,0.963
		c-0.132,0.356-0.191,0.735-0.177,1.115L181.426,42.359z M196.308,40.632L192,46.473h-1.271v-8.229h1.446v5.854l4.314-5.854h1.27
		v8.229h-1.446L196.308,40.632z M192.029,36.247h1.352c0.094,0.454,0.427,0.683,1,0.683c0.595,0,0.908-0.229,0.939-0.683h1.353
		c-0.005,0.243-0.067,0.481-0.183,0.694c-0.117,0.213-0.285,0.395-0.487,0.529c-0.496,0.299-1.063,0.457-1.642,0.458
		c-0.58,0.001-1.147-0.155-1.645-0.452c-0.2-0.14-0.366-0.322-0.484-0.536c-0.119-0.214-0.187-0.45-0.199-0.694L192.029,36.247z"/>
	<g>
		<path fill="#00A09B" d="M39,5l8.5-5v48L39,43V5z"/>
		<path fill="#0082CB" d="M20,5l8.5-5v48L20,43V5z"/>
		<path fill="#1E55F4" d="M1,5l8.5-5v48L1,43V5z"/>
		<path fill="#00B34F" d="M52.81,24.002C59.538,16.004,66.261,8.004,72.978,0c2.196,1.86,4.412,3.697,6.618,5.549
			C74.448,11.705,69.294,17.855,64.134,24c5.153,6.15,10.306,12.302,15.458,18.458c-2.207,1.848-4.419,3.687-6.611,5.542
			C66.253,40.006,59.529,32.006,52.81,24.002z"/>
	</g>
</g>
</svg>
