<svg id="fitness" xmlns="http://www.w3.org/2000/svg" width="99.994" height="100" viewBox="0 0 99.994 100">
  <path id="Контур_187" data-name="Контур 187" d="M265.6,46.194l1.372-4.544A44.38,44.38,0,0,1,280.6,21.3c8.894-6.731,22.632-7.256,26.628-7.256l4.288.113-.656,3.584a79.727,79.727,0,0,1-8.237,23.012l-.8,1.321Zm0,0" transform="translate(-213.727 -11.304)" fill="#c9ef3f"/>
  <path id="Контур_188" data-name="Контур 188" d="M272,0h6.25V31.25H272Zm0,0" transform="translate(-218.875)" fill="#77959e"/>
  <path id="Контур_189" data-name="Контур 189" d="M126.811,188.707h-1.063a18.606,18.606,0,0,1-15.625-8.543,2.944,2.944,0,0,0-4.778.024,18.593,18.593,0,0,1-15.6,8.519H88.685A18.831,18.831,0,0,1,70.248,173l-5.825-32.685a25.93,25.93,0,0,1-.425-4.64,25.266,25.266,0,0,1,25.031-25.438A24.878,24.878,0,0,1,105.8,116.8h3.9a24.706,24.706,0,0,1,35.8,2.394,25.739,25.739,0,0,1,5.572,21.128L145.248,173a18.831,18.831,0,0,1-18.437,15.7Zm0,0" transform="translate(-51.498 -88.707)" fill="#e76e54"/>
  <path id="Контур_190" data-name="Контур 190" d="M139,224v43.75H71.093a21.117,21.117,0,0,1-.844-3.219l-5.813-32.656A26.405,26.405,0,0,1,64,227.219,27.339,27.339,0,0,1,64.187,224Zm0,0" transform="translate(-51.5 -180.25)" fill="#dd523c"/>
  <path id="Контур_191" data-name="Контур 191" d="M81.25,287.25H9.375A9.375,9.375,0,0,1,0,277.875V256H81.25Zm0,0" transform="translate(0 -206)" fill="#ffcb5a"/>
  <g id="Сгруппировать_849" data-name="Сгруппировать 849" transform="translate(12.5 50)">
    <path id="Контур_192" data-name="Контур 192" d="M320,256h6.25v18.75H320Zm0,0" transform="translate(-270 -256)" fill="#fba61f"/>
    <path id="Контур_193" data-name="Контур 193" d="M256,256h6.25v12.5H256Zm0,0" transform="translate(-218.5 -256)" fill="#fba61f"/>
    <path id="Контур_194" data-name="Контур 194" d="M192,256h6.25v18.75H192Zm0,0" transform="translate(-167 -256)" fill="#fba61f"/>
    <path id="Контур_195" data-name="Контур 195" d="M64,256h6.25v18.75H64Zm0,0" transform="translate(-64 -256)" fill="#fba61f"/>
    <path id="Контур_196" data-name="Контур 196" d="M128,256h6.25v12.5H128Zm0,0" transform="translate(-115.5 -256)" fill="#fba61f"/>
  </g>
  <path id="Контур_197" data-name="Контур 197" d="M160,192h6.25v6.25H160Zm0,0" transform="translate(-128.75 -154.5)" fill="#fff"/>
  <path id="Контур_198" data-name="Контур 198" d="M224,192h6.25v6.25H224Zm0,0" transform="translate(-180.25 -154.5)" fill="#fff"/>
</svg>
