<svg xmlns="http://www.w3.org/2000/svg" width="78.682" height="24.691" viewBox="0 0 78.682 24.691">
  <path id="Контур_216" data-name="Контур 216" d="M14.889,19.284q-1.116.557-1.763-1.531a21.959,21.959,0,0,1-.646-6.122,76.191,76.191,0,0,1,.529-8.349,31.176,31.176,0,0,0,.823-5.844q.294-2.365.94-6.053t1.058-5.635q.235,0,.5-.974a7.407,7.407,0,0,0,.264-1.948,16.736,16.736,0,0,1,.206-2.574,8.843,8.843,0,0,1,.441-1.878,7.87,7.87,0,0,1,.235-1.461,7.87,7.87,0,0,0,.235-1.461,4.528,4.528,0,0,1,.147-.9A4.731,4.731,0,0,0,18-26.494q1.058-4.174,3.056-15.723t2.057-13.358q.176-2.365,1.058-1.948a.989.989,0,0,1,.94-.557l.823,2.226a6.578,6.578,0,0,1,.5,2.018q.088,1.044.088,3.131A28.148,28.148,0,0,1,26-46.183q-.47,2.435-1.116,5.079T24-37.348l-.764,3.339a34.449,34.449,0,0,0-.94,4.592A12.3,12.3,0,0,1,22-27.4q-.294,1.461-.47,2.435Q21-22.877,20.354-19.746a31.93,31.93,0,0,0-.646,3.687q-.059.278-.147.974a4.74,4.74,0,0,1-.323,1.252q-.176,0-.235.626t-.059.9a25.108,25.108,0,0,1-.294,2.783q-.294,2.087-.823,4.592a191.712,191.712,0,0,0-2.174,19.2q-.118,3.339-.206,3.9A2.3,2.3,0,0,1,14.889,19.284Z" transform="translate(17.475 -4.275) rotate(82)" fill="#1592e6"/>
</svg>
