<svg xmlns="http://www.w3.org/2000/svg" width="100" height="99.861" viewBox="0 0 100 99.861">
  <g id="salad" transform="translate(0 -0.359)">
    <path id="Контур_177" data-name="Контур 177" d="M282.441,53.41H237.535L242.89,16.13a13.313,13.313,0,0,1,2.612-10.9c2.26-3,5.367-4.871,8.117-4.871,3.542,0,5.814,1.947,8.22,4.007.265.228.539.465.83.709,4.862-1.483,14.854-3.461,22.747,5.735v0c8.055,9.4,5.586,24.054,4.874,27.453a43.43,43.43,0,0,1,.777,5.783c0,4.684-6.1,8.1-7.967,9.034Zm0,0" transform="translate(-191.206)" fill="#9ccc65"/>
    <path id="Контур_178" data-name="Контур 178" d="M271.258,105.786H221.215l4.179-25.892c-1.6-5.521,0-9.081,1.145-10.744a8.219,8.219,0,0,1,6.238-3.708c3.941-.243,7.773,2.337,10.806,4.372a23.491,23.491,0,0,0,3.1,1.891c.377.147,1.979-.555,2.84-.936,3.146-1.395,8.423-3.735,13.762,1.608,5.237,5.236,3.086,11.537,1.667,15.7-.44,1.285-1.173,3.436-.99,4.032a22.388,22.388,0,0,0,2.372,3.9,27.448,27.448,0,0,1,3.233,5.508Zm0,0" transform="translate(-178.069 -52.376)" fill="#d6efb6"/>
    <path id="Контур_179" data-name="Контур 179" d="M304.816,174.029l6.245-18.724,5.921,1.975L310.737,176Zm0,0" transform="translate(-245.365 -124.726)" fill="#b9e57a"/>
    <path id="Контур_180" data-name="Контур 180" d="M10.389,57.215c-3.246,0-3.536-.574-3.948-1.8A23.684,23.684,0,0,0,4.106,51.62C2.181,48.855,0,45.728,0,41.827S2.181,34.8,4.106,32.034a22.557,22.557,0,0,0,2.372-3.888c.184-.594-.549-2.744-.989-4.029-1.42-4.166-3.57-10.467,1.666-15.7,5.336-5.333,10.611-3,13.762-1.608.862.384,2.475,1.111,2.846.933a5.231,5.231,0,0,0,1.279-1.186c1.829-2.022,4.6-5.077,12.467-5.077,2.381,0,5.327,2.3,6.853,5.358C45.7,9.5,47.1,15,41.913,22.329c1.018.377,2.537.774,3.661,1.067,4.968,1.3,11.153,2.914,12.72,8.288,1.576,5.4-1.922,9.328-4.474,12.189-2.606,2.92-3.692,4.4-3.14,6.288L51.74,53.8l-3.773.343s-9.568.865-19.145,1.707c-10.111.889-15.491,1.364-18.434,1.364Zm0,0" transform="translate(0 -0.9)" fill="#9ccc65"/>
    <path id="Контур_181" data-name="Контур 181" d="M101.081,111.934l-3.745-4.993-9.6,7.205L83.542,93.223l-6.116,1.223,3.6,18.016-5.39-2.7-2.79,5.585,9.73,4.865,1.089,5.436,6.116-1.223-.7-3.5Zm0,0" transform="translate(-58.64 -74.752)" fill="#7cb342"/>
    <path id="Контур_182" data-name="Контур 182" d="M74.9,293.41H24.965V282.952A43.576,43.576,0,0,1,0,243.479v-3.121H99.861v3.121A43.576,43.576,0,0,1,74.9,282.952Zm0,0" transform="translate(0 -193.19)" fill="#f7e1d2"/>
    <path id="Контур_183" data-name="Контур 183" d="M128,458.742h49.93V469.2H128Zm0,0" transform="translate(-103.035 -368.98)" fill="#efd1bd"/>
    <g id="Сгруппировать_848" data-name="Сгруппировать 848" transform="translate(15.603 53.41)">
      <path id="Контур_184" data-name="Контур 184" d="M384,272.359h6.241V278.6H384Zm0,0" transform="translate(-324.708 -272.359)" fill="#fff"/>
      <path id="Контур_185" data-name="Контур 185" d="M320,272.359h6.241V278.6H320Zm0,0" transform="translate(-273.19 -272.359)" fill="#fff"/>
      <path id="Контур_186" data-name="Контур 186" d="M80,272.359h6.241V278.6H80Zm0,0" transform="translate(-80 -272.359)" fill="#fff"/>
    </g>
  </g>
</svg>
