<svg xmlns="http://www.w3.org/2000/svg" width="81.25" height="100" viewBox="0 0 81.25 100">
  <g id="Сгруппировать_850" data-name="Сгруппировать 850" transform="translate(-519 -3403)">
    <path id="Контур_165" data-name="Контур 165" d="M6.25,16H75a6.25,6.25,0,0,1,6.25,6.25v84.375a6.25,6.25,0,0,1-6.25,6.25H6.25A6.25,6.25,0,0,1,0,106.625V22.25A6.25,6.25,0,0,1,6.25,16Zm0,0" transform="translate(519 3390.125)" fill="#fba61f"/>
    <path id="Контур_166" data-name="Контур 166" d="M32,111.794V48h68.75v84.375H52.581Zm0,0" transform="translate(493.25 3364.375)" fill="#fff"/>
    <path id="Контур_167" data-name="Контур 167" d="M52.581,374.625v20.581L32,374.625Zm0,0" transform="translate(493.25 3101.544)" fill="#77959e" opacity="0.3"/>
    <path id="Контур_168" data-name="Контур 168" d="M128,12.5V0h31.25V12.5A6.25,6.25,0,0,1,153,18.75H134.25A6.25,6.25,0,0,1,128,12.5Zm0,0" transform="translate(416 3403)" fill="#0082cb"/>
    <path id="Контур_169" data-name="Контур 169" d="M80,128h6.25v6.25H80Zm0,0" transform="translate(454.625 3300)" fill="#77959e" opacity="0.5"/>
    <path id="Контур_170" data-name="Контур 170" d="M80,192h6.25v6.25H80Zm0,0" transform="translate(454.625 3248.5)" fill="#77959e" opacity="0.5"/>
    <path id="Контур_171" data-name="Контур 171" d="M80,256h6.25v6.25H80Zm0,0" transform="translate(454.625 3197)" fill="#77959e" opacity="0.5"/>
    <path id="Контур_172" data-name="Контур 172" d="M147.125,128h31.25a3.125,3.125,0,0,1,0,6.25h-31.25a3.125,3.125,0,0,1,0-6.25Zm0,0" transform="translate(403.125 3300)" fill="#77959e" opacity="0.5"/>
    <path id="Контур_173" data-name="Контур 173" d="M147.125,192h31.25a3.125,3.125,0,0,1,0,6.25h-31.25a3.125,3.125,0,0,1,0-6.25Zm0,0" transform="translate(403.125 3248.5)" fill="#77959e" opacity="0.5"/>
    <path id="Контур_174" data-name="Контур 174" d="M147.125,256h31.25a3.125,3.125,0,0,1,0,6.25h-31.25a3.125,3.125,0,0,1,0-6.25Zm0,0" transform="translate(403.125 3197)" fill="#77959e" opacity="0.5"/>
    <path id="Контур_175" data-name="Контур 175" d="M80,320h6.25v6.25H80Zm0,0" transform="translate(454.625 3145.5)" fill="#77959e" opacity="0.5"/>
    <path id="Контур_176" data-name="Контур 176" d="M147.125,320h31.25a3.125,3.125,0,1,1,0,6.25h-31.25a3.125,3.125,0,0,1,0-6.25Zm0,0" transform="translate(403.125 3145.5)" fill="#77959e" opacity="0.5"/>
  </g>
</svg>
