<svg width="56" height="38" viewBox="0 0 56 38" fill="none" xmlns="http://www.w3.org/2000/svg">
<path opacity="0.2" d="M37.9315 6.505C37.1562 5.98525 36.758 5.15853 37.2954 4.25725C37.7612 3.50015 38.6963 3.24563 39.5069 3.51334C41.0741 4.06691 42.6412 4.62048 44.0829 5.33635C46.4797 6.57148 48.7329 7.91498 51.04 9.24034C51.8143 9.40018 52.3203 10.1906 52.1424 10.9109L52.0355 11.3071C50.9867 16.0429 48.2983 20.0094 46.4027 24.3697C46.2953 24.5859 45.7917 24.6953 45.5397 24.66C44.9816 24.6075 44.6565 24.1765 44.529 23.619C44.1284 21.8925 44.4118 20.2361 45.0193 18.6508C45.7523 16.9031 46.4132 15.1197 47.1463 13.3721C47.0923 13.3903 46.9845 13.4265 46.9487 13.4986C44.468 14.5132 42.0055 15.5817 39.4704 16.4345C35.4069 17.7414 31.2351 18.9046 27.1534 20.1575C20.271 23.7936 12.6098 25.6503 5.29292 28.3518C4.96929 28.4606 4.3029 28.2645 4.06852 28.1032C3.56345 27.6727 3.8498 27.096 4.33425 26.5728C6.02101 24.8046 8.39279 23.4664 10.8916 22.5057C16.8777 20.1318 22.8815 17.6319 29.1393 15.887C29.8762 15.5791 30.6132 15.2711 31.3684 15.0171C35.9526 13.2949 40.5731 11.6806 45.3388 10.4977C42.7801 9.31703 40.2754 8.11819 37.9315 6.505Z" fill="#233746"/>
</svg>
