<svg width="36" height="37" viewBox="0 0 36 37" fill="none" xmlns="http://www.w3.org/2000/svg">
<path opacity="0.2" d="M16.3926 28.5232C14.299 26.685 12.1786 24.9683 9.76963 23.5195C9.00718 23.0455 8.12932 22.9795 7.54198 23.7935C7.02471 24.5209 7.12358 25.4606 7.74589 26.1077C8.89573 27.2535 10.0538 28.4776 11.352 29.5286C13.4642 31.167 15.6382 32.6405 17.7854 34.2356C17.8719 34.3057 17.6988 34.1655 17.7854 34.2356C18.3212 34.8126 19.2423 34.9136 19.8976 34.3696L20.081 34.2316C23.8894 31.2973 26.348 27.1986 29.5072 23.7388C29.6474 23.5657 29.5546 23.0608 29.4516 22.8341C29.159 22.3107 28.6377 22.2468 28.1328 22.3395C26.4265 22.6774 25.021 23.617 23.8835 24.8451C22.5975 26.1681 21.2765 27.5343 20.0339 28.8922C20.0772 27.4229 20.0422 25.9619 19.8506 24.5173C19.5272 21.8198 19.0039 19.1038 18.6022 16.4145C19.2659 11.4358 18.0338 6.49827 17.7929 1.5752C17.7682 1.34027 17.3788 1.02497 17.0923 0.936344C16.5627 0.794131 16.1176 1.07849 15.8105 1.54626C14.8192 3.03613 14.5224 4.73003 14.5471 6.46928C14.6623 10.5742 14.6209 14.6957 15.3709 18.813C15.3853 19.3262 15.3997 19.8393 15.4141 20.3524C15.6242 23.1014 15.8342 25.8504 16.3926 28.5232Z" fill="#233746"/>
</svg>
