<svg width="58" height="44" viewBox="0 0 58 44" fill="none" xmlns="http://www.w3.org/2000/svg">
<path opacity="0.2" d="M43.8961 37.1163C46.4594 36.1202 48.8886 34.9988 51.3706 33.9016L51.707 33.8642C52.3269 33.7652 52.7512 33.2574 52.7291 32.6088L52.6258 31.8592C52.045 26.9962 49.7429 22.6852 48.2871 18.0598C48.2014 17.829 47.7023 17.6641 47.4429 17.6729C46.8713 17.6664 46.4954 18.0687 46.3064 18.6206C45.7151 20.3288 45.8252 22.0392 46.2716 23.7122C46.7752 25.5391 47.3074 27.4429 47.8637 29.2939C47.8109 29.2698 47.7054 29.2214 47.6768 29.1445C45.2694 27.8497 42.8862 26.5023 40.4063 25.3659C36.4247 23.6052 32.3179 21.9787 28.3122 20.2708C21.7209 15.8458 14.1492 13.1423 7.01713 9.61876C6.70054 9.47369 6.00364 9.60125 5.74863 9.73977C5.19025 10.1223 5.41894 10.7379 5.85428 11.3205C7.37576 13.2945 9.63809 14.9058 12.0697 16.1478C17.887 19.1966 23.7088 22.3751 29.869 24.8149C30.5836 25.2062 31.2981 25.5974 32.0368 25.9359C36.5306 28.2505 41.0442 30.3827 45.6985 32.0685C42.9483 32.9152 40.308 33.9398 37.7579 35.3251C36.9159 35.7692 36.4477 36.5123 36.8435 37.4598C37.2107 38.3304 38.1077 38.7414 38.9827 38.5039C40.6315 38.1103 42.3331 37.7408 43.8961 37.1163Z" fill="#233746"/>
</svg>
