<svg width="32" height="32" viewBox="0 0 32 32" fill="none" xmlns="http://www.w3.org/2000/svg">
<path opacity="0.2" d="M6.23204 10.565C6.43369 11.0512 6.88172 11.1602 7.33139 11.1309C8.85358 11.0106 10.175 10.335 11.2922 9.38038C12.5486 8.35831 13.8399 7.30209 15.062 6.24505C14.8742 7.52167 14.7554 8.7991 14.7749 10.0782C14.7813 12.4631 14.9601 14.8846 15.0357 17.2704C13.9142 21.5084 14.4841 25.9392 14.1912 30.2561C14.1887 30.4635 14.4961 30.7782 14.7368 30.8847C15.184 31.0628 15.6011 30.8603 15.9167 30.4839C16.9331 29.2862 17.3649 27.8396 17.5211 26.3207C17.84 22.7299 18.2971 19.1407 18.0638 15.4743C18.1037 15.0254 18.1436 14.5766 18.1834 14.1277C18.3502 11.7103 18.4129 9.32614 18.2333 6.97373C19.8708 8.79033 21.5442 10.5037 23.4965 12.0129C24.1129 12.5041 24.8715 12.6513 25.4667 12.0016C25.9921 11.4202 26.0018 10.5908 25.5254 9.96306C24.6399 8.84659 23.7552 7.66101 22.7307 6.61203C21.0565 4.96781 19.3116 3.46101 17.6024 1.85094C17.5341 1.78101 17.6707 1.92087 17.6024 1.85094C17.1251 1.2923 16.3315 1.17925 15.7054 1.51749L15.5663 1.58498C11.9462 3.75431 9.38388 7.0767 6.27598 9.77052C6.10197 9.87216 6.13122 10.3218 6.23204 10.565Z" fill="#233746"/>
</svg>
