<?xml version="1.0" encoding="utf-8"?>
<!-- Generator: Adobe Illustrator 16.0.0, SVG Export Plug-In . SVG Version: 6.00 Build 0)  -->
<!DOCTYPE svg PUBLIC "-//W3C//DTD SVG 1.1//EN" "http://www.w3.org/Graphics/SVG/1.1/DTD/svg11.dtd">
<svg version="1.1" id="Layer_1" xmlns="http://www.w3.org/2000/svg" xmlns:xlink="http://www.w3.org/1999/xlink" x="0px" y="0px"
	 width="64px" height="56px" viewBox="0 0 64 56" enable-background="new 0 0 64 56" xml:space="preserve">
<g>
	<path fill="#FFFFFF" d="M49.813,17.805h-3.75c-0.971,0-1.758,0.787-1.758,1.758s0.787,1.758,1.758,1.758h3.75
		c0.971,0,1.758-0.787,1.758-1.758S50.783,17.805,49.813,17.805z"/>
	<path fill="#FFFFFF" d="M52.625,12.883H43.25c-0.971,0-1.758-0.787-1.758-1.758s0.787-1.758,1.758-1.758h9.375
		c0.971,0,1.758,0.787,1.758,1.758S53.596,12.883,52.625,12.883z"/>
	<path fill="#FFFFFF" d="M57.195,28.798C59.885,28.561,62,26.297,62,23.547V7.141c0-2.908-2.365-5.273-5.273-5.273H39.266
		c-2.908,0-5.273,2.366-5.273,5.273v6.914H12.078c-2.908,0-5.273,2.366-5.273,5.273v21.094c0,0.616,0.107,1.207,0.302,1.758H5.164
		C3.419,42.18,2,43.6,2,45.344c0,4.846,3.943,8.789,8.789,8.789h42.422c4.846,0,8.789-3.943,8.789-8.789
		c0-1.744-1.42-3.164-3.164-3.164h-1.943c0.195-0.551,0.303-1.142,0.303-1.758V28.798z M37.508,7.141
		c0-0.969,0.789-1.758,1.758-1.758h17.461c0.969,0,1.758,0.789,1.758,1.758v16.406c0,0.969-0.789,1.758-1.758,1.758H40.438
		c-0.33,0-0.652,0.093-0.932,0.267l-3.545,2.215l1.473-4.907c0.024-0.081,0.043-0.163,0.055-0.247
		c0.014-0.085,0.02-0.172,0.02-0.258V7.141z M53.211,50.617H10.789c-2.79,0-5.08-2.178-5.262-4.922h52.945
		C58.291,48.439,56,50.617,53.211,50.617z M18.758,28.938c0-1.099,0.894-1.992,1.992-1.992s1.992,0.894,1.992,1.992
		s-0.894,1.992-1.992,1.992S18.758,30.036,18.758,28.938z M17.82,36.438c0-1.062,1.369-1.992,2.93-1.992
		c0.837,0,1.643,0.261,2.212,0.716c0.268,0.214,0.717,0.665,0.717,1.276v5.742H17.82V36.438z M27.195,42.18v-5.742
		c0-1.52-0.742-2.985-2.037-4.021c-0.029-0.023-0.06-0.045-0.089-0.068c0.743-0.939,1.188-2.124,1.188-3.411
		c0-3.037-2.471-5.508-5.508-5.508s-5.508,2.471-5.508,5.508c0,1.289,0.446,2.475,1.19,3.414c-1.306,1.009-2.128,2.467-2.128,4.086
		v5.742h-2.227c-0.969,0-1.758-0.789-1.758-1.758V19.328c0-0.969,0.789-1.758,1.758-1.758h21.914v4.547l-1.398,4.66
		c-0.424,1.415,0.061,2.909,1.234,3.805c0.633,0.482,1.381,0.727,2.131,0.727c0.643,0,1.287-0.179,1.865-0.541l3.117-1.948H53.68
		v11.602c0,0.969-0.789,1.758-1.758,1.758H27.195z"/>
</g>
</svg>
