<?xml version="1.0" encoding="utf-8"?>
<!-- Generator: Adobe Illustrator 16.0.0, SVG Export Plug-In . SVG Version: 6.00 Build 0)  -->
<!DOCTYPE svg PUBLIC "-//W3C//DTD SVG 1.1//EN" "http://www.w3.org/Graphics/SVG/1.1/DTD/svg11.dtd">
<svg version="1.1" id="Layer_1" xmlns="http://www.w3.org/2000/svg" xmlns:xlink="http://www.w3.org/1999/xlink" x="0px" y="0px"
	 width="64px" height="64px" viewBox="0 0 64 64" enable-background="new 0 0 64 64" xml:space="preserve">
<g>
	<path fill="#FFFFFF" d="M58.62,25.054h-1.758V3.758C56.862,2.787,56.075,2,55.104,2H13.352c-3.246,0-5.887,2.641-5.887,5.887v2.004
		H5.38c-0.971,0-1.758,0.787-1.758,1.758s0.787,1.758,1.758,1.758h2.084v6.66H5.394c-0.971,0-1.758,0.787-1.758,1.758
		s0.787,1.758,1.758,1.758h2.071v6.66H5.38c-0.971,0-1.758,0.787-1.758,1.758s0.787,1.758,1.758,1.758h2.084v6.66H5.394
		c-0.971,0-1.758,0.787-1.758,1.758s0.787,1.758,1.758,1.758h2.071v6.66H5.38c-0.971,0-1.758,0.787-1.758,1.758
		c0,0.972,0.787,1.758,1.758,1.758h2.084v2.005c0,3.246,2.641,5.887,5.887,5.887h41.753c0.971,0,1.758-0.787,1.758-1.758V38.946
		h1.758c0.971,0,1.758-0.787,1.758-1.758V26.812C60.378,25.841,59.591,25.054,58.62,25.054z M10.98,56.113v-2.005h2.057
		c0.971,0,1.758-0.787,1.758-1.758s-0.787-1.758-1.758-1.758H10.98v-6.66h2.071c0.971,0,1.758-0.787,1.758-1.758
		s-0.787-1.758-1.758-1.758H10.98v-6.66h2.057c0.971,0,1.758-0.787,1.758-1.758s-0.787-1.758-1.758-1.758H10.98v-6.66h2.071
		c0.971,0,1.758-0.787,1.758-1.758s-0.787-1.758-1.758-1.758H10.98v-6.66h2.057c0.971,0,1.758-0.787,1.758-1.758
		c0-0.971-0.787-1.758-1.758-1.758H10.98V7.887c0-1.308,1.064-2.372,2.372-2.372h3.488v52.969h-3.488
		C12.044,58.484,10.98,57.42,10.98,56.113z M53.347,58.484H20.355V5.516h32.992v19.538h-3.431c-3.83,0-6.946,3.116-6.946,6.946
		s3.117,6.946,6.946,6.946h3.431V58.484z M56.862,35.43h-6.946c-1.892,0-3.431-1.539-3.431-3.43s1.539-3.43,3.431-3.43h6.946V35.43z
		"/>
</g>
</svg>
