<?xml version="1.0" encoding="utf-8"?>
<!-- Generator: Adobe Illustrator 16.0.0, SVG Export Plug-In . SVG Version: 6.00 Build 0)  -->
<!DOCTYPE svg PUBLIC "-//W3C//DTD SVG 1.1//EN" "http://www.w3.org/Graphics/SVG/1.1/DTD/svg11.dtd">
<svg version="1.1" id="Layer_1" xmlns="http://www.w3.org/2000/svg" xmlns:xlink="http://www.w3.org/1999/xlink" x="0px" y="0px"
	 width="64px" height="64px" viewBox="0 0 64 64" enable-background="new 0 0 64 64" xml:space="preserve">
<g>
	<path fill="#FFFFFF" d="M37.447,2c-0.982,0-1.779,0.796-1.779,1.779v7.826c0,0.982,0.797,1.779,1.779,1.779
		s1.778-0.796,1.778-1.779V3.779C39.226,2.796,38.43,2,37.447,2z"/>
	<path fill="#FFFFFF" d="M55.002,47.154c-0.809-1.131-1.249-2.488-1.249-3.892c0-1.65,0.606-3.237,1.708-4.467
		c0.467-0.522,0.584-1.271,0.298-1.912c-0.286-0.64-0.922-1.053-1.624-1.053h-8.076c2.045-2.108,3.307-4.98,3.307-8.142v-10.31
		c0-0.982-0.796-1.779-1.778-1.779H22.445c-0.982,0-1.778,0.796-1.778,1.779v1.104h-0.531c-3.891,0-7.056,3.165-7.056,7.055
		s3.165,7.055,7.056,7.055h1.609c0.558,1.204,1.315,2.297,2.228,3.238H9.484c-4.098,0-7.432,3.334-7.432,7.432
		c0,3.934,3.073,7.162,6.944,7.414c0.809,1.132,1.249,2.488,1.249,3.893c0,1.65-0.606,3.236-1.707,4.467
		c-0.468,0.522-0.585,1.271-0.299,1.912C8.527,61.588,9.163,62,9.864,62h44.65c4.099,0,7.433-3.334,7.433-7.432
		C61.947,50.635,58.873,47.406,55.002,47.154z M20.136,29.036c-1.929,0-3.498-1.569-3.498-3.498s1.569-3.498,3.498-3.498h0.531
		v5.649c0,0.456,0.027,0.905,0.078,1.347H20.136z M24.224,19.158h21.584v8.531c0,4.49-3.653,8.142-8.143,8.142h-5.3
		c-4.49,0-8.142-3.652-8.142-8.142V19.158z M9.484,47.137c-2.136,0-3.875-1.738-3.875-3.875s1.738-3.874,3.875-3.874h41.471
		c-0.498,1.219-0.76,2.533-0.76,3.874s0.262,2.656,0.76,3.875H9.484z M54.515,58.443h-41.47c0.498-1.22,0.759-2.533,0.759-3.875
		s-0.262-2.655-0.759-3.875h41.47c2.137,0,3.874,1.738,3.874,3.875S56.651,58.443,54.515,58.443z"/>
	<path fill="#FFFFFF" d="M30.807,7.692c0-0.982,0.796-1.779,1.779-1.779c0.981,0,1.777,0.796,1.777,1.779v3.913
		c0,0.982-0.796,1.779-1.777,1.779c-0.983,0-1.779-0.796-1.779-1.779V7.692z"/>
</g>
</svg>
