<svg width="278" height="32" viewBox="0 0 278 32" fill="none" xmlns="http://www.w3.org/2000/svg">
<path d="M0.577373 18.6085C-0.79758 17.8351 0.986704 17.0596 5.93016 16.2821C13.0413 15.2997 20.3879 14.6294 27.7534 14.2909C37.7218 13.7461 47.6882 13.377 57.6074 13.1853C64.4864 13.3161 71.4932 13.23 78.5339 12.9282C84.178 12.8291 91.4048 12.7737 100.214 12.7619C109.024 12.7502 115.756 12.7682 120.41 12.816C120.42 12.9948 121.591 13.1186 123.921 13.1874C126.2 13.2562 128.545 13.2235 130.896 13.0899C133.975 12.916 137.053 12.8184 140.103 12.798C142.395 12.756 144.653 12.7959 146.839 12.9169C148.603 12.8528 150.356 12.8424 152.073 12.8861C153.79 12.9297 155.542 12.9194 157.306 12.8552C158.394 12.8141 159.474 12.8086 160.53 12.8387C161.761 12.8671 163.02 12.8495 164.283 12.7863C174.268 13.0217 193.053 13.1115 220.639 13.0557C248.226 12.9998 264.174 12.8709 268.484 12.6689C274.123 12.48 276.465 12.7496 275.511 13.4779C276.141 13.5387 276.672 13.6621 277.036 13.8327C277.401 14.0033 277.584 14.2135 277.562 14.437L269.665 15.8325C267.39 16.2752 264.968 16.6073 262.49 16.8166C260.008 17.0261 256.282 17.2733 251.313 17.5582C245.885 17.8103 240.472 17.9206 235.128 17.8882C229.31 17.8629 223.239 17.7848 216.915 17.6541C210.591 17.5233 206.1 17.4433 203.442 17.4139L191.466 17.2254C186.055 17.0578 180.554 17.0134 175.004 17.0925C172.575 17.1829 170.159 17.208 167.78 17.1676C164.289 17.1433 161.38 17.1306 159.053 17.1296C154.058 17.0112 147.819 16.9199 140.336 16.8557C135.976 16.7766 131.565 16.7824 127.125 16.8731C126.46 16.8661 125.297 16.8767 123.636 16.9047C122.097 16.9357 120.585 16.8979 119.143 16.7923C119.136 16.6584 118.385 16.6117 116.892 16.6522C115.399 16.6928 114.326 16.7317 113.674 16.7691C110.341 16.9073 107.016 16.9855 103.715 17.0034C98.7327 17.0645 93.2478 17.0647 87.2601 17.004C64.4783 17.111 41.5433 17.5948 18.5427 18.4536C10.5871 18.8196 5.93947 19.0074 4.59985 19.017C3.10776 19.0114 1.71567 18.87 0.577373 18.6085Z" fill="#00B34F"/>
</svg>
